<?xml version="1.0" encoding="UTF-8"?>
<svg width="256" height="256" viewBox="0 0 256 256" fill="none" xmlns="http://www.w3.org/2000/svg">
<path d="M128 0C198.692 0 256 57.308 256 128C256 198.692 198.692 256 128 256C57.308 256 0 198.692 0 128C0 57.308 57.308 0 128 0ZM27.503 128C27.503 183.189 72.811 228.497 128 228.497C183.189 228.497 228.497 183.189 228.497 128C228.497 72.811 183.189 27.503 128 27.503C72.811 27.503 27.503 72.811 27.503 128ZM77.1716 128L128 77.1716L178.828 128L128 178.828L77.1716 128Z" fill="black"/>
</svg> 