<?xml version="1.0" encoding="utf-8"?>
<!-- Generator: Adobe Illustrator 16.0.0, SVG Export Plug-In . SVG Version: 6.00 Build 0)  -->
<!DOCTYPE svg PUBLIC "-//W3C//DTD SVG 1.1//EN" "http://www.w3.org/Graphics/SVG/1.1/DTD/svg11.dtd">
<svg version="1.1" id="Layer_1" xmlns="http://www.w3.org/2000/svg" xmlns:xlink="http://www.w3.org/1999/xlink" x="0px" y="0px"
	 viewBox="0 0 960 560" enable-background="new 0 0 960 560" xml:space="preserve">
<g>
	<path fill="#FFFFFF" d="M716.24,271.318c-2.056-6.302-4.112-12.604-6.168-18.906c-0.358,0.13-0.717,0.26-1.074,0.39
		c2.425,6.154,4.852,12.306,7.277,18.46c4.195,6.023,0.052,11.438-1.598,17.215c2.554-1.111,1.87-6.09,6.037-4.214
		c-0.712-3.171-1.275-6.355-2.19-9.436C718.145,273.548,717.015,272.494,716.24,271.318z M780.822,173.238
		c-0.948,1.378-1.718,2.931-2.871,4.107c-11.949,12.192-23.965,24.322-35.953,36.478c-1.896,1.921-3.748,3.885-5.621,5.83
		c0.764,0.202,1.165,0.037,1.445-0.249c14.023-14.237,28.056-28.467,41.998-42.784C780.544,175.875,780.498,174.381,780.822,173.238
		c4.386,0.282,4.881-4.217,7.652-5.915c-1.125,0.46-1.961,1.271-2.852,2.016C784.04,170.66,782.424,171.94,780.822,173.238z
		 M718.888,250.44c0.427-3.13,5.976-8.932,10.556-10.516c-1.777,2.461-3.178,4.4-4.576,6.339c0.272,0.221,0.545,0.443,0.817,0.664
		c1.266-1.231,2.647-2.366,3.78-3.708c5.953-7.057,11.108-14.646,17.966-21.107c14.821-13.967,28.677-28.954,43.055-43.396
		c14.69-14.757,29.54-29.355,44.299-44.043c1.626-1.618,3.109-3.377,4.659-5.072c-0.586-0.214-0.81-0.162-0.95-0.023
		c-18.641,18.305-37.227,36.667-55.926,54.912c-16.618,16.216-33.368,32.296-50.044,48.454c-4.268,4.134-8.511,8.296-12.684,12.526
		c-1.327,1.345-3.025,2.839-0.891,4.909c7.101,8.102,10.766,18.052,14.903,27.745c1.821,4.267,3.512,8.591,5.423,12.818
		c3.192,7.061,6.538,14.052,9.772,21.092c2.785,6.064,5.448,12.187,8.274,18.23c2.508,5.362,5.279,10.603,7.73,15.989
		c2.722,5.983,5.096,12.126,7.835,18.103c3.508,7.65,7.402,15.128,10.817,22.818c4.944,11.134,9.543,22.421,14.417,33.587
		c2.718,6.227,5.813,12.288,8.525,18.519c4.439,10.199,8.688,20.481,13.055,30.712c0.896,2.101,1.955,4.13,2.938,6.193
		c0.663-0.806,0.775-1.428,0.574-1.923c-1.503-3.7-2.989-7.412-4.63-11.054c-5.76-12.789-11.723-25.488-17.331-38.344
		c-4.57-10.475-8.54-21.212-13.143-31.672c-5.74-13.042-11.817-25.937-17.824-38.86c-4.539-9.769-9.275-19.447-13.776-29.233
		c-4.192-9.113-8.153-18.332-12.284-27.472c-2.045-4.524-4.334-8.938-6.354-13.473c-3.729-8.368-7.009-16.956-11.16-25.104
		C725.016,255.715,721.543,253.288,718.888,250.44z M774.448,313.949c0.165-0.088,0.33-0.176,0.495-0.263
		c-0.434-0.939-0.798-1.919-1.312-2.811c-3.938-6.817-8.295-13.397-10.233-21.225c-0.598-2.413-2.19-4.599-3.444-6.823
		c-2.025-3.59-4.299-7.047-6.194-10.701c-3.426-6.608-6.675-13.308-9.954-19.991c-2.062-4.201-2.71-8.437,0.227-12.544
		c2.19-3.064,4.138-6.397,6.769-9.039c11.807-11.857,23.765-23.566,35.784-35.209c5.092-4.932,10.57-9.463,15.685-14.373
		c4.675-4.485,8.968-9.368,13.656-13.837c6.536-6.233,13.28-12.248,19.942-18.349c1.104-1.011,2.382-1.864,3.338-2.994
		c2.286-2.701,4.387-5.557,6.635-8.29c3.243-3.946,6.551-7.84,9.831-11.756c-1.134,0.092-1.815,0.585-2.403,1.171
		c-10,9.98-19.951,20.009-29.99,29.95c-9.203,9.113-18.527,18.102-27.741,27.203c-7.225,7.137-14.595,14.146-21.482,21.598
		c-11.473,12.412-26.828,21.27-34.091,37.588c-1.796,4.036-4.863,7.5-7.267,11.278c-0.255,0.398-0.128,1.22,0.102,1.715
		c1.354,2.919,2.874,5.763,4.184,8.7c4.527,10.159,8.91,20.384,13.501,30.514c5.91,13.043,12.016,25.996,17.936,39.035
		c1.726,3.801,3.011,7.801,4.673,11.633c1.381,3.184,3.019,6.256,4.541,9.377c0.244-0.107,0.488-0.215,0.731-0.322
		c-2.293-5.532-4.528-11.091-6.908-16.586c-1.1-2.541-2.694-4.878-3.701-7.449c-2.335-5.973-3.827-12.358-6.775-17.994
		c-7.428-14.2-14.026-28.742-19.575-43.752c-1.787-4.834-2.948-9.919-4.122-14.954c-0.579-2.481,0.388-4.713,2.295-6.333
		c1.665,3.055,3.347,5.816,4.723,8.723c5.5,11.618,10.977,23.247,16.323,34.936c5.157,11.276,10.096,22.653,15.223,33.944
		c4.244,9.347,8.666,18.612,12.927,27.951c2.6,5.696,4.89,11.539,7.594,17.185c4.802,10.023,9.968,19.873,14.694,29.931
		c5.192,11.047,10.007,22.269,15.087,33.369c4.36,9.527,8.884,18.979,13.291,28.487c1.772,3.822,3.367,7.727,5.181,11.527
		c0.41,0.858,1.399,1.441,2.122,2.15c0.318-0.28,0.637-0.562,0.954-0.843c-25.799-55.52-51.599-111.039-77.398-166.559
		c0.25-0.139,0.5-0.277,0.749-0.416C772.18,310.318,773.314,312.133,774.448,313.949z M697.07,502.778
		c0.199-0.044,0.398-0.087,0.599-0.13c-0.12-1.932,0.06-3.938-0.407-5.781c-3.606-14.238-7.141-28.5-11.096-42.645
		c-2.986-10.682-6.748-21.146-9.82-31.807c-3.225-11.192-6.104-22.487-9.013-33.769c-2.695-10.454-5.2-20.957-7.852-31.423
		c-1.643-6.481-3.396-12.937-5.113-19.4c-0.671-2.521-1.386-5.029-2.081-7.544c-0.34,0.079-0.682,0.159-1.022,0.238
		c1.013,5.492,1.699,11.069,3.111,16.457c2.264,8.643,5.09,17.135,7.522,25.733c1.763,6.228,3.299,12.518,4.889,18.792
		c2.194,8.659,4.367,17.323,6.501,25.996c1.59,6.464,2.181,13.364,4.878,19.317c3.582,7.906,6.434,15.921,8.509,24.292
		c2.153,8.689,4.409,17.353,6.587,26.036C694.566,492.346,695.803,497.565,697.07,502.778z M615.482,500.513
		c-0.582-2.171-5.925-6.611-7.656-6.949c-2.896-0.565-5.748-1.359-8.621-2.045c-0.897-0.214-1.799-0.421-2.709-0.573
		c-4.358-0.73-7.803,1.912-11.645,3.127c-3.184,1.008-4.829,3.237-6.18,6.121c-3.1,6.611-6.42,13.12-9.718,19.636
		c-0.342,0.678-1.14,1.123-1.678,1.632c0.374,0.803,0.796,1.708,1.17,2.511c1.276-1.504,2.637-3.106,4.133-4.871
		c3.344,1.495,4.436-0.473,5.637-3.381c2.378-5.763,5.063-11.425,8.021-16.913c3.063-5.685,10.06-7.318,15.363-3.932
		c0.688,0.439,1.467,1.188,1.623,1.917c0.471,2.184,0.653,4.429,0.931,6.518c4.638,0.49,4.221-3.255,5.761-5.688
		C611.654,498.524,613.401,499.432,615.482,500.513z M322.58,276.36c0.454-0.112,0.907-0.225,1.36-0.337
		c0.872,3.118,1.745,6.235,2.617,9.354c0.292-0.075,0.583-0.15,0.875-0.228c0-0.705,0.042-1.414-0.008-2.116
		c-0.189-2.649-0.891-5.367-0.518-7.93c0.895-6.149,2.024-12.297,3.616-18.298c0.617-2.327,2.536-4.435,4.22-6.323
		c2.223-2.492,4.728-1.272,7.246,0.176c-0.902-1.874-1.757-3.708-3.159-4.899c-1.402-1.191-3.35-1.738-5.302-2.687
		c-8.778,6.063-14.657,32.922-12.334,43.374C321.691,282.826,322.136,279.593,322.58,276.36z M848.1,467.134
		c-0.55-5.199-68.465-146.155-72.676-151.37C799.72,366.365,823.91,416.749,848.1,467.134z M699.27,346.941
		c-0.295,0.119-0.591,0.237-0.886,0.355c3.349,9.172,6.651,18.36,10.067,27.506c1.651,4.422,3.579,8.739,5.272,13.146
		c3.047,7.938,5.712,16.038,9.08,23.836c5.152,11.92,11.818,23.137,15.556,35.737c2.69,9.071,6.482,17.815,9.8,26.698
		c0.236,0.632,0.612,1.211,0.924,1.813c0.265-1.815-0.104-3.414-0.652-4.949c-2.941-8.218-5.921-16.423-8.903-24.626
		c-2.128-5.855-3.984-11.833-6.494-17.52c-3.653-8.276-7.896-16.291-11.663-24.521c-1.61-3.522-2.545-7.347-3.978-10.958
		c-3.529-8.903-7.243-17.734-10.74-26.652C704.074,360.232,701.722,353.567,699.27,346.941z M583.85,91.745
		c-0.416-6.82-5.257-10.048-9.221-13.771c-4.043-3.797-7.534-8.604-14.331-8.195c0.142-0.343,0.284-0.686,0.427-1.028
		c1.446-0.242,2.894-0.483,5.285-0.883c-6.273-4.001-12.302-4.33-18.527-3.877c2.211,1.239,4.611,1.751,6.946,2.471
		c1.149,0.354,2.39,0.879,3.217,1.7c1.416,1.408,2.329,3.359,3.831,4.637c3.266,2.777,6.881,5.144,10.15,7.917
		C575.715,84.184,579.6,87.891,583.85,91.745z M703.886,476.099c0.394-0.106,0.787-0.213,1.181-0.319
		c-13.551-46.536-27.101-93.073-40.65-139.609c-0.229,0.067-0.457,0.135-0.686,0.203
		C677.116,382.948,690.502,429.522,703.886,476.099z M650.925,143.124c14.886-1.028,25.13,6.493,34.395,16.496
		c-1.146-2.814-2.074-6.113-4.252-7.737c-5.694-4.246-11.933-7.758-17.575-11.323c-0.932,0.23-1.842,0.689-2.72,0.632
		c-3.512-0.225-7.014-0.609-10.499-0.933c-0.091,0.534-0.206,0.767-0.145,0.935C650.387,141.899,650.697,142.584,650.925,143.124z
		 M785.295,362.27c-0.33,0.2-0.661,0.4-0.991,0.6c10.992,21.757,19.07,44.88,30.325,66.512c0.359-0.168,0.717-0.335,1.076-0.503
		C805.568,406.676,795.432,384.473,785.295,362.27z M852.475,107.576c-0.477-0.495-0.954-0.99-1.431-1.485
		c-16.402,16.317-32.804,32.636-49.206,48.954c0.407,0.406,0.814,0.813,1.221,1.219
		C819.531,140.034,836.003,123.805,852.475,107.576z M671.774,278.42c8.907-12.677,22.685-20.577,32.536-32.327
		C692.59,256.01,679.719,264.798,671.774,278.42z M640.354,473.085c-3.063-13.737-4.688-27.858-10.58-40.841
		C633.3,445.857,636.826,459.472,640.354,473.085z M786.316,442.836c-0.272,0.11-0.545,0.22-0.817,0.33
		c4.249,10.975,8.496,21.949,12.743,32.924c0.434-0.17,0.866-0.341,1.3-0.512C795.133,464.664,790.725,453.75,786.316,442.836z
		 M641,514.459c0.146-0.302,0.291-0.603,0.437-0.904c-8.075-4.527-16.15-9.054-24.938-13.98c0.829,2.822,2.013,4.301,4.145,5.098
		c3.384,1.267,6.852,2.373,10.091,3.942C634.271,510.328,637.587,512.492,641,514.459z M327.507,287.994
		c-2.496,7.822-0.313,17.607,4.674,20.255C329.228,301.83,325.691,295.535,327.507,287.994z M757.459,375.939
		c0.255-0.102,0.511-0.203,0.767-0.306c-4.211-10.271-8.422-20.544-12.634-30.815c-0.25,0.099-0.5,0.198-0.751,0.297
		C749.047,355.39,753.252,365.665,757.459,375.939z M341.769,532.615c-0.014-0.177-0.027-0.354-0.041-0.53
		c-11.796,0-23.593,0-35.389,0c0,0.177,0,0.354,0,0.53C318.149,532.615,329.958,532.615,341.769,532.615z M666.031,133.912
		c3.769,3.065,8.132,6.615,12.88,10.477C675.649,138.535,670.698,135.684,666.031,133.912z M811.833,429.8
		c-0.307,0.124-0.613,0.249-0.921,0.373c2.367,5.749,4.734,11.498,7.101,17.247c0.281-0.114,0.562-0.228,0.843-0.341
		C816.515,441.319,814.174,435.56,811.833,429.8z M664.307,426.814c0.214-0.017,0.428-0.033,0.643-0.05
		c-0.606-7.57-1.213-15.141-1.818-22.711c-0.198,0.015-0.396,0.03-0.593,0.046C663.128,411.671,663.717,419.242,664.307,426.814z
		 M604.151,470.971c-0.257,0.038-0.513,0.076-0.77,0.114c1.058,5.484,2.115,10.97,3.174,16.454c0.264-0.047,0.527-0.095,0.79-0.141
		C606.281,481.922,605.216,476.446,604.151,470.971z M677.993,463.615c-3.578,4.444-3.972,8.202-1.298,11.967
		C674.398,471.307,676.199,467.462,677.993,463.615z"/>
	<path d="M267.789,356.238c-1.155-2.637-2.432-5.225-3.442-7.914c-4.466-11.886-6.496-23.627,2.202-34.715
		c4.693-5.982,10.551-10.519,17.238-13.977c2.834-1.467,5.926-2.436,9.17-2.994c-1.601,0.82-3.18,1.688-4.809,2.448
		c-2.313,1.081-3.646,2.278-3.363,5.401c0.195,2.159-1.538,4.494-2.402,6.73c4.388,1.377,20.81-10.781,21.582-16.597
		c5.522,0,11.085,0,16.255,0c0,9.046,0.027,18.083-0.011,27.12c-0.021,4.989,6.477,12.7,11.425,13.443
		c3.175,0.477,6.749-1.812,8.694-6.05c1.115-2.431,1.941-5.076,2.391-7.713c0.972-5.696,0.853-11.694,2.594-17.114
		c2.116-6.588,1.036-12.882,0.795-19.385c-0.132-3.548,0.844-7.288,2.018-10.7c2.219-6.448,2.539-12.74,0.422-19.252
		c-1.292-3.976-2.087-8.111-3.294-12.118c-0.307-1.02-1.395-1.783-2.013-2.736c-0.482-0.743-0.793-1.598-1.324-2.7
		c-0.311,0.129-1.126,0.47-1.199,0.5c0-3.345-0.003-6.797,0.002-10.246c0-0.645-0.104-1.329,0.068-1.929
		c2.807-9.753,4.936-19.782,8.662-29.174c5.038-12.699,10.711-25.218,18.333-36.676c7.084-10.649,14.65-20.994,21.354-31.874
		c7.333-11.903,15.757-22.966,25.502-32.828c7.325-7.413,15.892-13.627,26.905-15.083c2.166-0.287,4.191-1.637,6.287-2.485
		c3.667-1.485,7.505-2.656,10.956-4.535c2.836-1.544,5.571-2.854,9.086-2.047c-0.049-0.434-0.097-0.868-0.145-1.302
		c-1.202-0.204-2.403-0.408-3.568-0.606c-0.079-0.961-0.171-2.063-0.312-3.757c6.736-1.859,13.73-4.048,20.865-5.589
		c1.908-0.413,4.25,1.125,6.378,1.814c0.802,0.259,1.622,0.552,2.332,0.993c5.882,3.653,10.508-1.183,15.598-2.448
		c3.057-0.761,5.584-0.643,8.688,0.069c5.37,1.233,11.044,1.152,16.591,1.608c0.587,0.048,1.182,0.007,1.761,0.007
		c-1.323,5.757-5.527,3.761-9.234,3.066c0.021,0.506,0.04,1.012,0.061,1.518c1.914,0.296,4.109,1.343,5.694,0.753
		c5.26-1.955,9.468-0.471,14.006,2.271c5.968,3.605,10.399,8.608,14.774,13.803c1.635,1.94,3.79,3.503,5.146,5.6
		c1.031,1.594,1.175,3.762,1.791,5.954c0.138-0.131,0.833-0.521,1.121-1.109c1.363-2.793,3.37-3.22,5.768-1.524
		c3.864,2.735,7.537,5.749,11.454,8.402c3.076,2.083,6.346,3.906,9.657,5.593c0.72,0.368,1.984-0.332,2.997-0.54
		c-0.271-1.312-0.09-3.159-0.895-3.841c-3.696-3.134-7.68-5.931-11.531-8.887c-0.458-0.352-0.738-0.937-0.731-2.068
		c0.985,0.354,2.023,0.605,2.945,1.081c6.13,3.16,12.211,6.417,18.365,9.527c1.509,0.762,3.31,1.418,4.219-0.718
		c-8.917-4.411-17.74-8.776-26.548-13.134c1.928-5.606,0.955-8.82-3.748-12.328c-1.989-1.484-4.212-2.683-6.076-4.302
		c-1.816-1.578-3.31-3.527-5.025-5.4c-0.164,0.237-0.083-0.025,0.065-0.07c1.147-0.351,2.307-0.659,3.463-0.98
		c-0.844-0.843-1.585-1.833-2.549-2.505c-6.805-4.75-14.044-6.529-22.016-2.74c2.367-2.349,8.171-4.038,11.211-3.069
		c3.899,1.243,7.786,2.64,11.467,4.409c1.838,0.883,3.332,2.626,4.762,4.182c3.69,4.016,7.636,7.404,13.12,8.97
		c6.858,1.959,12.368,5.987,15.921,12.398c0.656,1.184,1.43,2.704,2.529,3.174c5.101,2.172,7.52,6.899,10.839,10.77
		c0.842,0.983,1.429,2.286,2.444,3.002c5.571,3.928,8.254,10.138,12.253,15.298c1.095,1.412,1.886,3.158,2.417,4.875
		c0.374,1.209,0.072,2.626,0.072,4.445c1.041,0.818,2.604,2.043,4.242,3.33c-0.524,0.621-0.987,1.171-1.967,2.332
		c6.6,1.744,12.786,3.38,18.974,5.015c-0.06,0.323-0.118,0.645-0.177,0.968c-3.812-0.549-7.625-1.099-11.438-1.647
		c-0.331,0.577-0.662,1.153-0.991,1.731c1.177,0.465,2.354,0.93,3.187,1.258c-1.994,2.038-3.526,3.606-5.088,5.203
		c-0.051-0.306-0.153-0.912-0.256-1.517c-0.243-0.099-0.486-0.199-0.73-0.298c-0.479,0.88-1.407,1.814-1.311,2.626
		c0.092,0.772,1.254,1.417,2.244,2.419c-1.294,0.537-2.967,1.232-4.48,1.861c0.73,1.672,1.494,3.42,2.258,5.168
		c-0.271,0.227-0.545,0.453-0.817,0.679c-1.274-0.364-2.55-0.728-4.15-1.184c0.602,4.207-0.514,8.596,3.867,11.56
		c-0.18,0.241-0.36,0.482-0.54,0.724c-1.167,0.052-2.488,0.483-3.472,0.083c-2.725-1.109-2.99,0.541-2.605,2.305
		c0.598,2.733,1.612,5.375,2.541,8.342c-3.562-1.124-6.669-2.104-9.774-3.083c-0.097,0.223-0.195,0.445-0.293,0.667
		c1.697,1.593,3.395,3.186,5.476,5.14c4.292-0.87,5.971-0.047,8.892,4.66c0.474,0.764,1.407,1.243,2.342,1.601
		c-0.633-5.677-0.986-6.173-5.021-6.269c2.326-1.416,3.879-2.361,5.433-3.306c-0.211-0.053-0.421-0.104-0.633-0.157
		c1.855-3.829,3.712-7.658,5.735-11.835c0.537,0.037,1.439,0.098,2.296,0.156c1.567-3.373,3.081-6.627,4.513-9.704
		c1.434,0.432,2.565,0.774,3.697,1.115c0.045-1.523,0.595-3.278,0.027-4.521c-1.133-2.48-2.878-4.68-4.453-7.125
		c3.969,1.226,6.296,4.393,8.703,7.419c1.141,1.434,2.099,3.012,3.134,4.529c1.274,1.867,2.447,3.573,1.812,6.221
		c-0.349,1.449,0.672,3.327,1.337,4.899c2.331,5.525,2.572,11.369,1.008,16.877c-1.578,5.556-1.394,11.079-1.669,16.646
		c-0.177,3.562-0.101,7.14-0.339,10.698c-0.099,1.476-0.687,2.928-1.113,4.372c-0.938,3.174-1.938,6.329-2.867,9.504
		c-0.751,2.571-1.393,5.174-2.153,7.741c-3.194,10.77-6.324,21.559-9.676,32.279c-1.123,3.587-2.689,7.06-4.313,10.46
		c-4.135,8.664-5.048,18.035-6.261,27.347c-0.974,7.475-1.904,14.954-2.834,22.435c-0.061,0.492,0.043,1.006,0.135,2.683
		c3.343-3.634,6.188-6.463,8.732-9.541c6.328-7.654,12.567-15.383,18.719-23.18c1.086-1.375,2.095-3.206,2.154-4.861
		c0.043-1.18-1.564-2.42-2.435-3.633c-0.928,0.851-1.964,1.609-2.746,2.576c-0.571,0.709-0.805,1.688-1.301,2.794
		c-0.599-2.663,1.713-6.902,3.791-7.432c1.798-0.458,4.636,1.874,5.384,4.256c4.59,14.622,9.265,29.218,13.819,43.85
		c5.168,16.604,10.188,33.253,15.382,49.849c1.77,5.655,4.004,11.165,5.779,16.819c1.773,5.648,3.076,11.446,4.876,17.086
		c3.35,10.502,6.946,20.925,10.368,31.404c2.716,8.316,5.325,16.668,7.963,25.011c0.079,0.25-0.069,0.572-0.512,0.971
		c-20.491-56.128-35.04-114.189-55.125-170.43c-0.401,0.072-0.803,0.146-1.204,0.221c0.188,2.172,0.041,4.439,0.623,6.5
		c2.761,9.76,5.602,19.501,8.64,29.178c4.937,15.73,10.162,31.369,15.037,47.117c2.323,7.505,3.91,15.234,6.209,22.746
		c2.93,9.58,6.271,19.033,9.374,28.562c1.267,3.892,2.351,7.842,3.555,11.756c2.437,7.925,4.898,15.844,7.372,23.841
		c-2.354,1.056-3.461,0.175-3.982-1.849c-1.899-7.379-4.365-14.443-7.843-21.35c-2.824-5.61-3.396-12.35-5.001-18.578
		c-0.4-1.554-0.96-3.065-1.404-4.609c-2.011-6.989-4.02-13.978-5.998-20.977c-0.583-2.062-1.072-4.151-1.6-6.229
		c-1.906-7.519-3.596-15.102-5.775-22.54c-2.177-7.433-5.011-14.671-7.259-22.085c-4.575-15.087-8.987-30.225-13.368-45.369
		c-0.625-2.16-0.641-4.49-1.037-6.724c-0.468-2.631-1.781-3.139-3.669-1.205c-2.937,3.008-5.622,6.26-8.465,9.361
		c-5.405,5.896-10.925,11.692-16.242,17.666c-2.858,3.212-4.117,6.926-4.203,11.482c-0.157,8.377-1.168,16.742-1.942,25.101
		c-0.297,3.207-0.879,6.392-1.402,9.573c-1.612,9.789-3.456,19.546-4.846,29.366c-2.205,15.564-11.344,27.737-19.228,40.567
		c-5.483,8.923-10.496,18.146-16.224,26.905c-3.643,5.569-8.262,10.494-12.35,15.779c-8.786,11.354-20.463,19.406-31.836,27.771
		c-1.73,1.271-4.233,1.842-6.439,2.037c-3.292,0.291-5.146,1.886-5.041,5.229c0.021,0.649,0.043,1.299,0.106,1.944
		c0.155,1.611-0.529,3.908,2.156,3.856c2.461-0.046,4.42-1.133,4.428-4.081c0.003-0.853,0.001-1.706,0.68-2.691
		c0.225,1.265,0.448,2.529,0.673,3.793c0.285,1.606,0.363,3.336,2.746,3.212c2.239-0.116,3.32-1.303,3.508-3.443
		c0.057-0.636,0.068-1.277,0.622-2.068c0.18,0.691,0.447,1.375,0.522,2.078c0.161,1.52,0.125,3.534,2.244,3.092
		c1.418-0.296,2.736-1.657,3.801-2.813c0.618-0.671,0.649-1.883,1.021-3.103c1.751,2.024-0.563,6.029,3.037,5.872
		c1.842-0.08,3.585-2.424,5.208-3.624c1.615,4.579,3,5.133,6.821,2.339c1.182,1.024,2.183,2.483,3.49,2.851
		c1.192,0.334,2.718-0.517,4.096-0.845c0.034,0.36,0.067,0.72,0.1,1.079c-23.267,0-46.533,0-69.677,0
		c0.424-0.702,1.488-1.658,1.409-2.508c-0.145-1.57-0.959-3.081-1.494-4.616c-1.688,0.853-3.728,1.39-4.905,2.701
		c-0.532,0.593,0.597,2.742,1.079,4.149c0.16,0.469,0.652,0.823,0.992,1.229c-0.865,0-1.731,0-2.597,0
		c-0.276-0.818-0.602-1.624-0.822-2.458c-0.813-3.084-2.529-3.945-4.94-1.896c-3.991,3.396-8.472,4.013-13.486,3.953
		c-18.811-0.221-37.624-0.179-56.436-0.234c-1.898-0.005-3.797,0-5.718-0.754c2.587-0.372,5.174-0.744,7.76-1.116
		c0.073-0.427,0.146-0.854,0.218-1.281c-8.212-2.305-16.424-4.61-24.636-6.915c0.037-0.146,0.073-0.294,0.109-0.441
		c2.057,0.205,4.116,0.571,6.169,0.543c0.917-0.014,1.821-0.822,2.731-1.27c-0.584-0.782-1.009-1.82-1.779-2.306
		c-5.627-3.541-11.488-6.732-16.944-10.514c-4.322-2.996-8.493-6.358-12.168-10.11c-8.08-8.249-15.885-16.775-23.625-25.35
		c-2.354-2.606-4.102-5.754-6.188-8.609c-0.457-0.626-1.172-1.062-1.768-1.585c-0.447,0.769-1.251,1.521-1.286,2.306
		c-0.578,13.165-0.916,26.343-1.622,39.5c-0.37,6.894-1.405,13.749-2.015,20.633c-0.208,2.34-0.033,4.714-0.033,7.198
		c-0.667,0-2.132,0-3.471,0c2.399-4.463,2.5-9.377,2.813-14.105c1.043-15.708,1.752-31.438,2.576-47.16
		c0.26-4.964,0.717-9.934,0.618-14.892c-0.055-2.74-0.591-5.685-1.743-8.149c-4.867-10.41-7.057-21.554-9.096-32.692
		c-1.201-6.562-1.415-13.314-1.906-19.992c-0.427-5.807-0.629-11.632-0.91-17.449c-0.089-1.851-0.945-2.463-2.753-2.001
		c-4.283,1.094-8.534,2.491-12.891,3.062c-4.333,0.566-8.85,0.817-13.162,0.251c-11.571-1.519-22.485-5.209-32.24-11.785
		c-3.214-2.166-6.259-4.628-9.134-7.227c-1.2-1.085-1.756-2.882-2.604-4.354c5.459,7.663,13.341,11.051,23.11,13.149
		c-2.288-6.521-7.12-10.449-9.999-15.574c-2.921-5.198-6.24-10.173-9.65-15.675c-1.17,6.885,1.448,12.411,4.093,18.261
		c-5.856-2.86-5.996-9.772-10.667-13.293C265.643,347.386,266.715,351.812,267.789,356.238z M282.227,320.78
		c-3.221,0.664-4.653,3.769-4.93,5.949c-0.611,4.827-0.652,9.98,0.396,14.708c1.888,8.518,5.751,16.077,14.41,19.935
		c0.475,0.211,0.951,0.589,1.243,1.015c3.748,5.474,9.767,6.323,15.539,7.495c3.006,0.61,6.232,0.245,9.174,1.021
		c2.527,0.666,3.741,0.652,3.438-1.657c1.011-0.272,1.829-0.364,2.525-0.707c1.641-0.809,3.129-2.111,4.847-2.538
		c3.74-0.93,7.394-1.517,6.586-6.837c-0.23-1.52,0.245-3.146,0.396-4.724c-0.289-0.062-0.577-0.125-0.865-0.188
		c-2.306,3.017-7.578,3.458-7.732,8.965c-0.499-1.001-0.998-2.002-1.545-3.101c-1.193,1.843-2.373,3.667-3.579,5.53
		c-1.461-1.539-2.413-2.543-3.474-3.661c-1.051,1.333-1.76,2.232-2,2.535c-2.803-1.224-5.187-2.449-7.696-3.306
		c-2.515-0.856-5.155-1.345-7.74-1.995c-0.14,0.243-0.28,0.486-0.42,0.729c0.998,1.149,1.997,2.298,3.292,3.79
		c-1.711-0.691-3.032-1.339-4.422-1.765c-3.288-1.009-5.561-2.804-6.709-6.294c-1.14-3.462-2.928-6.715-4.476-10.038
		c-1.812-3.892-4.137-7.617-5.384-11.677c-1.303-4.245-2.706-8.743-0.833-13.302c-0.05,1.178-0.332,2.401-0.113,3.527
		c1.637,8.45,5.735,15.758,10.901,22.486c2.217,2.889,4.377,6.128,7.308,8.105c9.577,6.461,22.238,7.757,32.77-1.604
		c3.882-3.45,8.046-6.666,7.56-12.799c-0.192-2.412-0.642-3.748-3.425-3.013c-3.868,1.021-7.237-0.154-10.224-2.653
		c-1.323-1.106-2.61-2.257-3.952-3.34c-3.85-3.109-5.194-7.036-4.679-11.978c0.16-1.532-1.019-4.229-2.215-4.666
		c-2.608-0.955-5.622-0.8-8.469-1.097c-3.202-0.332-6.693,2.27-9.645-1.347c-0.316,1.379-0.546,2.383-0.704,3.073
		c-1.515-0.303-2.815-0.562-4.116-0.822c0.033,1.429-0.087,2.884,0.144,4.28c0.227,1.371,0.681,2.742,1.264,4.007
		c1.079,2.34,0.315,4.091-1.727,5.179c-2.656,1.414-3.891,3.264-2.79,6.378c-2.206-3.449-4.426-6.745-2.45-11
		c1.084-2.336,2.162-4.685,3.037-7.103c0.439-1.214,0.419-2.595,0.608-3.9c-1.382,0.207-3.353-0.086-4.034,0.717
		C285.342,315.414,283.89,318.174,282.227,320.78z M627.46,185.379c-0.197-0.246-0.395-0.491-0.593-0.737
		c-1.895,1.502-3.801,2.991-5.681,4.511c-1.913,1.549-3.246,2.228-5.141-0.562c-2.379-3.505-5.177-7.132-8.648-9.395
		c-4.876-3.177-10.997-3.284-16.682-4.322c-5.273-0.962-10.535-1.993-15.817-2.906c-2.198-0.379-4.727-1.32-6.599-0.632
		c-4.285,1.576-8.431-2.545-12.578,0.15c-0.372,0.242-1.417-0.389-2.063-0.763c-1.599-0.925-3.165-1.911-4.713-2.921
		c-0.977-0.637-2.164-1.179-2.786-2.085c-1.421-2.073-3.325-2.844-5.591-2.305c-2.753,0.656-4.305-0.644-5.379-2.836
		c-2.584,1.253-7.722-0.144-9.811-2.215c-0.844-0.836-2.181-1.397-3.379-1.612c-4.177-0.751-8.403-1.224-12.586-1.95
		c-2.092-0.363-4.113-2.822-6.234,0.014c-0.149,0.201-0.986-0.159-1.506-0.179c-1.6-0.059-3.206-0.189-4.798-0.092
		c-3.334,0.201-6.657,0.572-9.991,0.774c-0.713,0.043-1.462-0.524-2.178-0.484c-1.735,0.096-3.71-0.081-5.143,0.686
		c-3.772,2.017-7.386,3.979-11.787,1.994c-0.331-0.148-0.845-0.006-1.239,0.117c-3.99,1.241-7.969,2.335-11.072,5.568
		c-1.217,1.268-3.427,1.662-5.267,2.133c-0.184,0.047-0.94-2.148-1.434-3.308c-0.447,0.209-1.036,0.486-2.254,1.056
		c1.863-2.684,3.307-4.766,4.75-6.848c-0.262-0.23-0.524-0.459-0.786-0.689c-8.509,1.509-15.36,5.891-21.116,12.666
		c1.49-0.098,2.82-0.186,4.188-0.275c-0.652,4.282-1.711,4.923-5.955,5.775c-3.312,0.664-6.738,1.68-9.613,3.383
		c-4.228,2.505-7.958,5.837-12.004,8.668c-2.285,1.599-5.115,2.542-7.105,4.411c-3.586,3.368-6.937,7.044-10.01,10.89
		c-6.578,8.234-11.946,17.179-14.962,27.396c-1.314,4.455-2.716,8.888-4.221,13.282c-2.727,7.962-5.616,15.868-8.334,23.833
		c-2.574,7.543-4.84,15.195-7.58,22.676c-1.695,4.627-4.364,8.907-5.948,13.562c-1.161,3.414-1.294,7.181-1.839,10.796
		c-0.962,6.383-1.94,12.765-2.814,19.159c-0.788,5.765-0.982,11.655-2.295,17.29c-1.188,5.104-2.381,9.631-1.254,15.27
		c2.167,10.843,2.551,22.045,3.637,33.101c0.571,5.809,0.626,11.706,1.683,17.422c2.081,11.255,4.279,22.512,9.357,32.964
		c1.623,3.341,3.409,6.815,2.065,10.854c-0.332,0.996,4.725,8.145,5.771,8.176c0.982,0.029,2.076-0.338,2.936-0.845
		c0.512-0.303,0.663-1.213,0.977-1.851c0.45,0.309,0.901,0.615,1.352,0.923c-0.351,0.895-0.447,2.138-1.101,2.613
		c-1.822,1.328-1.926,2.098,0.211,3.148c0.98,0.481,1.705,1.518,2.488,2.355c0.717,0.767,1.355,1.605,2.523,3.005
		c-0.363-2.24-0.563-3.479-0.764-4.72c0.398-0.221,0.798-0.44,1.197-0.66c3.542,4.387,7.084,8.772,10.625,13.16
		c1.275,1.58,2.408,3.304,3.85,4.713c2.812,2.75,5.742,5.388,8.726,7.953c2.513,2.16,5.172,4.151,7.929,6.347
		c-0.028,0.412-0.091,1.335-0.152,2.257c0.263,0.051,0.524,0.103,0.785,0.153c0.341-0.664,0.681-1.329,0.698-1.361
		c2.746,1.551,5.229,3.368,8.003,4.42c3.719,1.41,7.798,1.895,11.469,3.395c3.818,1.56,7.337,3.855,11.176,5.932
		c0,0.6,0,1.522,0,2.769c4.229-1.637,7.789-1.229,10.798,2.999c-2.201-0.317-3.952-0.569-5.704-0.823
		c3.944,2.538,7.973,2.789,12.38,1.544c2.525-0.713,5.344-0.43,8.032-0.479c0.371-0.008,0.751,0.654,1.134,1
		c1.613,1.46,3.229,2.917,4.844,4.374c0.305-0.24,0.609-0.48,0.913-0.721c-0.771-1.971-1.542-3.942-2.629-6.716
		c2.944,1.367,5.24,2.435,7.202,3.345c1.279-0.479,2.502-1.145,3.801-1.385c3.325-0.615,4.802-2.177,5.257-5.535
		c0.179-1.327,0.886-2.573,1.213-3.89c0.425-1.713,1.182-3.54,0.906-5.168c-0.223-1.308-5.872-1.959-6.883-1.439
		c-1.153-0.615-1.983-1.057-2.615-1.394c-0.698-1.918-1.427-3.921-2.157-5.925c-0.319,0-0.639-0.002-0.958-0.002
		c-0.137,1.716-0.274,3.431-0.412,5.146c-0.226,0.032-0.452,0.065-0.679,0.098c-1.153-2.216-2.308-4.432-3.461-6.647
		c-0.479-0.956-1.33-1.815-1.697-2.847c-0.437-1.225-0.457-2.597-0.656-3.904c1.065-2.206,1.786-4.582,2.196-7.009
		c0.895-5.299,4.373-7.038,8.835-4.28c1.008,0.622,2.105,1.161,2.96,1.955c1.435,1.329,2.761,1.616,4.675,0.829
		c1.607-0.66,4.22-1.47,5.132-0.709c2.167,1.806,4.135,2.014,6.577,1.309c0.453-0.131,1.336-0.028,1.495,0.259
		c2.583,4.642,8.494,1.509,11.605,4.962c0.232,0.259,1.451-0.135,2.062-0.486c3.768-2.178,7.492-4.429,11.338-6.719
		c2.751,1.631,2.93,2.869,0.537,5.38c-1.014,1.065-2.16,2.013-3.105,3.133c-1.269,1.503-2.4,3.122-4.139,5.414
		c0.173,1.188,0.5,3.438,0.826,5.688c0.246-0.011,0.492-0.021,0.738-0.031c0.281-1.329,0.562-2.658,1.003-4.736
		c0.659,1.573,0.97,2.316,1.281,3.061c0.3,0.027,0.599,0.056,0.897,0.083c0.321-1.968,0.643-3.937,0.965-5.905
		c0.283,0.014,0.565,0.027,0.85,0.04c0.308,1.626,0.615,3.252,0.906,4.787c0.864-0.182,1.67-0.23,2.374-0.522
		c2.936-1.213,6.41-1.858,8.661-3.865c11.92-10.621,21.527-23.232,30.214-36.574c1.116-1.715,2.343-3.4,3.755-4.873
		c8.953-9.34,18.161-18.443,26.902-27.975c5.529-6.029,10.244-12.797,15.608-18.986c3.916-4.52,7.407-9.176,9.8-14.729
		c1.689-3.925,4.11-7.534,6.206-11.285c0.118,0.442,0.013,0.814-0.144,1.163c-1.805,4.031-3.438,8.15-5.475,12.061
		c-2.281,4.377-4.646,8.763-7.489,12.779c-3.267,4.614-7.672,8.483-10.575,13.286c-6.671,11.035-12.73,22.439-19.04,33.693
		c-0.09-0.014-0.18-0.029-0.271-0.043c2.856-6.897,5.714-13.796,8.57-20.693c-0.433-0.226-0.865-0.451-1.298-0.677
		c-3.335,4.025-6.726,8.007-9.987,12.089c-2.616,3.275-4.935,6.795-7.642,9.988c-3.829,4.517-8.184,8.611-11.795,13.287
		c-5.733,7.425-10.682,15.472-16.627,22.709c-5.451,6.635-11.911,12.433-17.673,18.826c-2.879,3.194-5.193,6.896-7.763,10.369
		c0.252,0.313,0.503,0.628,0.754,0.941c1.92-0.394,3.826-1.031,5.761-1.133c4.782-0.252,9.755,0.495,14.316-0.582
		c4.327-1.021,8.584-3.355,12.241-5.987c7.432-5.346,14.824-10.869,21.507-17.1c6.047-5.638,11.39-12.105,16.544-18.602
		c3.449-4.348,6.118-9.333,8.968-14.134c3.075-5.182,5.544-10.772,9.004-15.67c7.09-10.033,14.67-19.819,18.429-31.653
		c2.495-7.857,3.953-16.065,5.535-24.183c1.567-8.038,2.88-16.136,3.99-24.25c1.123-8.193,3.091-16.359,1.48-24.743
		c-0.337-1.751-0.763-3.701-0.336-5.35c2.557-9.87,2.719-20.03,3.887-30.063c1.299-11.16,2.414-22.34,3.654-33.505
		c1.027-9.256,2.003-18.46-0.464-27.704c-1.104-4.14-0.995-8.604-2.099-12.744c-1.675-6.291-1.45-13.103-5.141-18.861
		c-1.411-2.204-3.024-4.458-3.673-6.917c-0.592-2.248-0.886-3.979-3.354-3.465c-1.348-3.596-2.579-6.878-3.811-10.163
		c-1.815-0.215-3.828-0.454-5.842-0.692C622.691,190.732,625.533,188.584,627.46,185.379z M517.753,88.986
		c-0.185,0.331-0.37,0.661-0.556,0.991c0.41,0.591,0.759,1.237,1.238,1.765c2.157,2.371,4.473,4.613,6.453,7.12
		c0.536,0.678,0.108,2.119,0.123,3.21c-0.864-0.381-1.925-0.562-2.556-1.182c-1.983-1.943-3.737-4.12-5.707-6.078
		c-2.104-2.09-4.239-4.18-6.574-5.997c-1.919-1.493-4.149-2.585-6.88-4.244c-0.446,0.468-1.486,1.562-2.684,2.82
		c-1.195-0.147-2.621-0.322-4.145-0.509c0.454-0.972,0.764-1.636,1.09-2.333c-3.076,0-5.848,0-9.67,0
		c1.071,1.883,1.529,3.781,2.446,4.036c1.299,0.362,2.936-0.486,4.883-0.918c1.959,1.631,4.235,3.949,6.899,5.662
		c6.68,4.295,12.527,9.436,17.468,15.648c0.999,1.255,2.103,2.619,3.47,3.358c9.151,4.948,16.781,11.628,23.176,19.781
		c2.918,3.721,6.647,6.309,10.904,8.154c0.204-0.209,0.409-0.42,0.613-0.63c-8.095-9.165-16.189-18.33-24.284-27.496
		c3.33,2.265,6.373,4.868,9.421,7.467c1.223,1.042,2.354,2.25,3.725,3.041c0.694,0.4,1.828,0.04,2.764,0.023
		c-0.024-0.811,0.215-1.766-0.133-2.4c-0.577-1.054-1.593-1.859-2.302-2.856c-0.407-0.571-0.917-1.427-0.746-1.946
		c0.155-0.472,1.143-0.829,1.81-0.931c0.717-0.11,1.495,0.101,2.237,0.23c5.277,0.918,10.576,1.737,15.818,2.825
		c2.811,0.584,5.552,1.556,8.271,2.505c4.031,1.407,8.012,2.959,12.022,4.427c1.763,0.645,3.545,1.232,5.318,1.847
		c0.134-0.307,0.267-0.613,0.399-0.919c-0.479-0.705-0.96-1.408-1.439-2.112c0.111-0.121,0.225-0.241,0.337-0.362
		c4.263,2.398,8.526,4.796,13.206,7.43c-3.444,0-6.52-0.622-9.167,0.176c-2.578,0.777-4.719,3.006-7.05,4.597
		c0.168,0.271,0.335,0.543,0.502,0.815c0.763-0.321,1.522-0.652,2.29-0.96c7.108-2.851,14.36-4.686,21.316-0.024
		c4.597,3.08,9.189,3.637,14.235,1.881c0.944-0.329,1.797-0.923,2.691-1.395c-0.735-0.608-1.171-0.667-1.544-0.542
		c-4.378,1.479-8.891,4.637-12.629-1.137c-0.146-0.226-0.601-0.229-0.868-0.401c-3.526-2.275-6.826-4.75-10.76-6.562
		c-3.931-1.811-7.022-5.578-10.267-8.711c-4.73-4.567-9.192-9.414-13.921-13.983c-2.179-2.105-4.097-4.792-7.575-5.001
		c-1.204-0.072-2.64,0.267-3.573-0.27c-5.381-3.095-10.618-6.439-15.971-9.584c-0.857-0.504-2.219-0.86-3.062-0.539
		c-2.167,0.828-3.546,0.285-5.133-1.333c-5.271-5.373-11.223-9.928-17.773-13.646c-5.234-2.971-10.566-5.771-15.842-8.672
		c-2.701-1.485-7.278,0.087-8.675,2.921c-0.487,0.987-1.29,1.82-1.979,2.765c3.132,2.524,7.788,4.043,10.03,3.145
		c-0.244-0.619-0.487-1.238-0.73-1.857c0.169-0.216,0.338-0.433,0.508-0.648c1.26,0.594,2.52,1.188,3.777,1.783
		c-0.319,0.206-0.639,0.411-0.96,0.618c0.31,0.955,0.337,2.196,0.971,2.818c5.587,5.488,13.044,7.786,19.875,11.05
		c2.354,1.126,4.753,1.904,6.972,3.517c2.828,2.056,5.56,4.27,9.725,4.242c4.405-0.03,8.443,2.168,11.669,5.458
		c1.432,1.461,2.869,2.969,4.524,4.146c4.153,2.956,7.671,6.661,13.07,8.026c3.667,0.928,6.801,3.964,10.173,6.059
		c-0.128,0.231-0.257,0.463-0.386,0.694c-8.784-3.007-17.724-5.101-27.071-4.923c-2.474,0.047-4.991,0.182-7.415-0.192
		c-3.059-0.473-6.08-1.3-9.051-2.196c-5.227-1.577-9.922-3.951-12.389-9.27c-2.261-4.873-5.791-8.776-9.86-12.138
		C521.487,90.012,519.471,89.68,517.753,88.986z M479.166,78.805c0.043-0.283,0.086-0.565,0.13-0.847
		c-0.592-0.127-1.179-0.285-1.777-0.376c-7.768-1.182-15.111,0.927-22.461,2.94c-0.711,0.195-1.407,0.604-1.983,1.071
		c-0.365,0.296-0.65,0.865-0.704,1.341c-0.187,1.656-0.285,3.117-2.266,3.927c-4.158,1.701-8.329,3.457-12.247,5.636
		c-3.61,2.008-7.196,4.262-10.261,7.003c-6.72,6.011-12.822,12.728-19.706,18.529c-5.688,4.791-7.7,11.185-9.827,17.714
		c-0.053,0.16,0.308,0.454,0.53,0.761c0.32-0.289,0.616-0.449,0.755-0.697c3.088-5.489,6.288-10.846,11.336-14.894
		c5.045-4.043,9.92-8.304,14.757-12.597c0.753-0.668,0.959-2,1.284-3.066c0.077-0.252-0.385-0.667-0.599-1.008
		c0.812-0.244,1.61-0.594,2.438-0.688c0.446-0.05,1.108,0.634,1.392,0.478c3.021-1.666,6.973-1.28,9.251-4.771
		c1.095-1.678,3.227-2.859,5.12-3.801c5.164-2.57,10.452-4.893,15.927-7.422c-0.903-0.545-1.526-0.922-2.15-1.299
		c0.049-0.263,0.098-0.526,0.146-0.788c2.447-0.137,4.895-0.274,7.452-0.417c-0.094-3.537-3.246-1.885-5.074-2.629
		c0.645-1.221,1.209-2.289,1.774-3.357c0.117,0.284,0.234,0.567,0.353,0.851c1.583-0.233,3.171-0.441,4.748-0.708
		c2.314-0.392,4.607-0.971,6.937-1.191C475.992,78.35,477.59,78.685,479.166,78.805z M475.275,96.317
		c-0.142,0.434-0.283,0.869-0.423,1.303c1.298,0.613,2.539,1.461,3.905,1.792c2.936,0.712,5.99,0.96,8.887,1.786
		c1.732,0.494,3.666,1.375,4.784,2.694c2.195,2.589,3.298,6.431,5.9,8.284c6.208,4.419,13.023,7.986,19.596,11.893
		c5.97,3.549,11.927,7.122,17.93,10.613c1.116,0.648,2.43,0.959,3.65,1.425c-9.684-12.257-23.864-17.727-36.097-25.915
		c0.154-0.269,0.309-0.537,0.463-0.806c1.663,0,3.325,0,4.787,0c-3.155-1.225-6.466-2.298-9.583-3.777
		c-3.725-1.767-3.908-5.509-4.161-10.14c-3.038,5.198-6.368,4.683-10.404,2.876C481.693,97.083,478.371,96.952,475.275,96.317z
		 M403.108,114.806c0.216,0.398,0.432,0.798,0.647,1.196c1.24-0.473,2.766-0.635,3.672-1.471c4.495-4.142,8.777-8.517,13.23-12.707
		c6.13-5.764,12.771-10.796,20.49-14.341c2.085-0.958,3.857-2.597,5.773-3.923c-0.256-0.477-0.513-0.956-0.769-1.433
		c-6.248,2.425-13.289,3.749-18.552,7.541c-7.309,5.267-13.354,12.315-19.784,18.757
		C405.97,110.275,404.662,112.664,403.108,114.806z M601.646,108.957c0.123,1.899,0.218,3.343,0.322,4.97
		c-3.27-0.687-6.593-1.937-9.818,0.401c5.823,5.104,16.727,8.711,19.442,6.66c-1.209-3.915-4.796-4.569-8.96-5.457
		c3.181-0.713,6.36,0.595,6.151-3.633c-0.018-0.359,0.999-0.979,1.615-1.113c0.884-0.192,1.841-0.049,2.892-0.049
		C611.863,108.294,604.995,107.428,601.646,108.957z M522.499,525.02c0.192-0.054,0.385-0.107,0.577-0.161
		c0.202,1.46,0.183,3.003,0.68,4.354c0.36,0.978,1.282,2.135,2.188,2.397c0.677,0.196,2.397-0.801,2.502-1.452
		c0.469-2.903,0.632-5.876,0.589-8.818c-0.006-0.36-1.949-1.066-2.927-0.962c-2,0.213-4.061,0.619-5.892,1.417
		c-1.513,0.659-3.297,1.734-3.925,3.101c-0.678,1.473-0.581,3.677,0.048,5.204c0.289,0.701,2.978,1.155,3.99,0.617
		c1.083-0.577,1.553-2.421,2.13-3.778C522.692,526.392,522.499,525.664,522.499,525.02z M492.204,129.628
		c-0.304-0.455-0.605-0.909-0.909-1.363c-0.96,0.345-1.92,0.689-2.879,1.034c-2.524,0.909-4.998,2.39-7.581,2.616
		c-6.52,0.571-11.741,3.921-17.103,7.064c-1.678,0.983-3.227,2.189-4.834,3.292c2.992-0.52,5.531-1.859,8.211-2.801
		c7.111-2.5,14.305-4.767,21.41-7.284C489.88,131.707,490.982,130.5,492.204,129.628z M536.996,524.23
		c0.304-0.137,0.606-0.273,0.908-0.409c-0.746-1.394-1.163-3.515-2.308-4.035c-2.627-1.194-5.358,1.192-5.208,4.147
		c0.07,1.396,0.067,2.885,0.574,4.141c0.441,1.096,1.55,1.924,2.362,2.869c1.224-1.052,2.729-1.923,3.569-3.224
		C537.436,526.884,536.996,525.415,536.996,524.23z M323.854,372.116c0.066,0.429,0.132,0.858,0.199,1.288
		c3.897,0.406,7.79,0.937,11.699,1.119c0.815,0.038,2.502-1.438,2.393-1.83c-0.416-1.497-1.418-4.047-2.17-4.036
		C331.675,368.721,327.496,369.733,323.854,372.116z M495.549,66.516c-0.324,0.864-0.348,1.164-0.489,1.237
		c-0.155,0.083-0.605-0.024-0.611-0.078c-0.229-2.378-1.906-2.312-3.562-2.024c-2.347,0.408-4.332,0.532-5.719-2.121
		c-0.32-0.614-2.593-0.21-3.966-0.273c0.015,0.988-0.344,2.576,0.11,2.859c1.815,1.13,3.836,1.993,5.872,2.684
		c1.493,0.506,3.172,0.446,4.69,0.896C494.189,70.383,495.744,70.23,495.549,66.516z M588.521,129.648
		c0.067-0.361,0.135-0.721,0.203-1.083c-7.438-2.815-15.215-3.435-23.004-3.97c-0.055,0.354-0.109,0.708-0.164,1.063
		C573.212,126.988,580.866,128.317,588.521,129.648z M362.915,236.972c2.953-4.985,5.775-9.75,8.597-14.516
		C364.472,226.685,361.239,232.55,362.915,236.972z M435.436,148.938c0.116,0.278,0.23,0.556,0.348,0.834
		c5.081-1.817,10.163-3.636,15.18-5.43c-1.187-1.753-3.25-2.658-5.197-1.605C442.236,144.647,438.869,146.855,435.436,148.938z
		 M567.778,134.807c0.388-0.423,0.774-0.845,1.162-1.268c-2.243-2.51-4.488-5.02-7.173-8.022c-0.765,0.082-2.336,0.249-3.906,0.416
		c-0.069,0.302-0.14,0.604-0.208,0.906C561.028,129.494,564.403,132.15,567.778,134.807z M493.926,124.668
		c-1.076-0.455-1.349-0.683-1.591-0.655c-5.808,0.671-11.621,1.321-17.413,2.122c-0.794,0.11-1.479,1.006-2.216,1.538
		c0.13,0.181,0.261,0.363,0.392,0.544C479.775,127.078,486.454,125.941,493.926,124.668z M481.19,108.146
		c4.656,1.252,8.697,2.34,13.446,3.618C490.078,106.289,486.638,105.344,481.19,108.146z M362.276,194.086
		c-0.577-0.242-1.153-0.484-1.73-0.727c-1.796,4.382-3.593,8.764-5.39,13.147c0.447,0.196,0.896,0.392,1.343,0.588
		C358.425,202.758,360.351,198.422,362.276,194.086z M638.66,142.13c-4.968-1.549-10.755,0.256-11.059,3.245
		C631.424,144.253,635.041,143.192,638.66,142.13z M452.798,151.127c-0.232-0.494-0.465-0.988-0.697-1.483
		c-3.902,1.939-7.806,3.878-11.709,5.816c0.201,0.422,0.401,0.844,0.603,1.266C444.929,154.86,448.863,152.993,452.798,151.127z
		 M466.184,112.549c-0.041,0.452-0.08,0.904-0.12,1.356c5.209,0,10.418,0,15.626,0c0.012-0.167,0.022-0.334,0.033-0.5
		C476.542,113.119,471.362,112.833,466.184,112.549z M473.417,95.029c-0.113-5.055,4.639-2.194,6.792-4.052
		c-1.365-0.43-2.625-1.291-3.311-0.96c-2.42,1.168-4.642,2.743-6.939,4.164c0.163,0.284,0.326,0.566,0.49,0.85
		C471.306,95.029,472.162,95.029,473.417,95.029z M412.64,130.733c5.91-1.133,8.658-3.978,7.576-6.805
		C417.848,126.056,415.322,128.323,412.64,130.733z M515.333,64.012c-0.054,0.355-0.108,0.709-0.162,1.064
		c1.715,0.382,3.417,0.855,5.152,1.063c0.329,0.04,1.118-0.994,1.086-1.493c-0.03-0.457-0.893-1.229-1.373-1.218
		C518.464,63.464,516.9,63.794,515.333,64.012z M459.981,123.65c0.095-0.503,0.19-1.007,0.285-1.51
		c-2.045-0.426-4.09-0.854-6.136-1.28c-0.108,0.569-0.218,1.137-0.327,1.706C455.863,122.927,457.922,123.288,459.981,123.65z
		 M432.227,111.664c2.733-1.357,4.987-2.476,7.807-3.876C435.091,106.888,433.989,107.458,432.227,111.664z M588.615,133.084
		c-5.175,0.39-8.562,2.086-9.944,4.95C581.979,136.388,584.94,134.913,588.615,133.084z M480.687,93.072
		c-0.032,0.382-0.065,0.762-0.098,1.144c2.232,0.351,4.465,0.702,6.697,1.054c0.064-0.53,0.128-1.062,0.193-1.591
		C485.215,93.476,482.95,93.274,480.687,93.072z M671.732,303.635c-0.471-2.357-0.828-4.146-1.26-6.312
		C668.46,299.715,668.767,301.262,671.732,303.635z"/>
	<path d="M597.005,533.292c-2.637-3.048-4.523-7.027-8.774-8.183c-3.357-0.91-6.857-1.294-10.299-1.883
		c-1.547-0.264-3.104-0.458-4.6-0.96c6.267-0.62,12.23,0.712,17.928,3.014c1.625,0.656,2.95,2.405,4.057,3.913
		c1.676,2.286,3.68,3.245,6.415,2.511c2.801-0.752,5.891-1.04,8.311-2.458c4.12-2.416,8.296-1.898,12.492-1.249
		c2.93,0.453,5.805,1.462,8.609,2.483c6.195,2.257,12.552,1.442,18.88,1.236c6.561-0.214,13.126-0.766,19.678-0.636
		c4.91,0.098,9.801,1.043,14.85,1.629c-14.789,0-29.472-0.014-44.152,0.025c-1.264,0.003-2.529,0.362-3.793,0.556
		c-0.216,0-0.433,0-0.649,0c-0.514-0.143-1.025-0.408-1.539-0.41c-11.527-0.047-23.055-0.072-34.582-0.065
		c-0.727,0.001-1.454,0.311-2.181,0.476C597.438,533.292,597.221,533.292,597.005,533.292z"/>
	<path fill="#FFFFFF" d="M597.654,533.292c0.728-0.165,1.454-0.475,2.181-0.476c11.527-0.008,23.055,0.019,34.582,0.065
		c0.514,0.002,1.025,0.268,1.539,0.411C623.189,533.292,610.422,533.292,597.654,533.292z"/>
	<path d="M696.98,533.292c-2.547-0.339-5.095-0.679-7.111-0.946c1.421-0.37,3.361-0.825,5.272-1.383
		c2.213-0.646,2.135,1.047,2.488,2.329C697.413,533.292,697.196,533.292,696.98,533.292z"/>
	<path d="M774.448,313.949c-1.134-1.816-2.269-3.631-3.402-5.447c-0.25,0.139-0.5,0.277-0.749,0.416
		c25.799,55.52,51.6,111.039,77.398,166.559c-0.317,0.281-0.636,0.562-0.954,0.843c-0.723-0.71-1.712-1.291-2.122-2.15
		c-1.814-3.801-3.408-7.705-5.181-11.528c-4.407-9.507-8.931-18.959-13.291-28.487c-5.08-11.1-9.896-22.322-15.088-33.368
		c-4.727-10.057-9.892-19.908-14.693-29.932c-2.705-5.645-4.994-11.486-7.594-17.185c-4.262-9.338-8.683-18.604-12.927-27.951
		c-5.127-11.291-10.065-22.667-15.224-33.944c-5.346-11.688-10.823-23.317-16.323-34.935c-1.376-2.906-3.057-5.667-4.722-8.722
		c-1.908,1.62-2.874,3.852-2.295,6.333c1.174,5.034,2.335,10.12,4.122,14.954c5.549,15.009,12.147,29.552,19.575,43.751
		c2.948,5.636,4.439,12.021,6.775,17.994c1.006,2.572,2.601,4.909,3.701,7.45c2.38,5.495,4.614,11.053,6.908,16.586
		c-0.244,0.107-0.487,0.215-0.731,0.322c-1.523-3.122-3.16-6.193-4.542-9.377c-1.662-3.833-2.946-7.831-4.673-11.633
		c-5.92-13.039-12.025-25.992-17.935-39.036c-4.591-10.13-8.974-20.354-13.502-30.513c-1.31-2.937-2.829-5.78-4.183-8.7
		c-0.23-0.496-0.356-1.316-0.102-1.715c2.402-3.778,5.471-7.243,7.267-11.278c7.262-16.319,22.617-25.176,34.09-37.588
		c6.889-7.451,14.259-14.46,21.482-21.598c9.214-9.103,18.538-18.091,27.741-27.204c10.039-9.941,19.99-19.97,29.991-29.95
		c0.587-0.586,1.269-1.08,2.403-1.171c-3.28,3.916-6.588,7.811-9.831,11.756c-2.248,2.733-4.35,5.589-6.635,8.29
		c-0.956,1.13-2.234,1.983-3.339,2.995c-6.662,6.101-13.405,12.116-19.942,18.349c-4.688,4.47-8.981,9.352-13.655,13.837
		c-5.114,4.91-10.594,9.44-15.686,14.373c-12.02,11.644-23.978,23.353-35.784,35.209c-2.631,2.642-4.577,5.975-6.768,9.039
		c-2.937,4.107-2.288,8.344-0.228,12.544c3.279,6.683,6.528,13.383,9.955,19.99c1.896,3.655,4.169,7.112,6.193,10.702
		c1.255,2.224,2.848,4.41,3.445,6.823c1.938,7.828,6.294,14.407,10.233,21.225c0.515,0.892,0.879,1.871,1.312,2.811
		C774.778,313.774,774.613,313.861,774.448,313.949z"/>
	<path d="M718.878,250.45c2.665,2.838,6.138,5.265,7.835,8.597c4.15,8.148,7.431,16.737,11.159,25.105
		c2.021,4.534,4.309,8.948,6.354,13.472c4.132,9.141,8.093,18.359,12.284,27.473c4.502,9.786,9.237,19.464,13.777,29.233
		c6.006,12.923,12.083,25.818,17.823,38.86c4.604,10.459,8.573,21.197,13.143,31.672c5.608,12.854,11.571,25.554,17.331,38.344
		c1.641,3.642,3.127,7.354,4.631,11.054c0.201,0.494,0.089,1.116-0.575,1.923c-0.983-2.063-2.042-4.094-2.938-6.193
		c-4.367-10.231-8.616-20.513-13.055-30.713c-2.712-6.229-5.808-12.291-8.525-18.518c-4.874-11.166-9.473-22.453-14.416-33.587
		c-3.416-7.69-7.31-15.167-10.818-22.819c-2.739-5.976-5.112-12.118-7.835-18.102c-2.451-5.387-5.222-10.627-7.729-15.989
		c-2.827-6.045-5.49-12.166-8.275-18.23c-3.234-7.041-6.58-14.032-9.772-21.093c-1.91-4.225-3.602-8.551-5.423-12.817
		c-4.138-9.693-7.803-19.642-14.903-27.745L718.878,250.45z"/>
	<path d="M718.948,250.376c-2.135-2.07-0.438-3.563,0.89-4.909c4.173-4.23,8.417-8.392,12.685-12.526
		c16.676-16.157,33.426-32.237,50.044-48.453c18.698-18.246,37.285-36.607,55.926-54.912c0.14-0.138,0.364-0.191,0.949,0.023
		c-1.55,1.694-3.033,3.454-4.659,5.072c-14.758,14.689-29.608,29.287-44.299,44.043c-14.377,14.443-28.232,29.43-43.054,43.396
		c-6.857,6.462-12.013,14.051-17.966,21.107c-1.134,1.343-2.515,2.478-3.781,3.709c-0.271-0.222-0.544-0.444-0.816-0.665
		c1.398-1.938,2.799-3.877,4.575-6.339c-4.579,1.583-10.129,7.386-10.561,10.521C718.878,250.45,718.948,250.376,718.948,250.376z"
		/>
	<path d="M697.07,502.778c-1.268-5.213-2.504-10.433-3.809-15.636c-2.178-8.685-4.433-17.348-6.587-26.037
		c-2.075-8.37-4.928-16.385-8.509-24.291c-2.696-5.954-3.287-12.854-4.878-19.318c-2.134-8.673-4.307-17.337-6.501-25.995
		c-1.59-6.274-3.126-12.565-4.889-18.792c-2.433-8.6-5.259-17.091-7.522-25.733c-1.412-5.388-2.099-10.966-3.111-16.458
		c0.341-0.079,0.683-0.158,1.022-0.237c0.695,2.514,1.41,5.023,2.081,7.544c1.718,6.463,3.471,12.918,5.113,19.4
		c2.651,10.465,5.155,20.969,7.852,31.422c2.909,11.282,5.788,22.576,9.013,33.769c3.072,10.661,6.834,21.125,9.82,31.807
		c3.955,14.145,7.489,28.407,11.096,42.646c0.467,1.843,0.287,3.85,0.407,5.78C697.469,502.691,697.27,502.734,697.07,502.778z"/>
	<path d="M615.482,500.513c-2.081-1.081-3.828-1.988-5.568-2.891c-1.54,2.433-1.123,6.179-5.761,5.688
		c-0.277-2.089-0.46-4.335-0.931-6.518c-0.156-0.729-0.936-1.479-1.623-1.917c-5.304-3.388-12.3-1.753-15.363,3.931
		c-2.957,5.488-5.643,11.151-8.021,16.913c-1.201,2.908-2.292,4.877-5.637,3.382c-1.497,1.764-2.856,3.366-4.133,4.871
		c-0.374-0.803-0.796-1.708-1.171-2.511c0.539-0.508,1.337-0.955,1.678-1.632c3.299-6.517,6.618-13.025,9.718-19.636
		c1.351-2.883,2.996-5.114,6.181-6.122c3.842-1.214,7.286-3.857,11.645-3.127c0.91,0.152,1.812,0.36,2.709,0.574
		c2.874,0.686,5.725,1.479,8.621,2.045C609.558,493.901,614.9,498.342,615.482,500.513z"/>
	<path fill="#FFFFFF" d="M267.789,356.238c-1.073-4.427-2.146-8.853-3.218-13.278c4.67,3.521,4.81,10.433,10.666,13.294
		c-2.645-5.85-5.262-11.376-4.092-18.262c3.41,5.502,6.73,10.478,9.65,15.676c2.879,5.125,7.712,9.054,9.999,15.573
		c-9.769-2.098-17.651-5.486-23.109-13.148L267.789,356.238z"/>
	<path d="M322.58,276.36c-0.444,3.232-0.889,6.466-1.387,10.085c-2.323-10.451,3.556-37.311,12.334-43.374
		c1.952,0.949,3.9,1.496,5.302,2.687c1.402,1.191,2.257,3.025,3.159,4.899c-2.518-1.448-5.022-2.667-7.246-0.176
		c-1.685,1.889-3.603,3.997-4.22,6.323c-1.592,6-2.721,12.149-3.616,18.299c-0.373,2.563,0.33,5.28,0.518,7.929
		c0.05,0.703,0.008,1.412,0.008,2.117c-0.292,0.076-0.583,0.152-0.875,0.227c-0.873-3.117-1.745-6.235-2.617-9.353
		C323.487,276.136,323.034,276.248,322.58,276.36z"/>
	<path d="M848.1,467.134c-24.19-50.385-48.381-100.769-72.676-151.37C779.635,320.978,847.551,461.935,848.1,467.134z"/>
	<path d="M699.27,346.941c2.452,6.626,4.805,13.292,7.383,19.868c3.496,8.917,7.211,17.748,10.74,26.652
		c1.433,3.611,2.367,7.436,3.978,10.957c3.767,8.229,8.01,16.244,11.662,24.521c2.511,5.688,4.366,11.664,6.495,17.519
		c2.982,8.204,5.962,16.408,8.902,24.627c0.55,1.534,0.918,3.134,0.653,4.949c-0.311-0.604-0.688-1.182-0.924-1.813
		c-3.317-8.884-7.109-17.627-9.8-26.699c-3.737-12.6-10.403-23.816-15.556-35.737c-3.368-7.798-6.033-15.896-9.081-23.835
		c-1.692-4.407-3.62-8.726-5.271-13.146c-3.416-9.146-6.719-18.335-10.067-27.506C698.679,347.179,698.975,347.06,699.27,346.941z"
		/>
	<path d="M583.85,91.745c-4.25-3.855-8.135-7.562-12.223-11.028c-3.27-2.773-6.885-5.141-10.15-7.917
		c-1.502-1.278-2.415-3.229-3.831-4.637c-0.827-0.822-2.068-1.347-3.217-1.7c-2.336-0.72-4.735-1.232-6.946-2.471
		c6.226-0.452,12.254-0.123,18.527,3.877c-2.392,0.399-3.838,0.641-5.285,0.883c-0.144,0.343-0.285,0.686-0.427,1.028
		c6.797-0.41,10.289,4.398,14.331,8.195C578.594,81.698,583.435,84.925,583.85,91.745z"/>
	<path d="M703.886,476.099c-13.384-46.576-26.77-93.151-40.155-139.727c0.229-0.067,0.457-0.135,0.686-0.202
		c13.55,46.536,27.1,93.073,40.65,139.608C704.673,475.886,704.28,475.992,703.886,476.099z"/>
	<path d="M650.925,143.124c-0.228-0.54-0.538-1.225-0.796-1.929c-0.062-0.168,0.054-0.401,0.145-0.935
		c3.485,0.323,6.987,0.708,10.499,0.933c0.878,0.056,1.788-0.401,2.72-0.632c5.643,3.565,11.882,7.078,17.575,11.323
		c2.178,1.623,3.106,4.922,4.252,7.737C676.055,149.616,665.811,142.096,650.925,143.124z"/>
	<path d="M785.295,362.27c10.137,22.203,20.273,44.406,30.41,66.608c-0.359,0.168-0.717,0.336-1.076,0.503
		c-11.255-21.632-19.333-44.756-30.325-66.512C784.634,362.67,784.965,362.47,785.295,362.27z"/>
	<path d="M780.812,173.236c-0.312,1.145-0.268,2.639-0.991,3.383c-13.942,14.316-27.975,28.547-41.998,42.784
		c-0.28,0.284-0.682,0.45-1.445,0.249c1.873-1.944,3.726-3.909,5.621-5.83c11.988-12.156,24.004-24.285,35.953-36.478
		c1.153-1.176,1.923-2.729,2.871-4.107L780.812,173.236z"/>
	<path d="M852.475,107.576c-16.472,16.229-32.943,32.458-49.416,48.688c-0.406-0.406-0.813-0.812-1.221-1.219
		c16.401-16.317,32.804-32.636,49.206-48.954C851.521,106.586,851.997,107.081,852.475,107.576z"/>
	<path d="M671.774,278.42c7.943-13.622,20.815-22.411,32.536-32.327C694.459,257.843,680.682,265.743,671.774,278.42z"/>
	<path d="M640.354,473.085c-3.527-13.613-7.054-27.228-10.58-40.841C635.665,445.227,637.29,459.348,640.354,473.085z"/>
	<path d="M786.316,442.836c4.408,10.915,8.816,21.828,13.226,32.743c-0.434,0.17-0.866,0.341-1.3,0.511
		c-4.247-10.975-8.494-21.949-12.743-32.924C785.771,443.056,786.044,442.946,786.316,442.836z"/>
	<path d="M641,514.459c-3.413-1.967-6.729-4.131-10.267-5.845c-3.239-1.569-6.706-2.676-10.091-3.942
		c-2.132-0.797-3.314-2.275-4.144-5.098c8.786,4.927,16.862,9.454,24.938,13.98C641.291,513.856,641.146,514.158,641,514.459z"/>
	<path d="M327.507,287.994c-1.815,7.541,1.721,13.836,4.674,20.255C327.193,305.602,325.011,295.816,327.507,287.994z"/>
	<path d="M757.459,375.939c-4.207-10.274-8.412-20.549-12.618-30.824c0.25-0.099,0.5-0.198,0.751-0.297
		c4.211,10.271,8.422,20.544,12.633,30.815C757.97,375.735,757.714,375.838,757.459,375.939z"/>
	<path d="M716.225,271.339c0.79,1.155,1.92,2.209,2.3,3.487c0.914,3.08,1.478,6.264,2.19,9.436
		c-4.167-1.877-3.484,3.103-6.038,4.214c1.65-5.777,5.794-11.192,1.599-17.215L716.225,271.339z"/>
	<path d="M341.769,532.615c-11.811,0-23.62,0-35.43,0c0-0.177,0-0.354,0-0.53c11.796,0,23.593,0,35.389,0
		C341.742,532.262,341.755,532.438,341.769,532.615z"/>
	<path d="M666.031,133.912c4.667,1.772,9.618,4.623,12.88,10.477C674.163,140.526,669.799,136.977,666.031,133.912z"/>
	<path d="M811.833,429.8c2.34,5.76,4.682,11.52,7.021,17.279c-0.281,0.114-0.561,0.228-0.842,0.341
		c-2.367-5.749-4.733-11.498-7.101-17.247C811.22,430.049,811.526,429.924,811.833,429.8z"/>
	<path d="M664.307,426.814c-0.59-7.572-1.179-15.144-1.769-22.715c0.197-0.016,0.395-0.031,0.593-0.046
		c0.605,7.57,1.212,15.141,1.818,22.711C664.734,426.781,664.521,426.798,664.307,426.814z"/>
	<path d="M716.275,271.261c-2.426-6.154-4.854-12.306-7.278-18.46c0.358-0.129,0.717-0.259,1.074-0.39
		c2.056,6.302,4.112,12.604,6.161,18.917C716.225,271.339,716.275,271.261,716.275,271.261z"/>
	<path d="M604.151,470.971c1.065,5.476,2.13,10.951,3.194,16.428c-0.263,0.047-0.526,0.094-0.79,0.141
		c-1.059-5.484-2.116-10.97-3.174-16.454C603.639,471.047,603.896,471.009,604.151,470.971z"/>
	<path d="M677.993,463.615c-1.795,3.847-3.595,7.692-1.298,11.967C674.021,471.817,674.416,468.06,677.993,463.615z"/>
	<path d="M780.822,173.238c1.602-1.297,3.218-2.578,4.802-3.9c0.891-0.744,1.726-1.556,2.851-2.015
		c-2.771,1.698-3.267,6.196-7.658,5.915C780.812,173.236,780.822,173.238,780.822,173.238z"/>
	<path fill="#FFFFFF" d="M627.46,185.379c-1.927,3.207-4.77,5.354-8.48,7.289c2.014,0.239,4.027,0.477,5.842,0.692
		c1.232,3.286,2.463,6.568,3.812,10.164c2.468-0.514,2.761,1.217,3.354,3.465c0.648,2.46,2.261,4.714,3.672,6.917
		c3.69,5.758,3.466,12.57,5.141,18.861c1.104,4.141,0.994,8.604,2.099,12.744c2.467,9.244,1.491,18.448,0.465,27.704
		c-1.24,11.166-2.355,22.346-3.654,33.506c-1.168,10.033-1.331,20.193-3.888,30.063c-0.426,1.648-0.001,3.599,0.336,5.35
		c1.61,8.384-0.357,16.55-1.479,24.743c-1.111,8.114-2.423,16.212-3.99,24.25c-1.583,8.117-3.041,16.326-5.536,24.183
		c-3.758,11.834-11.339,21.62-18.429,31.653c-3.46,4.897-5.928,10.487-9.003,15.67c-2.85,4.801-5.52,9.786-8.968,14.134
		c-5.155,6.497-10.498,12.964-16.545,18.602c-6.683,6.23-14.074,11.754-21.506,17.1c-3.658,2.632-7.915,4.965-12.241,5.987
		c-4.562,1.076-9.535,0.33-14.316,0.581c-1.935,0.103-3.842,0.74-5.761,1.134c-0.251-0.313-0.503-0.628-0.755-0.941
		c2.569-3.473,4.884-7.175,7.763-10.369c5.763-6.394,12.222-12.191,17.674-18.826c5.944-7.237,10.894-15.284,16.626-22.709
		c3.611-4.676,7.966-8.771,11.795-13.287c2.707-3.193,5.025-6.713,7.642-9.988c3.262-4.082,6.652-8.063,9.987-12.089
		c0.433,0.226,0.865,0.451,1.299,0.676c-2.856,6.898-5.715,13.797-8.571,20.694c0.091,0.014,0.181,0.029,0.271,0.043
		c6.309-11.254,12.368-22.657,19.04-33.693c2.903-4.802,7.308-8.671,10.575-13.286c2.844-4.017,5.208-8.402,7.488-12.779
		c2.036-3.91,3.67-8.029,5.475-12.061c0.156-0.349,0.262-0.721,0.144-1.163c-2.095,3.75-4.516,7.36-6.206,11.285
		c-2.392,5.553-5.883,10.209-9.8,14.729c-5.364,6.189-10.079,12.957-15.608,18.986c-8.741,9.531-17.949,18.635-26.901,27.975
		c-1.412,1.473-2.64,3.158-3.756,4.873c-8.687,13.342-18.294,25.953-30.213,36.574c-2.252,2.007-5.726,2.652-8.661,3.865
		c-0.705,0.291-1.511,0.34-2.375,0.522c-0.29-1.535-0.599-3.161-0.906-4.787c-0.283-0.014-0.566-0.027-0.849-0.04
		c-0.322,1.968-0.644,3.937-0.966,5.905c-0.299-0.028-0.598-0.056-0.896-0.083c-0.312-0.744-0.623-1.487-1.282-3.061
		c-0.439,2.078-0.721,3.407-1.003,4.736c-0.246,0.011-0.492,0.021-0.738,0.031c-0.326-2.25-0.653-4.499-0.825-5.688
		c1.738-2.292,2.87-3.91,4.139-5.415c0.944-1.12,2.091-2.067,3.105-3.132c2.392-2.511,2.213-3.749-0.538-5.38
		c-3.845,2.289-7.569,4.541-11.338,6.718c-0.609,0.353-1.828,0.746-2.062,0.487c-3.111-3.452-9.022-0.319-11.605-4.962
		c-0.158-0.287-1.041-0.391-1.494-0.259c-2.444,0.705-4.41,0.497-6.577-1.309c-0.913-0.762-3.525,0.049-5.132,0.709
		c-1.914,0.787-3.24,0.5-4.675-0.829c-0.855-0.794-1.952-1.333-2.96-1.955c-4.463-2.758-7.94-1.019-8.836,4.28
		c-0.409,2.427-1.131,4.802-2.196,7.009c0.2,1.308,0.221,2.68,0.656,3.904c0.368,1.031,1.219,1.891,1.697,2.847
		c1.154,2.216,2.308,4.432,3.462,6.647c0.226-0.033,0.452-0.066,0.678-0.098c0.138-1.716,0.275-3.431,0.413-5.146
		c0.319,0,0.638,0.002,0.958,0.002c0.729,2.004,1.459,4.007,2.157,5.925c0.632,0.337,1.461,0.778,2.615,1.394
		c1.011-0.52,6.66,0.132,6.882,1.439c0.276,1.628-0.48,3.455-0.906,5.168c-0.326,1.316-1.033,2.562-1.213,3.89
		c-0.454,3.359-1.931,4.92-5.257,5.535c-1.3,0.24-2.521,0.905-3.801,1.385c-1.962-0.91-4.258-1.978-7.201-3.345
		c1.085,2.773,1.856,4.745,2.629,6.716c-0.305,0.24-0.609,0.48-0.913,0.721c-1.615-1.457-3.23-2.914-4.845-4.374
		c-0.382-0.346-0.762-1.008-1.133-1c-2.689,0.049-5.508-0.233-8.033,0.479c-4.407,1.245-8.437,0.994-12.379-1.544
		c1.751,0.253,3.503,0.505,5.704,0.823c-3.009-4.229-6.568-4.637-10.799-2.999c0-1.246,0-2.169,0-2.769
		c-3.839-2.077-7.356-4.371-11.175-5.932c-3.672-1.5-7.751-1.984-11.469-3.395c-2.774-1.052-5.258-2.869-8.004-4.42
		c-0.017,0.032-0.357,0.696-0.697,1.361c-0.262-0.051-0.524-0.103-0.786-0.153c0.062-0.923,0.124-1.845,0.152-2.257
		c-2.757-2.195-5.416-4.187-7.929-6.347c-2.984-2.565-5.914-5.203-8.726-7.953c-1.441-1.409-2.575-3.133-3.85-4.713
		c-3.542-4.388-7.084-8.773-10.625-13.161c-0.399,0.221-0.798,0.44-1.197,0.661c0.201,1.239,0.401,2.479,0.764,4.72
		c-1.167-1.399-1.807-2.238-2.523-3.005c-0.783-0.838-1.508-1.874-2.488-2.355c-2.137-1.05-2.032-1.82-0.211-3.148
		c0.654-0.476,0.75-1.719,1.101-2.613c-0.451-0.308-0.901-0.615-1.352-0.923c-0.313,0.637-0.465,1.548-0.977,1.851
		c-0.859,0.507-1.954,0.874-2.935,0.845c-1.045-0.031-6.103-7.181-5.771-8.176c1.344-4.039-0.442-7.513-2.065-10.855
		c-5.078-10.451-7.277-21.708-9.357-32.963c-1.057-5.716-1.112-11.613-1.683-17.422c-1.086-11.056-1.47-22.258-3.637-33.101
		c-1.126-5.639,0.066-10.165,1.254-15.27c1.312-5.635,1.507-11.525,2.294-17.29c0.874-6.395,1.853-12.776,2.815-19.159
		c0.544-3.615,0.679-7.382,1.839-10.796c1.584-4.655,4.253-8.936,5.948-13.562c2.739-7.48,5.006-15.133,7.58-22.676
		c2.718-7.965,5.607-15.871,8.334-23.833c1.504-4.394,2.906-8.828,4.221-13.282c3.016-10.217,8.384-19.162,14.962-27.396
		c3.073-3.847,6.423-7.522,10.009-10.89c1.991-1.87,4.821-2.812,7.105-4.411c4.047-2.831,7.776-6.163,12.005-8.668
		c2.875-1.704,6.301-2.72,9.612-3.383c4.245-0.852,5.303-1.493,5.956-5.775c-1.367,0.089-2.698,0.177-4.188,0.274
		c5.755-6.774,12.607-11.156,21.115-12.665c0.263,0.229,0.524,0.459,0.787,0.688c-1.444,2.083-2.889,4.164-4.75,6.848
		c1.217-0.571,1.806-0.846,2.253-1.056c0.493,1.16,1.25,3.354,1.434,3.308c1.841-0.471,4.05-0.865,5.268-2.133
		c3.104-3.232,7.081-4.327,11.072-5.568c0.394-0.122,0.908-0.266,1.239-0.117c4.401,1.985,8.016,0.023,11.786-1.994
		c1.433-0.767,3.407-0.589,5.144-0.686c0.716-0.04,1.465,0.527,2.178,0.484c3.333-0.202,6.657-0.573,9.991-0.774
		c1.591-0.096,3.198,0.034,4.797,0.092c0.52,0.02,1.356,0.38,1.506,0.179c2.122-2.836,4.143-0.377,6.235-0.014
		c4.182,0.726,8.408,1.199,12.585,1.95c1.198,0.215,2.536,0.775,3.379,1.612c2.09,2.071,7.228,3.468,9.811,2.215
		c1.075,2.192,2.627,3.492,5.38,2.837c2.265-0.539,4.17,0.232,5.59,2.305c0.622,0.907,1.811,1.448,2.786,2.085
		c1.548,1.01,3.114,1.996,4.714,2.921c0.646,0.374,1.69,1.004,2.062,0.763c4.147-2.696,8.293,1.426,12.578-0.15
		c1.873-0.689,4.4,0.252,6.599,0.632c5.283,0.914,10.545,1.944,15.818,2.906c5.685,1.038,11.806,1.145,16.682,4.322
		c3.472,2.263,6.269,5.889,8.647,9.394c1.895,2.79,3.228,2.111,5.141,0.562c1.881-1.521,3.786-3.009,5.681-4.511
		C627.065,184.888,627.263,185.133,627.46,185.379z M376.854,349.033c-2.306-3.828-4.115-7.712-1.975-12.294
		c0.178-0.384-0.539-1.185-0.84-1.792c-0.518,0.447-1.251,0.794-1.519,1.359c-1.911,4.036-0.176,8.916,4.407,12.654
		c0.543,0.858,1.026,1.766,1.646,2.565c0.979,1.266,2.126,2.405,3.062,3.698c1.921,2.652,3.542,5.549,5.665,8.019
		c2.863,3.334,2.887,4.181-0.146,7.571c-1.48,1.653-2.469,3.748-3.681,5.643c0.294,0.198,0.587,0.394,0.881,0.591
		c1.699-2.069,3.399-4.138,5.246-6.385c2.67,4.241,2.226,8.35-1.095,9.196c0.965,4.694,1.883,9.426,2.935,14.127
		c0.34,1.519,0.812,3.089,1.605,4.405c1.38,2.288,3.297,4.268,4.56,6.608c3.062,5.679,5.99,11.438,8.72,17.283
		c0.716,1.532,1.204,3.807,0.582,5.195c-1.281,2.858-0.687,5.099,1.021,7.523c-1.815-2.791-0.204-4.677,1.383-6.642
		c1.74-2.154,1.869-4.202-0.036-6.574c-1.384-1.724-2.195-3.953-3.023-6.051c-0.291-0.736,0.119-1.756,0.227-2.644
		c0.162-1.33,0.76-2.781,0.419-3.964c-0.649-2.245-1.985-4.281-2.756-6.502c-0.948-2.73-1.166-5.794-2.486-8.301
		c-2.972-5.641-5.057-11.393-6.109-17.763c-0.957-5.793-3.105-11.429-8.01-15.485c-1.591-1.315-2.665-3.243-4.06-4.814
		C381.306,353.82,379.063,351.441,376.854,349.033z M554.813,286.676c-2.152-1.315-2.446-2.967-0.656-4.75
		c1.751-1.742,3.55-3.464,5.497-4.976c6.113-4.747,13.884-5.607,20.724-8.667c10.437-4.669,27.382,4.153,31.068,12.698
		c1.626,3.77,3.074,7.611,4.644,11.403c0.979,2.366,2.035,4.7,3.005,6.934c-0.483-4.099-0.962-8.189-1.454-12.278
		c-0.051-0.427-0.09-0.886-0.273-1.263c-3.523-7.2-6.829-14.607-15.322-17.438c-5.279-1.76-10.703-3.172-15.806-5.342
		c-4.983-2.122-9.491-1.884-14.157,0.573c-0.878,0.461-2.127,0.18-3.191,0.328c-3.205,0.442-6.438,0.761-9.595,1.431
		c-5.607,1.19-7.611,5.824-9.164,10.521c-1.811,5.479,0.005,11.103,2.952,15.118c5.573,7.597,12.191,14.523,19.004,21.078
		c3.924,3.774,9.406,5.243,14.883,6.487c4.275,0.973,7.878,0.962,11.457-1.705c-6.418-1.887-13.438-2.027-17.981-7.972
		c-0.928-1.213-2.453-2.065-3.85-2.807c-6.835-3.624-12.636-8.568-17.968-14.074c-1.524-1.576-2.609-3.576-3.895-5.382
		c3.173-2.345,4.979,0.036,6.604,2.177c0.547-1.58,0.612-3.342,1.525-4.148c7.086-6.273,15.593-8.8,24.861-7.854
		c6.485,0.663,12.201,3.717,16.519,8.725c3.862,4.479,4.054,12.775,0.915,18.108c-0.382,0.647-0.178,1.638-0.245,2.47
		c2.85-1.651,5.076-3.496,6.912-5.672c0.738-0.875,0.772-2.467,0.848-3.748c0.128-2.195,0.036-4.404,0.036-7.25
		c-1.462-1.801-3.516-4.345-5.59-6.871c-0.269-0.328-0.61-0.623-0.976-0.838c-5.786-3.409-11.844-6.128-18.568-7.047
		c-2.325-0.316-4.764-0.983-6.991-0.589c-4.833,0.856-9.746,1.831-14.286,3.621C561.731,279.476,557.508,282.234,554.813,286.676z
		 M452.353,338.093c-2.812-0.715-2.06-2.388-0.739-3.797c-5.139,3.491-10.258,6.723-15.424,9.878c-1.343,0.82-2.985,1.2-4.219,2.138
		c-2.91,2.21-5.614,4.688-8.48,6.958c-3.114,2.468-4.336,6.263-3.269,10.082c0.631,2.261,1.31,4.572,1.444,6.893
		c0.26,4.476-0.442,9.081,0.356,13.431c0.832,4.538,2.96,8.838,4.522,13.242c0.257-0.085,0.514-0.172,0.771-0.257
		c0-1.18,0-2.36,0-3.882c3.563,6.979,6.948,13.605,10.333,20.232c0.302-0.156,0.604-0.313,0.905-0.471
		c-1.526-3.311-2.685-6.861-4.655-9.884c-4.134-6.335-6.245-13.42-8.478-20.491c-0.784-2.483,0.986-5.356,3.38-4.774
		c3.063,0.744,6.628,1.848,8.638,4.029c4.645,5.045,8.477,10.836,12.662,16.306c0.205,0.267,0.651,0.349,0.984,0.518
		c0.27-0.201,0.539-0.401,0.809-0.603c-1.322-2.188-2.446-4.531-4.008-6.533c-3.234-4.144-6.767-8.056-10.015-12.19
		c-0.563-0.718-0.334-2.059-0.471-3.11c1.159,0.024,2.618-0.396,3.433,0.146c6.728,4.481,13.362,9.104,19.965,13.767
		c2.381,1.684,4.503,3.797,7.847,2.69c0.524-0.174,1.278,0.148,1.865,0.388c3.782,1.544,7.534,3.161,11.327,4.673
		c0.921,0.366,1.962,0.431,3.607,0.771c-8.736-6.409-17.717-10.495-27.133-13.806c-2.686-0.943-4.964-3.045-7.429-4.616
		c0.104-0.386,0.208-0.771,0.312-1.156c1.178-0.179,2.36-0.537,3.531-0.501c2.697,0.084,5.389,0.369,8.083,0.554
		c8.716,0.595,17.605,0.293,25.788,4.031c6.38,2.916,12.975,5.607,18.805,9.42c6.951,4.547,14.573,5.287,22.005,4.267
		c7.384-1.014,14.149-0.572,20.849,2.253c1.641,0.692,3.227,1.848,4.434,3.16c1.926,2.094,1.475,4.359-1.141,5.386
		c-2.147,0.844-4.539,1.101-6.842,1.507c-2.527,0.444-5.077,0.761-7.617,1.134c0.055,0.323,0.109,0.645,0.165,0.968
		c6.325,1.185,12.62,2.286,18.11-2.808c1.259-1.17,2.764-2.072,4.078-3.188c2.234-1.896,4.114-1.778,6.637-0.052
		c2.058,1.409,4.88,1.701,7.361,2.487c-0.35-1.861-0.943-2.88-1.677-3.785c-3.443-4.251-8.159-5.279-13.179-3.297
		c-1.229,0.485-3.043,0.319-4.298-0.222c-6.435-2.772-12.752-5.814-19.16-8.646c-1.737-0.768-3.925-1.997-5.435-1.521
		c-4.753,1.5-9.483,0.87-14.254,0.979c-6.08,0.14-11.549-1.057-16.017-5.443c-0.073-0.071-0.192-0.096-0.288-0.145
		c-8.271-4.187-17.117-6.417-26.24-7.655c-7.043-0.956-14.14-1.575-21.143-2.758c-6.127-1.036-10.941-6.611-18.153-5.025
		c1.443-1.919,2.234-3.32-0.438-4.217c-1.876-0.63-3.844-1.307-5.407-2.456c-1.651-1.215-2.872-2.547-4.386,1.027
		c-0.687-2.269-1.112-3.682-1.54-5.096c2.427,1.67,3.19,0.257,3.791-1.381c0.279-0.764,0.104-1.93,0.604-2.339
		c4.516-3.687,8.667-8.452,13.869-10.46c4.216-1.629,7.206-3.944,10.188-6.839c1.502-1.658,3.066-3.263,4.494-4.983
		c2.944-3.55,5.697-7.266,8.766-10.703c1.57-1.76,3.65-3.066,5.5-4.578c-0.216-0.251-0.432-0.501-0.646-0.752
		c-5.089,4.501-10.418,8.769-15.139,13.628C453.541,332.38,453.278,335.559,452.353,338.093z M416.203,226.391
		c0.098,0.092,0.195,0.183,0.293,0.275c3.948-3.125,7.684-6.586,11.911-9.271c3.369-2.142,7.247-4.415,11.06-4.738
		c8.674-0.736,17.446-0.338,26.18-0.319c1.154,0.002,2.592,0.145,3.411,0.815c3.131,2.562,7.101,2.043,10.561,3.253
		c5.332,1.865,10.87,3.46,14.588,8.296c2.423,3.152,4.94,6.248,7.652,9.148c1.122,1.201,2.786,2.277,4.352,2.546
		c0.991,0.17,2.931-1.041,3.243-2.016c0.479-1.497,0.191-3.396-0.239-5c-1.723-6.408-4.291-12.03-9.965-16.425
		c-5.782-4.479-11.643-8.064-18.873-9.177c-1.095-0.169-2.349-0.791-2.919,1.364c-0.524,1.984-3.67,2.154-5.62,0.875
		c-2.521-1.654-4.603-4.257-8.11-3.922c-4.477,0.427-9.05-1.68-13.484,0.521c-0.474,0.235-1.198-0.036-2.107-0.091
		c0.585-0.742,0.958-1.214,1.939-2.457c-2.022,0.607-3.156,0.843-4.206,1.281c-5.968,2.487-12.104,4.663-17.807,7.661
		c-4.066,2.137-7.541,5.4-11.279,8.161c0.201,0.268,0.402,0.536,0.604,0.803c4.338-2.016,6.782-7.321,12.052-7.719
		c0.215,0.264,0.43,0.528,0.644,0.792C425.455,216.162,420.829,221.276,416.203,226.391z M417.716,254.469
		c0.116,0.237,0.234,0.475,0.352,0.712c1.666-0.726,3.31-1.513,5.01-2.148c0.673-0.251,1.481-0.116,2.215-0.24
		c1.387-0.236,2.995-0.168,4.102-0.872c3.545-2.257,7.027-4.652,10.307-7.278c7.246-5.801,15.612-8.442,24.669-7.937
		c11.881,0.664,21.507,5.903,28.201,16.058c3.265,4.953,6.646,9.834,10.11,14.648c2.724,3.782,2.194,5.558-1.479,8.638
		c-6.202,5.199-13.802,6.955-21.132,9.44c-5.968,2.023-12.132,2.62-18.198,0.965c-6.317-1.721-12.505-3.963-18.651-6.239
		c-1.455-0.54-2.616-2.043-3.747-3.259c-3.545-3.809-7.01-7.691-10.507-11.546c0.967,2.329,2.166,4.498,3.723,6.366
		c2.923,3.509,5.573,7.514,9.195,10.117c8.06,5.79,17.825,6.737,27.374,7.799c2.36,0.263,4.928-0.176,7.235-0.854
		c4.756-1.398,9.506-2.926,14.054-4.876c3.513-1.507,7.09-3.297,9.969-5.749c4.595-3.916,8.707-8.414,12.884-12.799
		c3.891-4.084,3.875-6.891-0.191-10.897c-3.67-3.617-7.605-6.965-11.441-10.413c-0.532-0.479-1.375-1.342-1.709-1.196
		c-2.533,1.115-4.559-0.207-6.234-1.551c-1.932-1.55-3.789-2.268-6.216-1.851c-0.917,0.157-1.951,0.026-2.86-0.232
		c-5.503-1.565-10.979-3.228-16.476-4.816c-6.207-1.792-12.562-1.72-18.457,0.555c-5.137,1.982-9.788,5.222-14.753,7.961
		c-2.37-1.612-3.381-1.654-5.718,0.483C425.406,247.059,421.586,250.791,417.716,254.469z M544.509,426.359
		c-0.11-0.38-0.221-0.76-0.332-1.139c-1.83,0.374-3.707,1.208-5.484,1.036c-5.125-0.498-10.215-1.366-15.309-2.156
		c-2.979-0.463-6.025-0.768-8.891-1.64c-8.327-2.535-16.519-5.536-24.887-7.919c-4.023-1.146-8.19-2.735-12.585-0.938
		c-2.051,0.839-2.869,1.975-2.423,4.19c0.774,3.84,4.261,5.365,6.971,6.002c5.258,1.234,9.332,4.637,14.248,6.309
		c1.177,0.4,2.391,0.703,3.604,0.978c2.832,0.64,6.26-0.367,8.411,2.038c2.558,2.859,5.649,3.298,9.042,3.093
		c2.982-0.181,6.094-0.138,8.889-1.018c3.19-1.004,6.126-2.863,9.107-4.472c1.029-0.554,1.866-1.466,2.791-2.214
		c0.001,0.132,0.002,0.263,0.004,0.394C539.946,428.054,542.229,427.207,544.509,426.359z M571.157,250.387
		c1.298,1.153,2.915,3.472,3.813,3.221c2.488-0.695,4.837-0.17,7.138-0.373c4.822-0.424,9.613-2.032,14.243-3.649
		c9.516-3.327,18.308-2.526,26.116,4.078c2.41,2.037,4.251,4.746,6.204,6.977c0.501-1.312,0.94-2.468,1.381-3.624
		c1.069,0.733,2.263,1.337,3.171,2.232c1.009,0.994,1.756,2.253,2.616,3.396c0.244-0.146,0.487-0.291,0.73-0.437
		c-1.517-3.153-3.162-6.254-4.506-9.479c-0.99-2.377-1.766-4.529-5.084-4.06c-0.771,0.108-1.994-0.894-2.549-1.701
		c-2.225-3.238-5.151-4.673-9.072-4.289c-0.733,0.072-1.69-0.265-2.268-0.745c-5.824-4.849-12.549-4.634-19.181-2.855
		c-2.543,0.681-4.223,2.139-4.442-1.526c-1.104,0.951-2.091,1.799-3.076,2.646c-0.104-0.627-0.208-1.254-0.367-2.213
		C581.193,242.016,576.513,245.921,571.157,250.387z M425.361,467.179c0.277-0.083,0.555-0.167,0.833-0.25
		c0.411,0.67,1.115,1.311,1.187,2.015c0.608,6.037,5.632,10.738,5.141,17.116c-0.05,0.642,0.485,1.488,0.994,1.988
		c3.901,3.825,7.676,7.817,11.892,11.267c1.864,1.525,4.661,1.91,7.692,3.062c-0.198-2.438-0.305-3.765-0.445-5.487
		c-1.003,0.844-1.7,1.428-2.47,2.072c-0.819-1.201-1.587-2.327-2.182-3.2c-1.027,0.153-2.013,0.624-2.453,0.315
		c-3.8-2.653-2.84-5.926-1.081-9.362c-0.902,0.752-1.805,1.504-2.707,2.257c-0.24-0.173-0.48-0.344-0.722-0.517
		c0.578-1.267,1.155-2.533,1.638-3.591c-1.613-2.203-3.515-4.324-4.877-6.749c-4.06-7.219-11.252-12.643-12.732-21.539
		c0,1.872,0,3.744,0,5.617c-1.151-3.803-1.685-7.675-2.958-11.286c-1.125-3.188-2.102-6.965-6.68-7.168
		c0.252-0.737,0.421-1.23,0.59-1.727c-1.638,2.889-3.863,5.712-1.647,9.609c0-1.258-0.127-2.141,0.033-2.969
		c0.185-0.955,0.557-1.895,1.016-2.75c0.067-0.126,1.568,0.311,1.56,0.38c-0.125,0.993-0.396,1.967-0.443,2.167
		c0.273,7.264,0.523,13.891,0.772,20.518c0.339-0.011,0.679-0.021,1.019-0.032c0.179-1.272,0.358-2.544,0.614-4.366
		c5.402,5.072,4.206,13,8.688,17.879c0.387-0.139,0.772-0.277,1.159-0.415C427.648,477.082,426.505,472.13,425.361,467.179z
		 M504.857,308.15c-0.087-0.258-0.174-0.517-0.26-0.774c-0.817,0.063-1.672-0.004-2.448,0.208
		c-11.386,3.105-19.146,10.537-24.229,20.877c-0.678,1.379-0.384,4.056,0.565,5.266c3.305,4.215,7.087,8.058,10.723,12.009
		c0.229,0.248,0.765,0.227,1.162,0.307c2.323,0.469,4.104,0.008,5.433-2.278c1.591-2.739,3.464-4.484,7.332-2.914
		c3.086,1.254,6.729,1.469,10.135,1.529c6.304,0.108,6.308-0.079,4.622,5.756c0.927,0.505,1.818,0.993,2.603,1.42
		c0.403-1.459,0.95-2.925,1.196-4.438c0.446-2.741-0.04-5.239-2.759-6.675c-2.379-1.257-4.801-2.442-7.253-3.549
		c-6.399-2.889-12.635-4.034-18.62,1.211c-1.267,1.11-3.535,2.006-5.049,1.672c-1.963-0.432-3.823-1.988-5.389-3.43
		c-2.953-2.721-3.171-5.604-0.961-8.967C487.27,316.845,494.396,310.292,504.857,308.15z M578.402,365.15
		c-1.577,1.169-0.277,2.92,0.478,4.314c2.678,4.945,4.859,10.005,6.057,15.569c1.594,7.395,0.083,13.802-4.545,19.707
		c-2.44,3.116-4.948,6.31-6.658,9.838c-2.503,5.168-4.32,10.668-6.419,16.03c-0.223,0.568-0.363,1.17-0.542,1.756
		c2.81-3.045,5.62-5.975,7.535-9.404c5.425-9.714,10.576-19.583,15.65-29.485c3.03-5.912,1.993-11.863-0.757-17.597
		c-0.883-1.841-2.021-3.579-3.209-5.245c-0.731-1.026-1.676-1.971-2.705-2.696C581.921,366.973,580.378,366.259,578.402,365.15z
		 M542.97,361.653c3.623,0.304,7.095,1.615,9.58,0.573c4.022-1.688,7.399-4.919,10.902-7.396c-3.637-5.482-8.581-8.307-14.568-9.583
		c-4.925-1.05-13.211,3.076-15.014,8.378c5.09-3.855,8.849-1.105,12.787,1.341C545.57,356.937,544.502,358.874,542.97,361.653z
		 M578.152,283.151c-3.874,1.433-5.836,4.885-7.309,8.802c-0.822,2.189-0.373,3.937,1.38,5.506
		c4.013,3.596,8.956,5.033,14.029,6.135c0.738,0.16,1.718-0.199,2.428-0.6c4.836-2.725,5.375-11.734,0.963-15.371
		c0.142,3.608,0.103,3.662-2.6,4.487c-1.926-0.938-3.202-1.562-4.501-2.194c0.77-1.148,1.535-2.292,1.885-2.815
		c-2.036,0.2-4.156,0.407-6.276,0.614C578.152,286.291,578.152,284.867,578.152,283.151z M463.295,260.589
		c-1.346-0.504-2.326-0.977-3.359-1.232c-1.443-0.355-3.171-1.165-4.35-0.699c-4.249,1.677-5.729,8.917-2.086,11.612
		c3.345,2.475,7.412,4.438,11.452,5.382c4.404,1.03,6.502-2.897,8.445-6.193c1.741-2.955-0.279-4.919-1.563-6.968
		c-1.604,1.096-3.004,2.053-4.403,3.009c-0.319-0.305-0.638-0.608-0.957-0.912c0.533-0.818,0.917-1.822,1.64-2.405
		c0.797-0.644,1.906-0.903,2.88-1.33c-0.097-0.232-0.191-0.465-0.288-0.698c-2.508,0.879-5.016,1.757-7.932,2.779
		C463.058,261.653,463.211,260.965,463.295,260.589z M440.881,260.639c-1.198-5.006,1.833-7.199,4.6-9.422
		c11.701-9.399,31.792-4.821,39.913,5.878c3.729,4.913,5.679,11.122,10.842,14.961c0.763,0.568,1.896,0.638,2.858,0.939
		c-0.154-1.021,0.019-2.285-0.523-3.019c-2.288-3.103-4.984-5.914-7.173-9.079c-5.104-7.378-11.674-12.583-20.402-15.043
		c-3.975-1.12-7.835-2.641-11.835-4.011c-1.2,0.567-2.625,1.312-4.105,1.927c-4.537,1.883-9.116,3.666-13.637,5.587
		c-3.149,1.338-6.229,2.839-9.341,4.267c-0.095-0.253-0.19-0.506-0.285-0.759c-0.636,1.153-1.271,2.306-1.716,3.114
		c1.899,0.844,3.827,1.7,5.6,2.488c-0.021-0.397-0.061-1.15-0.101-1.904c0.256-0.085,0.513-0.17,0.77-0.255
		c0.45,0.942,0.717,2.065,1.406,2.776C438.396,259.75,439.49,259.983,440.881,260.639z M554.809,297.982
		c-0.367,0.148-0.736,0.297-1.104,0.445c5.44,13.486,8.182,28.078,16.94,39.648C565.49,325.025,560.148,311.504,554.809,297.982z
		 M373.316,391.65c-1.272,1.978-2.427,4.046-3.848,5.912c-2.047,2.69-2.869,5.363-1.527,8.723c0.387,0.968-0.468,2.584-1.056,3.75
		c-0.701,1.39-1.728,2.614-2.612,3.911c0.149,0.08,0.297,0.159,0.447,0.239c1.968-2.069,3.936-4.14,6.001-6.312
		C365.24,401.612,372.575,397.298,373.316,391.65z M555.682,436.438c1.152-1.651,2.28-3.322,3.467-4.947
		c1.204-1.647,2.388-3.321,3.728-4.854c1.408-1.609,2.997-3.062,4.499-4.59c1.217-1.238,2.418-2.49,3.627-3.736
		c-0.287-0.244-0.574-0.49-0.861-0.734C563.744,422.574,558.847,428.811,555.682,436.438z M374.967,357.284
		c-0.344-0.059-0.688-0.118-1.031-0.178c-0.055,1.032-0.045,2.071-0.178,3.094c-0.299,2.296-0.357,4.688-1.08,6.853
		c-1.294,3.875-3.156,7.559-4.47,11.429c-0.542,1.597-0.277,3.465-0.418,5.875c1.605-5.128,2.596-9.682,4.456-13.846
		C374.168,366.2,375.972,362.072,374.967,357.284z M378.754,402.798c-0.25-0.122,0.018,0.06,0.056,0.02
		c3.171-3.243,5.275-12.502,3.713-15.706C381.3,392.204,380.04,397.45,378.754,402.798z M412.171,248.487
		c-3.769-5.707-4.069-11.487-0.467-17.436C406.734,236.38,406.878,241.166,412.171,248.487z M365.401,306.168
		c-0.315-0.245-0.631-0.49-0.947-0.734c-3.364,4.522-6.727,9.045-10.09,13.567c0.222,0.176,0.444,0.352,0.666,0.527
		C359.306,315.719,361.772,310.486,365.401,306.168z M380.944,423.396c2.496-1.396,0.417-3.756,0.192-5.598
		c-0.262-2.15-1.24-4.214-1.888-6.252c-1.707,1.388-2.431,2.759-0.622,5.179C379.942,418.482,380.179,421.046,380.944,423.396z
		 M412.52,425.873c0.677,2.652,1.354,5.307,2.031,7.96C416.242,430.564,414.274,428.246,412.52,425.873z M461.21,405.915
		c-1.932-2.016-2.059-6.053-5.674-6.221C457.395,401.731,459.302,403.822,461.21,405.915z M380.503,433.046
		c0.188-0.069,0.376-0.14,0.564-0.209c-1.135-2.688-2.271-5.375-3.406-8.062c-0.31,0.126-0.619,0.252-0.929,0.378
		c0.055,0.385,0.014,0.82,0.183,1.146C378.087,428.561,379.302,430.8,380.503,433.046z M470.92,515.919
		c0.42,2.467,0.734,4.303,1.148,6.734C474.668,519.467,472.961,517.971,470.92,515.919z"/>
	<path fill="#FFFFFF" d="M517.753,88.986c1.718,0.694,3.734,1.026,5.097,2.15c4.068,3.362,7.598,7.265,9.859,12.138
		c2.468,5.319,7.163,7.693,12.389,9.27c2.972,0.896,5.992,1.725,9.051,2.196c2.425,0.374,4.941,0.239,7.416,0.192
		c9.348-0.178,18.287,1.917,27.07,4.923c0.129-0.231,0.258-0.463,0.386-0.694c-3.371-2.094-6.506-5.131-10.173-6.059
		c-5.397-1.365-8.916-5.07-13.07-8.026c-1.655-1.177-3.093-2.685-4.524-4.146c-3.225-3.29-7.263-5.487-11.669-5.458
		c-4.164,0.027-6.895-2.187-9.725-4.242c-2.219-1.611-4.616-2.391-6.971-3.517c-6.831-3.264-14.289-5.562-19.875-11.05
		c-0.635-0.623-0.662-1.864-0.971-2.818c0.32-0.206,0.641-0.411,0.96-0.618c-1.258-0.595-2.519-1.189-3.778-1.783
		c-0.169,0.215-0.338,0.432-0.508,0.648c0.244,0.619,0.487,1.238,0.73,1.857c-2.242,0.898-6.898-0.621-10.029-3.145
		c0.688-0.945,1.491-1.778,1.979-2.765c1.396-2.833,5.974-4.406,8.675-2.921c5.275,2.9,10.608,5.701,15.843,8.672
		c6.551,3.718,12.502,8.273,17.772,13.646c1.587,1.618,2.966,2.161,5.133,1.333c0.844-0.322,2.205,0.035,3.062,0.539
		c5.353,3.145,10.59,6.489,15.972,9.584c0.934,0.537,2.369,0.197,3.572,0.27c3.479,0.209,5.397,2.896,7.575,5.001
		c4.729,4.57,9.19,9.416,13.921,13.983c3.243,3.133,6.336,6.899,10.267,8.711c3.935,1.812,7.234,4.287,10.76,6.562
		c0.269,0.173,0.722,0.176,0.868,0.401c3.738,5.774,8.251,2.616,12.629,1.137c0.373-0.125,0.81-0.065,1.544,0.542
		c-0.895,0.473-1.746,1.067-2.691,1.395c-5.046,1.756-9.639,1.199-14.235-1.881c-6.956-4.662-14.208-2.827-21.316,0.024
		c-0.769,0.309-1.527,0.64-2.289,0.96c-0.168-0.272-0.336-0.544-0.502-0.815c2.331-1.591,4.472-3.82,7.049-4.597
		c2.647-0.798,5.723-0.176,9.168-0.176c-4.681-2.634-8.943-5.032-13.207-7.43c-0.111,0.121-0.225,0.241-0.337,0.362
		c0.479,0.704,0.96,1.407,1.439,2.112c-0.133,0.307-0.266,0.613-0.399,0.919c-1.773-0.614-3.557-1.202-5.317-1.847
		c-4.012-1.467-7.991-3.02-12.023-4.427c-2.72-0.949-5.46-1.92-8.27-2.505c-5.243-1.088-10.541-1.907-15.819-2.825
		c-0.742-0.129-1.52-0.34-2.236-0.23c-0.667,0.102-1.654,0.459-1.81,0.931c-0.171,0.519,0.339,1.375,0.745,1.946
		c0.709,0.997,1.725,1.802,2.302,2.856c0.348,0.634,0.108,1.589,0.133,2.4c-0.935,0.016-2.069,0.377-2.764-0.023
		c-1.37-0.791-2.502-1.999-3.724-3.041c-3.048-2.599-6.092-5.202-9.422-7.467c8.096,9.166,16.19,18.331,24.285,27.496
		c-0.205,0.21-0.41,0.42-0.614,0.63c-4.257-1.845-7.986-4.433-10.904-8.154c-6.396-8.152-14.024-14.833-23.175-19.781
		c-1.367-0.739-2.472-2.103-3.47-3.358c-4.94-6.212-10.789-11.353-17.469-15.648c-2.663-1.713-4.94-4.031-6.898-5.662
		c-1.948,0.432-3.585,1.28-4.884,0.918c-0.917-0.255-1.375-2.153-2.446-4.036c3.822,0,6.594,0,9.67,0
		c-0.326,0.698-0.636,1.362-1.089,2.333c1.522,0.188,2.948,0.363,4.145,0.509c1.197-1.259,2.237-2.354,2.683-2.82
		c2.731,1.658,4.962,2.751,6.88,4.244c2.335,1.817,4.471,3.907,6.574,5.997c1.97,1.958,3.724,4.135,5.707,6.078
		c0.631,0.619,1.69,0.801,2.556,1.182c-0.015-1.091,0.413-2.532-0.123-3.21c-1.981-2.507-4.295-4.75-6.453-7.12
		c-0.479-0.527-0.828-1.173-1.238-1.765C517.383,89.646,517.568,89.315,517.753,88.986z"/>
	<path fill="#FFFFFF" d="M282.235,320.76c1.655-2.586,3.107-5.346,5.078-7.665c0.682-0.802,2.652-0.508,4.034-0.716
		c-0.188,1.306-0.167,2.687-0.608,3.9c-0.875,2.418-1.952,4.768-3.037,7.102c-1.976,4.256,0.244,7.551,2.451,11.001
		c-1.101-3.114,0.133-4.965,2.789-6.378c2.042-1.088,2.806-2.839,1.727-5.179c-0.583-1.265-1.038-2.637-1.263-4.007
		c-0.23-1.396-0.11-2.852-0.144-4.28c1.3,0.259,2.601,0.519,4.116,0.821c0.158-0.69,0.389-1.693,0.705-3.073
		c2.952,3.617,6.442,1.016,9.645,1.348c2.848,0.296,5.861,0.143,8.469,1.096c1.197,0.438,2.375,3.134,2.215,4.667
		c-0.515,4.941,0.829,8.868,4.68,11.977c1.341,1.084,2.629,2.233,3.952,3.341c2.988,2.499,6.355,3.675,10.224,2.653
		c2.783-0.736,3.233,0.601,3.425,3.013c0.487,6.133-3.678,9.348-7.56,12.799c-10.531,9.359-23.192,8.063-32.77,1.603
		c-2.931-1.977-5.09-5.217-7.308-8.105c-5.167-6.729-9.264-14.036-10.901-22.485c-0.218-1.126,0.063-2.35,0.114-3.527
		L282.235,320.76z"/>
	<path fill="#FFFFFF" d="M282.268,320.663c-1.874,4.559-0.471,9.058,0.832,13.302c1.246,4.061,3.571,7.786,5.384,11.677
		c1.548,3.324,3.335,6.576,4.476,10.038c1.149,3.491,3.422,5.286,6.709,6.295c1.39,0.426,2.711,1.072,4.422,1.764
		c-1.296-1.492-2.294-2.641-3.292-3.79c0.14-0.242,0.281-0.486,0.421-0.729c2.584,0.649,5.226,1.138,7.74,1.995
		c2.51,0.854,4.893,2.081,7.697,3.306c0.239-0.305,0.948-1.203,2-2.536c1.062,1.119,2.014,2.122,3.475,3.661
		c1.205-1.862,2.385-3.687,3.579-5.53c0.548,1.1,1.046,2.1,1.545,3.102c0.154-5.507,5.425-5.948,7.731-8.965
		c0.288,0.062,0.577,0.124,0.865,0.187c-0.151,1.579-0.626,3.205-0.396,4.725c0.809,5.319-2.846,5.907-6.585,6.836
		c-1.718,0.427-3.207,1.729-4.848,2.538c-0.696,0.342-1.515,0.435-2.525,0.708c0.302,2.31-0.912,2.323-3.438,1.656
		c-2.942-0.775-6.169-0.41-9.174-1.021c-5.772-1.172-11.792-2.021-15.539-7.494c-0.292-0.426-0.768-0.804-1.244-1.015
		c-8.659-3.857-12.522-11.418-14.409-19.936c-1.048-4.728-1.008-9.881-0.396-14.708c0.276-2.181,1.708-5.284,4.935-5.959
		C282.235,320.76,282.268,320.663,282.268,320.663z"/>
	<path fill="#FFFFFF" d="M479.166,78.805c-1.576-0.12-3.174-0.455-4.726-0.307c-2.329,0.221-4.622,0.8-6.937,1.191
		c-1.577,0.267-3.165,0.473-4.748,0.708c-0.118-0.284-0.235-0.567-0.353-0.851c-0.565,1.069-1.13,2.137-1.774,3.357
		c1.828,0.744,4.98-0.907,5.074,2.629c-2.558,0.143-5.005,0.28-7.452,0.417c-0.049,0.262-0.098,0.525-0.146,0.788
		c0.624,0.376,1.248,0.754,2.15,1.299c-5.476,2.529-10.763,4.853-15.927,7.422c-1.894,0.942-4.025,2.123-5.12,3.801
		c-2.277,3.49-6.23,3.105-9.251,4.771c-0.283,0.156-0.945-0.529-1.392-0.478c-0.828,0.095-1.627,0.445-2.438,0.688
		c0.214,0.34,0.677,0.756,0.599,1.008c-0.325,1.066-0.531,2.398-1.284,3.066c-4.836,4.293-9.712,8.553-14.757,12.597
		c-5.048,4.047-8.248,9.404-11.336,14.894c-0.139,0.248-0.435,0.408-0.755,0.697c-0.223-0.307-0.582-0.601-0.53-0.761
		c2.127-6.53,4.14-12.923,9.827-17.714c6.884-5.801,12.986-12.518,19.706-18.529c3.063-2.74,6.65-4.995,10.261-7.003
		c3.918-2.18,8.089-3.936,12.247-5.636c1.981-0.811,2.079-2.271,2.266-3.928c0.055-0.476,0.339-1.044,0.704-1.341
		c0.576-0.466,1.272-0.875,1.983-1.07c7.35-2.014,14.693-4.123,22.461-2.941c0.599,0.091,1.186,0.25,1.777,0.376
		C479.252,78.24,479.209,78.522,479.166,78.805z"/>
	<path fill="#FFFFFF" d="M475.275,96.317c3.096,0.635,6.418,0.767,9.234,2.028c4.036,1.806,7.366,2.322,10.404-2.876
		c0.253,4.631,0.436,8.374,4.16,10.141c3.117,1.479,6.429,2.551,9.584,3.777c-1.462,0-3.125,0-4.788,0
		c-0.153,0.269-0.309,0.537-0.462,0.806c12.232,8.188,26.412,13.657,36.097,25.915c-1.222-0.467-2.534-0.777-3.65-1.425
		c-6.004-3.491-11.961-7.063-17.93-10.612c-6.573-3.907-13.389-7.473-19.596-11.893c-2.603-1.852-3.706-5.694-5.901-8.283
		c-1.118-1.32-3.052-2.201-4.783-2.694c-2.896-0.826-5.952-1.074-8.888-1.787c-1.366-0.331-2.607-1.178-3.905-1.791
		C474.992,97.186,475.134,96.751,475.275,96.317z"/>
	<path fill="#FFFFFF" d="M403.108,114.806c1.555-2.142,2.861-4.531,4.709-6.381c6.43-6.442,12.475-13.49,19.784-18.757
		c5.263-3.792,12.304-5.116,18.552-7.541c0.256,0.477,0.513,0.956,0.769,1.433c-1.916,1.326-3.688,2.965-5.773,3.923
		c-7.72,3.544-14.36,8.576-20.49,14.341c-4.454,4.19-8.735,8.565-13.23,12.707c-0.906,0.835-2.432,0.998-3.672,1.471
		C403.54,115.604,403.323,115.205,403.108,114.806z"/>
	<path fill="#FFFFFF" d="M601.646,108.957c3.349-1.528,10.217-0.663,11.646,1.778c-1.052,0-2.009-0.144-2.893,0.048
		c-0.615,0.135-1.633,0.754-1.614,1.114c0.209,4.228-2.97,2.92-6.152,3.633c4.165,0.888,7.751,1.542,8.961,5.457
		c-2.717,2.052-13.62-1.556-19.442-6.66c3.225-2.338,6.549-1.087,9.818-0.401C601.863,112.3,601.77,110.856,601.646,108.957z"/>
	<path fill="#FFFFFF" d="M522.499,525.02c0,0.645,0.193,1.372-0.039,1.918c-0.577,1.358-1.047,3.202-2.13,3.778
		c-1.013,0.538-3.7,0.084-3.99-0.617c-0.629-1.526-0.726-3.731-0.048-5.204c0.628-1.365,2.412-2.442,3.925-3.101
		c1.831-0.798,3.892-1.204,5.892-1.417c0.978-0.104,2.921,0.603,2.927,0.963c0.042,2.941-0.121,5.914-0.589,8.817
		c-0.104,0.651-1.825,1.648-2.502,1.452c-0.906-0.262-1.828-1.42-2.188-2.396c-0.497-1.352-0.478-2.895-0.68-4.355
		C522.884,524.912,522.691,524.966,522.499,525.02z"/>
	<path fill="#FFFFFF" d="M492.204,129.628c-1.222,0.872-2.325,2.078-3.685,2.56c-7.105,2.517-14.299,4.785-21.41,7.284
		c-2.68,0.942-5.22,2.281-8.211,2.801c1.607-1.104,3.156-2.309,4.834-3.292c5.361-3.144,10.583-6.494,17.103-7.065
		c2.583-0.227,5.057-1.708,7.581-2.616c0.959-0.346,1.92-0.69,2.879-1.035C491.599,128.72,491.901,129.175,492.204,129.628z"/>
	<path fill="#FFFFFF" d="M536.996,524.23c0,1.185,0.439,2.653-0.102,3.489c-0.84,1.301-2.346,2.172-3.569,3.224
		c-0.812-0.945-1.921-1.772-2.362-2.869c-0.506-1.256-0.504-2.745-0.574-4.141c-0.15-2.955,2.582-5.342,5.208-4.147
		c1.145,0.521,1.561,2.641,2.308,4.036C537.603,523.957,537.3,524.094,536.996,524.23z"/>
	<path fill="#FFFFFF" d="M323.854,372.116c3.643-2.383,7.821-3.396,12.12-3.459c0.752-0.012,1.754,2.539,2.17,4.036
		c0.108,0.392-1.579,1.868-2.393,1.83c-3.909-0.182-7.801-0.713-11.699-1.119C323.986,372.975,323.92,372.545,323.854,372.116z"/>
	<path fill="#FFFFFF" d="M495.549,66.516c0.195,3.714-1.359,3.868-3.675,3.181c-1.519-0.45-3.198-0.39-4.69-0.896
		c-2.037-0.691-4.058-1.554-5.872-2.684c-0.455-0.283-0.096-1.871-0.11-2.859c1.373,0.064,3.645-0.34,3.966,0.273
		c1.387,2.652,3.371,2.53,5.718,2.121c1.657-0.288,3.335-0.354,3.563,2.024c0.006,0.055,0.455,0.161,0.61,0.079
		C495.201,67.679,495.225,67.38,495.549,66.516z"/>
	<path fill="#FFFFFF" d="M588.521,129.648c-7.655-1.33-15.31-2.66-22.965-3.99c0.055-0.354,0.109-0.708,0.164-1.063
		c7.789,0.536,15.566,1.154,23.004,3.97C588.656,128.927,588.588,129.287,588.521,129.648z"/>
	<path fill="#FFFFFF" d="M362.915,236.972c-1.676-4.421,1.557-10.287,8.597-14.516C368.69,227.221,365.868,231.987,362.915,236.972z
		"/>
	<path fill="#FFFFFF" d="M435.436,148.938c3.435-2.083,6.802-4.291,10.329-6.2c1.948-1.054,4.011-0.148,5.197,1.605
		c-5.017,1.794-10.098,3.611-15.18,5.43C435.666,149.494,435.552,149.216,435.436,148.938z"/>
	<path fill="#FFFFFF" d="M567.778,134.807c-3.375-2.656-6.75-5.312-10.125-7.968c0.068-0.302,0.139-0.604,0.208-0.906
		c1.57-0.167,3.142-0.334,3.907-0.416c2.684,3.003,4.929,5.512,7.172,8.022C568.554,133.962,568.166,134.384,567.778,134.807z"/>
	<path fill="#FFFFFF" d="M493.926,124.668c-7.471,1.273-14.15,2.41-20.828,3.548c-0.13-0.181-0.261-0.363-0.392-0.544
		c0.736-0.532,1.422-1.428,2.216-1.538c5.792-0.801,11.605-1.451,17.413-2.122C492.577,123.984,492.85,124.213,493.926,124.668z"/>
	<path fill="#FFFFFF" d="M481.19,108.146c5.447-2.803,8.888-1.857,13.446,3.618C489.888,110.486,485.847,109.399,481.19,108.146z"/>
	<path fill="#FFFFFF" d="M362.276,194.086c-1.926,4.336-3.852,8.672-5.777,13.008c-0.447-0.197-0.895-0.392-1.343-0.588
		c1.797-4.383,3.594-8.765,5.391-13.147C361.123,193.602,361.699,193.844,362.276,194.086z"/>
	<path fill="#FFFFFF" d="M638.66,142.13c-3.619,1.062-7.237,2.124-11.059,3.245C627.905,142.385,633.692,140.582,638.66,142.13z"/>
	<path fill="#FFFFFF" d="M452.798,151.127c-3.935,1.867-7.869,3.732-11.804,5.599c-0.201-0.421-0.402-0.844-0.603-1.266
		c3.902-1.938,7.806-3.877,11.709-5.816C452.333,150.139,452.565,150.633,452.798,151.127z"/>
	<path fill="#FFFFFF" d="M466.184,112.549c5.18,0.284,10.359,0.57,15.539,0.855c-0.011,0.167-0.021,0.334-0.033,0.5
		c-5.208,0-10.417,0-15.626,0C466.104,113.453,466.143,113.001,466.184,112.549z"/>
	<path fill="#FFFFFF" d="M473.417,95.029c-1.255,0-2.111,0-2.968,0c-0.163-0.283-0.326-0.566-0.49-0.85
		c2.298-1.42,4.52-2.995,6.939-4.163c0.686-0.331,1.945,0.53,3.311,0.96C478.055,92.835,473.304,89.975,473.417,95.029z"/>
	<path fill="#FFFFFF" d="M412.64,130.733c2.683-2.409,5.207-4.677,7.576-6.805C421.298,126.755,418.55,129.6,412.64,130.733z"/>
	<path fill="#FFFFFF" d="M515.333,64.012c1.567-0.218,3.131-0.548,4.702-0.583c0.48-0.012,1.344,0.761,1.373,1.218
		c0.033,0.5-0.756,1.532-1.086,1.493c-1.734-0.208-3.438-0.681-5.152-1.063C515.225,64.722,515.279,64.367,515.333,64.012z"/>
	<path fill="#FFFFFF" d="M459.981,123.65c-2.06-0.362-4.118-0.723-6.178-1.085c0.108-0.569,0.218-1.137,0.327-1.706
		c2.045,0.427,4.09,0.854,6.136,1.28C460.172,122.643,460.076,123.146,459.981,123.65z"/>
	<path fill="#FFFFFF" d="M432.227,111.664c1.762-4.206,2.864-4.775,7.807-3.876C437.215,109.188,434.96,110.307,432.227,111.664z"/>
	<path fill="#FFFFFF" d="M588.615,133.084c-3.675,1.829-6.636,3.303-9.944,4.95C580.053,135.171,583.44,133.474,588.615,133.084z"/>
	<path fill="#FFFFFF" d="M480.687,93.072c2.265,0.203,4.528,0.404,6.792,0.607c-0.064,0.53-0.129,1.061-0.193,1.591
		c-2.232-0.351-4.465-0.703-6.696-1.054C480.621,93.834,480.654,93.454,480.687,93.072z"/>
	<path fill="#FFFFFF" d="M671.732,303.635c-2.965-2.373-3.272-3.92-1.26-6.312C670.904,299.49,671.262,301.277,671.732,303.635z"/>
	<path d="M452.288,338.01c-2.989,2.887-5.979,5.202-10.195,6.831c-5.201,2.009-9.354,6.775-13.868,10.46
		c-0.501,0.409-0.325,1.576-0.605,2.34c-0.6,1.637-1.363,3.051-3.79,1.381c0.427,1.413,0.854,2.826,1.539,5.095
		c1.515-3.574,2.735-2.242,4.386-1.027c1.563,1.15,3.531,1.826,5.408,2.456c2.672,0.897,1.88,2.298,0.438,4.217
		c7.212-1.585,12.026,3.99,18.153,5.025c7.003,1.183,14.099,1.802,21.142,2.758c9.123,1.239,17.971,3.469,26.24,7.655
		c0.096,0.049,0.216,0.073,0.288,0.146c4.469,4.386,9.938,5.582,16.018,5.442c4.77-0.109,9.501,0.521,14.253-0.979
		c1.511-0.476,3.698,0.753,5.436,1.521c6.408,2.832,12.726,5.875,19.16,8.647c1.255,0.541,3.068,0.707,4.298,0.222
		c5.019-1.982,9.734-0.955,13.179,3.297c0.732,0.905,1.327,1.924,1.677,3.784c-2.482-0.786-5.305-1.078-7.361-2.486
		c-2.522-1.728-4.402-1.845-6.637,0.052c-1.315,1.116-2.819,2.018-4.078,3.188c-5.49,5.095-11.785,3.993-18.111,2.808
		c-0.055-0.322-0.11-0.645-0.165-0.967c2.541-0.373,5.091-0.69,7.618-1.135c2.303-0.406,4.693-0.663,6.842-1.506
		c2.614-1.027,3.066-3.292,1.14-5.386c-1.206-1.312-2.792-2.469-4.433-3.16c-6.699-2.825-13.465-3.268-20.85-2.253
		c-7.432,1.02-15.054,0.279-22.004-4.268c-5.831-3.812-12.425-6.504-18.806-9.42c-8.182-3.738-17.071-3.437-25.787-4.031
		c-2.695-0.184-5.387-0.47-8.083-0.553c-1.171-0.036-2.354,0.322-3.531,0.5c-0.104,0.386-0.208,0.771-0.312,1.156
		c2.465,1.571,4.743,3.673,7.429,4.617c9.415,3.31,18.396,7.396,27.132,13.805c-1.646-0.34-2.686-0.404-3.606-0.771
		c-3.794-1.513-7.546-3.13-11.327-4.673c-0.588-0.24-1.34-0.562-1.865-0.388c-3.345,1.106-5.466-1.008-7.848-2.69
		c-6.602-4.665-13.237-9.286-19.964-13.767c-0.815-0.543-2.272-0.122-3.433-0.146c0.136,1.052-0.093,2.394,0.471,3.111
		c3.247,4.134,6.779,8.047,10.014,12.19c1.562,2.001,2.687,4.345,4.009,6.533c-0.27,0.2-0.539,0.401-0.809,0.603
		c-0.333-0.169-0.78-0.252-0.984-0.519c-4.187-5.47-8.019-11.261-12.662-16.305c-2.009-2.182-5.573-3.286-8.638-4.03
		c-2.395-0.581-4.164,2.291-3.38,4.775c2.232,7.071,4.343,14.156,8.477,20.491c1.972,3.021,3.13,6.572,4.656,9.883
		c-0.302,0.157-0.604,0.313-0.905,0.471c-3.385-6.626-6.77-13.254-10.333-20.231c0,1.521,0,2.701,0,3.882
		c-0.257,0.085-0.515,0.171-0.771,0.256c-1.562-4.403-3.69-8.703-4.523-13.241c-0.798-4.35-0.096-8.956-0.356-13.432
		c-0.135-2.319-0.812-4.632-1.443-6.892c-1.068-3.82,0.153-7.615,3.269-10.083c2.866-2.27,5.57-4.747,8.479-6.958
		c1.234-0.937,2.876-1.317,4.219-2.138c5.167-3.155,10.286-6.386,15.425-9.877c-1.32,1.408-2.073,3.081,0.739,3.796L452.288,338.01z
		 M424.203,384.322c-1.15,4.361-0.31,6.066,2.811,6.598C426.007,388.558,425.104,386.44,424.203,384.322z"/>
	<path d="M416.203,226.391c4.626-5.114,9.252-10.229,13.878-15.343c-0.215-0.264-0.429-0.528-0.644-0.792
		c-5.269,0.398-7.714,5.703-12.052,7.719c-0.201-0.268-0.402-0.535-0.604-0.803c3.738-2.761,7.212-6.024,11.279-8.161
		c5.702-2.998,11.838-5.174,17.807-7.661c1.05-0.438,2.184-0.673,4.206-1.281c-0.981,1.243-1.354,1.715-1.939,2.457
		c0.909,0.054,1.634,0.326,2.107,0.091c4.435-2.201,9.008-0.094,13.484-0.521c3.507-0.335,5.589,2.268,8.11,3.922
		c1.95,1.28,5.097,1.109,5.62-0.875c0.57-2.154,1.824-1.532,2.919-1.364c7.23,1.113,13.091,4.697,18.873,9.178
		c5.673,4.394,8.242,10.016,9.965,16.424c0.431,1.603,0.719,3.503,0.239,5c-0.312,0.976-2.251,2.186-3.243,2.016
		c-1.565-0.268-3.229-1.345-4.352-2.546c-2.712-2.9-5.229-5.997-7.652-9.148c-3.718-4.836-9.256-6.431-14.588-8.296
		c-3.46-1.21-7.43-0.691-10.561-3.254c-0.82-0.67-2.258-0.812-3.411-0.815c-8.733-0.02-17.506-0.417-26.18,0.319
		c-3.812,0.323-7.689,2.597-11.06,4.738c-4.228,2.686-7.963,6.146-11.911,9.271C416.398,226.574,416.301,226.481,416.203,226.391z"
		/>
	<path d="M417.716,254.469c3.87-3.678,7.69-7.41,11.63-11.014c2.337-2.137,3.347-2.097,5.718-0.484
		c4.964-2.738,9.615-5.979,14.753-7.96c5.895-2.274,12.25-2.347,18.457-0.555c5.496,1.588,10.973,3.251,16.476,4.816
		c0.908,0.258,1.943,0.39,2.86,0.232c2.426-0.417,4.284,0.301,6.216,1.851c1.676,1.344,3.701,2.665,6.234,1.551
		c0.334-0.146,1.177,0.718,1.709,1.197c3.835,3.448,7.771,6.796,11.44,10.413c4.067,4.007,4.083,6.813,0.192,10.897
		c-4.177,4.385-8.289,8.883-12.884,12.798c-2.879,2.452-6.456,4.242-9.969,5.749c-4.549,1.95-9.299,3.479-14.054,4.877
		c-2.308,0.678-4.876,1.117-7.235,0.854c-9.549-1.061-19.315-2.008-27.374-7.799c-3.622-2.603-6.272-6.607-9.195-10.116
		c-1.558-1.869-2.756-4.037-3.724-6.366c3.497,3.855,6.963,7.737,10.508,11.546c1.13,1.215,2.291,2.719,3.746,3.259
		c6.146,2.277,12.334,4.519,18.652,6.24c6.066,1.654,12.229,1.058,18.198-0.965c7.33-2.486,14.93-4.242,21.132-9.441
		c3.673-3.08,4.201-4.855,1.479-8.638c-3.465-4.814-6.846-9.695-10.11-14.648c-6.695-10.156-16.321-15.394-28.201-16.058
		c-9.057-0.505-17.423,2.136-24.669,7.937c-3.28,2.626-6.763,5.021-10.308,7.278c-1.105,0.704-2.714,0.636-4.102,0.872
		c-0.732,0.125-1.541-0.011-2.214,0.24c-1.701,0.636-3.344,1.423-5.01,2.148C417.95,254.944,417.832,254.706,417.716,254.469z"/>
	<path d="M554.732,286.594c1.286,1.805,2.371,3.805,3.896,5.379c5.333,5.508,11.133,10.451,17.968,14.075
		c1.396,0.742,2.922,1.594,3.85,2.808c4.543,5.943,11.564,6.085,17.981,7.972c-3.579,2.666-7.181,2.677-11.457,1.705
		c-5.477-1.244-10.959-2.714-14.882-6.488c-6.812-6.554-13.432-13.481-19.005-21.078c-2.946-4.017-4.762-9.639-2.952-15.118
		c1.554-4.697,3.558-9.331,9.164-10.521c3.157-0.67,6.391-0.989,9.595-1.431c1.065-0.147,2.313,0.134,3.191-0.328
		c4.666-2.457,9.175-2.694,14.157-0.574c5.103,2.171,10.527,3.583,15.806,5.342c8.493,2.832,11.799,10.239,15.323,17.438
		c0.184,0.377,0.222,0.836,0.273,1.264c0.491,4.088,0.97,8.179,1.453,12.277c-0.97-2.232-2.025-4.566-3.005-6.934
		c-1.569-3.791-3.018-7.635-4.644-11.402c-3.687-8.544-20.631-17.368-31.068-12.699c-6.84,3.06-14.61,3.92-20.724,8.667
		c-1.947,1.512-3.746,3.234-5.497,4.977c-1.79,1.783-1.497,3.434,0.657,4.75L554.732,286.594z"/>
	<path d="M544.509,426.359c-2.281,0.848-4.562,1.694-6.844,2.543c-0.001-0.131-0.003-0.263-0.004-0.394
		c-0.925,0.748-1.762,1.659-2.79,2.214c-2.982,1.607-5.917,3.467-9.108,4.472c-2.795,0.88-5.906,0.837-8.889,1.018
		c-3.393,0.204-6.484-0.232-9.041-3.093c-2.151-2.406-5.58-1.398-8.412-2.039c-1.214-0.273-2.428-0.577-3.604-0.977
		c-4.915-1.672-8.99-5.074-14.248-6.31c-2.71-0.636-6.195-2.161-6.97-6.002c-0.447-2.216,0.372-3.352,2.422-4.19
		c4.395-1.796,8.562-0.207,12.585,0.938c8.369,2.383,16.561,5.384,24.887,7.92c2.865,0.873,5.912,1.177,8.892,1.639
		c5.094,0.79,10.184,1.66,15.308,2.156c1.778,0.173,3.654-0.661,5.484-1.035C544.288,425.6,544.398,425.979,544.509,426.359z"/>
	<path d="M571.157,250.387c5.354-4.466,10.036-8.371,14.867-12.401c0.159,0.96,0.263,1.586,0.367,2.213
		c0.986-0.847,1.972-1.695,3.076-2.646c0.22,3.665,1.899,2.206,4.442,1.526c6.631-1.778,13.355-1.994,19.181,2.854
		c0.577,0.48,1.533,0.818,2.268,0.746c3.921-0.385,6.848,1.05,9.072,4.289c0.554,0.807,1.776,1.81,2.548,1.701
		c3.318-0.469,4.095,1.683,5.085,4.06c1.344,3.225,2.989,6.325,4.506,9.479c-0.243,0.146-0.487,0.291-0.73,0.437
		c-0.861-1.144-1.608-2.403-2.616-3.396c-0.908-0.895-2.103-1.499-3.171-2.232c-0.44,1.156-0.881,2.312-1.381,3.624
		c-1.953-2.232-3.795-4.94-6.204-6.978c-7.809-6.604-16.6-7.405-26.116-4.078c-4.63,1.618-9.421,3.225-14.244,3.649
		c-2.3,0.203-4.648-0.323-7.138,0.373C574.072,253.858,572.455,251.54,571.157,250.387z"/>
	<path d="M425.361,467.179c1.144,4.951,2.287,9.903,3.431,14.855c-0.387,0.138-0.772,0.276-1.159,0.414
		c-4.482-4.878-3.286-12.807-8.688-17.878c-0.257,1.822-0.436,3.094-0.615,4.366c-0.339,0.011-0.678,0.021-1.018,0.032
		c-0.249-6.627-0.499-13.254-0.772-20.518c0.048-0.2,0.318-1.175,0.442-2.167c0.009-0.069-1.491-0.506-1.559-0.38
		c-0.46,0.855-0.832,1.796-1.017,2.75c-0.159,0.828-0.033,1.711-0.033,2.968c-2.215-3.896,0.01-6.72,1.648-9.608
		c-0.169,0.495-0.338,0.989-0.59,1.727c4.577,0.202,5.555,3.979,6.68,7.168c1.273,3.611,1.806,7.482,2.958,11.285
		c0-1.873,0-3.745,0-5.616c1.48,8.896,8.673,14.319,12.732,21.539c1.362,2.424,3.263,4.546,4.876,6.749
		c-0.482,1.058-1.06,2.324-1.637,3.591c0.24,0.173,0.48,0.344,0.722,0.517c0.902-0.753,1.804-1.505,2.707-2.257
		c-1.759,3.436-2.72,6.709,1.081,9.362c0.44,0.309,1.426-0.162,2.453-0.316c0.594,0.873,1.361,1.999,2.182,3.201
		c0.77-0.645,1.466-1.229,2.47-2.072c0.14,1.723,0.247,3.049,0.445,5.487c-3.032-1.152-5.829-1.537-7.692-3.063
		c-4.217-3.448-7.99-7.44-11.892-11.266c-0.51-0.501-1.044-1.347-0.994-1.989c0.491-6.377-4.533-11.078-5.141-17.116
		c-0.071-0.703-0.776-1.343-1.187-2.014C425.916,467.012,425.639,467.096,425.361,467.179z"/>
	<path d="M376.852,349.037c2.211,2.404,4.454,4.783,6.623,7.227c1.396,1.571,2.469,3.499,4.06,4.814
		c4.904,4.057,7.054,9.691,8.01,15.485c1.052,6.37,3.138,12.122,6.109,17.763c1.32,2.506,1.537,5.57,2.486,8.301
		c0.771,2.221,2.105,4.257,2.755,6.502c0.342,1.182-0.256,2.634-0.418,3.964c-0.107,0.888-0.518,1.907-0.228,2.644
		c0.828,2.097,1.641,4.326,3.024,6.051c1.904,2.371,1.775,4.42,0.035,6.574c-1.587,1.964-3.198,3.851-1.382,6.641
		c-1.709-2.424-2.303-4.664-1.022-7.523c0.623-1.389,0.134-3.663-0.581-5.195c-2.73-5.845-5.657-11.604-8.72-17.283
		c-1.263-2.34-3.18-4.318-4.56-6.607c-0.793-1.316-1.266-2.887-1.605-4.406c-1.052-4.7-1.971-9.432-2.936-14.127
		c3.32-0.847,3.765-4.954,1.095-9.196c-1.847,2.247-3.546,4.316-5.246,6.386c-0.294-0.198-0.587-0.394-0.881-0.591
		c1.211-1.895,2.2-3.99,3.681-5.644c3.033-3.39,3.009-4.237,0.146-7.57c-2.123-2.471-3.744-5.367-5.665-8.019
		c-0.937-1.293-2.083-2.433-3.062-3.699c-0.62-0.8-1.102-1.706-1.646-2.564L376.852,349.037z M393.325,379.573
		c-0.311,0.03-0.623,0.06-0.934,0.091c-2.819,5.899-1.799,10.975,3.277,12.218C394.841,387.539,394.083,383.557,393.325,379.573z"/>
	<path d="M504.857,308.15c-10.461,2.142-17.588,8.694-23.197,17.229c-2.21,3.362-1.993,6.245,0.961,8.967
		c1.564,1.441,3.425,2.997,5.388,3.43c1.515,0.334,3.782-0.562,5.049-1.673c5.986-5.244,12.221-4.099,18.621-1.21
		c2.451,1.106,4.874,2.291,7.252,3.549c2.719,1.436,3.205,3.934,2.759,6.675c-0.246,1.514-0.793,2.979-1.196,4.438
		c-0.784-0.428-1.676-0.915-2.603-1.421c1.686-5.834,1.683-5.646-4.621-5.756c-3.406-0.06-7.049-0.275-10.136-1.528
		c-3.868-1.57-5.742,0.176-7.332,2.913c-1.328,2.286-3.11,2.747-5.433,2.278c-0.397-0.079-0.933-0.058-1.161-0.306
		c-3.637-3.952-7.418-7.794-10.723-12.009c-0.949-1.21-1.244-3.887-0.565-5.267c5.082-10.34,12.844-17.771,24.229-20.876
		c0.776-0.212,1.63-0.146,2.447-0.208C504.685,307.635,504.771,307.893,504.857,308.15z"/>
	<path d="M578.402,365.15c1.976,1.107,3.519,1.822,4.886,2.787c1.028,0.726,1.974,1.67,2.704,2.696
		c1.188,1.666,2.327,3.404,3.21,5.245c2.75,5.733,3.786,11.684,0.757,17.597c-5.074,9.902-10.227,19.771-15.65,29.485
		c-1.915,3.43-4.726,6.359-7.535,9.404c0.179-0.586,0.319-1.188,0.542-1.756c2.098-5.363,3.915-10.862,6.419-16.03
		c1.709-3.529,4.218-6.723,6.658-9.838c4.627-5.905,6.139-12.312,4.545-19.707c-1.198-5.564-3.379-10.624-6.057-15.569
		C578.125,368.071,576.825,366.319,578.402,365.15z"/>
	<path d="M542.97,361.653c1.531-2.778,2.601-4.717,3.688-6.687c-3.938-2.446-7.697-5.195-12.787-1.34
		c1.803-5.303,10.089-9.429,15.014-8.378c5.988,1.276,10.932,4.1,14.568,9.583c-3.503,2.476-6.88,5.708-10.902,7.395
		C550.064,363.269,546.593,361.957,542.97,361.653z"/>
	<path d="M554.813,286.676c2.694-4.441,6.918-7.2,11.484-9c4.539-1.79,9.452-2.766,14.286-3.621c2.228-0.394,4.665,0.272,6.99,0.589
		c6.724,0.917,12.782,3.638,18.568,7.046c0.365,0.215,0.707,0.511,0.976,0.838c2.075,2.527,4.128,5.07,5.59,6.871
		c0,2.846,0.093,5.055-0.035,7.25c-0.075,1.283-0.11,2.875-0.849,3.749c-1.835,2.176-4.062,4.021-6.912,5.672
		c0.068-0.831-0.136-1.823,0.245-2.47c3.14-5.333,2.947-13.629-0.915-18.109c-4.317-5.008-10.033-8.062-16.519-8.724
		c-9.268-0.947-17.775,1.581-24.861,7.853c-0.912,0.807-0.978,2.57-1.525,4.149c-1.624-2.141-3.43-4.521-6.604-2.177
		C554.732,286.594,554.813,286.676,554.813,286.676z"/>
	<path d="M578.152,283.151c0,1.716,0,3.14,0,4.564c2.121-0.208,4.24-0.415,6.276-0.614c-0.35,0.523-1.116,1.667-1.885,2.815
		c1.299,0.634,2.575,1.255,4.501,2.194c2.702-0.826,2.742-0.879,2.6-4.488c4.413,3.639,3.874,12.646-0.963,15.373
		c-0.709,0.399-1.689,0.759-2.428,0.599c-5.073-1.103-10.017-2.54-14.029-6.134c-1.753-1.571-2.201-3.318-1.38-5.506
		C572.316,288.036,574.278,284.584,578.152,283.151z"/>
	<path d="M463.295,260.589c-0.084,0.375-0.237,1.064-0.522,2.344c2.916-1.021,5.424-1.9,7.932-2.779
		c0.096,0.232,0.191,0.465,0.287,0.698c-0.973,0.427-2.082,0.686-2.879,1.33c-0.723,0.583-1.106,1.586-1.64,2.405
		c0.318,0.305,0.638,0.608,0.956,0.912c1.4-0.956,2.801-1.913,4.404-3.009c1.284,2.048,3.305,4.014,1.562,6.968
		c-1.943,3.296-4.041,7.224-8.444,6.194c-4.04-0.944-8.107-2.908-11.452-5.383c-3.644-2.694-2.163-9.935,2.085-11.611
		c1.18-0.466,2.907,0.343,4.35,0.699C460.969,259.613,461.949,260.085,463.295,260.589z"/>
	<path d="M440.881,260.639c-1.391-0.656-2.484-0.888-3.13-1.554c-0.689-0.712-0.956-1.833-1.407-2.776
		c-0.257,0.085-0.513,0.17-0.77,0.255c0.04,0.753,0.08,1.506,0.102,1.904c-1.773-0.789-3.701-1.644-5.601-2.488
		c0.446-0.808,1.081-1.961,1.717-3.114c0.095,0.252,0.189,0.505,0.284,0.758c3.111-1.428,6.191-2.93,9.341-4.267
		c4.521-1.921,9.101-3.704,13.638-5.587c1.479-0.614,2.904-1.36,4.104-1.927c4.001,1.37,7.86,2.891,11.835,4.011
		c8.729,2.459,15.299,7.665,20.402,15.043c2.189,3.166,4.885,5.976,7.173,9.079c0.542,0.735,0.369,1.999,0.524,3.019
		c-0.963-0.301-2.096-0.371-2.859-0.939c-5.162-3.84-7.111-10.049-10.841-14.961c-8.121-10.7-28.213-15.276-39.913-5.878
		C442.714,253.44,439.683,255.633,440.881,260.639z"/>
	<path d="M554.809,297.982c5.341,13.521,10.682,27.042,15.836,40.094c-8.758-11.57-11.499-26.162-16.939-39.648
		C554.072,298.279,554.44,298.131,554.809,297.982z"/>
	<path d="M452.353,338.093c0.926-2.533,1.188-5.713,2.904-7.479c4.721-4.859,10.051-9.128,15.139-13.629
		c0.216,0.252,0.432,0.502,0.646,0.753c-1.85,1.512-3.929,2.818-5.5,4.578c-3.067,3.438-5.821,7.153-8.766,10.703
		c-1.427,1.72-2.992,3.325-4.491,4.987C452.288,338.01,452.353,338.093,452.353,338.093z"/>
	<path d="M373.316,391.65c-0.741,5.647-8.076,9.962-2.596,16.223c-2.066,2.174-4.033,4.243-6.001,6.313
		c-0.149-0.08-0.297-0.16-0.447-0.239c0.885-1.297,1.912-2.522,2.612-3.911c0.588-1.167,1.443-2.782,1.056-3.75
		c-1.341-3.36-0.52-6.032,1.528-8.724C370.889,395.696,372.044,393.628,373.316,391.65z"/>
	<path d="M555.682,436.438c3.165-7.628,8.062-13.864,14.459-18.861c0.287,0.244,0.574,0.49,0.861,0.734
		c-1.209,1.246-2.41,2.498-3.627,3.736c-1.501,1.528-3.091,2.98-4.499,4.59c-1.341,1.531-2.524,3.206-3.728,4.854
		C557.961,433.116,556.834,434.787,555.682,436.438z"/>
	<path d="M374.967,357.284c1.005,4.788-0.798,8.916-2.722,13.225c-1.86,4.165-2.85,8.719-4.456,13.846
		c0.142-2.409-0.123-4.277,0.419-5.874c1.313-3.87,3.176-7.554,4.47-11.43c0.723-2.163,0.78-4.556,1.08-6.853
		c0.133-1.021,0.124-2.062,0.178-3.093C374.279,357.166,374.623,357.226,374.967,357.284z"/>
	<path d="M376.927,348.962c-4.582-3.738-6.318-8.619-4.407-12.655c0.268-0.565,1.001-0.911,1.519-1.359
		c0.301,0.608,1.019,1.409,0.84,1.793c-2.139,4.582-0.331,8.465,1.974,12.295C376.852,349.037,376.927,348.962,376.927,348.962z"/>
	<path d="M378.754,402.798c1.286-5.348,2.546-10.594,3.77-15.687c1.562,3.204-0.542,12.463-3.713,15.706
		C378.772,402.857,378.505,402.676,378.754,402.798z"/>
	<path d="M412.171,248.487c-5.292-7.321-5.437-12.106-0.467-17.436C408.102,236.999,408.402,242.78,412.171,248.487z"/>
	<path d="M365.401,306.168c-3.628,4.318-6.096,9.551-10.371,13.36c-0.222-0.176-0.444-0.352-0.666-0.527
		c3.363-4.522,6.727-9.045,10.09-13.567C364.77,305.678,365.085,305.923,365.401,306.168z"/>
	<path d="M380.944,423.396c-0.766-2.35-1.002-4.913-2.317-6.671c-1.809-2.42-1.085-3.791,0.622-5.179
		c0.648,2.039,1.626,4.102,1.888,6.252C381.361,419.64,383.44,422,380.944,423.396z"/>
	<path d="M412.52,425.873c1.755,2.373,3.723,4.692,2.031,7.96C413.874,431.18,413.197,428.525,412.52,425.873z"/>
	<path d="M461.21,405.915c-1.908-2.093-3.815-4.183-5.674-6.221C459.151,399.862,459.278,403.898,461.21,405.915z"/>
	<path d="M380.503,433.046c-1.201-2.246-2.417-4.485-3.588-6.748c-0.169-0.326-0.127-0.762-0.183-1.146
		c0.31-0.126,0.62-0.253,0.929-0.378c1.136,2.688,2.272,5.374,3.407,8.062C380.88,432.906,380.692,432.976,380.503,433.046z"/>
	<path d="M470.92,515.919c2.041,2.051,3.748,3.548,1.148,6.734C471.654,520.222,471.34,518.386,470.92,515.919z"/>
	<path fill="#FFFFFF" d="M424.203,384.322c0.901,2.118,1.804,4.235,2.811,6.598C423.894,390.389,423.053,388.684,424.203,384.322z"
		/>
	<path fill="#FFFFFF" d="M393.325,379.573c0.758,3.983,1.517,7.966,2.343,12.309c-5.075-1.243-6.096-6.318-3.277-12.218
		C392.702,379.633,393.013,379.604,393.325,379.573z"/>
</g>
</svg>
