<?xml version="1.0" encoding="utf-8"?>
<!-- Generator: Adobe Illustrator 16.0.0, SVG Export Plug-In . SVG Version: 6.00 Build 0)  -->
<!DOCTYPE svg PUBLIC "-//W3C//DTD SVG 1.1//EN" "http://www.w3.org/Graphics/SVG/1.1/DTD/svg11.dtd">
<svg version="1.1" id="Layer_1" xmlns="http://www.w3.org/2000/svg" xmlns:xlink="http://www.w3.org/1999/xlink" x="0px" y="0px"
	 viewBox="0 0 960 560" style="enable-background:new 0 0 960 560;" xml:space="preserve">
<g>
	<path style="fill:#FFFFFF;" d="M749.3,363.2c-1.8-4.7-3.5-9.3-5.3-14c-0.4,0.2-0.8,0.3-1.2,0.5C745,354.2,747.2,358.7,749.3,363.2
		c2.2,6,4.4,12.1,6.5,18.2c-0.2-2.4-0.6-4.7-1.4-6.8C752.8,370.8,751,367,749.3,363.2z M665.4,361c-0.8-4.2-1.6-8.5-2.4-12.7
		c-0.4,0.1-0.7,0.2-1.1,0.3C663,352.7,664.2,356.8,665.4,361c11.8,40.3,23.5,80.5,35.2,120.8c0.5-0.1,1-0.3,1.5-0.4
		c-0.7-2.3-1.3-4.7-2.1-7c-1.6-4.6-3.5-9.1-4.8-13.8c-3-10.5-5.7-21.1-8.7-31.6c-3.5-12.4-7.2-24.8-10.9-37.2
		c-2.8-9.5-5.6-18.9-8.5-28.3C666.9,362.6,666,361.9,665.4,361z M773.6,318l0.1,0.1c-1.3-3.1-2.6-6.2-4-9.2
		c-2.1-4.4-4.4-8.8-6.4-13.2c-1.6-3.5-3-7-4.6-10.6c-0.2,0.1-0.4,0.2-0.7,0.2c-0.1,0.5-0.2,1.1-0.3,1.3c-1.9-4.2-3.7-8.4-5.7-12.6
		c-3.5-7.2-7.2-14.2-10.5-21.4c-1.1-2.5-2.3-5.7-1.7-8.1c1-3.7,3-7.4,5.6-10.2c5.7-6.4,12-12.3,18.1-18.4c8.7-8.7,17.4-17.4,26.3-26
		c4.3-4.2,9.2-7.9,13.5-12.1c6.1-6,12.3-12.1,17.9-18.6c6.3-7.3,15.3-11.6,20.9-19.7c4.3-6.2,9.8-11.6,14.8-17.3
		c-1.5,0.4-2.5,1.2-3.5,2.2c-10.1,10-20.1,20.1-30.2,30.1c-10.7,10.5-21.4,20.9-32.1,31.4c-11.7,11.5-23.4,22.9-35,34.5
		c-5,5-10.1,10-14.4,15.7c-4,5.3-6.9,11.5-10.6,17.1c-1.6,2.4-1.1,4.5,0,6.8c5,10.8,10.1,21.5,15,32.3c6,13.2,12,26.4,18,39.7
		c2.5,5.6,4.8,11.3,7.2,16.9c0.7,1.5,1.6,2.8,2.4,4.3c0.3-0.2,0.7-0.4,1-0.6c-2.4-5.4-4.9-10.7-7.3-16.1c0.2-0.1,0.4-0.2,0.6-0.3
		c0.7,0.9,1.4,1.8,2.1,2.7c-0.5-2.1-1.3-4-2.2-5.9c-0.2-0.4-0.5-1-0.7-1c-4.5,0.4-2.6-3.3-3.4-5.2c-0.4-1.1-0.5-2.3-1-3.3
		c-5.8-12.3-12-24.4-17.4-36.8c-4-9.3-7.1-19.1-10.4-28.7c-1.1-3.2-1-6.6,2.2-9.5c4.2,8.9,8.2,17.5,12.2,26.1
		c7.3,16,14.6,32,21.9,48c6.8,14.9,13.5,29.8,20.5,44.6c6.4,13.6,13.2,27.1,19.6,40.7c4.2,8.9,7.9,18.1,12,27.1
		c4.8,10.4,9.8,20.7,14.7,31.1c2.1,4.5,4,9.1,6.2,13.6c0.5,1,1.5,1.7,2.3,2.6c0.2-0.2,0.5-0.4,0.7-0.7c-3.1-7.2-6.1-14.4-9.3-21.5
		c-5.7-12.6-11.6-25.2-17.4-37.8c-1.5-3.2-3-6.3-4.5-9.5c-3.6-7.6-7.1-15.1-10.8-22.7c-3.2-6.6-6.7-13-9.7-19.6
		c-3.4-7.4-6.3-15-9.7-22.4c-2.8-6.1-5.9-12-8.8-18c-0.8-1.6-1.1-3.4-1.6-5.1c0.5-0.2,1-0.4,1.4-0.6
		c24.6,51.2,49.1,102.4,73.7,153.6c0.2-0.1,0.5-0.2,0.7-0.4c-3.4-7.4-6.6-14.9-10.1-22.2c-7.9-16.5-15.9-32.9-23.9-49.3
		c-9.1-18.9-18.2-37.9-27.3-56.9c-3.5-7.4-7.1-14.7-10.9-22C777.6,324.1,775.5,321.1,773.6,318z M822.1,482c0.4-0.2,0.7-0.3,1.1-0.5
		c-0.9-2.2-1.8-4.5-2.7-6.7c-4.6-10.7-9.1-21.5-13.8-32.2c-2-4.6-4.6-8.9-6.6-13.4c-4.6-10.7-8.8-21.6-13.4-32.3
		c-4-9.3-8.4-18.4-12.5-27.5c-4.5-9.9-8.9-19.9-13.5-29.9c-2.1-4.5-4.6-8.8-6.7-13.3c-4-8.7-7.8-17.4-11.7-26.1
		c-2.5-5.5-5.3-10.9-7.6-16.5c-4.7-11.5-8.5-23.4-17.6-32.5c-0.6-0.6-0.8-2.7-0.3-3.2c3-3,6.2-5.7,9.4-8.6c0.2,0.2,0.4,0.4,0.6,0.6
		c-1.6,2.3-3.2,4.5-4.8,6.8c0.3,0.2,0.6,0.4,0.8,0.7c1.2-1.2,2.7-2.2,3.7-3.6c3.2-4.2,6-8.8,9.5-12.7c3.8-4.3,8.2-8,12.2-12.1
		c13.8-14,27.5-28,41.4-41.9c14.8-14.9,29.8-29.6,44.7-44.5c2.1-2.1,4.1-4.4,6.2-6.6c-0.2-0.2-0.4-0.4-0.6-0.5
		c-7.9,7.7-15.8,15.5-23.7,23.2c-9.8,9.6-19.7,19.1-29.5,28.6c-15.5,15.2-30.9,30.4-46.4,45.5c-7.9,7.7-15.8,15.5-23.7,23.2
		c-2,2-2.2,3.7-0.2,6c2.3,2.6,4.6,5.4,6.1,8.5c3.3,6.6,6.1,13.5,9.2,20.2c3.5,7.6,6.8,15.3,10.5,22.8c5.4,11.2,8.5,23.3,15.7,33.6
		c0.4,0.5,0.6,1.1,0.8,1.7c5.7,13.1,11.3,26.3,17.2,39.4c3.1,7,6.7,13.7,9.7,20.7c4.7,10.7,9,21.5,13.6,32.2
		c6.5,14.9,13.1,29.7,19.7,44.5C820,477.8,821,479.9,822.1,482z M647.6,332.5c-0.3,0.1-0.7,0.1-1,0.2c1,5.5,1.6,11,3,16.4
		c2.4,9,5.3,17.9,7.8,26.9c1.8,6.4,3.4,12.9,5,19.4c2.2,8.8,4.5,17.6,6.6,26.5c0.9,3.9,0.9,8.1,2.4,11.8c1.5,3.9,1.5,8.4,4.5,11.7
		c0.3,0.4,0.4,1,0.6,1.5c2.8,9.4,5.9,18.8,8.4,28.3c2.8,10.6,5.1,21.2,7.7,31.9c0.1,0.5,0.5,1,0.8,1.5c0.5-2.3,0.5-4.5,0-6.5
		c-3.5-13.9-6.8-27.9-10.8-41.6c-3.9-13.3-9-26.3-12-39.9c-2.2-9.7-5.2-19.2-7.7-28.9c-2.6-10-4.9-20-7.5-30
		c-1.7-6.8-3.6-13.5-5.4-20.3C649.3,338.5,648.5,335.5,647.6,332.5z M318.4,310.4c0.5-0.2,1-0.3,1.4-0.5c-0.5-1.2-0.9-2.5-1.5-3.6
		c-2.5-4.8-4.3-9.6-3.2-15.3c0.5-2.4,0.1-5.1-0.3-7.6c-1.5-10.6,0.6-20.5,5.4-29.8c2.4-4.6,5.5-5.5,9.2-2.1c0.1,0.1,0.3-0.1,0.5-0.1
		c-0.9-5-4.8-6.4-9-7.3c-8.4,5.7-14.7,34.3-12.2,42.3c0.6-3,1.2-6,1.8-9c0.4,0,0.9,0,1.3,0.1c1.1,4.9,3.3,9.7,2.2,15
		C312.4,299.3,315.6,304.8,318.4,310.4z M746.6,481.7c0.3-0.1,0.6-0.2,1-0.3c-0.6-1.8-1.1-3.5-1.7-5.2c-3-8.3-5.9-16.6-9-24.8
		c-2.7-7.1-5.5-14.1-8.5-21.1c-4.2-9.9-8.6-19.6-12.7-29.5c-3.1-7.3-5.8-14.8-8.6-22.2c-2.7-7-5.3-14-8.1-21
		c-1.1-2.8-2.4-5.5-3.6-8.3c-0.2,0.1-0.5,0.2-0.7,0.4c3.7,9.9,7.4,19.8,11.1,29.7c1.6,4.2,3.3,8.5,5,12.7c3.3,8.6,6.4,17.3,10,25.8
		c4.9,11.5,11.5,22.1,14.8,34.3c1.6,6,4,11.8,6.2,17.7C743.2,473.7,745,477.7,746.6,481.7z M783,365.8c11,24.6,21.9,49.2,32.9,73.8
		c0.3-0.2,0.7-0.3,1-0.5C806.4,414.3,795.7,389.6,783,365.8z M645.2,138c0.2,2.9,1.1,3.8,3.3,3c1-0.3,2.1-0.4,3.1-0.3
		c11.3,1.6,20.5,7,27.7,15.8c0.5,0.6,1.1,1.2,1.7,1.8c0.3-0.2,0.5-0.5,0.8-0.7c-1.6-2.7-2.7-6.1-5-7.8c-5.8-4.3-12.1-7.8-18.3-11.6
		c0,0-0.2,0.6-0.3,0.9C653.9,138.7,649.7,138.4,645.2,138z M701,246.6c-16.9,11.9-32.7,27.8-32.8,32.7
		C677.1,266.5,690.9,258.3,701,246.6z M634.3,474.7c0.4-0.1,0.7-0.2,1.1-0.4c-3.6-13.9-7.3-27.7-10.9-41.6c-0.3,0.1-0.6,0.2-0.9,0.2
		C627.1,446.9,630.7,460.8,634.3,474.7z M784.5,447.6c-0.2,0.1-0.4,0.2-0.6,0.2c1.4,3.8,2.8,7.7,4.3,11.5c1.6,3.9,3.2,7.9,4.9,11.7
		c1.6,3.5,1.1,7.9,4.7,10.5c-1.8-5.9-3.8-11.6-6.1-17.3C789.5,458.6,786.9,453.1,784.5,447.6z M674.1,142.3
		c-1.6-6.2-14.4-13.7-22.4-13C661,131,668.6,134.7,674.1,142.3z M715.6,276.6c-1.1,3.9-2.3,8.3-3.6,12.9c4-4.7,4-4.7,6-3.4
		C717.1,282.6,716.2,279.2,715.6,276.6z M811.1,434.5c-0.3,0.1-0.7,0.2-1,0.2c2.2,5.4,4.3,10.8,6.5,16.2c0.3-0.1,0.6-0.3,1-0.4
		C815.4,445.3,813.3,439.9,811.1,434.5z M672.1,480c-2.4-4.6,1.7-7.9,2.4-12.7C671.6,471.8,669.8,475.5,672.1,480z M706.6,253.5
		c-0.2,0.1-0.4,0.2-0.6,0.4c1.3,3.4,2.6,6.7,3.9,10.1c0.3-0.1,0.6-0.2,0.9-0.4C709.4,260.3,708,256.9,706.6,253.5z M659.6,417.5
		c-0.2,0-0.4,0-0.6,0c0.3,4.4,0.7,8.8,1,13.2c0.2,0,0.4,0,0.6,0C660.2,426.2,659.9,421.8,659.6,417.5z"/>
	<path d="M253.6,358.8c-2.9-7.5-6.3-14.8-7-23c-0.8-9.6,2.5-17.8,9.5-24c5.3-4.7,11.5-8.3,17.4-12.2c1.2-0.8,3-1,4.7-0.8
		c-1.3,0.7-2.7,1.4-4,2.1c-1.9,1.1-3,2.2-2.9,5c0.1,2.3-1.6,4.8-2.7,7.7c1.1-0.3,2.2-0.5,3.2-1c3.7-1.9,7.4-3.8,11-5.7
		c0.7-0.4,1.4-0.9,1.9-1.6c2.1-2.8,4.1-5.8,6.3-8.6c0.4-0.5,1.5-0.8,2.3-0.8c3.5,0,7,0.1,10.5,0.1c1.4,0,2.8,0,3.8,0
		c0,8.7,0,17.7,0,26.7c0,5.8,5.2,13.2,11,14.5c1.9,0.4,4.5-0.3,6.1-1.5c4-2.8,5.2-7.4,6-12c1-5.9,0.9-12.1,2.7-17.8
		c2.2-6.9,1-13.5,0.8-20.3c-0.2-3.7,1.4-7.6,2.5-11.3c1.7-5.7,2.1-11.5,0.7-17.2c-1.1-4.5-2.4-9-3.8-13.4c-0.4-1.3-1.7-2.4-2.5-3.6
		c-0.5-0.8-0.8-1.7-1.2-2.7c-0.5,0.2-1.3,0.6-2.2,1c0.1-0.5,0-0.8,0.1-1.1c0.4-1.4,1.4-2.9,1.2-4.2c-1.3-7.7,2-14.6,3.7-21.8
		c4.1-16.6,11.3-32,19.7-46.8c5.7-10.1,11.6-20.4,18.7-29.4c6.9-8.7,11.3-19.2,19.6-27c5-4.7,8.4-11.3,13.3-16.1
		c7.8-7.6,16.5-13.9,27.8-15.8c3.2-0.5,6.1-2.8,9.3-4.1c2.5-1.1,5.1-1.9,7.7-2.8c1.1-0.4,2.4-0.6,3.1-1.4c1.1-1.2,1.9-1.6,3.5-1
		c1,0.4,2.4-0.3,3.7-0.5c0-0.4-0.1-0.7-0.1-1.1c-1.3-0.1-2.5-0.3-3.8-0.4c-0.1-1.1-0.2-2.2-0.4-3.9c7-1.9,13.9-4,21.1-5.6
		c1.9-0.4,4.2,1,6.3,1.6c1,0.3,2,0.7,2.8,1.2c6.1,3.7,10.9-1.3,16.2-2.6c3-0.7,5.5-1.2,8.5,0.3c2.4,1.2,5.3,1.3,8,1.5
		c3.6,0.2,7.2,0.1,10.8,0.1c-1.3,3.9-1.9,4.1-8.4,3.5c0.9,2,3.1,3.1,5.2,2.1c5.6-2.5,10.3-0.9,14.7,2.7c2.7,2.2,5.8,4,8.3,6.4
		c3.6,3.4,7.2,6.8,10.2,10.7c1.7,2.2,2.3,5.3,3.5,8.2c-0.4,0.2,0.1,0.1,0.3-0.1c3.3-4.4,3.8-4.5,8.3-1.3c5.2,3.8,10.4,7.7,15.6,11.5
		c1.3,0.9,2.8,1.5,4.3,1.9c0.9,0.2,2.7-0.2,2.8-0.7c0.3-1.2,0.3-3.1-0.4-3.7c-4.8-3.6-9.9-6.9-14.7-10.5c-3.6-2.7-7.1-5.5-10.6-8.4
		c-3.9-3.2-7.6-6.7-11.5-9.9c-2.2-1.8-5.3-2.7-5.8-6.2c-0.1-0.7-2.1-1.1-3.2-1.5c-2.2-0.7-4.4-1.2-6.5-2.2
		c5.4-1.8,15.5,0.7,17.7,3.9c-1.5,0.2-3,0.4-4.8,0.6c0.6,0.7,0.8,1.1,1.1,1.1c7.6,0.3,11.2,6.7,16.2,10.9c1.5,1.2,2.9,2.5,4.2,3.9
		c0.6,0.6,1,1.4,1.2,2.3c0.5,2.4,0.8,4.4,4.3,4.5c2.3,0.1,4.4,2.3,6.7,3.5c4.9,2.5,9.8,5,14.8,7.4c1.5,0.7,3.4,1.3,4.2-0.8
		c-9.2-4.5-18.3-9-27.3-13.5c2.1-5.6,1.1-9-3.7-12.6c-2-1.5-4.3-2.7-6.3-4.4c-1.9-1.6-3.4-3.6-5.3-5.6c-0.1,0.3-0.1,0,0,0
		c1.2-0.4,2.5-0.7,3.7-1.1c-1-0.9-1.9-2.1-3.1-2.8c-2.2-1.3-4.4-2.7-6.8-3.4c-6.2-2-6.3-1.9-16.6,1c4-2.3,8.2-4.5,13-3.3
		c4.1,1.1,8.1,2.7,11.8,4.6c1.9,0.9,3.3,2.9,4.7,4.5c3.6,3.8,7.4,7.1,12.7,8.6c7.3,2.1,13.2,6.2,16.9,13.1c0.6,1.1,1.2,2.5,2.2,2.9
		c5.6,2.4,8.4,7.6,12,12c0.7,0.9,1.3,2,2.3,2.7c5.7,3.8,8.1,10.2,12.2,15.3c1.6,2,2.4,4.7,3.5,7c-0.7,0.9-1.3,1.7-1.8,2.3
		c1.8,1.3,3.4,2.4,5.1,3.6c-0.4,0.6-0.8,1.3-1.6,2.5c6.5,1.7,12.8,3.4,19,5.1c-0.1,0.4-0.2,0.8-0.3,1.2c-0.7-0.1-1.4-0.2-2.1-0.3
		c-2.4-0.5-4.8-1-7.2-1.4c-0.8-0.1-1.7,0.4-2.5,0.6c0.5,0.7,1.1,1.4,1.6,2.1c0.2,0.3,0.5,0.6,1,1.2c-2.6,0.4-5,0.8-4.4,3.8
		c-1-0.2-2-0.7-2.6-0.5c-0.5,0.2-1.1,1.8-0.9,2c0.8,0.8,1.9,1.3,3.4,2.2c-1.8,0.7-3.6,1.3-5.1,1.8c0.3,1.7,0.6,3.5,0.9,5.3
		c-1.2,0.1-2.3,0.1-3.5,0.2c-0.1,7.4-0.1,7.4,3.2,11.8c-2.2,0.2-3.9,0.3-5.9,0.4c-1.9,3.7,1.3,6.9,2,10.7c-3.5-1.1-6.7-2.1-9.9-3.2
		c-0.1,0.3-0.3,0.5-0.4,0.8c1.8,1.6,3.6,3.2,5.8,5.2c2.6-0.7,5.5-0.5,7.6,3.1c1.2,2,3.5,3.4,5.8,4.5c-1.7-2.8-3.3-5.7-5.2-8.9
		c0.9-0.4,2.5-1.1,4.1-1.9c-2-5.2,4.8-7.2,4.2-10.8c1.6-1.6,2.8-2.4,3.5-3.5c1.2-2,1.9-4.2,3-6.2c0.3-0.6,1.7-1.1,2.3-0.9
		c2.5,0.9,3.5,0.5,2.9-2.1c-0.6-2.4-1.9-4.6-3.1-6.8c-0.5-0.9-1.3-1.5-1.9-2.4c4.1,1.1,6.5,4.4,8.9,7.5c1.1,1.4,2.1,2.9,3.1,4.4
		c1.4,2,2.7,3.8,2,6.7c-0.3,1.4,0.7,3.3,1.3,4.8c2.5,6.1,2,12.2,1,18.5c-0.8,5.3-1.2,10.6-1.7,15.9c-0.1,1-0.3,2-0.5,3
		c-0.2,0.8-0.7,1.8-0.5,2.4c2,5.3-0.8,9.6-2.2,14.4c-3.6,12.2-6.9,24.4-10.3,36.6c-0.1,0.5-0.1,1-0.2,1.9c2.1,0.5,4.1,1.1,6.1,1.6
		c2.6,0.6,4.2,2.2,3.8,5c-0.5,3.7-0.9,7.4-1.7,10.9c-1.2,4.8-2.1,5.2-7,4.9c-1.3,5.1-2.4,10.2-4,15.3c-2.5,8.4-6.2,16.2-10.9,23.6
		c-1.8,2.8-2.3,6.3-3.4,9.5c0.4,0.2,0.8,0.5,1.2,0.7c1.5-1.5,3-3,4.4-4.6c6.9-8.5,13.8-17,20.7-25.5c0.9-1.1,2-1.9,2.8-3.1
		c0.9-1.4,2.1-3,2.1-4.5c0-1.4-1.5-2.7-2.3-4.1c-1,0.9-2.2,1.6-3.1,2.7c-0.6,0.7-0.7,1.7-1.2,2.8c-0.7-2.6,1.4-6.7,3.6-7.4
		c1.7-0.6,4.8,1.6,5.5,3.9c6.1,19.2,12.3,38.4,18.4,57.6c4.1,13,7.7,26,11.8,39c1.8,5.7,4,11.2,5.8,16.8c1.8,5.8,3.3,11.8,5.1,17.7
		c3.5,10.8,7.1,21.6,10.7,32.4c2.8,8.6,5.5,17.3,8.3,25.9c-0.4,0.2-0.7,0.4-1.1,0.5c-0.5-1-1.2-2-1.6-3.1
		c-3.9-12-7.6-24.1-11.5-36.1c-3-9.4-6.3-18.7-9.3-28.1c-2.8-8.9-5.4-17.9-8.2-26.8c-6.8-21.9-13.6-43.7-20.4-65.6
		c-1.6-5-3.4-9.9-5.2-14.8c-0.4,0.1-0.9,0.2-1.3,0.3c0.6,3.2,0.9,6.5,1.7,9.6c2.5,8.9,5.1,17.8,7.9,26.5c3.3,10.1,7.1,20,10.2,30.1
		c2.8,9,4.6,18.3,7.2,27.3c3.5,11.8,7.5,23.4,11.2,35.1c2.9,9.1,5.6,18.2,8.4,27.3c1.8,5.8,3.7,11.5,5.6,17.3
		c-2.8,1.1-3.6-0.1-4.2-2.3c-1.5-5.2-3-10.4-4.8-15.4c-2.1-5.6-4.6-11.1-6.9-16.7c-0.3-0.9-0.3-1.9-0.5-2.8
		c-0.9-3.9-1.8-7.8-2.9-11.6c-1.6-5.9-3.5-11.7-5.1-17.6c-2.5-9.4-4.4-19-7.3-28.3c-5.3-17.4-11.3-34.7-16.5-52.2
		c-2.7-8.9-4.2-18.2-6.3-27.3c-0.2-0.9-0.7-2.2-1.3-2.3c-0.8-0.2-2.1,0.3-2.7,1c-7.5,8-14.9,16-22.2,24.2c-2.2,2.4-3.9,5.2-5.8,7.9
		c-2,2.6-1.5,5.6-1.3,8.6c0.2,2.6,0.4,5.3,0,7.9c-1,7.8-2.3,15.5-3.5,23.3c-1.9,12.1-3.9,24.3-5.8,36.4c-0.9,6.1-3.2,11.6-6.4,16.8
		c-7.6,12.7-15,25.7-22.6,38.4c-6.1,10.3-13.4,19.8-21.3,28.9c-8.1,9.3-17.8,16.6-27.6,23.8c-1.7,1.3-3.3,2.7-5.2,3.7
		c-1.1,0.6-2.6,0.8-3.9,0.8c-4-0.1-5.9,1.6-5.7,5.6c0.1,1.7,0.3,3.4,0.4,5c-0.9,0-1.7,0-2.6,0c0.5-2.5,1-5.1,1.4-7.6
		c0.4-2.6-0.8-3.6-3.4-3.1c-2.5,0.5-4,1.9-3.6,4.6c0.3,2.1,0.8,4.1,1.2,6.2c-0.9,0-1.7,0-2.6,0c0.1-2.4,0.4-4.9,0.4-7.3
		c0-2.5-1.2-3.5-3.7-2.8c-1.4,0.4-2.7,1.3-4.2,1.5c-5.6,0.8-7.2,3-6,8.6c-0.4,0-0.9,0-1.3,0c0-1.1,0.2-2.3-0.1-3.4
		c-0.2-0.7-0.8-1.6-1.4-1.8c-2.1-0.6-5.3,3-4.9,5.2c-0.4,0-0.9,0-1.3,0c-1.4-3.2-3.3-3.2-6.4,0c-21.1,0-42.1,0-63.2,0
		c-2.1-0.3-4.3-0.5-6.3-1.1c-5.5-1.5-10.8-3.4-16.3-4.9c-2.3-0.7-4.8-0.9-7.2-1.3c0-0.3,0.1-0.5,0.1-0.8c2.5,0,4.9,0.1,7.4-0.1
		c0.6,0,1.2-0.7,1.6-1.2c0.2-0.2-0.2-1.1-0.5-1.3c-1.9-1.3-3.9-2.5-5.8-3.8c-5.4-3.4-11.1-6.5-16.2-10.4c-5.3-4-10.1-8.7-14.8-13.4
		c-9.1-9.1-18-18.6-25.1-29.4c-0.3-0.5-1.1-0.7-1.7-1.1c-0.4,0.7-1.1,1.3-1.2,2c-0.4,5.4-0.8,10.8-1.1,16.2c-1,15.7,0.2,31.5-2.9,47
		c-0.2,1.1,0,2.3,0.1,3.5c-0.6,0-1.3,0-1.9,0c0.8-7.4,1.8-14.7,2.2-22.1c0.4-5.9,0-11.9,0.3-17.8c0.3-7.2,1.4-14.4,1.5-21.6
		c0.1-7.5,2.3-15.3-1.2-22.6c-5.1-10.7-7.2-22.2-9.4-33.6c-1.2-6.2-1.4-12.7-1.8-19c-0.4-6.2-0.7-12.5-1-18.7
		c-0.1-2.2-1.1-2.7-3.1-2.2c-4.5,1.2-9,2.6-13.6,3.3c-3.8,0.6-7.9,0.8-11.7,0.1c-7.1-1.3-14.1-2.9-20.9-5.4
		c-7.7-2.7-14.7-7.1-20.8-12.6C256.4,363.5,255.2,361,253.6,358.8c7.2,8.2,18.9,14.6,24,12.9c-6.7-10.2-13.3-20.3-20.3-30.8
		c-0.9,6.8,1.5,12.4,4.4,18.5c-6-3.4-6.5-10.2-11.2-14.9C251.7,349.9,252.7,354.4,253.6,358.8z M618.7,385.7
		C618.5,385.8,618.6,385.7,618.7,385.7c0.1,0,0.2,0.2,0.2,0.2c-1.6,3.8-3.1,7.6-5,11.3c-2.3,4.4-4.5,8.9-7.4,12.9
		c-5.6,8-12.2,15.4-17.4,23.7c-5,7.9-8.6,16.7-12.9,25.1c0.8-7.8,6-14,7.2-21.7c-3.8,3.5-7.1,7.3-10.3,11.2
		c-4.6,5.6-9.2,11.3-13.7,17c-6.3,8-12.9,15.7-18.7,24.1c-5.8,8.4-12.5,15.7-19.7,22.9c-3.6,3.7-6.7,7.8-10,11.8
		c-0.5,0.6-0.5,1.4-0.8,2.4c0.8,0.1,1.2,0.3,1.6,0.2c6.6-1.7,13.3-2,20.1-1.6c1,0,2.2-0.3,3-0.8c3-1.6,6-3.2,8.7-5.2
		c7.4-5.6,14.9-11.2,21.9-17.4c4.8-4.3,9.1-9.3,13-14.4c4.8-6.2,9-12.8,13.3-19.3c2.4-3.7,4-8,6.4-11.7c5.1-8,10.7-15.8,15.6-23.9
		c3.1-5.2,6.2-10.8,7.7-16.6c2.6-10.1,4-20.6,6-30.9c1-5.4,1.4-10.9,2.4-16.4c1.3-7.6,3.3-15.5,1.4-23.3c-1-4-0.2-7.8,0.6-11.6
		c0.5-2.1,0.8-4.3,1.2-6.6c-0.6,0.1-0.8,0.1-0.9,0.2c-0.7,0.8-1.5,1.5-2.2,2.3c-11.5,12.7-25.8,18.1-42.8,16.9
		c-7-0.5-13.9-1.3-20.4-4.4c-0.9-0.5-2.2-0.3-3.1-0.9c-1.4-0.9-2.5-2.3-3.8-3.3c-7.2-5.4-12.9-12.1-16.4-20.4
		c-4.4-10.6-5.9-21.6-4.6-33.1c0.7-6.4-4-12.9-9.8-14.7c-8.6-2.7-12.8,1.9-16.1,7.7c-3,5.2-5.4,10.8-8.5,15.9
		c-8,13-19.9,20.3-34.8,23.1c-1.9,0.4-3.9,1.1-5.6,2.1c-7.6,4.5-12.5,11.5-17.8,18.3c-3.2,4.1-6.4,9-12.6,9.5
		c-0.8,0.1-1.6,0.6-2.2,1.1c-4.1,3.2-8.2,6.4-12.2,9.8c-0.9,0.7-1.6,2-1.8,3c-0.4,2.2-1.4,2.5-3.7,1.2c0.6,1.9,1.1,3.3,1.6,5.1
		c0.8-1.2,1.3-1.8,1.6-2.3c2.2,1.5,4.1,3.5,6.3,4.1c2.9,0.7,4.4,1.3,2.7,4.4c6.1-0.1,6.8,0.3,12.9,3c3.6,1.6,7.4,2.8,11.2,3.4
		c8.4,1.3,16.9,1.8,25.2,3.3c7.2,1.4,14.5,3.2,20.4,8.1c3.2,2.7,7,3.9,11.2,3.5c2.3-0.2,4.7,0.1,7,0.1c2.7,0,5.5,0.3,8-0.4
		c2.4-0.7,4.3-0.5,6.4,0.4c6.6,2.9,13.2,5.8,19.7,8.9c2.4,1.1,4.4,1.5,6.9,0.2c4.8-2.5,12.6,1.7,13.9,7.9c-2.8-1-5.4-1.5-7.6-2.8
		c-2.7-1.7-4.7-1.3-6.9,0.4c-2.3,1.8-4.6,3.8-7.2,5.3c-5,2.9-10.1,1.8-15.2,0c2.4-0.8,4.8-1.2,7.3-1.5c1.9-0.2,3.9-0.1,5.6-0.8
		c1.5-0.6,3.8-2.2,3.7-3.2c-0.1-1.7-1.5-3.8-2.9-4.8c-6.3-4.1-13.5-5.7-20.7-4.3c-6.3,1.2-12.2,0.2-18.3-0.3
		c-0.9-0.1-1.9-0.4-2.7-0.9c-6.9-3.7-13.7-7.8-20.8-11c-4.7-2.1-9.8-3.4-14.9-4.2c-7.7-1.1-15.4-1.4-23.2-1.9
		c-1.2-0.1-2.4,0.4-3.6,0.7c-0.1,0.4-0.1,0.8-0.2,1.3c3,1.7,5.8,3.9,9,5c9.5,3.3,18.4,7.9,26.7,13.7c-2.9-0.7-5.8-1.6-8.6-2.7
		c-3-1.1-5.9-3.3-8.8-3.2c-3.6,0.2-5.8-1.3-8.3-3.1c-6.7-4.8-13.5-9.5-20.4-14.1c-0.8-0.5-2.3,0-3.4,0c0.2,1.1,0,2.4,0.5,3.1
		c2.1,3,4.3,6,6.8,8.7c3.3,3.5,6.8,6.8,7,12.5c-0.9-0.5-1.3-1.5-1.8-2.4c-5-7.7-9.9-15.4-18.4-19.8c-1.2-0.6-3.2-0.6-4.4-0.1
		c-1.1,0.5-2.4,2.5-2.2,3.3c2.4,6.8,5,13.5,7.8,20.1c1.8,4.3,4.1,8.4,6.2,12.5c-0.3,0.1-0.5,0.3-0.8,0.4c-1-1.7-2-3.4-3.1-5.1
		c-2.3-3.5-4.7-6.9-7.1-10.4c-0.5-0.7-1.3-1.2-1.6-1.9c-2.9-6-5.9-12.1-5.4-18.9c0.4-6.2,0.3-12.1-1.6-18c-0.3-1,0.5-2.8,1.4-3.7
		c2.7-2.8,5.5-5.4,8.5-8c1.7-1.5,3.6-2.9,5.6-4c5.6-3.1,11.6-5.7,16.2-10.6c0.2,0.9,0.3,1.7,0.6,3.5c1-1.5,1.6-2.2,2.1-3
		c0.8-1.6,1.2-3.6,2.4-4.8c4.5-4.3,9.3-8.4,14-12.6c0.9-0.8,1.8-1.5,3.2-2.7c-1.9-0.3-2.9-0.4-3.9-0.6c-11.7-1.6-22.4-5.8-31.7-13.2
		c-12.2-9.7-17.2-23.1-19-38c-0.5-3.8-1.4-7.6-0.9-11.3c1.2-9.4,3-18.8,4.7-29c-2,0.2-4.2,0.4-5.6,0.5c0.5-2.2,1.3-5.2,2.1-8.7
		c-1.5,0.6-2.1,0.8-2.2,0.9c1.5-2.9,3.2-6,4.7-9.3c1.4-3,3.3-4.7,6.7-3.6c5.1,1.6,9.5,0,13.9-2.6c2.2-1.3,4.7-2.1,7.1-3.2
		c0.1,0.2,0.3,0.5,0.4,0.7c-0.3,0.5-0.7,1.1-1.3,2c1.2-0.1,2.4,0.1,2.8-0.3c1.7-1.9,3.5-1,5.4-0.7c1.2,0.2,2.5,0,3.7,0.1
		c4.4,0.3,9-0.5,12.3,3.8c2.2,2.8,5.5,1.8,6.7-2c5,0.7,10,1.4,14.4,4.3c5.7,3.9,12.1,7,14.6,14c1.7,4.9,5.2,7.1,9.6,9.3
		c8.1,4.1,14.3,9.9,12.5,20.3c0,0.1,0.2,0.3,0.4,0.6c8.5-2,16.3,0.3,23.4,5.1c2.3-6.2,4.8-9.1,11-10.7c4.5-1.1,9.2-1.3,13.8-1.4
		c2.9-0.1,4.9-0.9,7-2.9c2-2,4.7-3.2,7.5-5c0.5,2.6,0.3,4.9,3,3.3c6.5-3.7,12.7-0.1,18.9-0.1c-0.1,1.7-0.3,2.8-0.4,4
		c1.2-0.4,1.8-1.4,2.1-1.3c4.1,0.9,8.8-0.1,11.7,4.3c0.7,1.1,2.5,2.4,3.5,2.1c2.5-0.6,3,0.9,3.8,2.4c0.7,1.2,1.1,3.1,2.1,3.4
		c3.6,1.3,7.4,2.1,11.3,3.1c0-1.3,0.1-1.8,0-2.3c-1.3-8.6-2.4-17.2-4.2-25.7c-1.2-5.8-3.2-11.4-5.2-16.9c-0.8-2.2-2.2-4.2-3.4-6.2
		c-0.9-1.5-1.8-3-2.7-4.5c-0.2,0.1-0.3,0.2-0.5,0.3c-1.3-3.4-2.5-6.7-3.8-10.2c-3.4,0.3-6.6,0.4-8.6-3.4c-1-1.9-2.4-3.7-3.9-5.4
		c-2-2.1-3.9-4.9-6.4-5.9c-5-1.9-10.4-2.9-15.7-4c-5.5-1.2-11.2-1.1-16.7-3c-2.9-1-6.5-0.8-9.6-0.4c-3.1,0.4-6.1-2.8-9.3-0.2
		c-0.5,0.4-2.4-0.8-3.5-1.4c-0.8-0.4-1.5-1-2.3-1.5c-1.7-1.2-3.4-2.4-5.1-3.5c-1.1-0.7-2.5-2-3.4-1.7c-4,1.1-7.1-1.4-10.4-2.5
		c-2.7-0.9-6.4-0.8-7.8-4.4c-0.1-0.3-1-0.5-1.5-0.4c-7.4,1-14.3-4-21.8-1.8c-0.2,0.1-0.4-0.1-0.6-0.1c-6.6,0-13.2-0.1-19.7,0
		c-0.9,0-1.7,0.7-2.6,1.1c-3.7,1.7-7.2,4.4-11.6,1.9c-0.4-0.2-1.1-0.1-1.5,0.2c-3.8,1.9-7.6,4-11.5,5.8c-1.8,0.9-3.7,1.4-5.5,2
		c-0.3-1.2-0.7-2.4-1-3.7c-0.7,0.3-1.3,0.7-2.5,1.3c1.1-3.1,5.5-4,3.7-8.2c-4.1,1.8-8.3,3.3-12,5.6c-3.6,2.2-6.6,5.2-9.9,7.9
		c0.1,0.2,0.2,0.3,0.3,0.5c1.4-0.2,2.7-0.4,4.2-0.6c-0.6,4.5-1.3,4.9-5.5,5.9c-3.7,0.9-7.4,2.3-10.9,4c-2.3,1.1-4.2,3.2-6.4,4.7
		c-3.9,2.6-8.2,4.7-11.7,7.7c-3.9,3.3-7.4,7.3-10.6,11.3c-7,8.6-12.6,18.1-15.8,28.8c-1.4,4.6-2.8,9.1-4.4,13.7
		c-2.7,7.9-5.6,15.8-8.3,23.7c-2.7,7.9-5.1,16-7.9,23.8c-1.5,4.1-4.2,7.7-5.4,11.8c-1.5,5.1-2.1,10.6-3.1,15.9
		c-0.8,4.3-1.7,8.5-2.2,12.8c-0.6,5.8-0.5,11.7-1.5,17.4c-1.2,7.3-4.4,14-2,22.2c2.4,8.3,2.4,17.4,3.3,26.1
		c0.7,7.7,0.7,15.5,1.9,23.2c2,12.8,5.4,25.3,10.9,37.2c0.9,1.9,0.7,4.2,0.9,6.4c0.1,1.3-0.3,2.8,0.3,3.7c1.6,2.2,3.5,4.1,5.5,5.9
		c0.4,0.3,1.6-0.1,2.4-0.5c0.7-0.3,1.3-0.9,2.9-2.1c-0.3,1.7-0.1,3-0.6,3.3c-2.8,1.5-2.4,2.4,0.4,3.2c0.7,0.2,1,1.3,1.6,1.9
		c0.9,1.1,1.7,2.1,2.6,3.2c0.2-0.1,0.3-0.3,0.5-0.4c-0.2-1.1-0.5-2.3-0.7-3.5c0.3-0.2,0.6-0.4,0.9-0.7c2.3,2.3,5.2,4.4,6.8,7.1
		c3.7,6,8.6,10.8,13.4,15.7c4,4.2,9.8,6.5,12.5,12.4c0.4-1,0.7-1.7,1.1-2.7c0.7,1,0.9,2,1.6,2.4c3.4,2.1,6.9,4,10.9,4.5
		c4.2,0.5,7.8,2.2,11.4,4.4c2.5,1.6,5.8,2.1,8.3,3.7c1.8,1.2,3.1,2.6,5.5,2.2c0.7-0.1,1.6,1,2.4,1.5c-0.8,0.5-1.5,1-2.3,1.4
		c-0.5,0.2-1.1,0.1-1.6,0.2c2.3,1.3,4.6,2.3,7,2.9c1.4,0.3,3,0.2,4.4-0.1c2.8-0.5,5.6-1.4,8.4-1.7c0.9-0.1,2,1.2,3,1.9
		c1.4,1.1,2.8,2.3,4.2,3.5c0.3-0.2,0.5-0.4,0.8-0.6c-0.7-2-1.3-4.1-2.2-6.8c2.9,1.4,5.1,2.5,7.1,3.4c1-0.4,2.1-1.1,3.4-1.4
		c3.3-0.7,5.3-2.7,5.9-5.9c0.2-1.3,0.7-2.6,1.4-3.8c2.2-4,1.6-5.7-2.9-6.8c-2.2-0.5-4.4-0.6-5.9-0.8c-0.9-2.7-1.6-4.7-2.3-6.7
		c-0.4,0-0.8,0.1-1.2,0.1c0,1.7,0,3.3,0,5c-0.4,0-0.7,0.1-1.1,0.1c-1.1-2.4-2.2-4.7-3.2-6.6c-0.9-1.5-2-2.5-2.1-3.6
		c-0.3-1.8-0.8-3.5,0.7-5.5c1.2-1.5,0.8-4.3,1.3-6.4c1.2-4.6,4.8-5.9,8.6-3.3c1.3,0.9,2.5,2,3.9,2.8c0.8,0.5,2.3,1.1,2.8,0.7
		c4.9-3.6,9.6,2.1,14.4,0.2c0.2-0.1,0.7,0.2,0.8,0.4c2.7,4.5,8.5,1.6,11.8,4.9c0.3,0.2,1.3,0,1.8-0.4c3.3-2,6.5-4.2,9.9-6.1
		c0.9-0.5,2.8-0.4,3.3,0.2c0.6,0.7,0.5,2.5,0,3.4c-0.6,1.1-2,1.7-3,2.7c-1.8,2-3.5,4-5.3,6.1c-0.1,0.1-0.1,0.4,0,0.6
		c0.3,2,0.5,3.9,0.9,6.7c0.6-1.9,0.9-2.8,1.2-3.8c1,0.4,1.8,0.8,3,1.2c0.2-2.6,0.3-4.9,0.5-7.1c0.3,0,0.6,0,0.8,0
		c0.4,2.2,0.8,4.4,1.2,6.5c1-0.2,1.8-0.3,2.6-0.6c2.7-1.1,5.8-1.6,7.9-3.4c11.1-9.5,20-21,28.3-33c2.2-3.2,4.2-6.7,6.9-9.6
		c9.1-9.8,18.7-19.1,27.7-29c7.3-8,14.3-16.3,20.6-25C611.9,399.3,615,392.4,618.7,385.7z M548.9,283.3c-0.3,3.5-0.8,7.1-0.9,10.7
		c-0.8,19.7,14.8,38.8,34.3,41.5c18.3,2.5,32.9-4.1,43.4-19.4c3.7-5.4,6.6-11.3,8.1-17.7c-11.4-1.2-22.7-2.5-33.7-3.7
		c-1.1,1.4-2.1,2.9-3.4,4.1c-3.2,2.6-6.7,2.2-10.2,0.6c-2.6-1.2-4.4-3.4-4-6.3c0.3-2.3-0.7-2.7-2.5-3
		C569.8,287.9,559.6,285.6,548.9,283.3z M421.2,250.3c-4,24.8,6.9,49.9,34.6,54.7c22.9,4,42.2-9.1,47.6-31.8
		c-9.2-2.2-18.4-4.2-27.5-6.5c-2.4-0.6-3.9-0.3-5.7,1.8c-3,3.7-7.3,4.1-11.6,2.6c-3.9-1.3-5.8-4.4-6.1-8.7c-0.1-0.8-1-2-1.8-2.2
		c-2.7-1-5.5-1.5-8.2-2.4C435.4,255.3,428.4,252.8,421.2,250.3z M267.6,326.5c0.3-0.1,0.6-0.2,0.9-0.2c0.6,2,1.2,3.9,2,5.9
		c1.1,2.8,1.9,5.7,3.5,8.1c3.1,4.8,6.7,9.3,10.2,13.8c6.7,8.6,15.8,10,25.7,8.1c6.3-1.2,10.8-5.6,15.3-9.9c3.1-2.9,3.6-6.6,3.6-10.5
		c0-1.8-0.8-2.3-2.7-2.1c-2.3,0.3-5.1,1-6.8-0.1c-4.1-2.5-7.8-5.7-11.4-9c-2.8-2.6-1.9-6.3-1.8-9.7c0.1-2.6-0.9-4.1-3.6-4.7
		c-3.5-0.7-6.8-1.8-10.1-2.7c0.1,0.3,0.3,1.4,0.6,2.9c-2.8-0.5-5.4-1-8-1.5c-0.1,0.3-0.4,1.3-0.7,2.2c-1.5-0.2-2.7-0.3-3.9-0.5
		c0,1.5-0.1,3.1,0.2,4.6c0.2,1.5,0.8,2.9,1.4,4.2c0.9,2.1,0.2,3.5-1.5,4.6c-1.1,0.8-2.6,1.4-3.2,2.5c-0.5,1.1-0.1,2.6-0.1,4.5
		c-2.6-3.8-4.4-7.2-2.4-11.4c1.2-2.7,2.4-5.4,3.4-8.2c0.4-1,0.2-2.2,0.2-3.3c-1.1,0-2.4-0.3-3.2,0.2c-1.6,1.2-3.1,2.8-4.4,4.4
		c-1.2,1.3-2.1,2.8-3.2,4.2c-2.1,2.8-4.4,5.4-4,9.3c0.2,2.6,0.2,5.3,0.4,8c0.4,8.7,4.2,15.7,10.5,21.4c1.9,1.7,4.7,2.6,6.4,4.5
		c4.9,5.6,11.6,6.5,18.3,7.4c2.3,0.3,4.8,0,7,0.7c2.7,0.9,3.5,0.2,3.3-1.6c5.3-3.4,11.6-3.6,15.8-8.5c-1.7,0.4-3.3,0.7-5,1.1
		c0.9-1.5,2.4-2.2,3-3.4c0.7-1.3,0.5-3,0.7-4.6c-0.3-0.1-0.6-0.2-0.9-0.3c-2.2,3.2-7.7,3.5-7,9.8c-1.3-1.4-2.1-2.2-3.1-3.2
		c-0.4,1.1-0.7,2-1.2,2.8c-0.5,0.9-1.1,1.7-1.7,2.6c-1.3-1.2-2.3-2.9-3.4-2.9c-1-0.1-2.2,1.5-2.9,2.1c-2-1.4-3.6-2.8-5.5-3.6
		c-2.6-1.1-6-0.1-8.3-2.5c-0.2-0.2-1.2,0.3-1.8,0.5c-0.2,0.4-0.4,0.7-0.6,1.1c1.4,0.8,2.7,1.5,4.1,2.2c-0.2,0.2-0.4,0.4-0.6,0.6
		c-2-0.7-4.2-1-5.8-2.2c-2-1.4-3.8-3.3-5-5.4c-1.9-3.3-3.1-6.9-4.7-10.4c-1.8-3.8-3.9-7.5-5.4-11.5
		C268.7,333.8,268.3,330.1,267.6,326.5z M504.8,269.6c0.7-3.8,1.5-7.4,1.9-11c0.8-6.7,0.2-8.2-6-10.9c-7.8-3.4-15.7-6.6-23.7-9.2
		c-12-4-24.2-7.5-37-7.5c-10.1,0-16.5,5.7-17.9,15.9C448.7,257.6,476.5,263.7,504.8,269.6z M634.3,293.7c1.5-5.5,0.5-10.2-3.1-13.6
		c-3.2-3-7.2-5.7-11.4-7.3c-14-5.5-28.9-7.7-43.8-9.1c-5.3-0.5-10.6-0.6-15.9-0.6c-2.5,0-5.2,0.5-6.2,3.5c-1.2,3.6-2.4,7.3-3.6,10.9
		c-0.5,1.6,0,2.6,1.8,3c9,2.3,17.8,5,26.8,6.8c11.1,2.1,22.4,3.5,33.7,4.9C619.8,292.9,627,293.2,634.3,293.7z M581.6,133.7
		c17-6,17.7-4.9,30.8,2c-0.1-0.4-0.1-0.7-0.2-0.9c-2.3-2.1-4.6-4.2-7-6.2c-1.2-1-2.5-2-3.8-2.8c-2.6-1.5-5.7-2.4-7.9-4.4
		c-5.5-5.1-10.5-10.7-16-15.8c-3.7-3.4-6.6-8-12-9.4c-1.2-0.3-2.8,0.3-3.8-0.2c-5.5-3.1-10.8-6.6-16.3-9.8c-1.2-0.7-3-1.4-4-1
		c-2.4,1.1-3.5-0.1-5.2-1.6c-4.3-3.9-8.6-7.9-13.4-11c-6.7-4.3-13.8-7.8-20.8-11.6c-2.6-1.5-7.6,0.3-8.8,3c-0.5,1-1.3,1.8-2.3,3.3
		c3.6,0.5,6.3,4,10.3,3.2c0.1-1.2,0.2-2,0.3-2.7c0.8,0.4,1.7,0.7,2.3,1.3c0.3,0.3,0.2,1.1,0.4,1.7c0.3,0.7,0.5,1.6,1,2.1
		c5.7,5.5,13.1,8,20.1,11.1c2.7,1.2,5.2,2.3,7.6,4c3.2,2.3,6.5,5.3,10.7,4.8c5-0.6,7.9,2.4,11.1,5c1.5,1.2,2.6,2.8,4.2,3.9
		c4.4,3,8,7,13.6,8.5c3.8,0.9,7,4.1,10.5,6.3c-0.1,0.2-0.3,0.5-0.4,0.7c-0.7-0.2-1.4-0.4-2.1-0.6c-5.7-1.4-11.5-2.9-17.3-4
		c-3.7-0.7-7.6-0.9-11.3-1.2c-1.2-0.1-2.4,0.6-4.2,1.1c4.1,0.8,7.4,1.4,10.6,2.2c3.1,0.7,6.1,1.6,9.1,2.6c4.4,1.5,8.7,3.2,13,4.7
		c1.7,0.6,3.5,1.2,5.2,1.8c0.1-0.3,0.2-0.5,0.2-0.8c-0.6-1.1-1.2-2.2-1.9-3.4c4.8,2.8,9.3,5.4,13.7,8c0.1,0.4,0.1,0.7,0.2,1.1
		C591.2,126.4,586.2,128.4,581.6,133.7z M509.2,85.8c0.5,1.2,0.6,1.8,0.9,2.1c2.5,2.7,5.1,5.2,7.5,8c0.5,0.6,0.2,1.9,0.3,2.9
		c-0.9-0.1-2.1,0.1-2.7-0.5c-2-1.9-3.8-4-5.6-6c-2.2-2.3-4.2-4.8-6.6-6.8c-2.2-1.7-4.8-2.8-8.1-4.7c-1.4,0.5-2.8,4.9-6.6,2.1
		c0.6-0.7,1.1-1.2,2.1-2.4c-3.4,0.2-6.1,0.2-8.8,0.5c-1.9,0.2-2.3,1.3-1.1,2.9c2,2.7,4,2,5.9-0.2c2.9,2.3,5.6,4.5,8.3,6.6
		c2.9,2.3,6,4.3,8.8,6.7c6.5,5.7,11.8,12.7,19.5,17.3c4.4,2.6,8.1,6.5,11.8,10.1c2.9,2.8,5.3,6.1,8.2,8.9c2.1,2,4.8,3.4,7.2,5
		c0.3-0.3,0.6-0.7,0.9-1c-8.3-9.4-16.6-18.7-24.9-28.1c4.4,3,8.3,6.5,12.4,9.8c0.8,0.6,2.3,0.3,3.5,0.5c-0.3-1.5-0.4-3.1-1-4.4
		c-0.4-0.9-1.6-1.4-2.5-2.1c0.1-0.3,0.2-0.6,0.3-0.9c2.5,0,4.9,0,7.4,0c-2.4-1.2-4.8-1.9-7.3-2.4c-7.7-1.4-11.9-6.7-15.8-13
		c-2.3-3.8-5.9-6.8-9.2-9.9C512.9,86.1,511.1,86.2,509.2,85.8z M453,76.2c-0.3-0.4-0.6-0.7-0.9-1.1c-2.5,0.7-5.1,1.4-7.5,2.3
		c-0.7,0.2-1.5,1.6-1.3,2c1.3,2.7-1.1,3.1-2.4,3.8c-4,1.9-8,3.7-12.1,5.4c-7.5,3.1-12.7,9-18.5,14.3c-4.7,4.4-9.4,8.8-13.8,13.5
		c-2.3,2.3-4.5,4.9-6,7.7c-1.7,3.3-2.4,7-3.7,10.5c-0.7,1.8-1.5,3.6-2.3,5.4c0.3,0.1,0.6,0.2,0.9,0.4c0.3-0.6,0.7-1.2,0.9-1.8
		c3.6-8.6,8.5-16.1,16-21.9c5.7-4.4,11-9.2,15.7-13.1c-0.3-1.6-0.4-2.4-0.6-3.7c2.9,1.6,9.8-0.8,11.7-3.1c1.2-1.4,2.5-3,4.1-3.8
		c5.5-2.7,11.1-5.1,16.6-7.7c0.3-0.1,0.5-0.4,0.8-0.6c-0.7-0.5-1.3-0.9-2.7-1.9c3.3-0.4,5.7-0.7,8.3-1c-1.4-3.4-4.2-1.3-5.8-2.1
		C451.3,78.5,452.2,77.4,453,76.2z M486.4,92.3c-2.9,4.9-6,5-10.1,3c-2.9-1.4-6.5-1.5-9.7-2.1c-0.1,0.4-0.2,0.9-0.4,1.3
		c1.3,0.6,2.5,1.5,3.8,1.8c3.1,0.8,6.3,1.1,9.3,2c1.7,0.5,3.5,1.5,4.6,2.8c2.2,2.6,3.5,6.4,6.2,8.3c6.2,4.4,12.8,8.4,19.5,11.9
		c6.7,3.4,13.4,6.6,19.2,11.4c0.9,0.7,2.2,1,3.3,1.4c0.2-0.5,0.5-0.9,0.7-1.4c-6.1-4.6-12.1-9.4-18.3-13.9
		c-6.2-4.4-13.7-6.8-20-12.5c2.5,0,4.1,0,6.4,0C491.8,103.5,487.1,103.5,486.4,92.3z M392,111.7c2.2,2.3,3.6,1.5,4.8,0.3
		c4.6-4.4,9.1-8.9,13.7-13.3c6.2-5.9,12.9-10.9,20.7-14.5c2.3-1.1,4.3-2.8,6.5-4.2c-0.2-0.4-0.4-0.8-0.5-1.2
		c-2.8,0.9-5.7,1.7-8.5,2.8c-4.4,1.8-9,3.3-13,5.8c-3.4,2.2-6.2,5.4-9,8.4C401.6,100.9,396.9,106.3,392,111.7z M596.7,264.3
		c4.2,0.9,8.3,1.9,12.4,2.7c0.6,0.1,1.4,0.1,1.8-0.3c3-2.6,5.9-5.2,9.3-8.2c-5-1-9.3-2-13.6-2.8c-0.8-0.1-2,0.1-2.5,0.7
		C601.7,258.9,599.4,261.5,596.7,264.3z M607.9,108.1c-0.9-2.4-1.7-3.3-3.8-3c-1.8,0.3-3.7,0.1-5.6,0.2c-1,0.1-2,0.3-3,0.5
		c1,3.6-0.1,4.6-3.3,4.4c-2.1-0.2-4.2,0.5-6.3,0.7c0,0.3,0,0.6-0.1,0.9c3.4,1.8,6.8,3.7,10.3,5.2c2.4,1,4.9,1.6,7.5,2.2
		c0.6,0.1,1.4-0.5,2.2-0.7c-0.3-0.6-0.5-1.3-1-1.8c-1.3-1.3-2.8-2.4-4.4-3.8C603.4,111.8,602.3,106,607.9,108.1z M490.8,229.3
		c-3.8-1.1-7.3-2.1-10.7-3.1c-0.3-0.1-0.8,0.2-1.2,0.4c-3.3,2.3-6.5,4.6-10.2,7.1c4,1.2,7.7,2.4,11.4,3.4c0.6,0.2,1.4-0.3,1.9-0.7
		C484.9,234.3,487.5,232,490.8,229.3z M651.2,275.3c0.9-0.8,2.7-1.5,2.8-2.4c0.2-1.3-0.6-3.8-1.4-4c-4-0.9-8.1-1.4-12.2-1.7
		c-0.7,0-1.9,1.7-2.2,2.8c-0.2,0.6,0.9,2.1,1.7,2.4C643.4,273.5,647,274.3,651.2,275.3z M428,222.5c1-0.7,2.5-1.2,2.6-2
		c0.1-1.2-0.3-3.3-1.1-3.6c-3.5-1.6-7.3-2.8-11-3.7c-0.9-0.2-2.6,1.5-3.2,2.7c-0.3,0.7,0.7,2.8,1.5,3.1
		C420.3,220.3,424,221.3,428,222.5z M483.9,127.2c-0.2-0.4-0.4-0.7-0.7-1.1c-6,1.6-12.1,2.6-17.8,4.9c-5.6,2.3-10.7,5.8-16,8.7
		c0.2,0.3,0.4,0.7,0.6,1c2.7-1.2,5.3-2.6,8.1-3.6c7.3-2.6,14.7-4.9,22-7.5C481.4,129.3,482.6,128.1,483.9,127.2z M311.4,375.3
		c0.1,0.5,0.1,1,0.2,1.5c3.7,0.4,7.4,0.9,11.1,1.1c1.7,0.1,3.7,0,3.4-2.6c-0.3-2.2-0.9-4.4-4-3.6c-2.2,0.6-4.5,1.1-6.7,1.8
		C314,374,312.7,374.7,311.4,375.3z M487.1,66.2c0.1-0.3,0.1-0.5,0.2-0.8c-0.4-0.3-1-0.6-1.1-1c-0.6-3.6-2.8-3.4-5.4-2.5
		c-1.9,0.7-2.7-0.5-3.8-1.9c-0.7-0.9-2.4-1-3.7-1.1c-0.3,0-1.2,1.8-1,2.1c0.8,0.9,1.9,1.4,2.9,2c0.3,0.2,0.8,0,1.3,0
		c0,0.9-0.1,1.5-0.1,1.5C480.2,65.2,483.6,65.7,487.1,66.2z M536.5,257.7c-1.9-0.2-3.8-0.8-4.3-0.3c-2.6,3-4.8,6.3-7.2,9.7
		c1.8,0.4,3.4,0.7,4.2,0.9C531.7,264.6,533.8,261.5,536.5,257.7z M479.5,220.1c-5.5-4-23.6-8.8-26.9-7.2
		C461.8,215.4,470.6,217.7,479.5,220.1z M558.2,123c8.4,1.5,16.2,2.8,24.4,4.3C579.5,124,563.1,121.1,558.2,123z M351.8,236.8
		c0.9-1.9,1.6-3.8,2.6-5.5c1-1.6,2.3-3.1,3.3-4.7c0.9-1.5,1.6-3.2,2.4-4.8C351.8,228.4,349.3,233.3,351.8,236.8z M425.6,148.4
		c3.2-1.3,5.6-2.3,8.1-3.3c2.6-1,5.2-1.9,7.7-2.8c-1.2-1.8-3.3-2.8-5.2-1.7c-3.4,1.8-6.5,4-9.8,6.1
		C426.3,146.9,426.2,147.3,425.6,148.4z M484.8,122.2c-5.1-2-19.6,0.9-21,3.5C470.8,124.6,477.8,123.4,484.8,122.2z M486.1,109
		c-3.3-5.4-8.7-7-13.4-3.8C477.2,106.5,481.4,107.7,486.1,109z M560.6,132.2c0.4-0.3,0.8-0.7,1.2-1c-0.9-1.3-1.8-2.6-2.8-3.8
		c-1.1-1.3-2.4-2.3-3.7-3.5c0.1-0.3,0.3-0.6,0.4-0.9c-1.5,0.1-3.1,0.3-4.6,0.4c0,0.3-0.1,0.5-0.1,0.8
		C554.2,126.9,557.4,129.5,560.6,132.2z M470.5,74.5c-0.4-0.2-0.8-0.5-1.1-0.5c-4.4,0-8.8,0-13.2,0.2c-0.5,0-1,1.6-1.5,2.4
		C460.3,75.9,465.3,75.2,470.5,74.5z M343.4,205.7c4.4-3.3,6.8-9.2,5.7-13.7C347.3,196.6,345.4,201.1,343.4,205.7z M444.9,148.5
		c-0.2-0.5-0.4-1-0.6-1.4c-5.2,2.5-10.5,5.1-15.7,7.6c0.2,0.4,0.4,0.8,0.6,1.2C434.3,153.4,439.6,150.9,444.9,148.5z M462.3,264.6
		c-0.1-0.4-0.2-0.8-0.3-1.2c-2.2-0.7-4.4-1.3-6.7-2.1c-1,3.2,0.5,5.1,2.7,5.6C459.2,267.2,460.8,265.4,462.3,264.6z M633.4,139.9
		c-0.1-0.3-0.2-0.6-0.3-0.9c-5.5-0.5-10.8,1.5-10.7,4.4C626.2,142.2,629.8,141.1,633.4,139.9z M473.6,111.4
		c-6.2-1.3-12.3-2.7-18.5,0C461.2,111.4,467.4,111.4,473.6,111.4z M430.2,105c-4.3-1.8-7.1-0.3-7.6,3.7
		C425,107.5,427.5,106.3,430.2,105z M410.1,121.5c-2.7,2.3-5.2,4.4-7.7,6.5C408,127,410.4,124.8,410.1,121.5z M622.2,184.3
		c-0.2-0.3-0.5-0.6-0.7-0.8c-2.5,2-4.9,4.1-7.4,6.1c0.2,0.2,0.4,0.5,0.6,0.7C618,189.3,620.5,187.3,622.2,184.3z M612.2,251.4
		c-5.2-3.1-9.9-4-12.6-2.6C604.1,249.8,608.1,250.6,612.2,251.4z M471.2,88c-4.3-1.6-7.1-0.4-8.7,3.4c1.4-0.6,2.4-1.9,3.7-2.5
		C467.7,88.3,469.5,88.3,471.2,88z M507.2,59.9c-0.1,0.3-0.2,0.6-0.4,0.9c2.1,0.6,4.1,1.1,6.7,1.8c0.1-1.4,0.2-2.4,0.3-3.5
		C511.3,59.4,509.3,59.7,507.2,59.9z M585.4,291.3c-0.3,0.2-0.5,0.3-0.8,0.5c0.7,1.2,1.5,2.5,2.2,3.7c1.1-0.7,2.2-1.4,3.4-2.2
		c-0.1-0.3-0.3-0.7-0.4-1C588.3,292,586.8,291.6,585.4,291.3z M416.9,395.1c-1-2.8-1.8-5-2.9-7.9
		C412.5,391.2,413.3,393.5,416.9,395.1z M581.9,131c-0.1-0.4-0.2-0.7-0.3-1.1c-3.2,1.5-6.5,3-9.7,4.5c0.2,0.4,0.4,0.8,0.6,1.2
		C575.6,134.1,578.8,132.6,581.9,131z M443.8,119.8c2.9,0.5,5.3,1,7.7,1.4C449.3,118.5,446.2,118,443.8,119.8z M666.4,304.7
		c0.4-0.1,0.8-0.2,1.2-0.3c-0.4-1.7-0.9-3.4-1.5-5.8C664.1,301.5,664.9,303.2,666.4,304.7z M456.3,95.6c1.9,0,3.3,0,4.6,0
		c-1-1.2-1.8-2.2-2.7-3.3C457.7,93.3,457.1,94.3,456.3,95.6z M623.9,133.7c-0.1-0.4-0.2-0.8-0.4-1.2c-2.5,0.8-5,1.5-7.5,2.3
		c0.1,0.3,0.2,0.6,0.3,1C618.9,135,621.4,134.4,623.9,133.7z M478.6,92c0.1-0.6,0.1-1.1,0.2-1.7c-2.2-0.2-4.4-0.3-6.5-0.5
		c0,0.4-0.1,0.7-0.1,1.1C474.3,91.3,476.4,91.7,478.6,92z M564.1,135.1c1.5,1.2,3,2.5,4.6,3.8C569,136.8,568.3,136.2,564.1,135.1z"
		/>
	<path style="fill:#FFFFFF;" d="M339.7,537.3c0-1.2-0.3-2.4-0.1-3.5c3.1-15.5,1.9-31.3,2.9-47c0.3-5.4,0.7-10.8,1.1-16.2
		c0.1-0.7,0.8-1.3,1.2-2c0.6,0.4,1.3,0.6,1.7,1.1c7.1,10.9,16,20.3,25.1,29.4c4.7,4.7,9.6,9.4,14.8,13.4c5.1,3.9,10.8,7,16.2,10.4
		c2,1.2,3.9,2.5,5.8,3.8c0.3,0.2,0.7,1.1,0.5,1.3c-0.4,0.5-1,1.1-1.6,1.2c-2.5,0.1-4.9,0.1-7.4,0.1c0,0.3-0.1,0.5-0.1,0.8
		c2.4,0.4,4.8,0.6,7.2,1.3c5.5,1.5,10.8,3.3,16.3,4.9c2,0.6,4.2,0.7,6.3,1.1C399.6,537.3,369.7,537.3,339.7,537.3z"/>
	<path d="M559.8,537.3c0.9-2.9,3.2-5.7,1.1-8.5c2.6-4.5,5.2-8.8,7.6-13.3c1.4-2.7,2.5-5.6,3.7-8.4c1.2-3.2,3.1-5.7,6.6-6.8
		c4-1.2,7.5-4.1,12.1-3.1c1.4,0.3,2.8,0.8,4.2,1.2c0.7,0.2,1.4,0.8,2.1,0.8c8.5,0.3,13.7,7,20.5,10.5c5.9,3.1,11.6,6.5,17.4,9.8
		c0.4,0.3,0.8,0.6,0.9,1.4c-3.8-2.1-7.4-4.5-11.3-6.3c-3-1.4-6.3-2-9.4-3.2c-1.2-0.5-2.2-1.5-3.2-2.4c-1.4-1.2-2.7-2.6-4.2-3.6
		c-0.5-0.3-1.6,0.3-2.5,0.6c-0.2-0.3-0.4-0.9-0.7-1.5c-0.3,0.3-0.7,0.4-0.8,0.6c-0.5,0.9-0.8,2.1-1.4,2.8c-0.8,0.9-2,1.4-3,2.1
		c-0.7-1.2-1.7-2.3-2.2-3.6c-0.6-1.7-0.4-4.5-1.4-4.9c-2.7-1.1-6.1-2.1-8.8-1.5c-2.6,0.6-5.5,2.8-6.9,5.1
		c-3.4,5.9-6.2,12.1-8.7,18.4c-1,2.5-2,3.5-4.6,2.8c-0.5-0.1-1,0.1-1.5,0.1c0.7,2.1,0.7,2.1,7.4,3.5c-1.4,0-2.8,0-4.2,0
		c-1.9-0.1-3.8-0.2-5.7-0.3c0,2.3,0.1,4.5,0.2,6.8c0,0.4,0.5,0.7,0.7,1C562.4,537.3,561.1,537.3,559.8,537.3z"/>
	<path style="fill:#FFFFFF;" d="M508.1,537.3c-1.2-5.6,0.4-7.8,6-8.6c1.4-0.2,2.8-1,4.2-1.5c2.4-0.7,3.7,0.3,3.7,2.8
		c0,2.4-0.3,4.9-0.4,7.3C517.1,537.3,512.6,537.3,508.1,537.3z"/>
	<path style="fill:#FFFFFF;" d="M524.1,537.3c-0.4-2.1-0.9-4.1-1.2-6.2c-0.4-2.7,1.1-4.1,3.6-4.6c2.6-0.5,3.8,0.5,3.4,3.1
		c-0.3,2.6-0.9,5.1-1.4,7.6C527.1,537.3,525.6,537.3,524.1,537.3z"/>
	<path d="M603.2,537.3c5.1-3.8,10.6-3.2,16.3-1.5c1.8,0.6,3.6,1,5.4,1.5C617.7,537.3,610.4,537.3,603.2,537.3z"/>
	<path style="fill:#FFFFFF;" d="M500.5,537.3c-0.4-2.2,2.8-5.8,4.9-5.2c0.6,0.2,1.3,1.1,1.4,1.8c0.2,1.1,0.1,2.3,0.1,3.4
		C504.7,537.3,502.6,537.3,500.5,537.3z"/>
	<path d="M588.5,537.3c-3.2-4.5-7.7-6.6-13.9-6.7c5.8-1.4,12.7,1.9,15.2,6.7C589.4,537.3,589,537.3,588.5,537.3z"/>
	<path style="fill:#FFFFFF;" d="M492.8,537.3c3.1-3.2,5-3.2,6.4,0C497.1,537.3,494.9,537.3,492.8,537.3z"/>
	<path d="M551.5,537.3c0.7-1.7,1.5-3.4,2.2-5.1c0.2,0,0.4,0,0.6,0c0.1,1.7,0.3,3.4,0.4,5.1C553.7,537.3,552.6,537.3,551.5,537.3z"/>
	<path d="M537.5,537.3c0-2.1,0-4.3,0-6.4c0.2,0,0.4,0,0.6-0.1c0.4,2.2,0.9,4.3,1.3,6.5C538.8,537.3,538.1,537.3,537.5,537.3z"/>
	<path d="M773.6,318c1.9,3.1,4,6.1,5.6,9.4c3.7,7.3,7.3,14.6,10.9,22c9.1,18.9,18.2,37.9,27.3,56.9c7.9,16.5,16,32.9,23.9,49.3
		c3.5,7.3,6.8,14.8,10.1,22.2c-0.2,0.1-0.5,0.2-0.7,0.4c-24.6-51.2-49.1-102.4-73.7-153.6c-0.5,0.2-1,0.4-1.4,0.6
		c0.5,1.7,0.8,3.5,1.6,5.1c2.9,6,6.1,11.9,8.8,18c3.4,7.4,6.3,15,9.7,22.4c3,6.6,6.5,13,9.7,19.6c3.6,7.5,7.2,15.1,10.8,22.7
		c1.5,3.1,3,6.3,4.5,9.5c5.8,12.6,11.7,25.2,17.4,37.8c3.2,7.1,6.2,14.4,9.3,21.5c-0.2,0.2-0.5,0.4-0.7,0.7
		c-0.8-0.9-1.8-1.6-2.3-2.6c-2.1-4.5-4.1-9.1-6.2-13.6c-4.9-10.4-9.9-20.7-14.7-31.1c-4.1-9-7.8-18.2-12-27.1
		c-6.4-13.6-13.2-27.1-19.6-40.7c-7-14.8-13.7-29.7-20.5-44.6c-7.3-16-14.6-32-21.9-48c-4-8.6-8.1-17.2-12.2-26.1
		c-3.3,2.8-3.3,6.3-2.2,9.5c3.2,9.7,6.4,19.4,10.4,28.7c5.4,12.5,11.6,24.6,17.4,36.8c0.5,1,0.6,2.3,1,3.3c0.8,1.9-1.1,5.6,3.4,5.2
		c0.2,0,0.5,0.6,0.7,1c0.9,1.9,1.7,3.8,2.2,5.9c-0.7-0.9-1.4-1.8-2.1-2.7c-0.2,0.1-0.4,0.2-0.6,0.3c2.4,5.4,4.9,10.7,7.3,16.1
		c-0.3,0.2-0.7,0.4-1,0.6c-0.8-1.4-1.8-2.8-2.4-4.3c-2.5-5.6-4.7-11.3-7.2-16.9c-5.9-13.2-11.9-26.5-18-39.7
		c-4.9-10.8-10-21.5-15-32.3c-1.1-2.3-1.5-4.4,0-6.8c3.6-5.6,6.5-11.8,10.6-17.1c4.3-5.6,9.4-10.7,14.4-15.7
		c11.6-11.6,23.3-23,35-34.5c10.7-10.5,21.5-20.8,32.1-31.4c10.1-10,20.1-20.1,30.2-30.1c0.9-0.9,2-1.8,3.5-2.2
		c-5,5.7-10.5,11.1-14.8,17.3c-5.7,8.1-14.6,12.4-20.9,19.7c-5.7,6.5-11.8,12.5-17.9,18.6c-4.3,4.2-9.1,7.9-13.5,12.1
		c-8.9,8.6-17.5,17.3-26.3,26c-6.1,6.1-12.4,12-18.1,18.4c-2.5,2.8-4.6,6.5-5.6,10.2c-0.7,2.4,0.5,5.6,1.7,8.1
		c3.3,7.2,7,14.3,10.5,21.4c2,4.1,3.8,8.4,5.7,12.6c0.1-0.3,0.2-0.8,0.3-1.3c0.2-0.1,0.4-0.2,0.7-0.2c1.5,3.5,2.9,7.1,4.6,10.6
		c2.1,4.4,4.4,8.8,6.4,13.2C771.1,311.9,772.4,315,773.6,318c-0.7-1.3-1.5-2.7-2.3-4c-0.7-1.2-1.5-2.4-2.2-3.7
		c0.3,4.1,4.3,11.6,6.2,12.5C774.7,321.1,774.2,319.5,773.6,318z"/>
	<path d="M822.1,482c-1-2.1-2.1-4.2-3-6.3c-6.6-14.8-13.2-29.7-19.7-44.5c-4.7-10.7-9-21.5-13.6-32.2c-3.1-7-6.6-13.8-9.7-20.7
		c-5.8-13.1-11.4-26.2-17.2-39.4c-0.3-0.6-0.5-1.2-0.8-1.7c-7.2-10.3-10.3-22.5-15.7-33.6c-3.6-7.5-7-15.2-10.5-22.8
		c-3.1-6.7-5.9-13.6-9.2-20.2c-1.5-3.1-3.8-5.9-6.1-8.5c-2-2.3-1.8-4,0.2-6c7.9-7.7,15.8-15.4,23.7-23.2
		c15.5-15.2,30.9-30.4,46.4-45.5c9.8-9.6,19.7-19.1,29.5-28.6c7.9-7.7,15.8-15.4,23.7-23.2c0.2,0.2,0.4,0.4,0.6,0.5
		c-2.1,2.2-4.1,4.5-6.2,6.6c-14.9,14.8-29.9,29.6-44.7,44.5c-13.9,13.9-27.6,28-41.4,41.9c-4,4.1-8.4,7.8-12.2,12.1
		c-3.5,4-6.3,8.5-9.5,12.7c-1,1.3-2.5,2.4-3.7,3.6c-0.3-0.2-0.6-0.4-0.8-0.7c1.6-2.3,3.2-4.5,4.8-6.8c-0.2-0.2-0.4-0.4-0.6-0.6
		c-3.2,2.8-6.4,5.6-9.4,8.6c-0.5,0.5-0.3,2.6,0.3,3.2c9.1,9.1,12.9,21,17.6,32.5c2.3,5.6,5.1,11,7.6,16.5
		c3.9,8.7,7.7,17.5,11.7,26.1c2.1,4.5,4.6,8.8,6.7,13.3c4.6,9.9,9,19.9,13.5,29.9c4.2,9.2,8.5,18.3,12.5,27.5
		c4.6,10.7,8.8,21.6,13.4,32.3c2,4.6,4.6,8.9,6.6,13.4c4.7,10.7,9.2,21.5,13.8,32.2c0.9,2.2,1.8,4.5,2.7,6.7
		C822.8,481.7,822.4,481.8,822.1,482z"/>
	<path d="M647.6,332.5c0.8,3,1.7,6,2.5,9c1.8,6.8,3.7,13.5,5.4,20.3c2.5,10,4.9,20,7.5,30c2.5,9.6,5.5,19.2,7.7,28.9
		c3.1,13.6,8.1,26.6,12,39.9c4.1,13.7,7.3,27.7,10.8,41.6c0.5,2.1,0.5,4.2,0,6.5c-0.3-0.5-0.6-1-0.8-1.5
		c-2.6-10.6-4.9-21.3-7.7-31.9c-2.5-9.5-5.6-18.9-8.4-28.3c-0.2-0.5-0.3-1.1-0.6-1.5c-3-3.3-2.9-7.8-4.5-11.7
		c-1.4-3.7-1.4-7.9-2.4-11.8c-2.1-8.9-4.4-17.7-6.6-26.5c-1.6-6.5-3.2-13-5-19.4c-2.5-9-5.5-17.8-7.8-26.9c-1.4-5.4-2-10.9-3-16.4
		C647,332.7,647.3,332.6,647.6,332.5z"/>
	<path style="fill:#FFFFFF;" d="M253.6,358.8c-1-4.5-1.9-8.9-3.1-14.3c4.7,4.7,5.2,11.5,11.2,14.9c-2.9-6.1-5.3-11.7-4.4-18.5
		c6.9,10.5,13.6,20.7,20.3,30.8C272.5,373.4,260.8,367.1,253.6,358.8L253.6,358.8z"/>
	<path d="M318.4,310.4c-2.8-5.6-6-11.1-4.5-18c1.1-5.3-1.1-10.1-2.2-15c-0.4,0-0.9,0-1.3-0.1c-0.6,3-1.2,6-1.8,9
		c-2.5-8,3.8-36.6,12.2-42.3c4.3,0.9,8.1,2.3,9,7.3c-0.2,0.1-0.5,0.2-0.5,0.1c-3.6-3.4-6.8-2.5-9.2,2.1c-4.8,9.3-7,19.3-5.4,29.8
		c0.4,2.5,0.8,5.2,0.3,7.6c-1.1,5.6,0.7,10.5,3.2,15.3c0.6,1.2,1,2.4,1.5,3.6C319.4,310,318.9,310.2,318.4,310.4z"/>
	<path d="M746.6,481.7c-1.6-4-3.4-7.9-4.9-12c-2.2-5.9-4.6-11.7-6.2-17.7c-3.3-12.2-10-22.8-14.8-34.3c-3.6-8.5-6.7-17.2-10-25.8
		c-1.6-4.2-3.4-8.4-5-12.7c-3.7-9.9-7.4-19.8-11.1-29.7c0.2-0.1,0.5-0.2,0.7-0.4c1.2,2.8,2.5,5.5,3.6,8.3c2.7,7,5.4,14,8.1,21
		c2.9,7.4,5.6,14.9,8.6,22.2c4.1,9.9,8.5,19.6,12.7,29.5c3,7,5.8,14,8.5,21.1c3.1,8.2,6,16.5,9,24.8c0.6,1.7,1.1,3.5,1.7,5.2
		C747.2,481.5,746.9,481.6,746.6,481.7z"/>
	<path d="M665.4,361c0.6,0.8,1.5,1.6,1.8,2.6c2.9,9.4,5.7,18.9,8.5,28.3c3.6,12.4,7.3,24.8,10.9,37.2c3,10.5,5.6,21.1,8.7,31.6
		c1.3,4.7,3.3,9.2,4.8,13.8c0.8,2.3,1.4,4.6,2.1,7c-0.5,0.1-1,0.3-1.5,0.4C688.9,441.5,677.1,401.3,665.4,361L665.4,361z"/>
	<path d="M783,365.8c12.7,23.8,23.3,48.5,33.9,73.3c-0.3,0.2-0.7,0.3-1,0.5C804.9,415,794,390.4,783,365.8z"/>
	<path d="M645.2,138c4.4,0.4,8.6,0.8,13.1,1.1c0.1-0.3,0.3-0.9,0.3-0.9c6.2,3.8,12.5,7.3,18.3,11.6c2.3,1.7,3.4,5.2,5,7.8
		c-0.3,0.2-0.5,0.5-0.8,0.7c-0.6-0.6-1.2-1.2-1.7-1.8c-7.2-8.8-16.4-14.2-27.7-15.8c-1-0.1-2.2-0.1-3.1,0.3
		C646.3,141.8,645.4,140.9,645.2,138z"/>
	<path d="M701,246.6c-10.2,11.7-23.9,19.9-32.8,32.7C668.3,274.5,684.1,258.5,701,246.6z"/>
	<path d="M634.3,474.7c-3.6-13.9-7.2-27.8-10.8-41.7c0.3-0.1,0.6-0.2,0.9-0.2c3.6,13.9,7.3,27.7,10.9,41.6
		C635,474.5,634.7,474.6,634.3,474.7z"/>
	<path d="M784.5,447.6c2.4,5.6,5,11.1,7.3,16.7c2.3,5.6,4.3,11.4,6.1,17.3c-3.6-2.6-3.1-7-4.7-10.5c-1.8-3.8-3.4-7.8-4.9-11.7
		c-1.5-3.8-2.9-7.7-4.3-11.5C784.1,447.8,784.3,447.7,784.5,447.6z"/>
	<path d="M674.1,142.3c-5.4-7.5-13-11.3-22.4-13C659.7,128.6,672.5,136.1,674.1,142.3z"/>
	<path d="M715.6,276.6c0.7,2.5,1.5,6,2.4,9.5c-2-1.2-2-1.2-6,3.4C713.2,284.9,714.5,280.5,715.6,276.6z"/>
	<path d="M811.1,434.5c2.1,5.4,4.3,10.7,6.4,16.1c-0.3,0.1-0.6,0.3-1,0.4c-2.2-5.4-4.3-10.8-6.5-16.2
		C810.5,434.7,810.8,434.6,811.1,434.5z"/>
	<path d="M749.3,363.3c1.7,3.8,3.6,7.5,5.1,11.4c0.9,2.1,1.3,4.4,1.4,6.8C753.7,375.3,751.5,369.3,749.3,363.3L749.3,363.3z"/>
	<path d="M749.3,363.2c-2.2-4.5-4.4-9-6.5-13.5c0.4-0.2,0.8-0.3,1.2-0.5C745.7,353.9,747.5,358.6,749.3,363.2
		C749.3,363.3,749.3,363.2,749.3,363.2z"/>
	<path d="M672.1,480c-2.2-4.5-0.5-8.3,2.4-12.7C673.7,472.1,669.6,475.5,672.1,480z"/>
	<path d="M706.6,253.5c1.4,3.4,2.8,6.7,4.2,10.1c-0.3,0.1-0.6,0.2-0.9,0.4c-1.3-3.4-2.6-6.7-3.9-10.1
		C706.2,253.8,706.4,253.7,706.6,253.5z"/>
	<path d="M665.4,361c-1.2-4.1-2.4-8.3-3.5-12.4c0.4-0.1,0.7-0.2,1.1-0.3C663.8,352.5,664.6,356.7,665.4,361
		C665.4,361,665.4,361,665.4,361z"/>
	<path d="M659.6,417.5c0.3,4.4,0.6,8.7,1,13.1c-0.2,0-0.4,0-0.6,0c-0.3-4.4-0.7-8.8-1-13.2C659.2,417.5,659.4,417.5,659.6,417.5z"/>
	<path style="fill:#FFFFFF;" d="M618.7,385.7c-3.7,6.6-6.8,13.5-11.2,19.4c-6.4,8.7-13.4,17-20.6,25c-9,9.9-18.6,19.2-27.7,29
		c-2.7,2.8-4.6,6.3-6.9,9.6c-8.3,12-17.2,23.5-28.3,33c-2.1,1.8-5.2,2.4-7.9,3.4c-0.7,0.3-1.6,0.4-2.6,0.6c-0.4-2.1-0.8-4.3-1.2-6.5
		c-0.3,0-0.6,0-0.8,0c-0.1,2.2-0.3,4.5-0.5,7.1c-1.1-0.5-1.9-0.8-3-1.2c-0.3,1-0.6,1.9-1.2,3.8c-0.4-2.8-0.6-4.8-0.9-6.7
		c0-0.2-0.1-0.5,0-0.6c1.7-2,3.4-4.1,5.3-6.1c0.9-1,2.4-1.6,3-2.7c0.5-0.9,0.6-2.7,0-3.4c-0.5-0.6-2.4-0.7-3.3-0.2
		c-3.4,1.9-6.6,4.1-9.9,6.1c-0.5,0.3-1.5,0.6-1.8,0.4c-3.3-3.2-9-0.4-11.8-4.9c-0.1-0.2-0.6-0.5-0.8-0.4c-4.8,1.9-9.5-3.8-14.4-0.2
		c-0.5,0.4-2-0.2-2.8-0.7c-1.4-0.8-2.6-1.9-3.9-2.8c-3.8-2.6-7.4-1.3-8.6,3.3c-0.6,2.1-0.1,4.9-1.3,6.4c-1.5,2-1,3.7-0.7,5.5
		c0.2,1.1,1.2,2.1,2.1,3.6c0.9,1.9,2,4.3,3.2,6.6c0.4,0,0.7-0.1,1.1-0.1c0-1.7,0-3.3,0-5c0.4,0,0.8-0.1,1.2-0.1c0.7,2,1.4,4,2.3,6.7
		c1.4,0.2,3.7,0.2,5.9,0.8c4.5,1.1,5.1,2.9,2.9,6.8c-0.6,1.2-1.1,2.5-1.4,3.8c-0.6,3.2-2.6,5.2-5.9,5.9c-1.2,0.3-2.4,1-3.4,1.4
		c-2-1-4.1-2-7.1-3.4c0.9,2.7,1.5,4.8,2.2,6.8c-0.3,0.2-0.5,0.4-0.8,0.6c-1.4-1.2-2.8-2.4-4.2-3.5c-1-0.7-2.1-2-3-1.9
		c-2.8,0.3-5.6,1.2-8.4,1.7c-1.4,0.3-3,0.4-4.4,0.1c-2.4-0.6-4.7-1.5-7-2.9c0.5,0,1.2,0,1.6-0.2c0.8-0.4,1.6-0.9,2.3-1.4
		c-0.8-0.5-1.7-1.7-2.4-1.5c-2.4,0.4-3.7-1-5.5-2.2c-2.5-1.6-5.7-2.1-8.3-3.7c-3.6-2.2-7.2-3.9-11.4-4.4c-4-0.5-7.5-2.4-10.9-4.5
		c-0.6-0.4-0.9-1.3-1.6-2.4c-0.4,1-0.7,1.7-1.1,2.7c-2.6-5.9-8.4-8.2-12.5-12.4c-4.8-5-9.7-9.8-13.4-15.7c-1.7-2.7-4.5-4.8-6.8-7.1
		c-0.3,0.2-0.6,0.4-0.9,0.7c0.2,1.2,0.5,2.3,0.7,3.5c-0.2,0.1-0.3,0.3-0.5,0.4c-0.9-1.1-1.7-2.1-2.6-3.2c-0.5-0.6-0.9-1.7-1.6-1.9
		c-2.8-0.9-3.2-1.7-0.4-3.2c0.4-0.2,0.3-1.6,0.6-3.3c-1.5,1.1-2.1,1.8-2.9,2.1c-0.7,0.3-2,0.8-2.4,0.5c-2-1.8-3.9-3.8-5.5-5.9
		c-0.6-0.9-0.2-2.5-0.3-3.7c-0.2-2.1,0-4.5-0.9-6.4c-5.4-11.9-8.9-24.4-10.9-37.2c-1.2-7.6-1.1-15.5-1.9-23.2
		c-0.9-8.8-0.9-17.8-3.3-26.1c-2.4-8.1,0.7-14.8,2-22.1c1-5.7,0.8-11.6,1.5-17.4c0.5-4.3,1.4-8.6,2.2-12.8c1-5.3,1.5-10.7,3.1-15.9
		c1.2-4.1,4-7.7,5.4-11.8c2.9-7.9,5.2-15.9,7.9-23.8c2.7-7.9,5.6-15.8,8.3-23.7c1.5-4.5,3-9.1,4.4-13.7c3.2-10.8,8.8-20.2,15.8-28.8
		c3.3-4,6.7-7.9,10.6-11.3c3.5-3,7.8-5.1,11.7-7.7c2.2-1.5,4-3.5,6.4-4.7c3.5-1.7,7.1-3.1,10.9-4c4.2-1,5-1.4,5.5-5.9
		c-1.5,0.2-2.8,0.4-4.2,0.6c-0.1-0.2-0.2-0.3-0.3-0.5c3.3-2.7,6.3-5.7,9.9-7.9c3.7-2.3,7.9-3.7,12-5.6c1.7,4.1-2.6,5.1-3.7,8.2
		c1.1-0.6,1.8-0.9,2.4-1.3c0.3,1.2,0.7,2.4,1,3.7c1.9-0.7,3.8-1.2,5.5-2c3.9-1.9,7.6-3.9,11.5-5.8c0.4-0.2,1.2-0.4,1.5-0.2
		c4.4,2.5,7.9-0.2,11.6-1.9c0.9-0.4,1.7-1.1,2.6-1.1c6.6-0.1,13.2,0,19.7,0c0.2,0,0.4,0.2,0.6,0.1c7.5-2.2,14.4,2.8,21.8,1.8
		c0.5-0.1,1.3,0.1,1.5,0.4c1.4,3.6,5.2,3.5,7.8,4.4c3.3,1.1,6.4,3.6,10.4,2.5c0.9-0.2,2.3,1,3.4,1.7c1.7,1.1,3.4,2.3,5.1,3.5
		c0.8,0.5,1.5,1.1,2.3,1.5c1.2,0.6,3.1,1.8,3.5,1.4c3.2-2.6,6.2,0.6,9.3,0.2c3.2-0.4,6.7-0.6,9.6,0.4c5.5,1.9,11.2,1.8,16.7,3
		c5.3,1.1,10.7,2.1,15.7,4c2.5,0.9,4.4,3.7,6.4,5.9c1.5,1.6,2.9,3.4,3.9,5.4c2,3.8,5.2,3.8,8.6,3.4c1.3,3.5,2.6,6.9,3.8,10.2
		c0.2-0.1,0.3-0.2,0.5-0.3c0.9,1.5,1.8,3,2.7,4.5c1.2,2,2.6,4,3.4,6.2c1.9,5.6,4,11.2,5.2,16.9c1.8,8.5,2.8,17.1,4.2,25.7
		c0.1,0.5,0,1,0,2.3c-4-1-7.7-1.8-11.3-3.1c-1-0.3-1.4-2.2-2.1-3.4c-0.8-1.5-1.3-3-3.8-2.4c-1,0.2-2.8-1.1-3.5-2.1
		c-2.9-4.3-7.7-3.4-11.7-4.3c-0.3-0.1-0.9,1-2.1,1.3c0.1-1.2,0.2-2.3,0.4-4c-6.2,0-12.5-3.7-18.9,0.1c-2.7,1.6-2.5-0.8-3-3.3
		c-2.8,1.8-5.5,3-7.5,5c-2.1,2-4.1,2.9-7,2.9c-4.6,0.1-9.4,0.3-13.8,1.4c-6.2,1.6-8.7,4.5-11,10.7c-7.2-4.8-14.9-7-23.4-5.1
		c-0.2-0.3-0.5-0.4-0.4-0.6c1.8-10.4-4.4-16.2-12.5-20.3c-4.3-2.2-7.9-4.4-9.6-9.3c-2.5-7-8.9-10.2-14.6-14c-4.4-3-9.4-3.7-14.4-4.3
		c-1.1,3.8-4.4,4.8-6.7,2c-3.3-4.3-7.9-3.5-12.3-3.8c-1.2-0.1-2.5,0.1-3.7-0.1c-1.9-0.3-3.8-1.1-5.4,0.7c-0.4,0.4-1.5,0.2-2.8,0.3
		c0.6-1,1-1.5,1.3-2c-0.1-0.2-0.3-0.5-0.4-0.7c-2.4,1-4.9,1.8-7.1,3.2c-4.3,2.6-8.8,4.2-13.9,2.6c-3.4-1.1-5.4,0.6-6.7,3.6
		c-1.5,3.2-3.2,6.3-4.7,9.3c0.1,0,0.7-0.3,2.2-0.9c-0.9,3.5-1.6,6.5-2.1,8.7c1.4-0.1,3.6-0.3,5.6-0.5c-1.7,10.2-3.6,19.6-4.7,29
		c-0.5,3.7,0.5,7.5,0.9,11.3c1.8,14.9,6.8,28.3,19,38c9.3,7.4,20,11.6,31.7,13.2c1,0.1,2.1,0.3,3.9,0.6c-1.4,1.2-2.3,1.9-3.2,2.7
		c-4.7,4.2-9.5,8.2-14,12.6c-1.2,1.2-1.6,3.2-2.4,4.8c-0.4,0.8-1.1,1.6-2.1,3c-0.3-1.8-0.5-2.6-0.6-3.5c-4.6,4.9-10.6,7.5-16.2,10.6
		c-2,1.1-3.9,2.5-5.6,4c-2.9,2.5-5.8,5.2-8.5,8c-0.9,0.9-1.7,2.7-1.4,3.7c2,5.9,2.1,11.9,1.6,18c-0.5,6.8,2.5,12.9,5.4,18.9
		c0.4,0.7,1.2,1.2,1.6,1.9c2.4,3.4,4.8,6.9,7.1,10.4c1.1,1.7,2.1,3.4,3.1,5.1c0.3-0.1,0.5-0.3,0.8-0.4c-2.1-4.2-4.4-8.3-6.2-12.5
		c-2.8-6.6-5.4-13.3-7.8-20.1c-0.3-0.8,1.1-2.8,2.2-3.3c1.2-0.6,3.2-0.6,4.4,0.1c8.5,4.3,13.4,12.1,18.4,19.8
		c0.6,0.9,0.9,1.9,1.8,2.4c-0.2-5.6-3.7-8.9-7-12.5c-2.5-2.7-4.7-5.7-6.8-8.7c-0.6-0.8-0.4-2.1-0.5-3.1c1.2,0,2.6-0.5,3.4,0
		c6.9,4.6,13.7,9.3,20.4,14.1c2.5,1.8,4.7,3.2,8.3,3.1c2.9-0.1,5.8,2.1,8.8,3.2c2.8,1,5.6,2,8.6,2.7c-8.3-5.8-17.2-10.4-26.7-13.7
		c-3.2-1.1-6-3.3-9-5c0.1-0.4,0.1-0.8,0.2-1.3c1.2-0.2,2.4-0.8,3.6-0.7c7.7,0.5,15.5,0.8,23.2,1.9c5.1,0.7,10.3,2.1,14.9,4.2
		c7.1,3.2,13.9,7.3,20.8,11c0.8,0.4,1.8,0.8,2.7,0.9c6.1,0.6,12.1,1.5,18.3,0.3c7.2-1.4,14.4,0.2,20.7,4.3c1.5,1,2.8,3.1,2.9,4.8
		c0.1,1-2.2,2.6-3.7,3.2c-1.7,0.7-3.7,0.6-5.6,0.8c-2.4,0.3-4.9,0.6-7.3,1.5c5.1,1.7,10.3,2.9,15.2,0c2.5-1.5,4.8-3.4,7.2-5.3
		c2.2-1.8,4.3-2.1,6.9-0.4c2.1,1.4,4.8,1.9,7.6,2.8c-1.3-6.2-9.1-10.4-13.9-7.9c-2.5,1.3-4.5,0.9-6.9-0.2c-6.5-3.1-13.1-6-19.7-8.9
		c-2.1-0.9-4-1.1-6.4-0.4c-2.5,0.7-5.3,0.3-8,0.4c-2.3,0-4.7-0.3-7-0.1c-4.3,0.4-8-0.8-11.2-3.5c-5.9-4.9-13.2-6.8-20.4-8.1
		c-8.3-1.6-16.9-2-25.2-3.3c-3.8-0.6-7.6-1.8-11.2-3.4c-6.1-2.7-6.8-3.1-12.9-3c1.7-3.1,0.2-3.7-2.7-4.4c-2.2-0.5-4.1-2.6-6.3-4.1
		c-0.3,0.4-0.8,1.1-1.6,2.3c-0.6-1.8-1-3.2-1.6-5.1c2.3,1.3,3.3,1,3.7-1.2c0.2-1.1,0.9-2.3,1.8-3c4-3.3,8.1-6.5,12.2-9.8
		c0.6-0.5,1.4-1.1,2.2-1.1c6.2-0.5,9.4-5.4,12.6-9.5c5.3-6.8,10.2-13.9,17.8-18.3c1.7-1,3.7-1.7,5.6-2.1
		c14.9-2.8,26.8-10.1,34.8-23.1c3.2-5.1,5.5-10.7,8.5-15.9c3.3-5.8,7.5-10.4,16.1-7.7c5.8,1.8,10.6,8.3,9.8,14.7
		c-1.3,11.4,0.1,22.5,4.6,33.1c3.5,8.3,9.2,15,16.4,20.4c1.3,1,2.4,2.4,3.8,3.3c0.8,0.6,2.1,0.4,3.1,0.9c6.4,3.2,13.3,3.9,20.4,4.4
		c17,1.2,31.3-4.2,42.8-16.9c0.7-0.8,1.4-1.6,2.2-2.3c0.1-0.1,0.4-0.1,0.9-0.2c-0.4,2.3-0.7,4.4-1.2,6.6c-0.8,3.8-1.7,7.5-0.6,11.6
		c2,7.8,0,15.7-1.4,23.3c-1,5.4-1.3,11-2.4,16.4c-2,10.3-3.4,20.7-6,30.9c-1.5,5.8-4.5,11.4-7.7,16.6c-4.9,8.2-10.5,15.9-15.6,23.9
		c-2.4,3.7-4,8-6.4,11.7c-4.2,6.6-8.5,13.1-13.3,19.3c-3.9,5.1-8.2,10.1-13,14.4c-7,6.2-14.5,11.8-21.9,17.4c-2.7,2-5.7,3.6-8.7,5.2
		c-0.9,0.5-2,0.8-3,0.8c-6.8-0.3-13.5-0.1-20.1,1.6c-0.4,0.1-0.8-0.1-1.6-0.2c0.3-0.9,0.4-1.8,0.8-2.4c3.3-4,6.4-8.2,10-11.8
		c7.1-7.2,13.9-14.5,19.7-22.9c5.7-8.4,12.4-16.1,18.7-24.1c4.5-5.7,9.1-11.4,13.7-17c3.2-3.9,6.5-7.7,10.3-11.2
		c-1.1,7.7-6.4,13.9-7.2,21.7c4.2-8.4,7.9-17.1,12.9-25.1c5.2-8.3,11.8-15.7,17.4-23.8c2.8-4,5.1-8.5,7.4-12.9
		c1.9-3.6,3.3-7.5,5-11.3C618.9,385.9,618.8,385.8,618.7,385.7C618.6,385.7,618.5,385.8,618.7,385.7z M536.9,430.6
		c-3.9-0.3-8-0.5-12-1.1c-8.1-1.2-16.2-2.1-24.1-4.1c-7.8-1.9-15.3-5.2-23-7.6c-3.3-1-6.7-1.5-10.1,0.2c-1.8,0.9-2.9,2.2-2,4
		c0.7,1.5,1.8,3.2,3.2,4c2.7,1.5,6,2,8.6,3.6c5.2,3.2,10.6,5.7,16.6,6.7c2,0.3,4.5,0.5,5.7,1.7c2.6,2.4,5.4,3,8.6,2.9
		c3.1-0.1,6.4,0.3,9.1-0.7c5.9-2.3,11.5-5.4,17.2-8.3C535.7,431.5,536.5,430.9,536.9,430.6z M395.7,438c0.2-0.1,0.5-0.1,0.7-0.2
		c0.5-1.2,0.9-2.5,1.6-3.5c1.8-2.8,3.1-5.4,0.4-8.6c-1.4-1.6-2-4-2.8-6c-0.3-0.7-0.2-2.1,0.2-2.3c2.3-1.3,1.1-2.9,0.5-4.4
		c-0.6-1.5-1.3-2.9-2-4.3c-2.3-4.9-2.7-10.5-5.8-15.3c-2-3.2-2.7-7.3-3.5-11.1c-1.5-7.3-2.6-14.7-9.9-19c-0.8-0.5-1.3-1.4-1.9-2.2
		c-2.3-3.1-4.6-6.2-7-9.3c-2.5-3.3-5.5-6.4-3-11c0.3-0.5,0.4-1.2,0.4-1.9c0-0.5-0.5-1-0.7-1.6c-0.6,0.3-1.5,0.6-1.6,1.1
		c-0.8,2.9-1.9,6,0.4,8.8c2.8,3.5,6.3,6.5,8.2,10.4c1.9,3.8,4.4,6.9,7.4,9.7c2,1.9,1.8,3.9-0.2,5.8c-1,1-2.1,1.9-2.7,3.1
		c-2.5,4.7-4.9,9.4-7.3,14.2c1-0.9,2.1-1.7,3.5-2.9c0.9,7.4-1.2,13.7-4.3,20.6c4.3-4.3,6.5-11.9,5.4-18.2c-1.2-6.4,2.6-10.7,6-15.2
		c0.2-0.3,0.9-0.3,1.3-0.4c2.4,4.4,2,8.2-1.5,9.5c1,4.6,1.8,9.2,3,13.9c0.6,2.6,0.4,4.8-1.2,6.9c-1.8,2.3-3.3,4.7-4.9,7.1
		c0.2,0.1,0.3,0.2,0.5,0.4c2.5-3.1,4.9-6.2,7.6-9.6c1.5,2.3,3,4.1,4.1,6.1c3.1,5.9,6.2,11.8,9.1,17.8c1.1,2.2,1.6,4.4,0.2,7
		C395.3,434.6,395.8,436.5,395.7,438z M415.8,462.1c-1.2,0.2-2.2,0.3-3.3,0.4c1.7-4.5-2.5-12.8-6.6-14c0.1-0.6,0.1-1.3,0.2-1.9
		c-0.4-0.1-0.7-0.2-1.1-0.2c-0.7,2.7-1.5,5.3-2.2,8c0.3,0.1,0.6,0.2,0.9,0.3c0.4-1,0.6-2.1,1.1-3.1c0.2-0.3,0.9-0.6,1.3-0.6
		c0.3,0,0.8,0.8,0.8,0.8c-1.7,2-0.1,4-0.1,6c-0.1,5,0.1,10,0.2,14.9c0,0.6,0.3,1.3,0.5,1.9c0.2,0,0.4,0,0.6,0
		c0.2-1.4,0.4-2.7,0.7-4.4c5.5,5.1,4.3,13.1,8.7,18.3c0.4-0.1,0.7-0.2,1.1-0.4c-1.1-5.1-2.2-10.3-3.4-15.4c0.4-0.1,0.8-0.2,1.1-0.3
		c0.4,0.8,0.9,1.6,1,2.4c1,5.9,5.5,10.8,5.2,17.1c0,0.7,0.5,1.7,1.1,2.2c4.1,4,8,8.1,12.4,11.7c1.7,1.4,4.5,1.6,7,2.4
		c0-2.3,0-3.5,0-5.2c-1,1-1.8,1.6-2.8,2.6c-0.9-2.1-1.2-5.2-4-3.2c-3.9-2.7-4.4-5.8-1.7-9.3c-0.8,0.5-1.7,1-2.5,1.5
		c-0.2-0.2-0.4-0.3-0.6-0.5c0.6-1.2,1.1-2.4,1.6-3.5c-0.7-0.6-1.7-1.2-2.3-2c-2.9-4.2-5.8-8.3-8.4-12.6
		C419.9,471.8,415.7,468.1,415.8,462.1z M497.1,309.5c-0.3-0.4-0.3-0.6-0.4-0.6c-0.3,0-0.6-0.1-0.9,0c-12.5,3.1-21.3,10.7-26.7,22.2
		c-0.6,1.4-0.3,4,0.7,5.2c3.4,4.2,7.2,8.1,10.9,12c0.3,0.3,0.9,0.3,1.4,0.5c2.7,0.7,4.4-0.3,5.7-2.7c1.5-2.6,3.1-4.2,6.9-2.7
		c3.4,1.4,7.5,1.7,11.2,1.7c5.7,0,6.2,0.3,4.1,5.3c-0.1,0.2,0.1,0.4,0.1,0.6c1.1,0.4,2.2,0.8,3.4,1.1c0-1.2-0.2-2.3,0-3.2
		c1.1-4.5,0.2-6.9-3.9-8.8c-3-1.4-6-2.8-9.1-3.9c-5.3-1.8-10.5-2.3-15.2,2.1c-1.3,1.2-3.3,2.3-5.1,2.4c-6,0.1-10.6-8.2-7.2-13.1
		c4.5-6.6,9.7-12.7,17.6-15.5C492.8,311.2,494.9,310.3,497.1,309.5z M560.1,437.3c0.1,0.1,0.2,0.2,0.3,0.3c2.7-3.8,5.7-7.4,8.1-11.3
		c3.1-5.2,6-10.5,8.7-16c3.7-7.7,9.6-14.4,8.1-24.1c-0.9-5.9-4.5-9.9-7.2-14.5c-0.1-0.2-0.5-0.3-0.8-0.5c-1.2-0.7-2.4-1.4-3.6-2.1
		c-0.4-0.2-1.1-0.6-1.3-0.5c-0.4,0.4-0.8,1-0.8,1.5c0.1,0.8,0.4,1.7,0.8,2.4c2.7,4.9,4.9,10,6.2,15.5c2,8,0.2,14.7-4.7,21.1
		c-2.6,3.4-4.8,7.1-6.9,10.9c-0.9,1.5-1,3.4-1.7,5.1C563.6,429.2,561.8,433.2,560.1,437.3z M526.1,356.4c4.8-3.2,9-2,12.8,1.4
		c-0.9,2-1.8,4.1-2.7,6.1c5.3,2.2,8.8,2.3,12,0.2c2.5-1.7,4.9-3.6,7.3-5.5c0.5-0.4,0.8-1.1,1.2-1.6c-8.3-7.1-10.1-8.2-15.5-9
		C536.1,347.2,528.7,351,526.1,356.4z M358.7,411.3c-2.1-2.4-1.7-5.8,0.7-9.4c1.6-2.3,2.8-4.8,4.2-7.3c-0.3-0.2-0.5-0.3-0.8-0.5
		c-2.3,3.8-4.6,7.6-6.9,11.4c-0.2,0.4-0.4,1.2-0.1,1.5c2.2,4,0.3,7-2.2,9.9c-0.1,0.2-0.1,0.5-0.1,1
		C355.2,415.8,356.8,413.7,358.7,411.3z M363.7,359.8c-0.3,0-0.6-0.1-0.8-0.1c-0.1,1.1-0.3,2.2-0.4,3.3c-0.2,2.1,0,4.3-0.6,6.2
		c-1.3,4-3.4,7.8-4.6,11.8c-0.8,2.5-0.6,5.3-0.9,7.6c1.7-5.4,3-11.2,5.4-16.5C363.7,367.9,364.1,364,363.7,359.8z M564.3,422.1
		c-5.4,2.6-12.7,11.5-15.8,18.8C553.8,434.7,558.8,428.7,564.3,422.1z M370,428.5c0.3-1.5,0.8-2.8,0.6-4c-0.6-3-1.6-5.9-2.4-8.8
		c-1.6,1.4-2.7,2.8-0.6,5.4C368.8,422.9,369,425.6,370,428.5z M343.1,320.4c0.4,0.3,0.7,0.5,1.1,0.8c3.3-4.6,6.7-9.1,10-13.7
		c-0.3-0.2-0.6-0.5-1-0.7C349.9,311.4,346.5,315.9,343.1,320.4z M401.5,248c-4.2-5.6-3-11.2-0.2-16.8
		C396.3,236,396.4,241.9,401.5,248z M512.3,297.3c-0.2-0.2-0.4-0.4-0.5-0.6c-3.7,3.3-7.4,6.5-11.1,9.8c0.2,0.3,0.5,0.5,0.7,0.8
		C505.1,303.9,508.7,300.6,512.3,297.3z M404.4,439.4c0.6-0.2,1.2-0.4,1.8-0.6c-1.1-2.9-2.2-5.8-3.3-8.7c-0.3,0.1-0.6,0.2-0.9,0.3
		C402.8,433.4,403.6,436.4,404.4,439.4z M446.8,402.8c-0.3,0.3-0.6,0.5-0.9,0.8c2.1,2,4.2,3.9,6.3,5.9c0.1,0,0.1-0.1,0.2-0.1
		C450.5,407.2,448.6,405,446.8,402.8z M529.8,371.7c-0.3,0.2-0.6,0.5-0.9,0.7c0.8,1.2,1.6,2.5,2.3,3.7c0.4-0.4,0.9-0.8,1.3-1.1
		C531.6,373.9,530.7,372.8,529.8,371.7z M368.7,436.9c0.3-0.1,0.5-0.3,0.8-0.4c-1-2.3-1.9-4.6-2.9-6.9c-0.4,0.2-0.8,0.4-1.2,0.6
		C366.5,432.4,367.6,434.7,368.7,436.9z M462,522.5c0.4,2.6,0.7,4.3,1,6c0.4-0.1,0.7-0.1,1.1-0.2C465.1,526.4,464.4,524.8,462,522.5
		z M523.3,359.9c-0.1-0.4-0.2-0.9-0.3-1.3c-1.6,0.4-3.1,0.8-4.7,1.2c0.1,0.4,0.2,0.7,0.3,1.1C520.1,360.5,521.7,360.2,523.3,359.9z
		 M368.1,376.8c0.2,0.1,0.5,0.2,0.7,0.3c1.1-2.4,2.2-4.8,3.3-7.2c-0.3-0.1-0.6-0.3-0.9-0.4C370.1,372,369.1,374.4,368.1,376.8z"/>
	<path style="fill:#FFFFFF;" d="M548.9,283.3c10.7,2.3,20.9,4.6,31.2,6.7c1.8,0.4,2.8,0.7,2.5,3c-0.4,2.9,1.4,5.1,4,6.3
		c3.5,1.6,7,2.1,10.2-0.6c1.3-1.1,2.3-2.7,3.4-4.1c11.1,1.2,22.3,2.4,33.7,3.7c-1.5,6.4-4.4,12.2-8.1,17.6
		c-10.5,15.3-25.1,21.9-43.4,19.4c-19.5-2.6-35.1-21.8-34.3-41.5C548.1,290.4,548.6,286.8,548.9,283.3z"/>
	<path style="fill:#FFFFFF;" d="M421.2,250.3c7.2,2.5,14.2,5,21.2,7.3c2.7,0.9,5.5,1.5,8.2,2.4c0.8,0.3,1.8,1.4,1.8,2.2
		c0.3,4.4,2.2,7.4,6.1,8.7c4.4,1.5,8.6,1.1,11.6-2.6c1.7-2.1,3.2-2.4,5.7-1.8c9.1,2.3,18.3,4.3,27.5,6.5
		c-5.4,22.8-24.7,35.8-47.6,31.8C428.1,300.2,417.2,275.2,421.2,250.3z"/>
	<path style="fill:#FFFFFF;" d="M267.6,326.5c0.8,3.6,1.2,7.2,2.4,10.6c1.4,4,3.6,7.6,5.4,11.5c1.6,3.4,2.8,7.1,4.7,10.4
		c1.2,2.1,3,4,5,5.4c1.6,1.2,3.9,1.5,5.8,2.2c0.2-0.2,0.4-0.4,0.6-0.6c-1.4-0.8-2.7-1.5-4.1-2.2c0.2-0.4,0.4-0.7,0.6-1.1
		c0.6-0.2,1.6-0.8,1.8-0.5c2.4,2.4,5.7,1.3,8.3,2.5c1.9,0.8,3.5,2.2,5.5,3.6c0.7-0.6,1.9-2.2,2.9-2.1c1.1,0.1,2.1,1.7,3.4,2.9
		c0.6-0.9,1.2-1.7,1.7-2.6c0.4-0.8,0.7-1.7,1.2-2.8c1,1,1.8,1.9,3.1,3.2c-0.7-6.3,4.9-6.6,7-9.8c0.3,0.1,0.6,0.2,0.9,0.3
		c-0.2,1.5,0,3.3-0.7,4.6c-0.6,1.2-2.2,1.9-3,3.4c1.7-0.4,3.3-0.7,5-1.1c-4.1,4.9-10.5,5.1-15.8,8.5c0.2,1.8-0.6,2.5-3.3,1.6
		c-2.2-0.7-4.7-0.4-7-0.7c-6.7-0.9-13.4-1.8-18.3-7.4c-1.7-1.9-4.5-2.8-6.4-4.5c-6.3-5.7-10.1-12.7-10.5-21.4
		c-0.1-2.7-0.1-5.3-0.4-8c-0.3-3.9,2-6.5,4-9.3c1-1.4,2-2.9,3.2-4.2c1.4-1.6,2.8-3.2,4.4-4.4c0.7-0.5,2.1-0.2,3.2-0.2
		c-0.1,1.1,0.1,2.3-0.2,3.3c-1,2.8-2.2,5.5-3.4,8.2c-1.9,4.2-0.2,7.5,2.4,11.4c0-1.8-0.4-3.4,0.1-4.5c0.6-1.1,2.1-1.7,3.2-2.5
		c1.7-1.2,2.4-2.6,1.5-4.6c-0.6-1.4-1.1-2.8-1.4-4.2c-0.2-1.5-0.1-3-0.2-4.6c1.2,0.1,2.5,0.3,3.9,0.5c0.3-0.8,0.6-1.8,0.7-2.2
		c2.7,0.5,5.2,1,8,1.5c-0.3-1.6-0.5-2.6-0.6-2.9c3.3,0.9,6.7,2,10.1,2.7c2.8,0.5,3.7,2.1,3.6,4.7c-0.1,3.4-1,7.1,1.8,9.7
		c3.5,3.3,7.3,6.5,11.4,9c1.7,1,4.5,0.3,6.8,0.1c1.8-0.2,2.7,0.4,2.7,2.1c0,3.9-0.5,7.5-3.6,10.5c-4.5,4.2-9,8.7-15.3,9.9
		c-9.9,1.9-19,0.5-25.7-8.1c-3.5-4.5-7-9-10.2-13.8c-1.6-2.4-2.4-5.4-3.5-8.1c-0.7-1.9-1.3-3.9-2-5.9
		C268.1,326.3,267.9,326.4,267.6,326.5z"/>
	<path style="fill:#FFFFFF;" d="M504.8,269.6c-28.4-5.9-56.2-12-82.6-22.8c1.4-10.2,7.8-15.9,17.9-15.9c12.8,0,25,3.6,37,7.5
		c8,2.7,15.9,5.9,23.7,9.2c6.2,2.7,6.8,4.2,6,10.9C506.3,262.3,505.5,265.9,504.8,269.6z M479.7,257.8c0.1-0.5,0.2-1,0.2-1.5
		c-6.3-0.7-12.6-1.4-18.9-2.1c0,0.1,0,0.2,0,0.3C467.2,255.6,473.4,256.7,479.7,257.8z"/>
	<path style="fill:#FFFFFF;" d="M634.3,293.7c-7.3-0.5-14.5-0.8-21.6-1.7c-11.3-1.4-22.5-2.8-33.7-4.9c-9.1-1.7-17.9-4.5-26.8-6.8
		c-1.7-0.4-2.3-1.3-1.8-3c1.2-3.6,2.4-7.3,3.6-10.9c1-3,3.7-3.5,6.2-3.5c5.3,0,10.6,0.1,15.9,0.6c14.9,1.5,29.8,3.6,43.8,9.1
		c4.1,1.6,8.1,4.3,11.4,7.3C634.8,283.5,635.8,288.2,634.3,293.7z M577,279.7c0,0.3-0.1,0.6-0.1,0.9c10.7,2.2,21.2,5.9,32.5,4.6
		C598.6,283.4,587.8,281.5,577,279.7z"/>
	<path style="fill:#FFFFFF;" d="M581.6,133.7c4.7-5.2,9.7-7.3,16.2-5c-0.1-0.4-0.1-0.7-0.2-1.1c-4.5-2.6-9-5.2-13.7-8
		c0.6,1.2,1.3,2.3,1.9,3.4c-0.1,0.3-0.2,0.5-0.2,0.8c-1.7-0.6-3.5-1.2-5.2-1.8c-4.3-1.6-8.6-3.2-13-4.7c-3-1-6-1.9-9.1-2.6
		c-3.2-0.8-6.5-1.3-10.6-2.2c1.8-0.5,3-1.1,4.2-1.1c3.8,0.2,7.6,0.4,11.3,1.2c5.8,1.1,11.5,2.7,17.3,4c0.7,0.2,1.4,0.4,2.1,0.6
		c0.1-0.2,0.3-0.5,0.4-0.7c-3.5-2.2-6.7-5.3-10.5-6.3c-5.7-1.4-9.2-5.5-13.6-8.5c-1.6-1.1-2.7-2.7-4.2-3.9c-3.2-2.6-6.1-5.6-11.1-5
		c-4.2,0.5-7.4-2.5-10.7-4.8c-2.4-1.7-4.9-2.8-7.6-4c-7-3.1-14.4-5.6-20.1-11.1c-0.5-0.5-0.8-1.4-1-2.1c-0.2-0.5,0-1.4-0.4-1.7
		c-0.6-0.6-1.5-0.9-2.3-1.3c-0.1,0.8-0.1,1.6-0.3,2.7c-4,0.8-6.7-2.7-10.3-3.2c1-1.5,1.8-2.3,2.3-3.3c1.2-2.7,6.2-4.5,8.8-3
		c6.9,3.8,14.1,7.4,20.8,11.6c4.8,3.1,9.1,7.1,13.4,11c1.6,1.5,2.7,2.6,5.2,1.6c1-0.4,2.8,0.3,4,1c5.5,3.2,10.8,6.6,16.3,9.8
		c1,0.6,2.6-0.1,3.8,0.2c5.4,1.3,8.3,5.9,12,9.4c5.5,5.1,10.5,10.8,16,15.8c2.2,2,5.3,2.9,7.9,4.4c1.4,0.8,2.6,1.8,3.8,2.8
		c2.4,2,4.7,4.1,7,6.2c0.2,0.2,0.2,0.5,0.2,0.9C599.2,128.7,598.6,127.6,581.6,133.7z M523.1,75.1c-1.1,0-2.2,0-4,0
		c1.8,1.6,3.1,2.7,4.7,4.2C523.6,77.5,523.4,76.4,523.1,75.1z"/>
	<path style="fill:#FFFFFF;" d="M509.2,85.8c2,0.4,3.8,0.3,4.6,1.1c3.3,3.1,6.9,6.1,9.2,9.9c3.9,6.3,8,11.6,15.8,13
		c2.4,0.4,4.8,1.2,7.3,2.4c-2.5,0-4.9,0-7.4,0c-0.1,0.3-0.2,0.6-0.3,0.9c0.8,0.7,2,1.2,2.5,2.1c0.6,1.3,0.7,2.9,1,4.4
		c-1.2-0.1-2.7,0.2-3.5-0.5c-4.1-3.3-8-6.7-12.4-9.8c8.3,9.4,16.6,18.7,24.9,28.1c-0.3,0.3-0.6,0.7-0.9,1c-2.4-1.6-5.1-3-7.2-5
		c-2.9-2.7-5.3-6.1-8.2-8.9c-3.8-3.6-7.4-7.5-11.8-10.1c-7.7-4.6-13-11.6-19.5-17.3c-2.8-2.4-5.9-4.4-8.8-6.7
		c-2.7-2.1-5.4-4.3-8.3-6.6c-1.9,2.2-3.9,2.9-5.9,0.2c-1.2-1.6-0.7-2.7,1.1-2.9c2.7-0.3,5.4-0.3,8.8-0.5c-1,1.2-1.5,1.7-2.1,2.4
		c3.8,2.8,5.2-1.6,6.6-2.1c3.3,1.8,5.9,2.9,8.1,4.7c2.5,2,4.5,4.5,6.6,6.8c1.9,2,3.6,4.1,5.6,6c0.6,0.5,1.8,0.3,2.7,0.5
		c-0.1-1,0.2-2.3-0.3-2.9c-2.4-2.8-5-5.3-7.5-8C509.7,87.6,509.7,87,509.2,85.8z"/>
	<path style="fill:#FFFFFF;" d="M453,76.2c-0.9,1.1-1.7,2.3-2.5,3.4c1.5,0.8,4.4-1.3,5.8,2.1c-2.6,0.3-5,0.6-8.3,1
		c1.4,1,2,1.4,2.7,1.9c-0.3,0.3-0.6,0.5-0.8,0.6c-5.5,2.5-11.2,5-16.6,7.7c-1.6,0.8-3,2.4-4.1,3.8c-1.9,2.3-8.8,4.6-11.7,3.1
		c0.2,1.3,0.4,2.1,0.6,3.7c-4.7,3.9-10,8.7-15.7,13.1c-7.5,5.8-12.4,13.3-16,21.9c-0.3,0.6-0.6,1.2-0.9,1.8
		c-0.3-0.1-0.6-0.2-0.9-0.4c0.8-1.8,1.6-3.6,2.3-5.4c1.2-3.5,2-7.2,3.7-10.5c1.5-2.9,3.7-5.4,6-7.7c4.5-4.6,9.1-9.1,13.8-13.5
		c5.7-5.3,11-11.2,18.5-14.3c4.1-1.7,8.1-3.5,12.1-5.4c1.4-0.7,3.7-1,2.4-3.8c-0.2-0.4,0.7-1.8,1.3-2c2.4-0.9,5-1.6,7.5-2.3
		C452.4,75.5,452.7,75.9,453,76.2z"/>
	<path style="fill:#FFFFFF;" d="M486.4,92.3c0.7,11.2,5.4,11.3,14.6,14.1c-2.3,0-3.9,0-6.4,0c6.3,5.7,13.8,8.1,20,12.5
		c6.2,4.4,12.2,9.2,18.3,13.9c-0.2,0.5-0.5,0.9-0.7,1.4c-1.1-0.5-2.4-0.7-3.3-1.4c-5.8-4.8-12.6-8-19.2-11.4
		c-6.8-3.5-13.4-7.4-19.5-11.9c-2.7-1.9-3.9-5.7-6.2-8.3c-1.1-1.3-2.9-2.3-4.6-2.8c-3-0.9-6.3-1.2-9.3-2c-1.3-0.3-2.6-1.2-3.8-1.8
		c0.1-0.4,0.2-0.9,0.4-1.3c3.3,0.7,6.8,0.7,9.7,2.1C480.5,97.3,483.5,97.2,486.4,92.3z"/>
	<path style="fill:#FFFFFF;" d="M392,111.7c4.9-5.4,9.7-10.7,14.6-15.9c2.8-3,5.6-6.3,9-8.4c4-2.5,8.6-4,13-5.8
		c2.8-1.1,5.7-1.9,8.5-2.8c0.2,0.4,0.4,0.8,0.5,1.2c-2.1,1.4-4.2,3.1-6.5,4.2c-7.7,3.7-14.5,8.7-20.7,14.5
		c-4.6,4.4-9.1,8.8-13.7,13.3C395.5,113.2,394.2,114,392,111.7z"/>
	<path style="fill:#FFFFFF;" d="M596.7,264.3c2.6-2.8,4.9-5.4,7.4-7.9c0.5-0.5,1.7-0.8,2.5-0.7c4.4,0.8,8.7,1.8,13.6,2.8
		c-3.4,3-6.3,5.6-9.3,8.2c-0.4,0.3-1.2,0.4-1.8,0.3C605.1,266.2,601,265.3,596.7,264.3z"/>
	<path style="fill:#FFFFFF;" d="M607.9,108.1c-5.6-2.1-4.6,3.7-7.4,4.9c1.6,1.4,3.1,2.5,4.4,3.8c0.5,0.4,0.6,1.2,1,1.8
		c-0.7,0.3-1.5,0.9-2.2,0.7c-2.5-0.6-5.1-1.2-7.5-2.2c-3.5-1.5-6.9-3.5-10.3-5.2c0-0.3,0-0.6,0.1-0.9c2.1-0.3,4.2-0.9,6.3-0.7
		c3.1,0.2,4.2-0.8,3.3-4.4c1-0.2,2-0.4,3-0.5c1.9-0.1,3.8,0.1,5.6-0.2C606.2,104.8,607,105.7,607.9,108.1z"/>
	<path style="fill:#FFFFFF;" d="M490.8,229.3c-3.3,2.7-5.9,5-8.7,7.1c-0.5,0.4-1.4,0.8-1.9,0.7c-3.7-1-7.4-2.2-11.4-3.4
		c3.7-2.6,6.9-4.9,10.2-7.1c0.3-0.2,0.8-0.5,1.2-0.4C483.5,227.2,487,228.2,490.8,229.3z"/>
	<path style="fill:#FFFFFF;" d="M651.2,275.3c-4.2-1-7.8-1.8-11.3-2.9c-0.8-0.2-1.9-1.7-1.7-2.4c0.3-1.1,1.5-2.9,2.2-2.8
		c4.1,0.3,8.2,0.8,12.2,1.7c0.8,0.2,1.6,2.7,1.4,4C653.9,273.8,652.1,274.6,651.2,275.3z"/>
	<path style="fill:#FFFFFF;" d="M428,222.5c-4-1.2-7.7-2.2-11.2-3.6c-0.9-0.3-1.9-2.4-1.5-3.1c0.6-1.2,2.3-2.9,3.2-2.7
		c3.8,0.9,7.5,2.2,11,3.7c0.8,0.4,1.3,2.4,1.1,3.6C430.5,221.3,428.9,221.9,428,222.5z"/>
	<path style="fill:#FFFFFF;" d="M483.9,127.2c-1.3,0.9-2.4,2-3.8,2.5c-7.3,2.6-14.7,4.9-22,7.5c-2.8,1-5.4,2.4-8.1,3.6
		c-0.2-0.3-0.4-0.7-0.6-1c5.3-3,10.4-6.5,16-8.7c5.7-2.3,11.8-3.3,17.8-4.9C483.4,126.5,483.6,126.9,483.9,127.2z"/>
	<path style="fill:#FFFFFF;" d="M311.4,375.3c1.3-0.6,2.6-1.3,4-1.7c2.2-0.7,4.5-1.2,6.7-1.8c3.1-0.8,3.7,1.4,4,3.6
		c0.4,2.6-1.7,2.7-3.4,2.6c-3.7-0.3-7.4-0.8-11.1-1.1C311.5,376.3,311.4,375.8,311.4,375.3z"/>
	<path style="fill:#FFFFFF;" d="M487.1,66.2c-3.5-0.5-7-1.1-10.7-1.6c0,0,0-0.7,0.1-1.5c-0.5,0-1,0.1-1.3,0c-1-0.6-2.1-1.2-2.9-2
		c-0.2-0.2,0.7-2.1,1-2.1c1.3,0.1,3,0.3,3.7,1.1c1.1,1.4,1.9,2.5,3.8,1.9c2.6-0.9,4.8-1.1,5.4,2.5c0.1,0.4,0.7,0.7,1.1,1
		C487.3,65.7,487.2,65.9,487.1,66.2z"/>
	<path style="fill:#FFFFFF;" d="M536.5,257.7c-2.7,3.8-4.9,6.9-7.3,10.3c-0.8-0.2-2.4-0.5-4.2-0.9c2.4-3.4,4.6-6.7,7.2-9.7
		C532.7,256.9,534.6,257.5,536.5,257.7z"/>
	<path style="fill:#FFFFFF;" d="M479.5,220.1c-8.8-2.4-17.7-4.8-26.9-7.2C455.9,211.3,474,216.1,479.5,220.1z"/>
	<path style="fill:#FFFFFF;" d="M558.2,123c4.8-1.9,21.3,1,24.4,4.3C574.5,125.8,566.6,124.5,558.2,123z"/>
	<path style="fill:#FFFFFF;" d="M351.8,236.8c-2.5-3.5,0-8.4,8.3-15c-0.8,1.6-1.5,3.3-2.4,4.8c-1,1.6-2.3,3-3.3,4.7
		C353.5,233.1,352.7,234.9,351.8,236.8z"/>
	<path style="fill:#FFFFFF;" d="M425.6,148.4c0.5-1,0.6-1.5,0.9-1.7c3.2-2.1,6.4-4.3,9.8-6.1c1.9-1,4-0.1,5.2,1.7
		c-2.6,0.9-5.2,1.8-7.7,2.8C431.3,146,428.8,147.1,425.6,148.4z"/>
	<path style="fill:#FFFFFF;" d="M484.8,122.2c-7,1.2-14,2.4-21,3.5C465.3,123.1,479.7,120.3,484.8,122.2z"/>
	<path style="fill:#FFFFFF;" d="M486.1,109c-4.7-1.3-8.9-2.5-13.4-3.8C477.4,102,482.8,103.6,486.1,109z"/>
	<path style="fill:#FFFFFF;" d="M560.6,132.2c-3.2-2.6-6.4-5.3-9.6-7.9c0-0.3,0.1-0.5,0.1-0.8c1.5-0.1,3.1-0.3,4.6-0.4
		c-0.1,0.3-0.3,0.6-0.4,0.9c1.2,1.2,2.5,2.2,3.7,3.5c1,1.2,1.9,2.5,2.8,3.8C561.4,131.5,561,131.8,560.6,132.2z"/>
	<path style="fill:#FFFFFF;" d="M470.5,74.5c-5.2,0.7-10.2,1.3-15.8,2.1c0.5-0.8,1-2.4,1.5-2.4c4.4-0.2,8.8-0.2,13.2-0.2
		C469.7,74,470.1,74.3,470.5,74.5z"/>
	<path style="fill:#FFFFFF;" d="M343.4,205.7c1.9-4.6,3.8-9.1,5.7-13.7C350.3,196.5,347.8,202.3,343.4,205.7z"/>
	<path style="fill:#FFFFFF;" d="M444.9,148.5c-5.3,2.5-10.5,4.9-15.8,7.4c-0.2-0.4-0.4-0.8-0.6-1.2c5.2-2.5,10.5-5.1,15.7-7.6
		C444.4,147.5,444.6,148,444.9,148.5z"/>
	<path style="fill:#FFFFFF;" d="M462.3,264.6c-1.5,0.8-3.1,2.6-4.3,2.3c-2.2-0.5-3.6-2.4-2.7-5.6c2.3,0.7,4.5,1.4,6.7,2.1
		C462.1,263.8,462.2,264.2,462.3,264.6z"/>
	<path style="fill:#FFFFFF;" d="M633.4,139.9c-3.6,1.2-7.2,2.3-11,3.5c-0.1-3,5.2-4.9,10.7-4.4C633.2,139.3,633.3,139.6,633.4,139.9
		z"/>
	<path style="fill:#FFFFFF;" d="M473.6,111.4c-6.2,0-12.3,0-18.5,0C461.2,108.7,467.4,110.1,473.6,111.4z"/>
	<path style="fill:#FFFFFF;" d="M430.2,105c-2.7,1.3-5.1,2.5-7.6,3.7C423,104.7,425.8,103.2,430.2,105z"/>
	<path style="fill:#FFFFFF;" d="M410.1,121.5c0.2,3.3-2.1,5.5-7.7,6.5C404.9,125.9,407.5,123.8,410.1,121.5z"/>
	<path style="fill:#FFFFFF;" d="M622.2,184.3c-1.7,2.9-4.2,4.9-7.4,6c-0.2-0.2-0.4-0.5-0.6-0.7c2.5-2,4.9-4.1,7.4-6.1
		C621.7,183.8,622,184.1,622.2,184.3z"/>
	<path style="fill:#FFFFFF;" d="M612.2,251.4c-4.1-0.8-8.1-1.7-12.6-2.6C602.3,247.4,607,248.4,612.2,251.4z"/>
	<path style="fill:#FFFFFF;" d="M471.2,88c-1.7,0.3-3.5,0.3-5,0.9c-1.3,0.6-2.3,1.9-3.7,2.5C464.1,87.7,466.9,86.5,471.2,88z"/>
	<path style="fill:#FFFFFF;" d="M507.2,59.9c2.1-0.2,4.1-0.5,6.6-0.8c-0.1,1.2-0.2,2.1-0.3,3.5c-2.5-0.7-4.6-1.3-6.7-1.8
		C507,60.6,507.1,60.2,507.2,59.9z"/>
	<path style="fill:#FFFFFF;" d="M585.4,291.3c1.5,0.4,2.9,0.7,4.4,1.1c0.1,0.3,0.3,0.7,0.4,1c-1.1,0.7-2.2,1.4-3.4,2.2
		c-0.7-1.2-1.5-2.5-2.2-3.7C584.9,291.6,585.1,291.4,585.4,291.3z"/>
	<path style="fill:#FFFFFF;" d="M416.9,395.1c-3.6-1.6-4.4-3.8-2.9-7.9C415,390,415.8,392.3,416.9,395.1z"/>
	<path style="fill:#FFFFFF;" d="M581.9,131c-3.1,1.5-6.3,3.1-9.4,4.6c-0.2-0.4-0.4-0.8-0.6-1.2c3.2-1.5,6.5-3,9.7-4.5
		C581.7,130.3,581.8,130.7,581.9,131z"/>
	<path style="fill:#FFFFFF;" d="M443.8,119.8c2.3-1.8,5.5-1.3,7.7,1.4C449.2,120.8,446.8,120.3,443.8,119.8z"/>
	<path style="fill:#FFFFFF;" d="M666.4,304.7c-1.5-1.5-2.3-3.2-0.3-6.1c0.6,2.4,1.1,4.1,1.5,5.8
		C667.2,304.5,666.8,304.6,666.4,304.7z"/>
	<path style="fill:#FFFFFF;" d="M456.3,95.6c0.7-1.3,1.3-2.3,1.9-3.3c0.9,1.1,1.7,2,2.7,3.3C459.6,95.6,458.2,95.6,456.3,95.6z"/>
	<path style="fill:#FFFFFF;" d="M623.9,133.7c-2.5,0.7-5.1,1.3-7.6,2c-0.1-0.3-0.2-0.6-0.3-1c2.5-0.8,5-1.5,7.5-2.3
		C623.7,132.9,623.8,133.3,623.9,133.7z"/>
	<path style="fill:#FFFFFF;" d="M478.6,92c-2.2-0.4-4.3-0.7-6.5-1.1c0-0.4,0.1-0.7,0.1-1.1c2.2,0.2,4.4,0.3,6.5,0.5
		C478.7,90.9,478.6,91.5,478.6,92z"/>
	<path style="fill:#FFFFFF;" d="M564.1,135.1c4.3,1,5,1.7,4.6,3.8C567,137.6,565.5,136.4,564.1,135.1z"/>
	<path style="fill:#FFFFFF;" d="M773.6,318c0.5,1.6,1.1,3.1,1.7,4.8c-1.9-0.9-5.9-8.4-6.2-12.5c0.7,1.2,1.5,2.4,2.2,3.7
		C772.1,315.3,772.9,316.7,773.6,318C773.7,318.1,773.6,318,773.6,318z"/>
	<path d="M536.9,430.6c-0.4,0.3-1.2,0.9-2.1,1.4c-5.7,2.8-11.3,6-17.2,8.3c-2.7,1.1-6,0.7-9.1,0.7c-3.2,0.1-6-0.5-8.6-2.9
		c-1.3-1.2-3.8-1.4-5.7-1.7c-6.1-1-11.4-3.5-16.6-6.7c-2.6-1.6-5.9-2.1-8.6-3.6c-1.4-0.8-2.5-2.5-3.2-4c-0.8-1.8,0.2-3.1,2-4
		c3.4-1.8,6.8-1.3,10.1-0.2c7.7,2.4,15.2,5.6,23,7.6c7.9,2,16,2.9,24.1,4.1C528.9,430.1,533,430.2,536.9,430.6z"/>
	<path d="M395.7,438c0.1-1.6-0.3-3.4,0.3-4.6c1.4-2.5,0.9-4.8-0.2-7c-3-6-6-11.9-9.1-17.8c-1.1-2-2.5-3.8-4.1-6.1
		c-2.7,3.4-5.2,6.5-7.6,9.6c-0.2-0.1-0.3-0.2-0.5-0.4c1.6-2.4,3.2-4.8,4.9-7.1c1.6-2.1,1.8-4.3,1.2-6.9c-1.1-4.6-2-9.3-3-13.9
		c3.4-1.4,3.9-5.1,1.5-9.5c-0.4,0.1-1.1,0.1-1.3,0.4c-3.3,4.5-7.1,8.8-6,15.2c1.1,6.3-1.1,13.9-5.4,18.2c3.1-6.9,5.2-13.2,4.3-20.6
		c-1.4,1.2-2.5,2-3.5,2.9c2.4-4.8,4.8-9.5,7.3-14.2c0.6-1.2,1.7-2.1,2.7-3.1c2-1.9,2.2-3.9,0.2-5.8c-3-2.9-5.4-5.9-7.4-9.7
		c-1.9-3.9-5.4-6.9-8.2-10.4c-2.2-2.8-1.1-5.9-0.4-8.8c0.1-0.5,1.1-0.7,1.6-1.1c0.2,0.5,0.7,1,0.7,1.6c0.1,0.6-0.1,1.3-0.4,1.9
		c-2.6,4.6,0.5,7.8,3,11c2.3,3.1,4.6,6.2,7,9.3c0.6,0.8,1.1,1.7,1.9,2.2c7.4,4.3,8.4,11.7,9.9,19c0.8,3.8,1.5,7.9,3.5,11.1
		c3.1,4.8,3.5,10.4,5.8,15.3c0.7,1.4,1.4,2.8,2,4.3c0.6,1.5,1.8,3.1-0.5,4.4c-0.4,0.2-0.4,1.6-0.2,2.3c0.8,2.1,1.4,4.4,2.8,6
		c2.8,3.2,1.5,5.8-0.4,8.6c-0.7,1.1-1.1,2.4-1.6,3.5C396.1,437.9,395.9,438,395.7,438z M382.4,382.8c-2.8,3.5-3,9-1,11.6
		c0.4,0.5,1.2,0.7,1.8,1c0.4-0.7,1.1-1.4,1-2C383.8,390.1,383.2,386.8,382.4,382.8z"/>
	<path d="M415.8,462.1c-0.2,6,4,9.7,6.7,14.1c2.6,4.3,5.5,8.5,8.4,12.6c0.6,0.8,1.5,1.3,2.3,2c-0.5,1-1,2.3-1.6,3.5
		c0.2,0.2,0.4,0.3,0.6,0.5c0.8-0.5,1.7-1,2.5-1.5c-2.7,3.5-2.2,6.6,1.7,9.3c2.8-2,3.1,1.1,4,3.2c1-0.9,1.8-1.6,2.8-2.6
		c0,1.7,0,3,0,5.2c-2.5-0.8-5.3-1-7-2.4c-4.4-3.6-8.4-7.7-12.4-11.7c-0.6-0.6-1.1-1.5-1.1-2.2c0.3-6.4-4.2-11.2-5.2-17.1
		c-0.1-0.8-0.7-1.6-1-2.4c-0.4,0.1-0.8,0.2-1.1,0.3c1.1,5.1,2.2,10.3,3.4,15.4c-0.4,0.1-0.7,0.2-1.1,0.4c-4.4-5.2-3.2-13.2-8.7-18.3
		c-0.3,1.7-0.5,3-0.7,4.4c-0.2,0-0.4,0-0.6,0c-0.2-0.6-0.5-1.3-0.5-1.9c-0.1-5-0.3-10-0.2-14.9c0-2-1.6-4.1,0.1-6
		c0,0-0.5-0.8-0.8-0.8c-0.5,0-1.2,0.2-1.3,0.6c-0.5,1-0.8,2.1-1.1,3.1c-0.3-0.1-0.6-0.2-0.9-0.3c0.7-2.7,1.5-5.3,2.2-8
		c0.4,0.1,0.7,0.2,1.1,0.2c-0.1,0.6-0.1,1.3-0.2,1.9c4.1,1.2,8.3,9.5,6.6,14C413.7,462.4,414.6,462.3,415.8,462.1z"/>
	<path d="M497.1,309.5c-2.2,0.8-4.2,1.7-6.3,2.5c-7.9,2.8-13.1,8.9-17.6,15.5c-3.4,4.9,1.2,13.2,7.2,13.1c1.7,0,3.7-1.1,5.1-2.4
		c4.6-4.3,9.8-3.9,15.2-2.1c3.1,1.1,6.1,2.5,9.1,3.9c4.1,2,5,4.3,3.9,8.8c-0.2,0.9,0,2,0,3.2c-1.2-0.4-2.3-0.8-3.4-1.1
		c0-0.2-0.2-0.4-0.1-0.6c2.1-5.1,1.6-5.4-4.1-5.3c-3.8,0-7.8-0.3-11.2-1.7c-3.7-1.5-5.4,0.1-6.9,2.7c-1.4,2.4-3.1,3.4-5.7,2.7
		c-0.5-0.1-1.1-0.1-1.4-0.5c-3.7-3.9-7.5-7.8-10.9-12c-0.9-1.2-1.3-3.8-0.7-5.2c5.4-11.5,14.2-19.1,26.7-22.2c0.3-0.1,0.6,0,0.9,0
		C496.7,308.9,496.8,309.1,497.1,309.5z"/>
	<path d="M560.1,437.3c1.7-4.1,3.4-8.1,5.1-12.2c0.7-1.6,0.8-3.5,1.7-5.1c2.1-3.7,4.3-7.5,6.9-10.9c5-6.4,6.7-13.1,4.7-21.1
		c-1.4-5.6-3.5-10.6-6.2-15.5c-0.4-0.7-0.7-1.6-0.8-2.4c0-0.5,0.4-1.2,0.8-1.5c0.2-0.2,0.9,0.2,1.3,0.5c1.2,0.7,2.4,1.4,3.6,2.1
		c0.3,0.2,0.7,0.2,0.8,0.5c2.8,4.6,6.3,8.7,7.2,14.5c1.5,9.7-4.4,16.5-8.1,24.1c-2.6,5.4-5.5,10.8-8.7,16c-2.4,4-5.4,7.6-8.1,11.3
		C560.4,437.5,560.2,437.4,560.1,437.3z"/>
	<path d="M526.1,356.4c2.5-5.4,10-9.3,15.2-8.4c5.3,0.8,7.2,1.9,15.5,9c-0.4,0.5-0.7,1.2-1.2,1.6c-2.4,1.9-4.8,3.8-7.3,5.5
		c-3.2,2.2-6.7,2-12-0.2c0.9-2,1.8-4.1,2.7-6.1C535.1,354.5,531,353.2,526.1,356.4z"/>
	<path d="M358.7,411.3c-1.8,2.3-3.5,4.4-5.3,6.7c0-0.4,0-0.8,0.1-1c2.5-2.9,4.4-5.9,2.2-9.9c-0.2-0.4-0.1-1.1,0.1-1.5
		c2.3-3.8,4.6-7.6,6.9-11.4c0.3,0.2,0.5,0.3,0.8,0.5c-1.4,2.4-2.6,4.9-4.2,7.3C356.9,405.5,356.6,408.9,358.7,411.3z"/>
	<path d="M363.7,359.8c0.4,4.2,0,8.1-1.9,12.2c-2.4,5.3-3.7,11.1-5.4,16.5c0.2-2.3,0.1-5.1,0.9-7.6c1.2-4,3.3-7.8,4.6-11.8
		c0.6-1.9,0.4-4.1,0.6-6.2c0.1-1.1,0.2-2.2,0.4-3.3C363.1,359.7,363.4,359.8,363.7,359.8z"/>
	<path d="M564.3,422.1c-5.5,6.6-10.5,12.6-15.8,18.8C551.6,433.6,558.9,424.7,564.3,422.1z"/>
	<path d="M370,428.5c-0.9-2.9-1.1-5.6-2.5-7.4c-2-2.7-1-4,0.6-5.4c0.8,2.9,1.8,5.9,2.4,8.8C370.8,425.7,370.2,427,370,428.5z"/>
	<path d="M343.1,320.4c3.4-4.5,6.7-9.1,10.1-13.6c0.3,0.2,0.6,0.5,1,0.7c-3.3,4.6-6.7,9.1-10,13.7
		C343.8,321,343.5,320.7,343.1,320.4z"/>
	<path d="M401.5,248c-5.1-6.1-5.1-12-0.2-16.8C398.4,236.8,397.2,242.4,401.5,248z"/>
	<path d="M512.3,297.3c-3.6,3.3-7.3,6.6-10.9,9.9c-0.2-0.3-0.5-0.5-0.7-0.8c3.7-3.3,7.4-6.5,11.1-9.8
		C512,296.8,512.2,297.1,512.3,297.3z"/>
	<path d="M404.4,439.4c-0.8-3-1.6-6-2.4-8.9c0.3-0.1,0.6-0.2,0.9-0.3c1.1,2.9,2.2,5.8,3.3,8.7C405.6,439,405,439.2,404.4,439.4z"/>
	<path d="M446.8,402.8c1.9,2.2,3.7,4.4,5.6,6.6c-0.1,0-0.1,0.1-0.2,0.1c-2.1-2-4.2-3.9-6.3-5.9C446.2,403.3,446.5,403.1,446.8,402.8
		z"/>
	<path d="M529.8,371.7c0.9,1.1,1.9,2.2,2.8,3.2c-0.4,0.4-0.9,0.8-1.3,1.1c-0.8-1.2-1.6-2.5-2.3-3.7
		C529.2,372.2,529.5,372,529.8,371.7z"/>
	<path d="M368.7,436.9c-1.1-2.2-2.2-4.5-3.3-6.7c0.4-0.2,0.8-0.4,1.2-0.6c1,2.3,1.9,4.6,2.9,6.9C369.2,436.6,369,436.8,368.7,436.9z
		"/>
	<path d="M462,522.5c2.3,2.2,3.1,3.9,2.1,5.8c-0.4,0.1-0.7,0.1-1.1,0.2C462.7,526.9,462.5,525.2,462,522.5z"/>
	<path d="M523.3,359.9c-1.6,0.3-3.1,0.6-4.7,1c-0.1-0.4-0.2-0.7-0.3-1.1c1.6-0.4,3.1-0.8,4.7-1.2C523.1,359,523.2,359.4,523.3,359.9
		z"/>
	<path d="M368.1,376.8c1-2.4,2-4.8,3-7.3c0.3,0.1,0.6,0.3,0.9,0.4c-1.1,2.4-2.2,4.8-3.3,7.2C368.6,377,368.3,376.9,368.1,376.8z"/>
	<path d="M479.7,257.8c-6.2-1.1-12.5-2.2-18.7-3.3c0-0.1,0-0.2,0-0.3c6.3,0.7,12.6,1.4,18.9,2.1
		C479.8,256.8,479.8,257.3,479.7,257.8z"/>
	<path d="M577,279.7c10.8,1.8,21.6,3.6,32.4,5.4c-11.3,1.3-21.8-2.4-32.5-4.6C576.9,280.3,576.9,280,577,279.7z"/>
	<path d="M523.1,75.1c0.2,1.3,0.4,2.4,0.7,4.2c-1.6-1.4-2.9-2.6-4.7-4.2C520.9,75.1,522,75.1,523.1,75.1z"/>
	<path style="fill:#FFFFFF;" d="M382.4,382.8c0.7,4,1.4,7.3,1.8,10.6c0.1,0.6-0.6,1.3-1,2c-0.6-0.3-1.4-0.5-1.8-1
		C379.4,391.8,379.6,386.3,382.4,382.8z"/>
</g>
</svg>
