<?xml version="1.0" encoding="utf-8"?>
<!-- Generator: Adobe Illustrator 16.0.0, SVG Export Plug-In . SVG Version: 6.00 Build 0)  -->
<!DOCTYPE svg PUBLIC "-//W3C//DTD SVG 1.1//EN" "http://www.w3.org/Graphics/SVG/1.1/DTD/svg11.dtd">
<svg version="1.1" id="Layer_1" xmlns="http://www.w3.org/2000/svg" xmlns:xlink="http://www.w3.org/1999/xlink" x="0px" y="0px"
	 viewBox="0 0 1158.116 462.046" style="enable-background:new 0 0 1158.116 462.046;"
	 xml:space="preserve">
<g>
	<path style="fill-rule:evenodd;clip-rule:evenodd;" d="M260.674,80.436c0,23.223,0.015,47.161-0.007,71.099
		c-0.009,9.541,0.811,8.193-8.238,8.281c-6.304,0.062-12.609,0.012-19.376,0.012c0-39.687,0-78.887,0-118.713
		c9.996,0,19.62,0,29.243,0c11.766,0,11.759,0.003,15.695,11.095c6.894,19.423,13.793,38.845,20.7,58.263
		c0.54,1.519,1.161,3.009,2.144,5.537c3.287-9.583,6.253-18.164,9.175-26.76c4.922-14.479,9.905-28.937,14.655-43.471
		c1.085-3.32,2.52-4.84,6.275-4.753c10.99,0.256,21.991,0.192,32.984,0.035c3.474-0.05,4.693,1.2,4.687,4.632
		c-0.068,36.486-0.082,72.973,0.021,109.459c0.01,3.802-1.407,4.879-5.022,4.741c-6.322-0.24-12.671-0.296-18.986,0.015
		c-4.198,0.207-5.461-1.278-5.392-5.397c0.398-23.651,0.578-47.306,0.83-70.96c0.01-0.996,0.001-1.994-0.663-3.228
		c-1.199,3.118-2.438,6.222-3.592,9.356c-7.974,21.688-16.011,43.354-23.809,65.104c-1.308,3.647-2.862,5.526-7.035,5.125
		c-5.105-0.491-11.534,1.422-15.052-1.043c-3.505-2.457-4.232-9.002-5.976-13.828c-7.569-20.947-15.063-41.922-22.589-62.886
		C261.034,81.279,260.67,80.425,260.674,80.436z"/>
	<path style="fill-rule:evenodd;clip-rule:evenodd;" d="M1014.248,375.899c7.211,3.037,14.279,5.932,21.279,8.986
		c4.99,2.178,3.713,7.184,4.873,11.143c1.225,4.184,2.043,9.037,4.732,12.121c5.301,6.08,13.941,5.971,19.16,0.918
		c5.369-5.199,5.986-14.123,0.152-19.758c-5.924-5.721-12.943-10.309-19.518-15.348c-0.914-0.699-2.115-1.021-3.039-1.711
		c-7.914-5.91-7.281-8.324-2.07-14.453c6.248-7.35,12.777-14.469,19.385-21.5c6.262-6.662,12.842-13.023,19.156-19.637
		c2.139-2.24,3.83-2.453,6.307-0.412c12.441,10.26,25.023,20.35,37.5,30.566c3.732,3.055,7.389,6.223,10.893,9.535
		c4.281,4.047,4.701,9.195,1.418,14.154c-0.365,0.553-0.85,1.025-1.258,1.551c-11.188,14.375-15.193,10.604-25.801,1.781
		c-5.373-4.471-10.701-8.994-16.076-13.463c-3.002-2.496-6.291-4.605-9.498-0.629c-3.061,3.797-0.543,6.453,2.221,9.367
		c4.555,4.799,9.223,9.688,12.744,15.236c9.283,14.625,6.951,32.646-4.572,45.754c-19.709,22.424-47.443,17.662-65.531,2.027
		c-9.684-8.373-16.549-18.5-18.643-31.57C1006.634,391.649,1008.263,383.768,1014.248,375.899z"/>
	<path style="fill-rule:evenodd;clip-rule:evenodd;" d="M377.288,159.776c0.828-2.439,1.305-4.173,1.994-5.818
		c14.966-35.735,30.021-71.434,44.854-107.225c1.8-4.344,4.131-6.091,8.856-5.719c5.463,0.431,11.003,0.364,16.478,0.014
		c4.146-0.265,6.149,1.235,7.728,5.093c13.415,32.775,27.051,65.46,40.615,98.175c2.016,4.859,4.002,9.73,6.371,15.495
		c-10.887,0-20.816,0.102-30.736-0.142c-1.118-0.027-2.634-1.803-3.202-3.102c-2.267-5.175-4.363-10.436-6.254-15.76
		c-1.038-2.923-2.588-4.101-5.816-4.051c-12.156,0.186-24.318,0.164-36.477,0.011c-2.981-0.038-4.534,0.925-5.485,3.761
		c-1.795,5.354-3.798,10.647-5.96,15.864c-0.551,1.33-1.996,3.228-3.072,3.255C397.42,159.881,387.653,159.776,377.288,159.776z
		 M440.911,76.477c-0.396-0.011-0.792-0.021-1.188-0.032c-4.394,11.902-8.788,23.805-13.398,36.294c9.57,0,18.262,0,27.67,0
		C449.531,100.367,445.221,88.422,440.911,76.477z"/>
	<path style="fill-rule:evenodd;clip-rule:evenodd;" d="M16.045,158.941c0-1.693,0-3.343,0-4.991
		c0-35.667,0.074-71.334-0.092-106.999c-0.021-4.498,1.117-5.989,5.811-5.941c22.997,0.233,45.999,0.205,68.997,0.018
		c4.318-0.035,6.066,1.172,5.794,5.617c-0.295,4.815-0.241,9.671-0.016,14.493c0.191,4.117-1.418,5.569-5.536,5.518
		c-13.664-0.174-27.334,0.07-40.997-0.141c-4.09-0.063-5.785,1.107-5.371,5.34c0.48,4.905-1.179,11.421,1.387,14.297
		c2.218,2.486,9.05,0.977,13.844,1.021c9.332,0.088,18.671,0.196,27.997-0.049c4.236-0.111,6.173,1.069,5.838,5.608
		c-0.317,4.31-0.299,8.678-0.002,12.99c0.299,4.328-1.238,5.913-5.659,5.837c-12.496-0.219-25.001,0.088-37.496-0.158
		c-4.471-0.088-6.422,1.102-5.938,5.86c0.387,3.794,0.344,7.683,0.008,11.486c-0.383,4.345,1.064,5.821,5.548,5.74
		c14.162-0.257,28.331-0.107,42.498-0.087c6.688,0.01,6.792,0.12,6.818,6.617c0.021,5,0.215,10.018-0.179,14.987
		c-0.106,1.344-2.062,3.637-3.18,3.644c-26.161,0.158-52.324,0.063-78.486-0.003C17.34,159.646,17.048,159.397,16.045,158.941z"/>
	<path style="fill-rule:evenodd;clip-rule:evenodd;" d="M836.738,152.548c0,13.629,0.004,26.892,0,40.154
		c-0.002,7.105-0.008,7.109-6.902,7.113c-5.662,0.004-11.328-0.146-16.984,0.053c-3.361,0.119-4.752-0.912-4.742-4.482
		c0.088-38.304,0.076-76.608,0.018-114.912c-0.006-3.142,0.998-4.527,4.318-4.419c5.656,0.185,11.342,0.331,16.979-0.042
		c4.738-0.314,6.926,1.169,6.213,6.078c-0.09,0.614,0.131,1.273,0.209,1.933c0.461,0,0.912,0.138,1.068-0.02
		c18.51-18.666,51.223-10.919,61.207,15.191c6.807,17.797,3.045,39.718-9.936,52.401c-14.002,13.684-34.688,14.405-49.688,1.748
		C838.166,153.064,837.681,152.966,836.738,152.548z M855.302,138.282c11.086-0.045,18.854-8.672,18.736-20.809
		c-0.115-11.843-7.922-20.088-18.977-20.043c-10.857,0.044-19.385,9.127-19.307,20.566
		C835.833,129.521,844.32,138.327,855.302,138.282z"/>
	<path style="fill-rule:evenodd;clip-rule:evenodd;" d="M219.701,55.526c-6.457,6.44-12.869,12.838-19.599,19.551
		c-6.566-7.408-15.424-10.659-25.544-9.997c-8.783,0.574-16.496,3.979-22.328,10.798c-11.92,13.933-11.41,37.735,0.976,50.456
		c12.526,12.866,30.234,12.214,48.504-2.205c6.526,6.133,13.131,12.339,19.663,18.477c-10.615,16.911-40.71,24.951-65.77,17.947
		c-26.514-7.409-43.973-30.922-44.327-59.696c-0.348-28.219,16.176-51.288,42.738-59.668
		C178.074,33.599,209.483,40.567,219.701,55.526z"/>
	<path style="fill-rule:evenodd;clip-rule:evenodd;" d="M1095.912,41.21c-9.834,13.719-18.867,26.324-28.184,39.321
		c5.604,0.565,10.613,0.505,15.33,1.649c16.24,3.94,27.602,16.534,29.496,32.044c2.217,18.144-6.01,35.155-21.393,42.714
		c-18.336,9.01-36.818,8.934-54.123-2.354c-17.773-11.596-23.34-34.325-13.631-54.516c4.236-8.808,9.662-17.076,14.936-25.343
		c6.445-10.107,13.258-19.983,20.02-29.888c0.969-1.419,2.508-3.435,3.83-3.469C1072.933,41.087,1083.685,41.21,1095.912,41.21z
		 M1066.181,138.507c10.609-0.088,17.816-7.37,17.797-17.986c-0.02-10.353-7.615-17.807-18.09-17.753
		c-10.654,0.056-17.674,7.238-17.604,18.014C1048.355,131.514,1055.503,138.595,1066.181,138.507z"/>
	<path style="fill-rule:evenodd;clip-rule:evenodd;" d="M503.599,145.239c6.468-6.161,12.807-12.198,18.59-17.707
		c6.076,3.197,12.209,7.222,18.919,9.651c3.934,1.425,8.849,0.781,13.21,0.209c4.613-0.606,7.825-3.578,8.729-8.411
		c1.011-5.398-0.857-9.903-5.792-12.062c-8.658-3.788-17.649-6.809-26.425-10.342c-9.149-3.683-16.468-9.458-19.816-19.138
		c-6.36-18.384,1.621-36.828,19.934-44.4c20.353-8.416,40.009-6.289,58.412,5.992c1.615,1.078,3,2.5,4.992,4.185
		c-6.317,6.702-12.308,13.059-17.485,18.553c-6.604-3.09-12.172-6.449-18.207-8.24c-3.713-1.103-8.276-0.385-12.203,0.565
		c-4.235,1.025-7.175,4.166-7.668,8.86c-0.509,4.845,2.034,8.094,6.188,9.796c6.913,2.833,13.99,5.268,21.019,7.813
		c8.753,3.17,16.668,7.468,22.21,15.34c9.884,14.04,5.539,36.75-9.23,47.741c-19.893,14.805-58.01,11.206-74.75-7.067
		C504.015,146.349,503.943,145.992,503.599,145.239z"/>
	<path style="fill-rule:evenodd;clip-rule:evenodd;" d="M683.904,84.843c-5.793,6.717-11.064,12.829-16.287,18.884
		c-11.744-7.979-20.971-8.046-27.821-0.562c-6.707,7.326-7.323,20.452-1.327,28.239c6.572,8.536,16.311,9.086,29.895,1.404
		c4.57,5.552,9.309,11.104,13.697,16.919c0.508,0.675-0.49,3.343-1.525,4.188c-6.676,5.453-14.711,7.674-23.076,8.438
		c-18.452,1.688-38.755-5.032-47.782-24.606c-12.384-26.854,2.073-59.904,35.595-63.789c10.859-1.258,20.832,0.563,30.404,5.342
		C678.412,80.665,680.802,82.725,683.904,84.843z"/>
	<path style="fill-rule:evenodd;clip-rule:evenodd;" d="M966.736,138.905c0,6.452,0.162,12.404-0.146,18.332
		c-0.057,1.105-1.85,2.769-3.1,3.059c-8.689,2.015-17.461,2.556-26.105-0.245c-9.799-3.174-15.865-11.289-16.289-22.211
		c-0.441-11.309-0.713-22.636-0.588-33.949c0.051-4.699-1.131-6.511-6.104-6.249c-7.242,0.38-7.26,0.066-7.27-7.343
		c0-1-0.029-2.001,0.006-2.999c0.115-3.319-0.936-7.607,0.74-9.664c1.477-1.812,6.086-0.861,9.164-1.682
		c1.25-0.333,2.916-2.061,3.01-3.262c0.359-4.638,0.242-9.321,0.145-13.983c-0.064-3.024,0.85-4.664,4.25-4.586
		c6.66,0.153,13.33,0.13,19.992,0.008c3.072-0.056,4.152,1.333,4.109,4.214c-0.068,4.665,0.088,9.333-0.021,13.995
		c-0.064,2.769,0.986,3.922,3.812,3.794c3.492-0.158,7.02,0.216,10.49-0.098c4.113-0.371,5.219,1.391,4.979,5.187
		c-0.264,4.148-0.189,8.332-0.023,12.491c0.123,3.065-1.145,4.182-4.119,4.06c-3.492-0.143-7.008,0.153-10.492-0.072
		c-3.416-0.222-4.766,0.927-4.684,4.493c0.211,9.159-0.004,18.328,0.18,27.488c0.152,7.641,2.967,10.126,10.527,9.775
		C961.478,139.353,963.753,139.128,966.736,138.905z"/>
	<path style="fill-rule:evenodd;clip-rule:evenodd;" d="M720.714,86.688c6.48-9.01,14.002-13.587,24.346-12.737
		c3.279,0.27,4.229,1.295,3.969,4.593c-0.527,6.726-0.584,13.487-0.834,20.231c-3.377,0-5.848-0.033-8.316,0.006
		c-10.305,0.167-17.977,7.641-18.111,18.012c-0.166,12.822-0.141,25.649,0.002,38.473c0.037,3.406-0.959,4.755-4.525,4.625
		c-6.488-0.235-12.994-0.208-19.482-0.008c-3.367,0.104-4.721-0.88-4.705-4.468c0.119-24.982,0.119-49.966,0.004-74.948
		c-0.016-3.667,1.541-4.515,4.811-4.413c5.658,0.176,11.342,0.311,16.982-0.037c4.512-0.277,6.584,1.108,5.889,5.806
		C720.56,83.046,720.714,84.319,720.714,86.688z"/>
	<path style="fill-rule:evenodd;clip-rule:evenodd;" d="M787.74,159.771c-9.088,0-17.535,0.155-25.959-0.221
		c-0.922-0.041-2.434-3.122-2.449-4.805c-0.182-17.976-0.115-35.953-0.115-53.93c-0.002-6.658,0.092-13.317-0.029-19.974
		c-0.059-3.233,0.793-4.925,4.484-4.801c6.816,0.228,13.648,0.123,20.471,0.044c2.457-0.028,3.637,0.749,3.631,3.413
		C787.72,105.952,787.74,132.405,787.74,159.771z"/>
	<path style="fill-rule:evenodd;clip-rule:evenodd;" d="M789.734,50.398c-0.109,8.526-7.408,15.39-16.309,15.337
		c-8.75-0.053-16.254-7.364-16.092-15.679c0.164-8.321,7.816-15.422,16.502-15.312C782.88,34.86,789.845,41.718,789.734,50.398z"/>
	<path style="fill-rule:evenodd;clip-rule:evenodd;" d="M1101.093,197.858c0,34.416,0,68.834,0,103.252
		c-0.111,0-0.223,0.002-0.332,0.002c0-34.371,0-68.744,0-103.115C1100.871,197.95,1100.982,197.903,1101.093,197.858z"/>
	<path style="fill-rule:evenodd;clip-rule:evenodd;" d="M1030.669,308.684c0-32.283,0-64.564,0-96.848c0.119,0,0.238,0,0.357,0
		c0,32.436,0,64.871,0,97.305C1030.908,308.989,1030.789,308.836,1030.669,308.684z"/>
	<path style="fill-rule:evenodd;clip-rule:evenodd;" d="M1086.705,284.09c0-24.113,0-48.229,0-72.344c0.121,0,0.24,0,0.359,0
		c0,24.078,0,48.156,0,72.234C1086.945,284.018,1086.826,284.055,1086.705,284.09z"/>
	<path style="fill-rule:evenodd;clip-rule:evenodd;" d="M1045.109,225.821c0,24.119,0,48.236,0,72.354
		c-0.119,0.002-0.24,0.002-0.359,0.002c0-24.062,0-48.125,0-72.188C1044.869,225.932,1044.99,225.877,1045.109,225.821z"/>
	<path style="fill-rule:evenodd;clip-rule:evenodd;" d="M1072.695,298.174c0-24.117,0-48.236,0-72.354c0.115,0,0.23,0,0.344,0
		c0,24.117,0,48.236,0,72.354C1072.925,298.174,1072.81,298.174,1072.695,298.174z"/>
	<path style="fill-rule:evenodd;clip-rule:evenodd;" d="M1059.074,240.674c0,23.854,0,47.707,0,71.559c-0.115,0-0.23,0-0.346,0
		c0-23.854,0-47.705,0-71.559C1058.843,240.674,1058.958,240.674,1059.074,240.674z"/>
	<path style="fill-rule:evenodd;clip-rule:evenodd;" d="M590.237,621.051"/>
	<path style="fill-rule:evenodd;clip-rule:evenodd;fill:none;" d="M440.911,76.477c4.311,11.945,8.62,23.891,13.084,36.262
		c-9.408,0-18.1,0-27.67,0c4.61-12.489,9.005-24.392,13.398-36.294C440.119,76.455,440.515,76.466,440.911,76.477z"/>
	<path style="fill-rule:evenodd;clip-rule:evenodd;fill:none;" d="M855.302,138.282c-10.982,0.045-19.469-8.761-19.547-20.285
		c-0.078-11.439,8.449-20.522,19.307-20.566c11.055-0.045,18.861,8.2,18.977,20.043C874.156,129.61,866.388,138.237,855.302,138.282
		z"/>
	<path style="fill-rule:evenodd;clip-rule:evenodd;fill:none;" d="M1066.181,138.507c-10.678,0.088-17.826-6.993-17.896-17.726
		c-0.07-10.775,6.949-17.958,17.604-18.014c10.475-0.054,18.07,7.4,18.09,17.753
		C1083.998,131.137,1076.791,138.419,1066.181,138.507z"/>
</g>
</svg>
