<?xml version="1.0" standalone="no"?>
<!DOCTYPE svg PUBLIC "-//W3C//DTD SVG 20010904//EN"
 "http://www.w3.org/TR/2001/REC-SVG-20010904/DTD/svg10.dtd">
<svg version="1.0" xmlns="http://www.w3.org/2000/svg"
 width="600.000000pt" height="600.000000pt" viewBox="0 0 600.000000 600.000000"
 preserveAspectRatio="xMidYMid meet">
<metadata>
Created by potrace 1.11, written by Peter Selinger 2001-2013
</metadata>
<g transform="translate(0.000000,600.000000) scale(0.100000,-0.100000)"
fill="#000000" stroke="none">
<path d="M4210 5599 c-168 -19 -380 -93 -541 -189 -72 -43 -269 -186 -269
-196 0 -3 12 3 28 14 46 33 222 119 322 157 163 62 325 95 540 111 250 17 488
-61 653 -216 83 -77 120 -130 164 -230 38 -87 43 -73 10 27 -75 220 -261 403
-487 478 -154 51 -258 62 -420 44z"/>
<path d="M1607 5479 c-303 -53 -493 -186 -650 -453 -138 -236 -215 -761 -188
-1280 31 -573 106 -919 312 -1437 63 -159 250 -482 427 -739 288 -418 694
-841 999 -1042 76 -50 206 -97 324 -117 l97 -16 12 -55 c16 -71 32 -101 70
-134 45 -37 103 -36 158 4 41 29 45 37 81 169 6 21 18 26 92 41 128 27 177 47
263 109 235 167 659 593 892 896 107 138 411 620 474 750 46 96 136 343 127
351 -2 2 -19 -35 -37 -84 -78 -207 -322 -605 -558 -912 -218 -283 -634 -681
-930 -890 -78 -54 -123 -79 -180 -96 -97 -30 -112 -30 -112 -1 0 12 16 105 36
207 56 294 50 390 -35 554 -71 137 -62 203 42 313 l50 53 -297 0 c-163 0 -296
-3 -296 -6 0 -3 23 -32 52 -63 97 -106 102 -163 29 -302 -29 -55 -54 -120 -61
-157 -19 -95 -8 -226 33 -382 20 -74 35 -136 33 -137 -4 -4 -169 187 -218 252
-91 121 -132 240 -132 385 0 144 43 256 139 361 30 32 55 63 55 69 0 6 70 10
193 10 373 1 786 39 948 90 87 26 172 79 246 153 66 64 79 91 19 39 -55 -48
-166 -109 -251 -137 -203 -69 -642 -100 -1029 -74 l-158 10 -117 56 c-64 30
-152 77 -196 104 -119 72 -298 219 -283 234 3 3 61 -1 129 -9 68 -8 225 -18
349 -22 l225 -7 52 44 c28 24 86 86 128 137 42 51 82 91 88 89 7 -2 48 -47 92
-101 44 -53 100 -113 125 -133 l45 -35 190 6 c341 12 552 38 701 87 51 16 72
31 121 82 78 82 184 234 266 382 68 122 79 161 52 171 -8 4 -12 10 -9 15 14
23 94 -5 126 -45 29 -35 22 -96 -23 -213 -78 -205 -209 -461 -443 -863 -143
-245 -179 -310 -172 -310 14 0 372 568 499 790 97 171 205 386 307 615 58 129
76 159 128 213 72 76 135 190 162 298 24 95 27 254 5 377 -33 188 -131 379
-229 445 -60 40 -84 43 -29 3 75 -54 146 -203 174 -361 20 -117 17 -342 -5
-415 -45 -152 -146 -264 -308 -345 -130 -64 -245 -90 -409 -90 -173 0 -333 31
-467 91 -79 36 -94 31 -21 -7 142 -71 415 -164 485 -164 37 0 30 -29 -25 -112
-47 -70 -224 -252 -305 -313 l-39 -30 -201 -3 -202 -4 -32 27 c-45 37 -282
301 -282 313 0 6 14 19 31 30 31 19 32 19 73 1 48 -22 148 -25 186 -6 35 18
40 69 8 91 -81 57 -204 36 -336 -58 -111 -79 -183 -97 -297 -76 -111 21 -111
22 -88 490 22 419 35 872 28 939 -15 141 -64 242 -165 341 l-67 65 30 28 c27
25 29 31 25 80 -6 74 -35 124 -104 180 -131 107 -369 246 -519 302 -186 70
-423 85 -624 39 -22 -5 -23 -3 -11 11 39 47 195 98 353 114 232 23 442 -38
699 -205 54 -35 98 -59 98 -54 0 18 -196 206 -254 245 -227 148 -493 197 -789
144z m400 -480 c32 -12 97 -44 144 -71 87 -48 214 -136 207 -143 -2 -2 -32 3
-67 11 -35 8 -75 14 -89 12 -22 -3 -19 -7 32 -42 109 -75 205 -199 206 -267 0
-28 -32 -80 -92 -149 l-37 -42 -86 37 c-112 48 -239 74 -395 82 -137 6 -266
-11 -349 -48 -24 -10 -47 -19 -52 -19 -14 0 -10 148 6 225 20 96 94 242 153
303 117 120 279 163 419 111z m-404 -881 c93 -21 128 -23 404 -23 l301 0 22
-28 c12 -15 21 -29 19 -31 -2 -2 -38 -11 -79 -19 -246 -53 -524 -49 -700 11
-48 16 -58 24 -77 63 -26 53 -28 63 -7 55 8 -3 61 -16 117 -28z m809 -135 c15
-16 36 -47 48 -71 51 -98 0 -281 -105 -381 -82 -78 -194 -128 -355 -161 -170
-34 -187 -55 -168 -211 9 -78 8 -92 -7 -115 -25 -38 -78 -56 -174 -58 l-85 -1
-64 85 c-150 198 -154 228 -63 499 72 214 84 267 85 353 1 38 4 68 8 68 4 0
31 -9 59 -20 91 -36 188 -52 319 -53 141 -1 249 17 380 62 47 16 88 30 91 30
3 1 17 -11 31 -26z"/>
<path d="M4216 5249 c-211 -22 -488 -148 -738 -336 -111 -84 -140 -129 -140
-216 0 -43 4 -55 26 -74 58 -49 144 -16 314 121 148 119 190 148 293 205 252
137 598 188 752 110 74 -38 184 -117 239 -171 56 -57 56 -48 1 52 -98 176
-271 279 -523 310 -93 11 -110 11 -224 -1z"/>
<path d="M5057 4730 c15 -66 7 -192 -16 -267 -29 -92 -67 -144 -126 -173 -59
-29 -51 -36 17 -16 78 22 126 80 153 183 19 74 19 166 -1 234 -18 62 -38 92
-27 39z"/>
<path d="M4230 4429 c-251 -22 -479 -110 -578 -223 -37 -43 -38 -66 -2 -82 36
-17 431 -38 584 -31 239 11 437 60 534 133 17 14 32 30 32 37 0 11 -113 84
-186 120 -32 17 -165 43 -249 49 -27 3 -88 1 -135 -3z"/>
<path d="M4705 4124 c-67 -56 -213 -111 -358 -134 -131 -21 -383 -8 -559 29
-81 17 -155 34 -165 37 -10 3 2 -6 26 -22 84 -52 272 -102 447 -119 77 -7 231
8 322 31 99 25 194 77 263 142 65 62 78 82 24 36z"/>
<path d="M3530 2107 c-283 -13 -490 -14 -950 -4 -390 9 -400 8 -260 -37 98
-31 159 -42 360 -62 426 -43 961 -1 1161 90 l54 24 -70 0 c-38 -1 -171 -6
-295 -11z"/>
</g>
</svg>
