<?xml version="1.0" encoding="utf-8"?>
<!-- Generator: Adobe Illustrator 16.0.0, SVG Export Plug-In . SVG Version: 6.00 Build 0)  -->
<!DOCTYPE svg PUBLIC "-//W3C//DTD SVG 1.1//EN" "http://www.w3.org/Graphics/SVG/1.1/DTD/svg11.dtd">
<svg version="1.1" id="Layer_1" xmlns="http://www.w3.org/2000/svg" xmlns:xlink="http://www.w3.org/1999/xlink" x="0px" y="0px"
	 width="751.462px" height="321.408px" viewBox="0 0 751.462 321.408" style="enable-background:new 0 0 751.462 321.408;"
	 xml:space="preserve">
<g>
	<path style="fill:#FFFFFF;" d="M97.742,82.947c1.123-1.072,1.684-1.674,2.309-2.199c5.811-4.889,7.959-11.117,5.778-18.328
		c-2.22-7.342-7.82-11.143-15.286-11.562c-8.134-0.457-16.303-0.33-24.458-0.375C56.478,50.431,46.87,50.47,37.12,50.47
		c0,23.559,0,46.586,0,69.74c17.877,0,35.359,0.359,52.817-0.129c11.231-0.314,19.201-8.057,19.756-18.117
		C110.174,93.246,106.023,87.007,97.742,82.947z M232.496,73.359c-1.929-10.432-7.817-17.035-16.474-20.688
		c-14.878-6.277-30.287-6.814-45.158-0.268c-14.454,6.363-20.922,18.381-20.808,34.008c0.112,15.285,6.524,26.951,21.008,32.613
		c15.178,5.934,30.292,5.719,44.337-3.916c0.904-0.621,1.895-1.113,3.194-1.869c0.559,2.65,1.021,4.84,1.459,6.92
		c4.189,0,7.948,0,11.806,0c0-12.879,0-25.445,0-38.213c-11.536,0-22.766,0-34.147,0c0,4.865,0,9.41,0,14.492
		c5.734,0,11.114,0,16.736,0c-4.916,9.682-15.609,14.529-26.377,12.375c-11.832-2.365-18.792-10.18-19.565-21.965
		c-0.721-10.984,5.802-20.777,16.154-24.408c9.343-3.275,23.871-0.393,28.197,8.936c0.455,0.982,2.242,1.846,3.445,1.893
		C221.445,73.478,226.601,73.359,232.496,73.359z M181.607,216.755c-1.404-1.957-2.332-3.277-3.287-4.578
		c-10.73-14.621-21.44-29.258-32.242-43.826c-0.909-1.225-2.411-2.77-3.697-2.828c-6.428-0.289-12.877-0.133-19.525-0.133
		c0,23.609,0,46.666,0,69.863c5.691,0,11.067,0,16.655,0c0-16.85,0-33.326,0-50.629c1.521,2.018,2.518,3.312,3.487,4.629
		c10.559,14.34,21.093,28.697,31.704,42.998c0.937,1.264,2.317,3.033,3.561,3.092c6.559,0.309,13.14,0.145,19.612,0.145
		c0-23.73,0-46.785,0-69.818c-5.598,0-10.845,0-16.267,0C181.607,182.58,181.607,199.181,181.607,216.755z M712.797,186.064
		c0.569-7.352-4.086-15.059-11.821-18.352c-14.526-6.186-29.507-6.484-44.303-1.143c-3.871,1.398-7.584,4.359-10.341,7.502
		c-7.478,8.529-5.578,20.877,4.188,26.67c4.014,2.379,8.876,3.717,13.528,4.547c8.345,1.492,16.852,2.055,25.23,3.385
		c3.909,0.619,7.605,2.525,7.729,7.195c0.113,4.293-3.092,6.473-6.736,7.691c-8.013,2.678-16.244,2.906-23.877-0.664
		c-3.28-1.535-5.476-5.375-8.193-8.139c-1.025-1.041-2.079-2.787-3.212-2.863c-4.755-0.324-9.543-0.137-14.285-0.137
		c-0.387,10.83,5.078,19.115,15.263,22.666c15.319,5.342,30.813,5.061,46.034-0.344c8.114-2.881,13.24-8.975,14.268-17.697
		c1.303-11.049-4.715-18.949-17.464-21.664c-10.057-2.143-20.399-2.951-30.627-4.258c-3.786-0.484-7.629-1.924-7.383-5.879
		c0.164-2.619,3.009-6.652,5.354-7.236c5.655-1.408,11.765-1.781,17.612-1.393c4.891,0.324,9.043,3.09,11.28,8.016
		c0.428,0.941,1.872,1.961,2.886,2.002C702.891,186.175,707.867,186.064,712.797,186.064z M284.418,51.232c0,22.807,0,45.82,0,68.33
		c15.361,0,30.343,0.693,45.233-0.182c16.917-0.994,30.623-16.42,31.17-33.41c0.559-17.369-11.341-32.85-28.808-34.439
		C316.38,50.107,300.515,51.232,284.418,51.232z M631.158,190.199c-1.705-7.678-5.155-13.314-10.768-17.682
		c-14.102-10.977-38.846-13.105-54.368-4.289c-12.669,7.195-17.906,18.742-17.876,32.902c0.029,13.936,5.659,24.748,18.293,31.406
		c8.811,4.643,18.307,5.75,28.07,5.299c8.625-0.4,16.842-2.305,23.858-7.633c7.084-5.377,11.589-12.395,13.27-21.656
		c-5.916,0-11.247-0.238-16.531,0.156c-1.437,0.107-3.227,1.861-4.003,3.314c-3.079,5.768-7.521,9.713-13.878,11.277
		c-16.062,3.955-28.474-4.721-30.462-21.211c-1.336-11.076,5.188-21.258,15.845-24.723c11.36-3.695,23.009,0.549,28.562,10.213
		c0.672,1.168,2.305,2.441,3.554,2.506C620.022,190.357,625.343,190.199,631.158,190.199z M601.984,145.734
		c-186.783,0-373.181,0-559.913,0c0.188,1.734,0.336,3.119,0.479,4.436c186.69,0,372.953,0,559.434,0
		C601.984,148.646,601.984,147.367,601.984,145.734z M113.859,235.455c-0.936-2.156-1.542-3.668-2.238-5.137
		c-8.457-17.873-17.594-35.465-25.115-53.723c-3.812-9.254-8.805-12.701-18.425-11.309c-3.25,0.471-4.869,1.312-6.26,4.23
		c-9.727,20.396-19.649,40.699-29.492,61.041c-0.693,1.432-1.25,2.93-2.041,4.801c5.76,0,10.924,0.193,16.057-0.127
		c1.383-0.086,3.595-1.523,3.854-2.691c2.485-11.172,9.75-14.049,20.054-12.211c1.29,0.23,2.695,0.238,3.982,0
		c10.075-1.877,16.818,1.32,19.136,11.967c0.266,1.223,2.012,2.951,3.152,3.016C102.09,235.626,107.685,235.455,113.859,235.455z
		 M449.619,120.451c-0.912-2.133-1.498-3.639-2.187-5.094c-8.448-17.873-17.54-35.479-25.107-53.715
		c-3.798-9.154-8.7-12.834-18.397-11.357c-3.203,0.486-4.894,1.23-6.287,4.154c-9.789,20.545-19.763,41.002-29.661,61.496
		c-0.623,1.289-1.108,2.643-1.845,4.418c5.859,0,11.165,0.166,16.445-0.121c1.229-0.068,3.2-1.5,3.431-2.6
		c2.43-11.541,10.028-14.129,20.416-12.293c0.968,0.17,2.024,0.188,2.985-0.002c10.466-2.064,17.411,1.377,19.91,12.309
		c0.25,1.098,1.854,2.631,2.89,2.68C437.789,120.591,443.385,120.451,449.619,120.451z M206.826,235.355
		c6.166,0,11.468,0.166,16.746-0.121c1.231-0.068,3.2-1.494,3.437-2.594c2.466-11.473,10-14.166,20.41-12.301
		c0.967,0.172,2.024,0.186,2.986-0.002c10.456-2.053,17.422,1.355,19.916,12.303c0.25,1.098,1.85,2.635,2.885,2.686
		c5.579,0.266,11.177,0.125,16.718,0.125c0.088-0.826,0.254-1.207,0.137-1.455c-10.409-22.088-20.807-44.18-31.365-66.195
		c-0.536-1.117-2.426-2.145-3.755-2.238c-13.868-0.979-13.872-0.924-19.915,11.531c-0.145,0.299-0.321,0.582-0.465,0.881
		C225.46,196.796,216.363,215.621,206.826,235.355z M605.617,120.453c-0.924-2.162-1.51-3.67-2.199-5.127
		c-8.448-17.873-17.555-35.473-25.102-53.719c-3.807-9.201-8.769-12.744-18.425-11.326c-3.238,0.475-4.887,1.301-6.265,4.189
		c-9.73,20.391-19.63,40.699-29.46,61.043c-0.693,1.434-1.272,2.922-2.103,4.846c5.782,0,10.932,0.191,16.05-0.125
		c1.394-0.086,3.624-1.48,3.891-2.641c2.536-10.992,9.554-14.256,19.958-12.256c0.963,0.186,2.019,0.174,2.986,0.002
		c10.42-1.855,17.933,0.912,20.387,12.338c0.232,1.084,1.864,2.604,2.906,2.652C593.813,120.593,599.402,120.453,605.617,120.453z
		 M390.706,235.015c6.231,0,11.794,0,17.324,0c0.083-0.893,0.16-1.387,0.17-1.883c0.188-9.289-1.844-19.387,1.166-27.645
		c3.089-8.479,11.1-15.166,16.968-22.627c4.374-5.564,8.766-11.113,13.76-17.443c-6.363,0-11.652,0.18-16.922-0.066
		c-3.312-0.154-5.453,0.812-7.417,3.645c-5.055,7.291-10.509,14.307-16.055,21.771c-5.709-7.869-10.938-15.174-16.306-22.373
		c-0.909-1.219-2.387-2.771-3.663-2.828c-6.392-0.289-12.804-0.133-20.01-0.133c1.386,1.953,2.178,3.158,3.057,4.295
		c7.945,10.277,15.79,20.637,23.923,30.764c2.862,3.564,4.331,7.115,4.102,11.781C390.438,219.73,390.706,227.218,390.706,235.015z
		 M477.45,64.222c0,19.195,0,37.584,0,55.842c6.111,0,11.669,0,17.636,0c0-18.658,0-36.914,0-55.686c8.151,0,15.893,0,23.804,0
		c0-4.898,0-9.273,0-13.643c-22.065,0-43.801,0-65.526,0c0,4.561,0,8.795,0,13.486C461.326,64.222,468.939,64.222,477.45,64.222z
		 M485.75,235.3c0-18.867,0-37.262,0-56.148c8.345,0,16.096,0,23.959,0c0-4.762,0-9.01,0-13.494c-22.044,0-43.795,0-65.706,0
		c0,4.566,0,8.926,0,13.854c8.207,0,15.963,0,24.289,0c0,18.957,0,37.338,0,55.789C474.177,235.3,479.47,235.3,485.75,235.3z
		 M300.265,165.535c0,23.521,0,46.557,0,69.629c18.12,0,35.849,0,53.529,0c0-4.684,0-9.053,0-13.902c-12.342,0-24.266,0-36.727,0
		c0-18.871,0-37.254,0-55.727C311.228,165.535,305.942,165.535,300.265,165.535z M536.161,235.255c0-23.496,0-46.527,0-69.57
		c-5.796,0-11.195,0-16.598,0c0,23.365,0,46.406,0,69.57C525.191,235.255,530.475,235.255,536.161,235.255z M138.074,50.667
		c-5.846,0-11.248,0-16.734,0c0,23.33,0,46.352,0,69.451c5.743,0,11.142,0,16.734,0C138.074,96.91,138.074,73.998,138.074,50.667z"
		/>
	<path style="fill-rule:evenodd;clip-rule:evenodd;" d="M97.742,82.947c8.281,4.061,12.432,10.299,11.951,19.018
		c-0.555,10.061-8.524,17.803-19.756,18.117c-17.458,0.488-34.939,0.129-52.817,0.129c0-23.154,0-46.182,0-69.74
		c9.75,0,19.358-0.039,28.966,0.012c8.154,0.045,16.323-0.082,24.458,0.375c7.466,0.42,13.065,4.221,15.286,11.562
		c2.181,7.211,0.032,13.439-5.778,18.328C99.426,81.273,98.865,81.875,97.742,82.947z M54.371,106.406
		c9.933,0,19.368,0.143,28.795-0.059c4.911-0.105,7.71-2.922,7.984-7.178c0.272-4.219-2.677-8.174-7.421-8.363
		c-9.706-0.389-19.439-0.117-29.358-0.117C54.371,95.994,54.371,100.906,54.371,106.406z M54.435,78.222
		c9.17,0,17.817,0.193,26.448-0.082c4.287-0.139,7.196-2.588,7.379-7.232c0.154-3.926-2.758-7.16-7.304-7.305
		c-8.764-0.279-17.544-0.082-26.523-0.082C54.435,68.548,54.435,73.14,54.435,78.222z"/>
	<path style="fill-rule:evenodd;clip-rule:evenodd;" d="M232.496,73.359c-5.895,0-11.051,0.119-16.194-0.09
		c-1.204-0.047-2.99-0.91-3.445-1.893c-4.326-9.328-18.854-12.211-28.197-8.936c-10.352,3.631-16.875,13.424-16.154,24.408
		c0.773,11.785,7.733,19.6,19.565,21.965c10.768,2.154,21.462-2.693,26.377-12.375c-5.622,0-11.001,0-16.736,0
		c0-5.082,0-9.627,0-14.492c11.381,0,22.611,0,34.147,0c0,12.768,0,25.334,0,38.213c-3.857,0-7.616,0-11.806,0
		c-0.438-2.08-0.9-4.27-1.459-6.92c-1.299,0.756-2.29,1.248-3.194,1.869c-14.044,9.635-29.159,9.85-44.337,3.916
		c-14.484-5.662-20.896-17.328-21.008-32.613c-0.115-15.627,6.354-27.645,20.808-34.008c14.871-6.547,30.28-6.01,45.158,0.268
		C224.678,56.324,230.567,62.927,232.496,73.359z"/>
	<path style="fill-rule:evenodd;clip-rule:evenodd;" d="M181.607,216.755c0-17.574,0-34.176,0-51.086c5.421,0,10.668,0,16.267,0
		c0,23.033,0,46.088,0,69.818c-6.472,0-13.053,0.164-19.612-0.145c-1.244-0.059-2.624-1.828-3.561-3.092
		c-10.61-14.301-21.145-28.658-31.704-42.998c-0.969-1.316-1.965-2.611-3.487-4.629c0,17.303,0,33.779,0,50.629
		c-5.587,0-10.963,0-16.655,0c0-23.197,0-46.254,0-69.863c6.648,0,13.097-0.156,19.525,0.133c1.287,0.059,2.789,1.604,3.697,2.828
		c10.802,14.568,21.512,29.205,32.242,43.826C179.275,213.478,180.203,214.798,181.607,216.755z"/>
	<path style="fill-rule:evenodd;clip-rule:evenodd;" d="M712.797,186.064c-4.931,0-9.906,0.111-14.869-0.094
		c-1.014-0.041-2.458-1.061-2.886-2.002c-2.237-4.926-6.39-7.691-11.28-8.016c-5.848-0.389-11.957-0.016-17.612,1.393
		c-2.346,0.584-5.19,4.617-5.354,7.236c-0.246,3.955,3.597,5.395,7.383,5.879c10.228,1.307,20.57,2.115,30.627,4.258
		c12.749,2.715,18.767,10.615,17.464,21.664c-1.027,8.723-6.153,14.816-14.268,17.697c-15.221,5.404-30.715,5.686-46.034,0.344
		c-10.185-3.551-15.649-11.836-15.263-22.666c4.742,0,9.53-0.188,14.285,0.137c1.133,0.076,2.187,1.822,3.212,2.863
		c2.718,2.764,4.913,6.604,8.193,8.139c7.633,3.57,15.864,3.342,23.877,0.664c3.645-1.219,6.85-3.398,6.736-7.691
		c-0.123-4.67-3.819-6.576-7.729-7.195c-8.379-1.33-16.886-1.893-25.23-3.385c-4.652-0.83-9.515-2.168-13.528-4.547
		c-9.767-5.793-11.666-18.141-4.188-26.67c2.757-3.143,6.47-6.104,10.341-7.502c14.796-5.342,29.776-5.043,44.303,1.143
		C708.711,171.005,713.367,178.712,712.797,186.064z"/>
	<path style="fill-rule:evenodd;clip-rule:evenodd;" d="M284.418,51.232c16.097,0,31.962-1.125,47.596,0.299
		c17.467,1.59,29.367,17.07,28.808,34.439c-0.547,16.99-14.253,32.416-31.17,33.41c-14.89,0.875-29.872,0.182-45.233,0.182
		C284.418,97.052,284.418,74.039,284.418,51.232z M301.531,64.421c0,14.303,0,28.012,0,42.211
		c8.001-0.383,15.656-0.396,23.227-1.195c10.447-1.105,16.667-8.863,16.766-20.047c0.103-11.674-5.923-19.85-16.425-20.826
		C317.385,63.845,309.55,64.421,301.531,64.421z"/>
	<path style="fill-rule:evenodd;clip-rule:evenodd;" d="M631.158,190.199c-5.814,0-11.136,0.158-16.435-0.119
		c-1.249-0.064-2.882-1.338-3.554-2.506c-5.553-9.664-17.201-13.908-28.562-10.213c-10.656,3.465-17.181,13.646-15.845,24.723
		c1.988,16.49,14.399,25.166,30.462,21.211c6.357-1.564,10.799-5.51,13.878-11.277c0.776-1.453,2.566-3.207,4.003-3.314
		c5.284-0.395,10.615-0.156,16.531-0.156c-1.681,9.262-6.186,16.279-13.27,21.656c-7.017,5.328-15.233,7.232-23.858,7.633
		c-9.764,0.451-19.26-0.656-28.07-5.299c-12.634-6.658-18.264-17.471-18.293-31.406c-0.03-14.16,5.207-25.707,17.876-32.902
		c15.522-8.816,40.267-6.688,54.368,4.289C626.002,176.884,629.453,182.521,631.158,190.199z"/>
	<path style="fill-rule:evenodd;clip-rule:evenodd;" d="M601.984,145.734c0,1.633,0,2.912,0,4.436c-186.481,0-372.744,0-559.434,0
		c-0.142-1.316-0.291-2.701-0.479-4.436C228.803,145.734,415.201,145.734,601.984,145.734z"/>
	<path style="fill-rule:evenodd;clip-rule:evenodd;" d="M113.859,235.455c-6.174,0-11.769,0.172-17.335-0.143
		c-1.14-0.064-2.886-1.793-3.152-3.016c-2.318-10.646-9.062-13.844-19.136-11.967c-1.287,0.238-2.692,0.23-3.982,0
		c-10.304-1.838-17.569,1.039-20.054,12.211c-0.259,1.168-2.472,2.605-3.854,2.691c-5.132,0.32-10.296,0.127-16.057,0.127
		c0.792-1.871,1.348-3.369,2.041-4.801c9.843-20.342,19.765-40.645,29.492-61.041c1.392-2.918,3.01-3.76,6.26-4.23
		c9.62-1.393,14.614,2.055,18.425,11.309c7.521,18.258,16.658,35.85,25.115,53.723C112.316,231.787,112.923,233.298,113.859,235.455
		z M62.134,206.212c6.608,0,12.393,0,18.861,0c-3.165-7.279-6.146-14.137-9.576-22.025C68.092,192.08,65.215,198.904,62.134,206.212
		z"/>
	<path style="fill-rule:evenodd;clip-rule:evenodd;" d="M449.619,120.451c-6.233,0-11.83,0.141-17.407-0.125
		c-1.036-0.049-2.64-1.582-2.89-2.68c-2.499-10.932-9.443-14.373-19.91-12.309c-0.961,0.189-2.018,0.172-2.985,0.002
		c-10.388-1.836-17.986,0.752-20.416,12.293c-0.231,1.1-2.202,2.531-3.431,2.6c-5.28,0.287-10.585,0.121-16.445,0.121
		c0.737-1.775,1.223-3.129,1.845-4.418c9.898-20.494,19.872-40.951,29.661-61.496c1.393-2.924,3.084-3.668,6.287-4.154
		c9.697-1.477,14.599,2.203,18.397,11.357c7.567,18.236,16.659,35.842,25.107,53.715
		C448.121,116.812,448.707,118.318,449.619,120.451z M407.188,69.14c-3.429,8.217-6.263,15.006-9.194,22.025
		c6.519,0,12.274,0,18.796,0C413.639,83.937,410.701,77.199,407.188,69.14z"/>
	<path style="fill-rule:evenodd;clip-rule:evenodd;" d="M206.826,235.355c9.538-19.734,18.634-38.559,27.733-57.381
		c0.145-0.299,0.32-0.582,0.465-0.881c6.043-12.455,6.047-12.51,19.915-11.531c1.329,0.094,3.219,1.121,3.755,2.238
		c10.558,22.016,20.956,44.107,31.365,66.195c0.117,0.248-0.049,0.629-0.137,1.455c-5.541,0-11.139,0.141-16.718-0.125
		c-1.035-0.051-2.635-1.588-2.885-2.686c-2.493-10.947-9.459-14.355-19.916-12.303c-0.961,0.188-2.019,0.174-2.986,0.002
		c-10.409-1.865-17.944,0.828-20.41,12.301c-0.236,1.1-2.206,2.525-3.437,2.594C218.293,235.521,212.991,235.355,206.826,235.355z
		 M257.78,206.164c-3.179-7.289-6.112-14.018-9.568-21.943c-3.366,7.979-6.221,14.746-9.259,21.943
		C245.299,206.164,251.046,206.164,257.78,206.164z"/>
	<path style="fill-rule:evenodd;clip-rule:evenodd;" d="M605.617,120.453c-6.215,0-11.804,0.141-17.375-0.123
		c-1.042-0.049-2.674-1.568-2.906-2.652c-2.454-11.426-9.967-14.193-20.387-12.338c-0.968,0.172-2.023,0.184-2.986-0.002
		c-10.404-2-17.422,1.264-19.958,12.256c-0.267,1.16-2.497,2.555-3.891,2.641c-5.118,0.316-10.268,0.125-16.05,0.125
		c0.83-1.924,1.409-3.412,2.103-4.846c9.83-20.344,19.729-40.652,29.46-61.043c1.378-2.889,3.026-3.715,6.265-4.189
		c9.656-1.418,14.618,2.125,18.425,11.326c7.547,18.246,16.653,35.846,25.102,53.719
		C604.107,116.783,604.693,118.291,605.617,120.453z M572.819,91.236c-3.252-7.463-6.177-14.176-9.604-22.041
		c-3.406,8.074-6.269,14.861-9.298,22.041C560.379,91.236,566.161,91.236,572.819,91.236z"/>
	<path style="fill-rule:evenodd;clip-rule:evenodd;" d="M390.706,235.015c0-7.797-0.267-15.285,0.097-22.742
		c0.229-4.666-1.24-8.217-4.102-11.781c-8.133-10.127-15.978-20.486-23.923-30.764c-0.878-1.137-1.67-2.342-3.057-4.295
		c7.206,0,13.618-0.156,20.01,0.133c1.276,0.057,2.754,1.609,3.663,2.828c5.369,7.199,10.597,14.504,16.306,22.373
		c5.546-7.465,11-14.48,16.055-21.771c1.963-2.832,4.104-3.799,7.417-3.645c5.27,0.246,10.559,0.066,16.922,0.066
		c-4.994,6.33-9.386,11.879-13.76,17.443c-5.868,7.461-13.879,14.148-16.968,22.627c-3.01,8.258-0.978,18.355-1.166,27.645
		c-0.01,0.496-0.087,0.99-0.17,1.883C402.5,235.015,396.937,235.015,390.706,235.015z"/>
	<path style="fill-rule:evenodd;clip-rule:evenodd;" d="M477.45,64.222c-8.511,0-16.124,0-24.087,0c0-4.691,0-8.926,0-13.486
		c21.726,0,43.461,0,65.526,0c0,4.369,0,8.744,0,13.643c-7.911,0-15.652,0-23.804,0c0,18.771,0,37.027,0,55.686
		c-5.967,0-11.524,0-17.636,0C477.45,101.806,477.45,83.417,477.45,64.222z"/>
	<path style="fill-rule:evenodd;clip-rule:evenodd;" d="M485.75,235.3c-6.28,0-11.573,0-17.458,0c0-18.451,0-36.832,0-55.789
		c-8.326,0-16.082,0-24.289,0c0-4.928,0-9.287,0-13.854c21.911,0,43.662,0,65.706,0c0,4.484,0,8.732,0,13.494
		c-7.863,0-15.614,0-23.959,0C485.75,198.039,485.75,216.433,485.75,235.3z"/>
	<path style="fill-rule:evenodd;clip-rule:evenodd;" d="M300.265,165.535c5.677,0,10.962,0,16.802,0c0,18.473,0,36.855,0,55.727
		c12.461,0,24.384,0,36.727,0c0,4.85,0,9.219,0,13.902c-17.68,0-35.409,0-53.529,0C300.265,212.091,300.265,189.056,300.265,165.535
		z"/>
	<path style="fill-rule:evenodd;clip-rule:evenodd;" d="M536.161,235.255c-5.686,0-10.97,0-16.598,0c0-23.164,0-46.205,0-69.57
		c5.402,0,10.802,0,16.598,0C536.161,188.728,536.161,211.759,536.161,235.255z"/>
	<path style="fill-rule:evenodd;clip-rule:evenodd;" d="M138.074,50.667c0,23.33,0,46.242,0,69.451c-5.592,0-10.991,0-16.734,0
		c0-23.1,0-46.121,0-69.451C126.826,50.667,132.228,50.667,138.074,50.667z"/>
	<path style="fill-rule:evenodd;clip-rule:evenodd;fill:#FFFFFF;" d="M54.371,106.406c0-5.5,0-10.412,0-15.717
		c9.919,0,19.652-0.271,29.358,0.117c4.745,0.189,7.693,4.145,7.421,8.363c-0.274,4.256-3.074,7.072-7.984,7.178
		C73.739,106.548,64.304,106.406,54.371,106.406z"/>
	<path style="fill-rule:evenodd;clip-rule:evenodd;fill:#FFFFFF;" d="M54.435,78.222c0-5.082,0-9.674,0-14.701
		c8.979,0,17.759-0.197,26.523,0.082c4.546,0.145,7.458,3.379,7.304,7.305c-0.183,4.645-3.092,7.094-7.379,7.232
		C72.251,78.416,63.605,78.222,54.435,78.222z"/>
	<path style="fill-rule:evenodd;clip-rule:evenodd;fill:#FFFFFF;" d="M301.531,64.421c8.019,0,15.854-0.576,23.568,0.143
		c10.501,0.977,16.528,9.152,16.425,20.826c-0.099,11.184-6.319,18.941-16.766,20.047c-7.571,0.799-15.226,0.812-23.227,1.195
		C301.531,92.433,301.531,78.724,301.531,64.421z"/>
	<path style="fill-rule:evenodd;clip-rule:evenodd;fill:#FFFFFF;" d="M62.134,206.212c3.082-7.309,5.958-14.133,9.285-22.025
		c3.43,7.889,6.411,14.746,9.576,22.025C74.527,206.212,68.742,206.212,62.134,206.212z"/>
	<path style="fill-rule:evenodd;clip-rule:evenodd;fill:#FFFFFF;" d="M407.188,69.14c3.513,8.059,6.451,14.797,9.603,22.025
		c-6.522,0-12.277,0-18.796,0C400.924,84.146,403.758,77.357,407.188,69.14z"/>
	<path style="fill-rule:evenodd;clip-rule:evenodd;fill:#FFFFFF;" d="M257.78,206.164c-6.734,0-12.481,0-18.827,0
		c3.038-7.197,5.893-13.965,9.259-21.943C251.668,192.146,254.602,198.875,257.78,206.164z"/>
	<path style="fill-rule:evenodd;clip-rule:evenodd;fill:#FFFFFF;" d="M572.819,91.236c-6.658,0-12.439,0-18.902,0
		c3.029-7.18,5.892-13.967,9.298-22.041C566.642,77.06,569.567,83.773,572.819,91.236z"/>
</g>
</svg>
