<?xml version="1.0" encoding="utf-8"?>
<!-- Generator: Adobe Illustrator 16.0.0, SVG Export Plug-In . SVG Version: 6.00 Build 0)  -->
<!DOCTYPE svg PUBLIC "-//W3C//DTD SVG 1.1//EN" "http://www.w3.org/Graphics/SVG/1.1/DTD/svg11.dtd">
<svg version="1.1" id="Layer_1" xmlns="http://www.w3.org/2000/svg" xmlns:xlink="http://www.w3.org/1999/xlink" x="0px" y="0px"
	 viewBox="0 0 595.28 841.89" style="enable-background:new 0 0 595.28 841.89;"
	 xml:space="preserve">
<g>
	<path style="fill:none;" d="M546.743,521.452c6.544,0,12.47,0,19.046,0c0-12.32,0-24.335,0-37.791
		c2.224,2.676,3.505,4.133,4.693,5.661c7.458,9.588,14.852,19.227,22.385,28.755c1.161,1.469,2.849,3.351,4.437,3.498
		c4.9,0.457,9.871,0.167,15.033,0.167c0-23.612,0-46.638,0-69.776c-6.384,0-12.411,0-18.94,0c0,11.926,0,23.442,0,36.188
		c-9.272-11.852-17.732-22.696-26.246-33.499c-0.889-1.128-2.056-2.808-3.163-2.863c-5.725-0.29-11.472-0.135-17.244-0.135
		C546.743,475.329,546.743,498.242,546.743,521.452z M-53.216,521.55c14.507,0,28.479,0.203,42.438-0.142
		c3.519-0.087,7.192-1.506,10.448-3.046c6.6-3.123,9.842-8.575,9.9-16c0.057-7.265-3.072-12.417-9.511-15.648
		c-1.055-0.529-2.1-1.077-3.512-1.803c5.562-3.454,9.413-7.388,9.869-13.672c0.801-11.034-6.771-19.05-19.177-19.499
		c-11.31-0.41-22.645-0.157-33.969-0.193c-2.092-0.007-4.185-0.001-6.488-0.001C-53.216,475.208-53.216,498.123-53.216,521.55z
		 M149.57,486.913c0.122-20.95-16.165-37.016-37.57-37.06c-21.142-0.044-38.231,16.343-38.312,36.736
		c-0.082,20.452,16.899,36.876,38.105,36.855C132.907,523.424,149.451,507.425,149.57,486.913z M357.811,451.786
		c0,23.556,0,46.605,0,69.55c6.62,0,12.833,0,19.402,0c0-7.586-0.095-14.731,0.083-21.871c0.034-1.358,1.105-3.834,1.771-3.859
		c7.399-0.278,14.813-0.175,22.808-0.175c0,9.196,0,17.609,0,25.916c6.842,0,13.066,0,19.287,0c0-23.364,0-46.292,0-69.608
		c-6.504,0-12.72,0-19.513,0c0,8.61,0,17.015,0,25.525c-8.433,0-16.286,0-24.633,0c0-8.714,0-16.986,0-25.478
		C370.403,451.786,364.294,451.786,357.811,451.786z M506.716,521.776c-0.615-1.771-0.882-2.707-1.258-3.597
		c-7.646-18.083-15.258-36.181-22.979-54.232c-5.768-13.483-5.831-13.359-20.635-13.199c-3.04,0.033-4.327,1.167-5.432,3.843
		c-6.03,14.609-12.276,29.13-18.416,43.695c-3.21,7.615-6.352,15.26-9.773,23.49c6.585,0,12.4,0.121,18.202-0.104
		c1.147-0.045,2.628-1.187,3.276-2.239c1.119-1.815,1.938-3.9,2.461-5.979c0.79-3.136,2.521-4.225,5.728-4.042
		c4.483,0.255,9.065,0.579,13.472-0.054c7.11-1.021,11.256,1.337,13.015,8.446c0.388,1.566,2.612,3.674,4.126,3.791
		C494.278,522.042,500.11,521.776,506.716,521.776z M334.312,475.931c4.862-3.8,9.517-7.438,14.135-11.047
		c-8.798-13.143-26.011-18.29-42.108-12.963c-15.572,5.154-25.389,19.64-24.745,36.512c0.622,16.302,11.799,30.003,27.636,33.877
		c15.661,3.831,32.388-2.478,39.47-15.315c-4.691-3.37-9.441-6.783-14.112-10.138c-8.95,9.279-19.422,10.857-26.471,4.408
		c-7.511-6.872-8.29-19.715-1.681-27.696C313.085,465.54,322.004,466.193,334.312,475.931z M224.228,464.84
		c-10.056-13.646-26.936-18.413-43.237-12.59c-15.179,5.422-24.122,19.388-23.571,36.808c0.492,15.544,11.307,28.994,26.568,33.042
		c15.943,4.229,32.017-1.599,40.482-14.986c-3.573-2.579-7.301-5.029-10.741-7.83c-2.625-2.137-4.444-1.914-6.694,0.575
		c-4.891,5.409-11.303,6.378-17.91,4.538c-6.836-1.902-9.905-7.492-11.306-14.032c-1.686-7.867,2.121-16.749,8.547-20.331
		c6.791-3.785,14.286-2.548,20.59,3.37c0.926,0.869,1.943,1.641,3.013,2.536C214.811,472.17,219.388,468.608,224.228,464.84z
		 M253.661,478.482c-0.457-0.169-0.915-0.339-1.373-0.508c0-8.716,0-17.432,0-26.13c-6.689,0-12.788,0-19.148,0
		c0,23.352,0,46.406,0,69.559c6.565,0,12.786,0,19.09,0c1.415-8.801-3.172-19.148,7.855-24.847
		c4.485,6.566,8.989,13.133,13.464,19.719c4.022,5.921,7.973,7.123,15.457,4.512c-10.296-9.233-15.664-20.721-15.49-34.471
		c0.171-13.563,5.927-24.846,15.896-34.259c-7.952-1.504-14.025-0.751-18.828,6.214
		C265.617,465.473,259.356,471.783,253.661,478.482z M18.825,451.166c0,23.875,0,47.064,0,70.225c17.914,0,35.441,0,53.125,0
		c0-5.636,0-10.877,0-16.81c-11.303,0-22.335,0-33.713,0c0-2.504,0-4.316,0-6.128c0-14.306-0.009-28.61,0.01-42.916
		c0.003-2.25,0.186-4.443-3.131-4.393C29.817,451.225,24.518,451.166,18.825,451.166z M514.654,451.782c0,23.579,0,46.586,0,69.604
		c6.47,0,12.519,0,18.544,0c0-23.407,0-46.426,0-69.604C526.878,451.782,520.95,451.782,514.654,451.782z"/>
	<path style="fill-rule:evenodd;clip-rule:evenodd;fill:#58BCE8;" d="M546.743,521.452c0-23.21,0-46.123,0-69.795
		c5.772,0,11.52-0.155,17.244,0.135c1.107,0.056,2.274,1.735,3.163,2.863c8.514,10.803,16.974,21.647,26.246,33.499
		c0-12.746,0-24.263,0-36.188c6.529,0,12.557,0,18.94,0c0,23.139,0,46.164,0,69.776c-5.162,0-10.133,0.29-15.033-0.167
		c-1.588-0.147-3.275-2.029-4.437-3.498c-7.533-9.528-14.927-19.167-22.385-28.755c-1.188-1.528-2.47-2.985-4.693-5.661
		c0,13.456,0,25.471,0,37.791C559.213,521.452,553.287,521.452,546.743,521.452z"/>
	<path style="fill-rule:evenodd;clip-rule:evenodd;fill:#59BDE8;" d="M-53.216,521.55c0-23.428,0-46.342,0-70.004
		c2.304,0,4.396-0.006,6.488,0.001c11.324,0.036,22.659-0.217,33.969,0.193c12.405,0.449,19.978,8.465,19.177,19.499
		c-0.456,6.284-4.307,10.218-9.869,13.672c1.412,0.726,2.457,1.273,3.512,1.803c6.438,3.231,9.567,8.384,9.511,15.648
		c-0.059,7.425-3.301,12.877-9.9,16c-3.256,1.54-6.93,2.959-10.448,3.046C-24.736,521.753-38.709,521.55-53.216,521.55z
		 M-33.303,505.884c4.579,0,9.368,0.008,14.158-0.007c0.992-0.003,1.992-0.026,2.975-0.154c3.55-0.461,5.979-2.409,6.14-6.023
		c0.154-3.46-2.075-5.504-5.438-5.991c-2.771-0.401-5.585-0.67-8.383-0.688c-11.723-0.078-11.724-0.036-10.31,11.807
		C-34.144,504.964-33.961,505.083-33.303,505.884z M-34.163,479.339c5.578,0,10.648,0.599,15.457-0.265
		c2.249-0.403,5.123-3.352,5.69-5.646c0.788-3.188-1.944-5.694-5.313-5.899c-5.211-0.317-10.454-0.084-15.834-0.084
		C-34.163,471.441-34.163,475.19-34.163,479.339z"/>
	<path style="fill-rule:evenodd;clip-rule:evenodd;fill:#59BDE8;" d="M149.57,486.913c-0.119,20.513-16.663,36.512-37.776,36.532
		c-21.206,0.021-38.188-16.403-38.105-36.855c0.08-20.394,17.17-36.78,38.312-36.736
		C133.405,449.897,149.692,465.962,149.57,486.913z M129.575,486.663c-0.021-10.91-7.847-19.065-18.187-18.951
		c-9.957,0.109-17.706,8.574-17.507,19.121c0.199,10.51,8.157,18.778,18.072,18.775
		C122.015,505.604,129.596,497.455,129.575,486.663z"/>
	<path style="fill-rule:evenodd;clip-rule:evenodd;fill:#5ABDE8;" d="M357.811,451.786c6.483,0,12.593,0,19.205,0
		c0,8.491,0,16.764,0,25.478c8.347,0,16.2,0,24.633,0c0-8.511,0-16.915,0-25.525c6.793,0,13.009,0,19.513,0
		c0,23.316,0,46.244,0,69.608c-6.221,0-12.445,0-19.287,0c0-8.307,0-16.72,0-25.916c-7.994,0-15.408-0.104-22.808,0.175
		c-0.665,0.025-1.736,2.501-1.771,3.859c-0.178,7.14-0.083,14.285-0.083,21.871c-6.569,0-12.782,0-19.402,0
		C357.811,498.391,357.811,475.341,357.811,451.786z"/>
	<path style="fill-rule:evenodd;clip-rule:evenodd;fill:#5ABDE8;" d="M506.716,521.776c-6.605,0-12.438,0.266-18.214-0.18
		c-1.514-0.117-3.738-2.225-4.126-3.791c-1.759-7.109-5.904-9.467-13.015-8.446c-4.406,0.633-8.988,0.309-13.472,0.054
		c-3.207-0.183-4.938,0.906-5.728,4.042c-0.523,2.078-1.342,4.163-2.461,5.979c-0.648,1.053-2.129,2.194-3.276,2.239
		c-5.802,0.225-11.617,0.104-18.202,0.104c3.422-8.23,6.563-15.875,9.773-23.49c6.14-14.565,12.386-29.086,18.416-43.695
		c1.104-2.676,2.392-3.81,5.432-3.843c14.804-0.16,14.867-0.284,20.635,13.199c7.722,18.052,15.333,36.149,22.979,54.232
		C505.834,519.069,506.101,520.004,506.716,521.776z M474.944,493.565c-2.527-6.387-4.793-12.115-7.644-19.319
		c-2.812,7.253-5.043,13.01-7.488,19.319C465.093,493.565,469.508,493.565,474.944,493.565z"/>
	<path style="fill-rule:evenodd;clip-rule:evenodd;fill:#5ABDE8;" d="M334.312,475.931c-12.309-9.738-21.228-10.392-27.877-2.362
		c-6.609,7.981-5.83,20.824,1.681,27.696c7.049,6.449,17.521,4.871,26.471-4.408c4.671,3.354,9.421,6.768,14.112,10.138
		c-7.082,12.838-23.809,19.146-39.47,15.315c-15.837-3.874-27.014-17.575-27.636-33.877c-0.644-16.872,9.173-31.357,24.745-36.512
		c16.098-5.327,33.311-0.18,42.108,12.963C343.829,468.494,339.175,472.131,334.312,475.931z"/>
	<path style="fill-rule:evenodd;clip-rule:evenodd;fill:#5ABDE8;" d="M224.228,464.84c-4.84,3.768-9.417,7.33-14.26,11.1
		c-1.069-0.896-2.087-1.667-3.013-2.536c-6.304-5.918-13.799-7.155-20.59-3.37c-6.426,3.582-10.232,12.464-8.547,20.331
		c1.4,6.54,4.47,12.13,11.306,14.032c6.607,1.84,13.02,0.871,17.91-4.538c2.25-2.489,4.069-2.712,6.694-0.575
		c3.44,2.801,7.168,5.251,10.741,7.83c-8.466,13.388-24.539,19.215-40.482,14.986c-15.262-4.048-26.076-17.498-26.568-33.042
		c-0.551-17.42,8.393-31.386,23.571-36.808C197.292,446.427,214.172,451.194,224.228,464.84z"/>
	<path style="fill-rule:evenodd;clip-rule:evenodd;fill:#58BDE8;" d="M253.661,478.482c5.695-6.699,11.956-13.009,16.922-20.211
		c4.803-6.965,10.876-7.718,18.828-6.214c-9.969,9.413-15.725,20.695-15.896,34.259c-0.174,13.75,5.194,25.237,15.49,34.471
		c-7.484,2.611-11.435,1.409-15.457-4.512c-4.475-6.586-8.979-13.152-13.464-19.719c-11.027,5.698-6.44,16.046-7.855,24.847
		c-6.304,0-12.524,0-19.09,0c0-23.152,0-46.207,0-69.559c6.36,0,12.459,0,19.148,0c0,8.698,0,17.414,0,26.13
		C252.746,478.143,253.204,478.313,253.661,478.482z"/>
	<path style="fill-rule:evenodd;clip-rule:evenodd;fill:#5ABDE8;" d="M18.825,451.166c5.692,0,10.992,0.06,16.291-0.021
		c3.316-0.051,3.134,2.143,3.131,4.393c-0.019,14.306-0.01,28.61-0.01,42.916c0,1.812,0,3.624,0,6.128c11.378,0,22.41,0,33.713,0
		c0,5.933,0,11.174,0,16.81c-17.684,0-35.211,0-53.125,0C18.825,498.23,18.825,475.041,18.825,451.166z"/>
	<path style="fill-rule:evenodd;clip-rule:evenodd;fill:#57BCE8;" d="M514.654,451.782c6.296,0,12.224,0,18.544,0
		c0,23.179,0,46.197,0,69.604c-6.025,0-12.074,0-18.544,0C514.654,498.368,514.654,475.361,514.654,451.782z"/>
	<path style="fill-rule:evenodd;clip-rule:evenodd;fill:none;" d="M-33.303,505.884c-0.658-0.801-0.841-0.92-0.857-1.058
		c-1.414-11.843-1.413-11.885,10.31-11.807c2.798,0.019,5.612,0.287,8.383,0.688c3.362,0.487,5.592,2.531,5.438,5.991
		c-0.16,3.614-2.59,5.562-6.14,6.023c-0.982,0.128-1.982,0.151-2.975,0.154C-23.935,505.892-28.724,505.884-33.303,505.884z"/>
	<path style="fill-rule:evenodd;clip-rule:evenodd;fill:none;" d="M-34.163,479.339c0-4.149,0-7.898,0-11.895
		c5.38,0,10.623-0.233,15.834,0.084c3.369,0.205,6.102,2.712,5.313,5.899c-0.567,2.295-3.441,5.243-5.69,5.646
		C-23.515,479.938-28.585,479.339-34.163,479.339z"/>
	<path style="fill-rule:evenodd;clip-rule:evenodd;fill:none;" d="M129.575,486.663c0.021,10.792-7.561,18.941-17.621,18.945
		c-9.915,0.003-17.873-8.266-18.072-18.775c-0.199-10.547,7.55-19.012,17.507-19.121
		C121.729,467.597,129.555,475.752,129.575,486.663z"/>
	<path style="fill-rule:evenodd;clip-rule:evenodd;fill:none;" d="M474.944,493.565c-5.437,0-9.852,0-15.132,0
		c2.445-6.31,4.677-12.066,7.488-19.319C470.151,481.45,472.417,487.178,474.944,493.565z"/>
</g>
</svg>
