<?xml version="1.0" encoding="utf-8"?>
<!-- Generator: Adobe Illustrator 16.0.0, SVG Export Plug-In . SVG Version: 6.00 Build 0)  -->
<!DOCTYPE svg PUBLIC "-//W3C//DTD SVG 1.1//EN" "http://www.w3.org/Graphics/SVG/1.1/DTD/svg11.dtd">
<svg version="1.1" id="Layer_1" xmlns="http://www.w3.org/2000/svg" xmlns:xlink="http://www.w3.org/1999/xlink" x="0px" y="0px"
	 viewBox="0 0 595.28 841.89" style="enable-background:new 0 0 595.28 841.89;"
	 xml:space="preserve">
<g>
	<path style="fill:none;" d="M263.486,728.925c0-15.293,0-30.028,0-45.275c17.763,1.353,34.959,2.662,52.496,3.997
		c0,24.707,0,48.828,0,72.886c40.772,5.663,81.153,11.271,122.063,16.954c0-25.553,0-50.801,0-76.379
		c6.457,0.441,12.409,0.793,18.352,1.264c24.213,1.917,48.188,1.423,71.775-5.482c40.116-11.744,66.07-37.03,76.072-78.071
		c5.54-22.73,6.633-45.719,4.798-68.946c-1.872-23.694-7.531-46.205-19.831-66.838c-2.956-4.959-6.006-7.939-12.4-7.48
		c-6.765,0.485-13.631-0.438-20.453-0.75c-7.599-0.347-15.196-0.696-23.19-1.062c0-11.791-0.172-23.093,0.103-34.384
		c0.085-3.463-0.989-5.16-4.176-6.153c-10.782-3.36-21.395-7.351-32.312-10.174c-10.879-2.813-22.047-4.511-33.356-6.751
		c0-7.396-0.126-14.71,0.132-22.009c0.04-1.123,1.641-2.674,2.869-3.181c3.834-1.581,7.848-2.72,11.769-4.096
		c20.987-7.365,41.695-15.227,59.508-29.162c20.491-16.03,35.256-36.196,44.008-60.607c8.139-22.701,8.908-46.314,7.003-70.05
		c-1.392-17.335-5.343-34.136-13.516-49.629c-7.668-14.538-18.999-25.698-33.528-33.331c-24.59-12.916-51.01-16.688-78.44-14.939
		c-8.387,0.534-16.776,1.027-25.224,1.543c-0.143-2.967-0.253-5.255-0.375-7.796c-11.318,1.421-22.276,2.796-33.546,4.21
		c0-10.192,0-19.623,0-29.504c11.231-1.67,22.339-3.32,33.533-4.985c0-13.117,0-25.724,0-38.229
		c-40.631,5.646-81.039,11.261-121.803,16.925c0,24.233,0,48.333,0,73.284c-25.569,1.133-50.795,2.251-76.117,3.373
		c0-10.101,0-19.509,0-29.221c10.978-0.599,21.701-1.183,32.289-1.76c0-14.518,0-28.219,0-41.302
		c-43.915,2.425-87.381,4.825-131.132,7.242c0,23.323,0,46.457,0,70.227c-29.345,0-58.396,0-87.707,0c0,12.188,0,23.737,0,36.287
		c11.518,0,22.733,0,34.048,0c0,9.936,0,18.867,0,27.806c-11.625,0-22.863,0-33.945,0c0,11.889,0,23.451,0,35.568
		c14.663,0,28.913,0,43.646,0c0,38.135,0,75.708,0,113.919c11.528,0,22.576,0,33.531,0c0,9.532,0,18.418,0,27.738
		c-11.334,0-22.254,0-33.271,0c0,14.515,0,28.579,0,43.33c11.34,0,22.379,0,33.403,0c0,9.444,0,18.194,0,27.584
		c-11.346,0-22.404,0-33.836,0c0,38.082,0,75.521,0,113.638c-14.765,0-29.145,0-43.502,0c0,24.408,0,48.133,0,71.872
		c11.307,0,22.226,0,33.648,0c0,9.017,0,17.767,0,27.457c18.194,0,35.896,0,53.962,0c0,12.588,0,24.225,0,35.861
		c0,11.615,0,23.231,0,34.938c29.787,1.323,58.979,2.62,88.819,3.946c0-9.096,0-17.979,0-27.224
		C241.059,726.989,251.798,727.917,263.486,728.925z M524.18-7.124c-11.146,2.505-21.5,4.765-31.8,7.241
		c-1.128,0.271-2.775,1.782-2.792,2.744c-0.198,10.922-0.126,21.849-0.126,33.561c11.465-2.39,22.295-4.604,33.084-6.999
		c0.704-0.156,1.556-1.711,1.564-2.623C524.218,15.692,524.18,4.583,524.18-7.124z M489.404,795.485
		c0,11.619-0.064,22.249,0.096,32.875c0.017,1.134,1.164,3.021,2.105,3.252c10.617,2.589,21.295,4.923,32.558,7.46
		c0-11.684,0.053-22.956-0.104-34.227c-0.013-0.872-1.383-2.287-2.334-2.5C511.233,800.003,500.701,797.851,489.404,795.485z
		 M480.82,793.759c-11.463-2.126-22.82-4.231-34.674-6.43c0,11.211-0.099,21.832,0.151,32.445c0.025,1.078,2.002,2.74,3.327,3.05
		c6.783,1.589,13.653,2.804,20.484,4.188c3.473,0.705,6.929,1.493,10.711,2.313C480.82,817.042,480.82,805.609,480.82,793.759z
		 M481.001,2.721c-11.188,2.211-21.91,4.274-32.588,6.544c-0.901,0.191-2.14,1.761-2.153,2.705
		c-0.153,10.605-0.098,21.213-0.098,32.609c11.457-2.097,22.213-4.008,32.925-6.141c0.799-0.159,1.819-1.892,1.832-2.904
		C481.051,24.742,481.001,13.946,481.001,2.721z M403.16,51.777c11.149-1.794,21.45-3.385,31.712-5.196
		c1.099-0.194,2.804-1.659,2.82-2.56c0.197-10.734,0.127-21.474,0.127-32.61c-11.182,1.955-21.788,3.756-32.357,5.757
		c-0.897,0.17-2.189,1.674-2.202,2.574C403.104,30.167,403.16,40.596,403.16,51.777z M272.417,67.749
		c11.169-1.048,22.018-2.024,32.848-3.167c0.82-0.087,2.162-1.348,2.172-2.078c0.144-10.234,0.098-20.472,0.098-31.201
		c-12.124,1.292-23.593,2.514-35.117,3.742C272.417,46.037,272.417,56.592,272.417,67.749z M394.666,778.851
		c-11.51-1.641-22.911-3.266-34.577-4.928c0,11.525,0,22.441,0,33.632c11.588,1.797,22.946,3.559,34.577,5.362
		C394.666,801.247,394.666,790.3,394.666,778.851z M263.155,68.634c0-11.2,0-21.851,0-32.775
		c-11.825,1.016-23.159,1.988-34.455,2.958c0,11.03,0,21.428,0,32.38C240.271,70.336,251.488,69.501,263.155,68.634z
		 M263.297,763.324c-11.619-0.871-22.953-1.721-34.538-2.589c0,11.111,0,21.621,0,32.454c11.669,0.944,22.985,1.86,34.538,2.796
		C263.297,784.827,263.297,774.275,263.297,763.324z M219.626,39.5c-11.01,0.598-21.754,1.116-32.481,1.874
		c-0.969,0.068-2.604,1.666-2.622,2.579c-0.191,9.77-0.119,19.544-0.119,29.815c12.114-0.691,23.624-1.348,35.223-2.009
		C219.626,60.746,219.626,50.334,219.626,39.5z M219.638,760.095c-12.057-0.595-23.53-1.159-35.239-1.736
		c0,10.266,0.055,19.561-0.036,28.854c-0.025,2.565,0.956,3.486,3.495,3.576c7.133,0.251,14.257,0.722,21.386,1.095
		c3.408,0.179,6.818,0.333,10.395,0.507C219.638,781.442,219.638,771.047,219.638,760.095z M350.832,25.699
		c-11.788,1.561-23.085,3.055-34.594,4.578c0,10.971,0,21.685,0,33.05c11.711-1.378,23.133-2.722,34.594-4.07
		C350.832,47.884,350.832,37.125,350.832,25.699z M350.772,772.675c-11.671-1.379-22.985-2.717-34.501-4.078
		c0,11.47,0,22.216,0,33.092c11.586,1.511,22.896,2.984,34.501,4.497C350.772,794.834,350.772,784.059,350.772,772.675z
		 M131.785,788.22c0-10.529,0-20.815,0-31.645c-11.63,0-23.029,0-34.592,0c0,10.43,0,20.806,0,31.645
		C108.814,788.22,120.078,788.22,131.785,788.22z M141.099,789.167c11.65,0,22.992,0,34.374,0c0-10.319,0-20.682,0-31.659
		c-11.625,0-22.86,0-34.374,0C141.099,767.609,141.099,777.855,141.099,789.167z M131.831,43.885c-11.901,0-23.291,0-34.695,0
		c0,10.845,0,21.08,0,31.385c11.724,0,23.122,0,34.695,0C131.831,64.507,131.831,54.22,131.831,43.885z M53.04,75.347
		c11.934,0,23.307,0,34.663,0c0-10.635,0-20.877,0-31.571c-11.687,0-23.062,0-34.663,0C53.04,54.154,53.04,64.418,53.04,75.347z
		 M489.648,115.429c11.695-1.931,23.015-3.799,34.16-5.639c0-11.031,0-21.398,0-32.141c-11.647,2.158-22.865,4.236-34.16,6.328
		C489.648,94.421,489.648,104.506,489.648,115.429z M489.576,747.974c11.661,2.135,22.869,4.186,34.586,6.33
		c0-10.197,0.089-19.978-0.141-29.751c-0.022-0.955-1.881-2.437-3.097-2.696c-5.518-1.183-11.104-2.049-16.677-2.961
		c-4.802-0.787-9.618-1.483-14.672-2.257C489.576,727.471,489.576,737.422,489.576,747.974z M566.74,60.623
		c0-11.084,0-21.821,0-32.91c-11.417,2.615-22.506,5.155-33.48,7.67c0,10.903,0,21.412,0,32.295
		C544.741,65.257,555.733,62.942,566.74,60.623z M566.738,729.979c-11.152-2.03-22.286-4.058-33.902-6.172
		c0,10.375-0.093,20.005,0.126,29.629c0.025,1.117,1.622,2.931,2.76,3.178c10.206,2.217,20.472,4.154,31.017,6.233
		C566.738,751.885,566.738,741.142,566.738,729.979z M566.784,69.081c-10.497,2.073-20.761,4.034-30.979,6.21
		c-1.122,0.239-2.818,1.689-2.837,2.607c-0.205,9.925-0.128,19.855-0.128,30.363c11.866-2.233,23.003-4.329,33.943-6.388
		C566.784,90.494,566.784,79.883,566.784,69.081z M480.616,77.568c0-10.435,0-20.762,0-31.365
		c-10.702,1.939-21.148,3.771-31.554,5.812c-1.086,0.213-2.741,1.643-2.761,2.537c-0.202,9.384-0.125,18.774-0.125,28.758
		C458.062,81.328,469.154,79.479,480.616,77.568z M446.387,740.821c11.465,1.878,22.811,3.735,34.342,5.624
		c0-10.744,0-20.98,0-31.391c-11.505-1.682-22.752-3.326-34.342-5.021C446.387,720.585,446.387,730.488,446.387,740.821z
		 M480.811,85.5c-11.837,1.923-23.079,3.748-34.337,5.577c0,10.37,0,20.41,0,30.85c11.664-1.726,22.931-3.394,34.337-5.081
		C480.811,106.41,480.811,96.334,480.811,85.5z M446.16,748.661c0,9.985-0.076,19.27,0.118,28.548
		c0.02,0.937,1.551,2.455,2.587,2.66c10.535,2.088,21.113,3.958,31.811,5.913c0-10.612,0-20.83,0-31.392
		C469.19,752.483,457.974,750.622,446.16,748.661z M306.878,723.516c0.399-0.985,0.625-1.284,0.628-1.585
		c0.05-5.65,0.094-11.3,0.101-16.95c0.013-10.382,0.002-10.379-10.052-11.347c-0.992-0.095-1.975-0.299-2.968-0.368
		c-7.364-0.512-14.729-1.002-22.152-1.503c0,10.051,0,19.288,0,28.837C284.064,721.584,295.418,722.546,306.878,723.516z
		 M307.343,730.94c-11.684-1.013-23.177-2.008-34.797-3.015c0,10.047,0,19.4,0,28.964c11.749,1.097,23.114,2.157,34.797,3.247
		C307.343,750.125,307.343,740.712,307.343,730.94z M-43.582,150.202c-11.837-0.627-23.193-1.228-34.664-1.835
		c0,9.913,0,19.128,0,28.765c11.729,0.608,23.084,1.197,34.664,1.798C-43.582,169.07-43.582,159.953-43.582,150.202z
		 M-78.288,691.027c0,9.771,0,19.153,0,28.799c10.92-0.678,21.509-1.269,32.08-2.099c0.987-0.077,2.637-1.649,2.658-2.559
		c0.204-8.59,0.122-17.187,0.122-26.279C-55.268,689.615-66.49,690.303-78.288,691.027z M-43.723,652.994
		c-11.711,0.643-23.072,1.266-34.418,1.889c0,9.851,0,19.206,0,28.825c11.691-0.711,22.909-1.393,34.418-2.093
		C-43.723,672.016-43.723,662.787-43.723,652.994z M-78.573,221.535c0,8.176-0.084,16.771,0.122,25.361
		c0.022,0.926,1.711,2.583,2.65,2.6c10.568,0.187,21.14,0.117,31.977,0.117c0-8.622,0-17.966,0-28.078
		C-55.467,221.535-66.701,221.535-78.573,221.535z M-78.248,285.928c11.561,0,22.804,0,34.443,0c0-8.937,0-18.31,0-28.369
		c-11.609,0-22.989,0-34.443,0C-78.248,266.743-78.248,275.974-78.248,285.928z M-43.621,474.159c-11.863,0-23.218,0-34.565,0
		c0,9.796,0,19.147,0,27.917c11.756,0,23.105,0,34.565,0C-43.621,492.334-43.621,483.413-43.621,474.159z M-78.231,329.553
		c0,9.293,0,18.65,0,28.914c10.738,0,21.183,0.063,31.624-0.096c1.063-0.017,3.001-1.353,3.021-2.113
		c0.215-8.728,0.137-17.462,0.137-26.705C-55.404,329.553-66.635,329.553-78.231,329.553z M-78.214,510.023
		c0,9.914,0,19.263,0,28.06c11.739,0,23.093,0,34.381,0c0-10.011,0-19.203,0-28.06C-55.504,510.023-66.733,510.023-78.214,510.023z
		 M43.86,366.352c-11.889,0-23.252,0-34.828,0c0,9.403,0,18.48,0,27.983c11.702,0,23.203,0,34.828,0
		C43.86,384.978,43.86,375.876,43.86,366.352z M87.809,118.426c-11.938,0-23.307,0-34.672,0c0,9.481,0,18.56,0,27.979
		c11.701,0,23.083,0,34.672,0C87.809,137.105,87.809,128.008,87.809,118.426z M131.749,118.506c-11.773,0-23.153,0-34.684,0
		c0,9.568,0,18.651,0,27.898c11.648,0,23.035,0,34.684,0C131.749,136.967,131.749,127.881,131.749,118.506z M53.208,295.535
		c0,9.656,0,18.725,0,27.801c11.771,0,23.159,0,34.466,0c0-9.481,0-18.559,0-27.801C76.049,295.535,64.781,295.535,53.208,295.535z
		 M53.261,366.501c0,9.685,0,18.877,0,28.036c11.708,0,22.966,0,34.446,0c0-9.418,0-18.616,0-28.036
		C76.143,366.501,64.89,366.501,53.261,366.501z M87.864,508.514c-11.896,0-23.262,0-34.784,0c0,9.548,0,18.62,0,27.663
		c11.738,0,23.212,0,34.784,0C87.864,526.669,87.864,517.725,87.864,508.514z M9.175,437.62c0,9.548,0,18.772,0,27.84
		c11.754,0,23.147,0,34.564,0c0-9.529,0-18.613,0-27.84C32.034,437.62,20.627,437.62,9.175,437.62z M87.742,437.662
		c-11.804,0-23.172,0-34.631,0c0,9.399,0,18.464,0,27.8c11.643,0,22.999,0,34.631,0C87.742,456.148,87.742,447.079,87.742,437.662z
		 M-0.263,401.993c-11.532,0-22.77,0-34.262,0c0,9.489,0,18.706,0,28.19c11.574,0,22.821,0,34.262,0
		C-0.263,420.675-0.263,411.437-0.263,401.993z M-0.203,473.491c-11.664,0-22.897,0-34.309,0c0,9.676,0,18.886,0,28.021
		c11.603,0,22.847,0,34.309,0C-0.203,492.014-0.203,482.906-0.203,473.491z M-34.854,330.407c0,8.511-0.083,16.811,0.105,25.105
		c0.023,1.03,1.466,2.896,2.278,2.911c10.735,0.196,21.475,0.131,32.251,0.131c0-9.438,0-18.531,0-28.147
		C-11.695,330.407-22.94,330.407-34.854,330.407z M-0.336,537.303c0-10.062,0-19.106,0-27.917c-11.586,0-22.806,0-34.219,0
		c0,9.705,0,18.899,0,27.917C-22.987,537.303-11.752,537.303-0.336,537.303z M-0.335,715.434c0-9.922,0-18.983,0-28.488
		c-11.585,0.516-22.795,1.014-34.182,1.521c0,9.758,0,18.956,0,28.57C-22.942,716.494-11.725,715.968-0.335,715.434z
		 M43.852,615.445c-11.87,0-23.251,0-34.636,0c0,9.77,0,18.972,0,27.691c11.762,0,23.125,0,34.636,0
		C43.852,633.431,43.852,624.494,43.852,615.445z M-0.353,608.908c0-10.145,0-19.336,0-28.188c-11.589,0-22.794,0-34.09,0
		c0,9.994,0,19.313,0,28.188C-22.92,608.908-11.845,608.908-0.353,608.908z M-34.57,179.766c11.622,0,22.848,0,34.284,0
		c0-8.833,0-18.054,0-28.088c-11.524,0-22.755,0-34.284,0C-34.57,160.408-34.57,169.504-34.57,179.766z M9.12,572.165
		c11.647,0,23.003,0,34.513,0c0-9.741,0-18.904,0-27.717c-11.743,0-23.101,0-34.513,0C9.12,554.085,9.12,563.147,9.12,572.165z
		 M87.751,685.849c-11.822,0-23.172,0-34.634,0c0,9.555,0,18.589,0,27.691c11.653,0,23.014,0,34.634,0
		C87.751,704.125,87.751,695.055,87.751,685.849z M43.812,473.302c-11.794,0-23.191,0-34.669,0c0,9.502,0,18.582,0,27.664
		c11.7,0,23.09,0,34.669,0C43.812,491.504,43.812,482.557,43.812,473.302z M-34.419,294.585c0,9.583,0,18.793,0,28.12
		c11.685,0,22.907,0,34.125,0c0-9.428,0-18.497,0-28.12C-11.811,294.585-23.027,294.585-34.419,294.585z M-34.529,644.52
		c11.561,0,22.78,0,34.205,0c0-10.003,0-19.193,0-27.71c-11.681,0-23.008,0-34.205,0C-34.529,626.807-34.529,635.868-34.529,644.52z
		 M9.157,224.31c0,9.249,0,18.312,0,27.898c11.691,0,23.063,0,34.648,0c0-9.158,0-18.241,0-27.898
		C32.24,224.31,20.854,224.31,9.157,224.31z M131.85,685.684c-11.892,0-23.285,0-34.67,0c0,9.463,0,18.539,0,27.898
		c11.734,0,23.124,0,34.67,0C131.85,704.316,131.85,695.368,131.85,685.684z M8.98,714.247c11.879,0,23.245,0,34.804,0
		c0-9.765,0-18.823,0-27.555c-11.725,0-23.197,0-34.804,0C8.98,696.434,8.98,705.366,8.98,714.247z M-0.319,215.279
		c0-9.042,0-18.111,0-27.858c-11.563,0-22.788,0-34.277,0c0,8.953,0,18.022,0,27.858C-23.112,215.279-11.878,215.279-0.319,215.279z
		 M-34.456,544.902c0,10.056,0,19.269,0,28.116c11.643,0,22.877,0,34.126,0c0-9.956,0-19.187,0-28.116
		C-11.801,544.902-22.925,544.902-34.456,544.902z M9.208,153.165c0,9.043,0,18.247,0,28.011c11.742,0,23.116,0,34.508,0
		c0-9.26,0-18.337,0-28.011C32.147,153.165,20.871,153.165,9.208,153.165z M9.25,722.073c0,9.963,0,19.159,0,27.771
		c11.797,0,23.162,0,34.451,0c0-9.965,0-19.035,0-27.771C32,722.073,20.63,722.073,9.25,722.073z M9.023,287.696
		c11.957,0,23.313,0,34.685,0c0-9.415,0-18.465,0-27.957c-11.701,0-23.083,0-34.685,0C9.023,268.9,9.023,277.99,9.023,287.696z
		 M9.23,650.934c0,9.813,0,18.99,0,27.796c11.768,0,23.128,0,34.514,0c0-9.799,0-18.877,0-27.796
		C32.088,650.934,20.704,650.934,9.23,650.934z M97.062,748.972c11.83,0,23.208,0,34.66,0c0-9.325,0-18.396,0-27.777
		c-11.668,0-23.053,0-34.66,0C97.062,730.355,97.062,739.284,97.062,748.972z M131.718,110.825c0-9.565,0-18.63,0-27.747
		c-11.688,0-23.085,0-34.574,0c0,9.412,0,18.469,0,27.747C108.723,110.825,119.992,110.825,131.718,110.825z M43.698,358.847
		c0-9.638,0-18.69,0-27.996c-11.669,0-23.03,0-34.458,0c0,9.479,0,18.644,0,27.996C20.889,358.847,32.134,358.847,43.698,358.847z
		 M87.699,287.966c0-9.365,0-18.42,0-27.777c-11.699,0-23.081,0-34.562,0c0,9.329,0,18.384,0,27.777
		C64.705,287.966,75.971,287.966,87.699,287.966z M53.035,429.66c11.928,0,23.3,0,34.598,0c0-9.438,0-18.493,0-27.541
		c-11.769,0-23.151,0-34.598,0C53.035,411.46,53.035,420.404,53.035,429.66z M87.622,571.745c0-9.699,0-18.756,0-27.539
		c-11.785,0-23.173,0-34.377,0c0,9.52,0,18.569,0,27.539C64.912,571.745,76.167,571.745,87.622,571.745z"/>
	<path style="fill-rule:evenodd;clip-rule:evenodd;fill:#049BD2;" d="M263.486,728.925c-11.688-1.009-22.428-1.937-33.834-2.921
		c0,9.244,0,18.128,0,27.224c-29.841-1.326-59.032-2.623-88.819-3.946c0-11.707,0-23.323,0-34.938c0-11.637,0-23.273,0-35.861
		c-18.065,0-35.768,0-53.962,0c0-9.69,0-18.44,0-27.457c-11.422,0-22.341,0-33.648,0c0-23.739,0-47.464,0-71.872
		c14.358,0,28.737,0,43.502,0c0-38.116,0-75.556,0-113.638c11.432,0,22.49,0,33.836,0c0-9.39,0-18.14,0-27.584
		c-11.024,0-22.063,0-33.403,0c0-14.751,0-28.815,0-43.33c11.017,0,21.938,0,33.271,0c0-9.32,0-18.206,0-27.738
		c-10.955,0-22.003,0-33.531,0c0-38.211,0-75.784,0-113.919c-14.734,0-28.983,0-43.646,0c0-12.117,0-23.68,0-35.568
		c11.082,0,22.32,0,33.945,0c0-8.938,0-17.87,0-27.806c-11.315,0-22.53,0-34.048,0c0-12.55,0-24.1,0-36.287
		c29.312,0,58.362,0,87.707,0c0-23.77,0-46.903,0-70.227c43.751-2.417,87.217-4.817,131.132-7.242c0,13.083,0,26.784,0,41.302
		c-10.588,0.577-21.312,1.161-32.289,1.76c0,9.712,0,19.12,0,29.221c25.322-1.122,50.548-2.24,76.117-3.373
		c0-24.951,0-49.051,0-73.284c40.764-5.664,81.172-11.279,121.803-16.925c0,12.505,0,25.111,0,38.229
		c-11.194,1.665-22.302,3.315-33.533,4.985c0,9.881,0,19.312,0,29.504c11.27-1.414,22.228-2.789,33.546-4.21
		c0.122,2.541,0.232,4.829,0.375,7.796c8.447-0.516,16.837-1.009,25.224-1.543c27.431-1.749,53.851,2.023,78.44,14.939
		c14.529,7.633,25.86,18.793,33.528,33.331c8.173,15.493,12.124,32.294,13.516,49.629c1.905,23.735,1.136,47.349-7.003,70.05
		c-8.752,24.411-23.517,44.577-44.008,60.607c-17.812,13.936-38.521,21.797-59.508,29.162c-3.921,1.376-7.935,2.515-11.769,4.096
		c-1.229,0.507-2.829,2.058-2.869,3.181c-0.258,7.299-0.132,14.612-0.132,22.009c11.31,2.24,22.478,3.938,33.356,6.751
		c10.917,2.823,21.529,6.813,32.312,10.174c3.187,0.993,4.261,2.69,4.176,6.153c-0.274,11.291-0.103,22.593-0.103,34.384
		c7.994,0.366,15.592,0.716,23.19,1.062c6.822,0.312,13.688,1.235,20.453,0.75c6.395-0.459,9.444,2.521,12.4,7.48
		c12.3,20.633,17.959,43.144,19.831,66.838c1.835,23.228,0.742,46.216-4.798,68.946c-10.002,41.041-35.956,66.327-76.072,78.071
		c-23.587,6.905-47.562,7.399-71.775,5.482c-5.942-0.471-11.895-0.822-18.352-1.264c0,25.578,0,50.826,0,76.379
		c-40.91-5.683-81.291-11.291-122.063-16.954c0-24.058,0-48.179,0-72.886c-17.537-1.335-34.733-2.645-52.496-3.997
		C263.486,698.897,263.486,713.632,263.486,728.925z M249.4,596.189c2.283,0.198,4.393,0.445,6.51,0.555
		c24.601,1.27,49.195,2.709,73.808,3.718c23.951,0.982,47.939,1.773,71.699-2.613c14.966-2.763,28.671-7.729,36.689-22.118
		c6.121-10.984,7.602-22.962,7.444-35.221c-0.467-36.174-15.626-56.562-50.117-67.375c-16.78-5.261-34.129-7.403-51.608-8.12
		c-27.61-1.132-55.238-1.837-82.86-2.686c-3.774-0.115-7.556-0.016-11.564-0.016C249.4,507.252,249.4,551.488,249.4,596.189z
		 M249.417,370.686c1.187,0.059,2,0.163,2.807,0.128c23.955-1.032,47.953-1.505,71.849-3.332c14.851-1.135,29.81-3.254,44.246-6.84
		c21.828-5.422,39.835-17.31,49.97-38.168c9.146-18.82,9.444-38.895,5.309-59.083c-2.9-14.159-11.665-23.72-25.388-27.431
		c-10.017-2.708-20.601-4.736-30.912-4.654c-26.455,0.211-52.901,1.708-79.347,2.809c-12.77,0.531-25.527,1.329-38.533,2.02
		C249.417,280.995,249.417,325.575,249.417,370.686z M566.788,271.923c-11.386,1.067-22.364,2.096-33.234,3.115
		c0,11.026,0,21.538,0,32.436c11.301-0.744,22.173-1.46,33.234-2.188C566.788,294.135,566.788,283.394,566.788,271.923z
		 M566.589,220.452c0-11.479,0-22.325,0-33.333c-11.364,1.679-22.292,3.292-33.073,4.884c0,11.052,0,21.437,0,32.389
		C544.772,223.05,555.6,221.76,566.589,220.452z M533.46,565.95c0,11.1,0,21.651,0,32.508c11.224,1.307,22.176,2.581,33.15,3.858
		c0-11.411,0-22.278,0-33.172C555.371,568.061,544.522,567.016,533.46,565.95z M395.73,624.301
		c-11.634-0.777-22.772-1.521-34.055-2.275c0,9.932,0,19.173,0,28.68c11.409,0.901,22.584,1.785,34.055,2.691
		C395.73,643.638,395.73,634.248,395.73,624.301z M219.665,184.678c-11.849,0.623-23.168,1.219-34.391,1.81
		c0,9.729,0,18.636,0,28.05c11.615-0.528,22.924-1.043,34.391-1.565C219.665,203.317,219.665,194.4,219.665,184.678z
		 M274.324,618.378c0,8.427,0,17.626,0,27.171c11.392,0.522,22.569,1.035,33.958,1.558c0-9.763,0-18.831,0-28.729
		C296.867,618.378,285.755,618.378,274.324,618.378z M175.632,187.898c-10.86,0-21.147-0.07-31.43,0.119
		c-0.944,0.018-2.641,1.677-2.664,2.607c-0.21,8.264-0.122,16.536-0.122,24.398c11.722,0,22.892,0,34.216,0
		C175.632,205.262,175.632,196.357,175.632,187.898z M131.821,615.616c-11.658,0-22.755,0-34.019,0c0,9.648,0,18.704,0,27.29
		c11.625,0,22.842,0,34.019,0C131.821,633.318,131.821,624.516,131.821,615.616z M166.91,544.346c-11.719,0-22.915,0-34.211,0
		c0,9.359,0,18.255,0,27.175c11.521,0,22.74,0,34.211,0C166.91,562.275,166.91,553.377,166.91,544.346z M185.39,713.327
		c11.688,0,23.04,0,34.291,0c0-9.332,0-18.243,0-27.303c-11.573,0-22.806,0-34.291,0C185.39,695.108,185.39,703.88,185.39,713.327z
		 M123.181,260.373c0,9.355,0,18.256,0,27.34c11.569,0,22.781,0,34.021,0c0-9.249,0-18.134,0-27.34
		C145.707,260.373,134.617,260.373,123.181,260.373z M172.028,323.06c11.782,0,22.985,0,34.362,0c0-9.185,0-17.938,0-26.979
		c-11.553,0-22.888,0-34.362,0C172.028,305.201,172.028,313.968,172.028,323.06z M166.907,508.766c-11.487,0-22.71,0-34.179,0
		c0,9.363,0,18.249,0,27.229c11.534,0,22.731,0,34.179,0C166.907,526.628,166.907,517.733,166.907,508.766z M201.943,402.169
		c-11.28,0-22.58,0-33.731,0c0,9.496,0,18.545,0,27.565c11.426,0,22.479,0,33.731,0
		C201.943,420.495,201.943,411.559,201.943,402.169z"/>
	<path style="fill-rule:evenodd;clip-rule:evenodd;fill:#069BD2;" d="M524.18-7.124c0,11.706,0.038,22.815-0.069,33.924
		c-0.009,0.912-0.86,2.467-1.564,2.623c-10.789,2.396-21.619,4.609-33.084,6.999c0-11.712-0.072-22.639,0.126-33.561
		c0.017-0.962,1.664-2.473,2.792-2.744C502.68-2.359,513.033-4.619,524.18-7.124z"/>
	<path style="fill-rule:evenodd;clip-rule:evenodd;fill:#069BD2;" d="M489.404,795.485c11.297,2.366,21.829,4.519,32.32,6.86
		c0.951,0.213,2.321,1.628,2.334,2.5c0.157,11.271,0.104,22.543,0.104,34.227c-11.263-2.537-21.94-4.871-32.558-7.46
		c-0.941-0.23-2.089-2.118-2.105-3.252C489.34,817.734,489.404,807.104,489.404,795.485z"/>
	<path style="fill-rule:evenodd;clip-rule:evenodd;fill:#079CD2;" d="M480.82,793.759c0,11.85,0,23.282,0,35.567
		c-3.782-0.82-7.238-1.608-10.711-2.313c-6.831-1.385-13.701-2.6-20.484-4.188c-1.325-0.31-3.302-1.972-3.327-3.05
		c-0.25-10.613-0.151-21.234-0.151-32.445C458,789.528,469.357,791.633,480.82,793.759z"/>
	<path style="fill-rule:evenodd;clip-rule:evenodd;fill:#079CD2;" d="M481.001,2.721c0,11.225,0.05,22.021-0.082,32.813
		c-0.013,1.013-1.033,2.745-1.832,2.904c-10.712,2.133-21.468,4.044-32.925,6.141c0-11.396-0.056-22.004,0.098-32.609
		c0.014-0.944,1.252-2.514,2.153-2.705C459.091,6.996,469.813,4.932,481.001,2.721z"/>
	<path style="fill-rule:evenodd;clip-rule:evenodd;fill:#099CD3;" d="M403.16,51.777c0-11.181-0.056-21.609,0.1-32.035
		c0.013-0.9,1.305-2.404,2.202-2.574c10.569-2.001,21.176-3.802,32.357-5.757c0,11.137,0.07,21.876-0.127,32.61
		c-0.017,0.9-1.722,2.365-2.82,2.56C424.61,48.392,414.31,49.983,403.16,51.777z"/>
	<path style="fill-rule:evenodd;clip-rule:evenodd;fill:#0A9DD3;" d="M272.417,67.749c0-11.156,0-21.712,0-32.704
		c11.524-1.229,22.993-2.45,35.117-3.742c0,10.729,0.046,20.967-0.098,31.201c-0.01,0.73-1.352,1.991-2.172,2.078
		C294.435,65.724,283.586,66.701,272.417,67.749z"/>
	<path style="fill-rule:evenodd;clip-rule:evenodd;fill:#079CD2;" d="M394.666,778.851c0,11.449,0,22.396,0,34.066
		c-11.631-1.804-22.989-3.565-34.577-5.362c0-11.19,0-22.106,0-33.632C371.755,775.585,383.156,777.21,394.666,778.851z"/>
	<path style="fill-rule:evenodd;clip-rule:evenodd;fill:#0B9DD3;" d="M263.155,68.634c-11.667,0.867-22.885,1.702-34.455,2.562
		c0-10.952,0-21.35,0-32.38c11.296-0.97,22.63-1.942,34.455-2.958C263.155,46.784,263.155,57.434,263.155,68.634z"/>
	<path style="fill-rule:evenodd;clip-rule:evenodd;fill:#0B9DD3;" d="M263.297,763.324c0,10.951,0,21.503,0,32.661
		c-11.553-0.936-22.869-1.852-34.538-2.796c0-10.833,0-21.343,0-32.454C240.344,761.603,251.678,762.453,263.297,763.324z"/>
	<path style="fill-rule:evenodd;clip-rule:evenodd;fill:#0A9DD3;" d="M219.626,39.5c0,10.834,0,21.245,0,32.26
		c-11.599,0.661-23.108,1.317-35.223,2.009c0-10.271-0.072-20.046,0.119-29.815c0.018-0.913,1.653-2.511,2.622-2.579
		C197.872,40.617,208.616,40.098,219.626,39.5z"/>
	<path style="fill-rule:evenodd;clip-rule:evenodd;fill:#0A9DD3;" d="M219.638,760.095c0,10.952,0,21.347,0,32.296
		c-3.576-0.174-6.986-0.328-10.395-0.507c-7.129-0.373-14.253-0.844-21.386-1.095c-2.539-0.09-3.521-1.011-3.495-3.576
		c0.091-9.294,0.036-18.589,0.036-28.854C196.107,758.936,207.581,759.5,219.638,760.095z"/>
	<path style="fill-rule:evenodd;clip-rule:evenodd;fill:#059BD2;" d="M350.832,25.699c0,11.427,0,22.186,0,33.558
		c-11.461,1.349-22.883,2.692-34.594,4.07c0-11.365,0-22.079,0-33.05C327.747,28.753,339.044,27.259,350.832,25.699z"/>
	<path style="fill-rule:evenodd;clip-rule:evenodd;fill:#059BD2;" d="M350.772,772.675c0,11.384,0,22.159,0,33.511
		c-11.605-1.513-22.915-2.986-34.501-4.497c0-10.876,0-21.622,0-33.092C327.787,769.958,339.102,771.296,350.772,772.675z"/>
	<path style="fill-rule:evenodd;clip-rule:evenodd;fill:#069BD2;" d="M131.785,788.22c-11.707,0-22.971,0-34.592,0
		c0-10.839,0-21.215,0-31.645c11.563,0,22.962,0,34.592,0C131.785,767.405,131.785,777.691,131.785,788.22z"/>
	<path style="fill-rule:evenodd;clip-rule:evenodd;fill:#069BD3;" d="M141.099,789.167c0-11.312,0-21.559,0-31.659
		c11.514,0,22.749,0,34.374,0c0,10.978,0,21.34,0,31.659C164.091,789.167,152.749,789.167,141.099,789.167z"/>
	<path style="fill-rule:evenodd;clip-rule:evenodd;fill:#069BD3;" d="M131.831,43.885c0,10.335,0,20.622,0,31.385
		c-11.573,0-22.972,0-34.695,0c0-10.305,0-20.54,0-31.385C108.54,43.885,119.93,43.885,131.831,43.885z"/>
	<path style="fill-rule:evenodd;clip-rule:evenodd;fill:#059BD2;" d="M53.04,75.347c0-10.929,0-21.193,0-31.571
		c11.601,0,22.977,0,34.663,0c0,10.694,0,20.937,0,31.571C76.347,75.347,64.974,75.347,53.04,75.347z"/>
	<path style="fill-rule:evenodd;clip-rule:evenodd;fill:#079CD2;" d="M489.648,115.429c0-10.923,0-21.008,0-31.451
		c11.295-2.092,22.513-4.17,34.16-6.328c0,10.742,0,21.109,0,32.141C512.663,111.63,501.344,113.499,489.648,115.429z"/>
	<path style="fill-rule:evenodd;clip-rule:evenodd;fill:#069BD2;" d="M489.576,747.974c0-10.552,0-20.503,0-31.335
		c5.054,0.773,9.87,1.47,14.672,2.257c5.572,0.912,11.159,1.778,16.677,2.961c1.216,0.26,3.074,1.741,3.097,2.696
		c0.229,9.773,0.141,19.554,0.141,29.751C512.445,752.16,501.237,750.109,489.576,747.974z"/>
	<path style="fill-rule:evenodd;clip-rule:evenodd;fill:#059BD2;" d="M566.74,60.623c-11.007,2.319-21.999,4.635-33.48,7.055
		c0-10.883,0-21.392,0-32.295c10.975-2.515,22.063-5.055,33.48-7.67C566.74,38.801,566.74,49.539,566.74,60.623z"/>
	<path style="fill-rule:evenodd;clip-rule:evenodd;fill:#059BD2;" d="M566.738,729.979c0,11.163,0,21.906,0,32.868
		c-10.545-2.079-20.811-4.017-31.017-6.233c-1.138-0.247-2.734-2.061-2.76-3.178c-0.219-9.624-0.126-19.254-0.126-29.629
		C544.452,725.921,555.586,727.949,566.738,729.979z"/>
	<path style="fill-rule:evenodd;clip-rule:evenodd;fill:#059BD2;" d="M566.784,69.081c0,10.803,0,21.413,0,32.793
		c-10.94,2.059-22.077,4.154-33.943,6.388c0-10.508-0.077-20.438,0.128-30.363c0.019-0.918,1.715-2.368,2.837-2.607
		C546.023,73.115,556.287,71.154,566.784,69.081z"/>
	<path style="fill-rule:evenodd;clip-rule:evenodd;fill:#079CD3;" d="M480.616,77.568c-11.462,1.911-22.554,3.76-34.439,5.741
		c0-9.983-0.077-19.374,0.125-28.758c0.02-0.895,1.675-2.324,2.761-2.537c10.405-2.04,20.852-3.872,31.554-5.812
		C480.616,56.806,480.616,67.133,480.616,77.568z"/>
	<path style="fill-rule:evenodd;clip-rule:evenodd;fill:#079CD2;" d="M446.387,740.821c0-10.333,0-20.235,0-30.787
		c11.59,1.694,22.837,3.339,34.342,5.021c0,10.41,0,20.646,0,31.391C469.197,744.556,457.852,742.699,446.387,740.821z"/>
	<path style="fill-rule:evenodd;clip-rule:evenodd;fill:#079CD2;" d="M480.811,85.5c0,10.834,0,20.909,0,31.346
		c-11.406,1.688-22.673,3.355-34.337,5.081c0-10.439,0-20.479,0-30.85C457.731,89.249,468.974,87.423,480.811,85.5z"/>
	<path style="fill-rule:evenodd;clip-rule:evenodd;fill:#079CD2;" d="M446.16,748.661c11.813,1.961,23.03,3.822,34.516,5.729
		c0,10.562,0,20.779,0,31.392c-10.697-1.955-21.275-3.825-31.811-5.913c-1.036-0.205-2.567-1.724-2.587-2.66
		C446.084,767.93,446.16,758.646,446.16,748.661z"/>
	<path style="fill-rule:evenodd;clip-rule:evenodd;fill:#0A9DD3;" d="M306.878,723.516c-11.46-0.97-22.813-1.932-34.443-2.916
		c0-9.549,0-18.786,0-28.837c7.423,0.501,14.788,0.991,22.152,1.503c0.993,0.069,1.976,0.273,2.968,0.368
		c10.054,0.968,10.064,0.965,10.052,11.347c-0.007,5.65-0.051,11.3-0.101,16.95C307.503,722.232,307.277,722.531,306.878,723.516z"
		/>
	<path style="fill-rule:evenodd;clip-rule:evenodd;fill:#0A9DD3;" d="M307.343,730.94c0,9.772,0,19.186,0,29.196
		c-11.683-1.09-23.048-2.15-34.797-3.247c0-9.563,0-18.917,0-28.964C284.166,728.932,295.659,729.927,307.343,730.94z"/>
	<path style="fill-rule:evenodd;clip-rule:evenodd;fill:#089CD2;" d="M-43.582,150.202c0,9.751,0,18.868,0,28.728
		c-11.58-0.601-22.934-1.189-34.664-1.798c0-9.637,0-18.852,0-28.765C-66.775,148.974-55.419,149.575-43.582,150.202z"/>
	<path style="fill-rule:evenodd;clip-rule:evenodd;fill:#069BD3;" d="M-78.288,691.027c11.798-0.724,23.021-1.412,34.86-2.138
		c0,9.093,0.083,17.689-0.122,26.279c-0.021,0.909-1.671,2.481-2.658,2.559c-10.571,0.83-21.16,1.421-32.08,2.099
		C-78.288,710.18-78.288,700.798-78.288,691.027z"/>
	<path style="fill-rule:evenodd;clip-rule:evenodd;fill:#079CD2;" d="M-43.723,652.994c0,9.793,0,19.022,0,28.621
		c-11.509,0.7-22.727,1.382-34.418,2.093c0-9.619,0-18.975,0-28.825C-66.795,654.259-55.434,653.636-43.723,652.994z"/>
	<path style="fill-rule:evenodd;clip-rule:evenodd;fill:#079CD2;" d="M-78.573,221.535c11.873,0,23.106,0,34.749,0
		c0,10.112,0,19.456,0,28.078c-10.837,0-21.409,0.069-31.977-0.117c-0.939-0.017-2.628-1.674-2.65-2.6
		C-78.657,238.306-78.573,229.71-78.573,221.535z"/>
	<path style="fill-rule:evenodd;clip-rule:evenodd;fill:#069BD3;" d="M-78.248,285.928c0-9.954,0-19.186,0-28.369
		c11.454,0,22.833,0,34.443,0c0,10.06,0,19.433,0,28.369C-55.444,285.928-66.687,285.928-78.248,285.928z"/>
	<path style="fill-rule:evenodd;clip-rule:evenodd;fill:#059BD2;" d="M-43.621,474.159c0,9.254,0,18.176,0,27.917
		c-11.46,0-22.81,0-34.565,0c0-8.77,0-18.121,0-27.917C-66.839,474.159-55.484,474.159-43.621,474.159z"/>
	<path style="fill-rule:evenodd;clip-rule:evenodd;fill:#059BD2;" d="M-78.231,329.553c11.597,0,22.828,0,34.781,0
		c0,9.243,0.078,17.978-0.137,26.705c-0.019,0.761-1.958,2.097-3.021,2.113c-10.441,0.159-20.885,0.096-31.624,0.096
		C-78.231,348.204-78.231,338.846-78.231,329.553z"/>
	<path style="fill-rule:evenodd;clip-rule:evenodd;fill:#069BD3;" d="M-78.214,510.023c11.481,0,22.71,0,34.381,0
		c0,8.856,0,18.049,0,28.06c-11.288,0-22.642,0-34.381,0C-78.214,529.286-78.214,519.937-78.214,510.023z"/>
	<path style="fill-rule:evenodd;clip-rule:evenodd;fill:#079CD3;" d="M43.86,366.352c0,9.524,0,18.626,0,27.983
		c-11.625,0-23.126,0-34.828,0c0-9.503,0-18.58,0-27.983C20.608,366.352,31.972,366.352,43.86,366.352z"/>
	<path style="fill-rule:evenodd;clip-rule:evenodd;fill:#089CD2;" d="M87.809,118.426c0,9.582,0,18.679,0,27.979
		c-11.589,0-22.972,0-34.672,0c0-9.419,0-18.497,0-27.979C64.501,118.426,75.871,118.426,87.809,118.426z"/>
	<path style="fill-rule:evenodd;clip-rule:evenodd;fill:#089CD3;" d="M131.749,118.506c0,9.375,0,18.461,0,27.898
		c-11.649,0-23.036,0-34.684,0c0-9.247,0-18.33,0-27.898C108.596,118.506,119.976,118.506,131.749,118.506z"/>
	<path style="fill-rule:evenodd;clip-rule:evenodd;fill:#069BD3;" d="M53.208,295.535c11.573,0,22.841,0,34.466,0
		c0,9.242,0,18.319,0,27.801c-11.307,0-22.695,0-34.466,0C53.208,314.259,53.208,305.191,53.208,295.535z"/>
	<path style="fill-rule:evenodd;clip-rule:evenodd;fill:#0A9DD3;" d="M53.261,366.501c11.629,0,22.882,0,34.446,0
		c0,9.42,0,18.618,0,28.036c-11.479,0-22.737,0-34.446,0C53.261,385.378,53.261,376.186,53.261,366.501z"/>
	<path style="fill-rule:evenodd;clip-rule:evenodd;fill:#079CD3;" d="M87.864,508.514c0,9.211,0,18.155,0,27.663
		c-11.572,0-23.046,0-34.784,0c0-9.043,0-18.115,0-27.663C64.602,508.514,75.968,508.514,87.864,508.514z"/>
	<path style="fill-rule:evenodd;clip-rule:evenodd;fill:#059BD2;" d="M9.175,437.62c11.452,0,22.859,0,34.564,0
		c0,9.227,0,18.311,0,27.84c-11.417,0-22.81,0-34.564,0C9.175,456.392,9.175,447.167,9.175,437.62z"/>
	<path style="fill-rule:evenodd;clip-rule:evenodd;fill:#069BD3;" d="M87.742,437.662c0,9.417,0,18.486,0,27.8
		c-11.632,0-22.989,0-34.631,0c0-9.336,0-18.4,0-27.8C64.57,437.662,75.938,437.662,87.742,437.662z"/>
	<path style="fill-rule:evenodd;clip-rule:evenodd;fill:#059BD2;" d="M-0.263,401.993c0,9.444,0,18.683,0,28.19
		c-11.441,0-22.688,0-34.262,0c0-9.484,0-18.701,0-28.19C-23.033,401.993-11.795,401.993-0.263,401.993z"/>
	<path style="fill-rule:evenodd;clip-rule:evenodd;fill:#079CD3;" d="M-0.203,473.491c0,9.415,0,18.523,0,28.021
		c-11.462,0-22.706,0-34.309,0c0-9.136,0-18.346,0-28.021C-23.1,473.491-11.867,473.491-0.203,473.491z"/>
	<path style="fill-rule:evenodd;clip-rule:evenodd;fill:#089CD3;" d="M-34.854,330.407c11.914,0,23.159,0,34.634,0
		c0,9.616,0,18.709,0,28.147c-10.777,0-21.517,0.065-32.251-0.131c-0.812-0.016-2.254-1.881-2.278-2.911
		C-34.937,347.217-34.854,338.917-34.854,330.407z"/>
	<path style="fill-rule:evenodd;clip-rule:evenodd;fill:#089CD3;" d="M-0.336,537.303c-11.417,0-22.651,0-34.219,0
		c0-9.018,0-18.212,0-27.917c11.413,0,22.633,0,34.219,0C-0.336,518.197-0.336,527.241-0.336,537.303z"/>
	<path style="fill-rule:evenodd;clip-rule:evenodd;fill:#079CD3;" d="M-0.335,715.434c-11.39,0.534-22.607,1.06-34.182,1.603
		c0-9.614,0-18.812,0-28.57c11.386-0.507,22.597-1.005,34.182-1.521C-0.335,696.451-0.335,705.512-0.335,715.434z"/>
	<path style="fill-rule:evenodd;clip-rule:evenodd;fill:#069BD2;" d="M43.852,615.445c0,9.049,0,17.986,0,27.691
		c-11.511,0-22.875,0-34.636,0c0-8.72,0-17.922,0-27.691C20.601,615.445,31.982,615.445,43.852,615.445z"/>
	<path style="fill-rule:evenodd;clip-rule:evenodd;fill:#089CD2;" d="M-0.353,608.908c-11.492,0-22.567,0-34.09,0
		c0-8.874,0-18.193,0-28.188c11.295,0,22.5,0,34.09,0C-0.353,589.572-0.353,598.763-0.353,608.908z"/>
	<path style="fill-rule:evenodd;clip-rule:evenodd;fill:#089CD3;" d="M-34.57,179.766c0-10.262,0-19.358,0-28.088
		c11.529,0,22.759,0,34.284,0c0,10.034,0,19.255,0,28.088C-11.722,179.766-22.948,179.766-34.57,179.766z"/>
	<path style="fill-rule:evenodd;clip-rule:evenodd;fill:#069BD2;" d="M9.12,572.165c0-9.018,0-18.079,0-27.717
		c11.412,0,22.77,0,34.513,0c0,8.812,0,17.976,0,27.717C32.124,572.165,20.768,572.165,9.12,572.165z"/>
	<path style="fill-rule:evenodd;clip-rule:evenodd;fill:#059BD2;" d="M87.751,685.849c0,9.206,0,18.275,0,27.691
		c-11.621,0-22.981,0-34.634,0c0-9.103,0-18.137,0-27.691C64.58,685.849,75.93,685.849,87.751,685.849z"/>
	<path style="fill-rule:evenodd;clip-rule:evenodd;fill:#059BD2;" d="M43.812,473.302c0,9.255,0,18.202,0,27.664
		c-11.579,0-22.97,0-34.669,0c0-9.082,0-18.162,0-27.664C20.621,473.302,32.018,473.302,43.812,473.302z"/>
	<path style="fill-rule:evenodd;clip-rule:evenodd;fill:#079CD3;" d="M-34.419,294.585c11.392,0,22.608,0,34.125,0
		c0,9.623,0,18.692,0,28.12c-11.218,0-22.44,0-34.125,0C-34.419,313.378-34.419,304.168-34.419,294.585z"/>
	<path style="fill-rule:evenodd;clip-rule:evenodd;fill:#079CD2;" d="M-34.529,644.52c0-8.652,0-17.713,0-27.71
		c11.197,0,22.524,0,34.205,0c0,8.517,0,17.707,0,27.71C-11.749,644.52-22.968,644.52-34.529,644.52z"/>
	<path style="fill-rule:evenodd;clip-rule:evenodd;fill:#059BD2;" d="M9.157,224.31c11.697,0,23.083,0,34.648,0
		c0,9.657,0,18.74,0,27.898c-11.585,0-22.957,0-34.648,0C9.157,242.623,9.157,233.559,9.157,224.31z"/>
	<path style="fill-rule:evenodd;clip-rule:evenodd;fill:#059BD2;" d="M131.85,685.684c0,9.684,0,18.632,0,27.898
		c-11.547,0-22.936,0-34.67,0c0-9.359,0-18.436,0-27.898C108.565,685.684,119.958,685.684,131.85,685.684z"/>
	<path style="fill-rule:evenodd;clip-rule:evenodd;fill:#069BD2;" d="M8.98,714.247c0-8.881,0-17.812,0-27.555
		c11.607,0,23.08,0,34.804,0c0,8.731,0,17.79,0,27.555C32.225,714.247,20.859,714.247,8.98,714.247z"/>
	<path style="fill-rule:evenodd;clip-rule:evenodd;fill:#079CD2;" d="M-0.319,215.279c-11.559,0-22.792,0-34.277,0
		c0-9.836,0-18.905,0-27.858c11.489,0,22.714,0,34.277,0C-0.319,197.167-0.319,206.237-0.319,215.279z"/>
	<path style="fill-rule:evenodd;clip-rule:evenodd;fill:#069BD2;" d="M-34.456,544.902c11.531,0,22.655,0,34.126,0
		c0,8.93,0,18.16,0,28.116c-11.249,0-22.483,0-34.126,0C-34.456,564.17-34.456,554.958-34.456,544.902z"/>
	<path style="fill-rule:evenodd;clip-rule:evenodd;fill:#059BD2;" d="M9.208,153.165c11.663,0,22.939,0,34.508,0
		c0,9.674,0,18.751,0,28.011c-11.392,0-22.766,0-34.508,0C9.208,171.412,9.208,162.208,9.208,153.165z"/>
	<path style="fill-rule:evenodd;clip-rule:evenodd;fill:#059BD2;" d="M9.25,722.073c11.379,0,22.75,0,34.451,0
		c0,8.735,0,17.806,0,27.771c-11.289,0-22.653,0-34.451,0C9.25,741.232,9.25,732.036,9.25,722.073z"/>
	<path style="fill-rule:evenodd;clip-rule:evenodd;fill:#059BD2;" d="M9.023,287.696c0-9.706,0-18.796,0-27.957
		c11.602,0,22.984,0,34.685,0c0,9.492,0,18.542,0,27.957C32.336,287.696,20.98,287.696,9.023,287.696z"/>
	<path style="fill-rule:evenodd;clip-rule:evenodd;fill:#059BD2;" d="M9.23,650.934c11.474,0,22.858,0,34.514,0
		c0,8.919,0,17.997,0,27.796c-11.386,0-22.746,0-34.514,0C9.23,669.924,9.23,660.748,9.23,650.934z"/>
	<path style="fill-rule:evenodd;clip-rule:evenodd;fill:#049BD2;" d="M97.062,748.972c0-9.688,0-18.617,0-27.777
		c11.607,0,22.992,0,34.66,0c0,9.382,0,18.452,0,27.777C120.27,748.972,108.891,748.972,97.062,748.972z"/>
	<path style="fill-rule:evenodd;clip-rule:evenodd;fill:#039AD2;" d="M131.718,110.825c-11.726,0-22.995,0-34.574,0
		c0-9.278,0-18.335,0-27.747c11.489,0,22.885,0,34.574,0C131.718,92.195,131.718,101.259,131.718,110.825z"/>
	<path style="fill-rule:evenodd;clip-rule:evenodd;fill:#039AD2;" d="M43.698,358.847c-11.564,0-22.81,0-34.458,0
		c0-9.353,0-18.517,0-27.996c11.429,0,22.79,0,34.458,0C43.698,340.157,43.698,349.209,43.698,358.847z"/>
	<path style="fill-rule:evenodd;clip-rule:evenodd;fill:#059BD2;" d="M87.699,287.966c-11.728,0-22.994,0-34.562,0
		c0-9.394,0-18.448,0-27.777c11.481,0,22.863,0,34.562,0C87.699,269.546,87.699,278.601,87.699,287.966z"/>
	<path style="fill-rule:evenodd;clip-rule:evenodd;fill:#039AD2;" d="M53.035,429.66c0-9.256,0-18.199,0-27.541
		c11.447,0,22.829,0,34.598,0c0,9.048,0,18.103,0,27.541C76.335,429.66,64.962,429.66,53.035,429.66z"/>
	<path style="fill-rule:evenodd;clip-rule:evenodd;fill:#039AD2;" d="M87.622,571.745c-11.455,0-22.71,0-34.377,0
		c0-8.97,0-18.02,0-27.539c11.205,0,22.592,0,34.377,0C87.622,552.989,87.622,562.045,87.622,571.745z"/>
	<path style="fill-rule:evenodd;clip-rule:evenodd;fill:none;" d="M249.4,596.189c0-44.701,0-88.937,0-133.876
		c4.009,0,7.79-0.1,11.564,0.016c27.622,0.849,55.25,1.554,82.86,2.686c17.479,0.717,34.828,2.859,51.608,8.12
		c34.491,10.813,49.65,31.201,50.117,67.375c0.157,12.259-1.323,24.236-7.444,35.221c-8.019,14.389-21.724,19.355-36.689,22.118
		c-23.76,4.387-47.748,3.596-71.699,2.613c-24.612-1.009-49.207-2.448-73.808-3.718C253.793,596.634,251.684,596.387,249.4,596.189z
		"/>
	<path style="fill-rule:evenodd;clip-rule:evenodd;fill:none;" d="M249.417,370.686c0-45.111,0-89.691,0-134.552
		c13.006-0.69,25.764-1.488,38.533-2.02c26.445-1.101,52.892-2.598,79.347-2.809c10.312-0.082,20.896,1.946,30.912,4.654
		c13.723,3.711,22.487,13.271,25.388,27.431c4.136,20.188,3.837,40.263-5.309,59.083c-10.135,20.858-28.142,32.746-49.97,38.168
		c-14.437,3.586-29.396,5.705-44.246,6.84c-23.896,1.827-47.894,2.3-71.849,3.332C251.417,370.849,250.604,370.745,249.417,370.686z
		"/>
	<path style="fill-rule:evenodd;clip-rule:evenodd;fill:none;" d="M566.788,271.923c0,11.471,0,22.212,0,33.362
		c-11.062,0.729-21.934,1.444-33.234,2.188c0-10.897,0-21.409,0-32.436C544.424,274.019,555.402,272.991,566.788,271.923z"/>
	<path style="fill-rule:evenodd;clip-rule:evenodd;fill:none;" d="M566.589,220.452c-10.989,1.309-21.816,2.599-33.073,3.939
		c0-10.952,0-21.337,0-32.389c10.781-1.592,21.709-3.205,33.073-4.884C566.589,198.126,566.589,208.972,566.589,220.452z"/>
	<path style="fill-rule:evenodd;clip-rule:evenodd;fill:none;" d="M533.46,565.95c11.062,1.066,21.911,2.111,33.15,3.194
		c0,10.894,0,21.761,0,33.172c-10.975-1.277-21.927-2.552-33.15-3.858C533.46,587.601,533.46,577.049,533.46,565.95z"/>
	<path style="fill-rule:evenodd;clip-rule:evenodd;fill:none;" d="M395.73,624.301c0,9.946,0,19.337,0,29.096
		c-11.471-0.906-22.646-1.79-34.055-2.691c0-9.507,0-18.748,0-28.68C372.958,622.78,384.097,623.524,395.73,624.301z"/>
	<path style="fill-rule:evenodd;clip-rule:evenodd;fill:none;" d="M219.665,184.678c0,9.722,0,18.639,0,28.294
		c-11.467,0.522-22.775,1.037-34.391,1.565c0-9.414,0-18.321,0-28.05C196.497,185.897,207.816,185.301,219.665,184.678z"/>
	<path style="fill-rule:evenodd;clip-rule:evenodd;fill:none;" d="M274.324,618.378c11.431,0,22.543,0,33.958,0
		c0,9.897,0,18.966,0,28.729c-11.389-0.522-22.566-1.035-33.958-1.558C274.324,636.004,274.324,626.805,274.324,618.378z"/>
	<path style="fill-rule:evenodd;clip-rule:evenodd;fill:none;" d="M175.632,187.898c0,8.459,0,17.364,0,27.125
		c-11.324,0-22.494,0-34.216,0c0-7.862-0.088-16.135,0.122-24.398c0.023-0.931,1.72-2.59,2.664-2.607
		C154.484,187.828,164.771,187.898,175.632,187.898z"/>
	<path style="fill-rule:evenodd;clip-rule:evenodd;fill:none;" d="M131.821,615.616c0,8.9,0,17.702,0,27.29
		c-11.177,0-22.394,0-34.019,0c0-8.586,0-17.642,0-27.29C109.066,615.616,120.163,615.616,131.821,615.616z"/>
	<path style="fill-rule:evenodd;clip-rule:evenodd;fill:none;" d="M166.91,544.346c0,9.031,0,17.929,0,27.175
		c-11.471,0-22.689,0-34.211,0c0-8.92,0-17.815,0-27.175C143.995,544.346,155.191,544.346,166.91,544.346z"/>
	<path style="fill-rule:evenodd;clip-rule:evenodd;fill:none;" d="M185.39,713.327c0-9.446,0-18.219,0-27.303
		c11.485,0,22.718,0,34.291,0c0,9.06,0,17.971,0,27.303C208.43,713.327,197.078,713.327,185.39,713.327z"/>
	<path style="fill-rule:evenodd;clip-rule:evenodd;fill:none;" d="M123.181,260.373c11.437,0,22.526,0,34.021,0
		c0,9.206,0,18.091,0,27.34c-11.24,0-22.452,0-34.021,0C123.181,278.628,123.181,269.728,123.181,260.373z"/>
	<path style="fill-rule:evenodd;clip-rule:evenodd;fill:none;" d="M172.028,323.06c0-9.092,0-17.859,0-26.979
		c11.475,0,22.81,0,34.362,0c0,9.041,0,17.794,0,26.979C195.014,323.06,183.811,323.06,172.028,323.06z"/>
	<path style="fill-rule:evenodd;clip-rule:evenodd;fill:none;" d="M166.907,508.766c0,8.967,0,17.862,0,27.229
		c-11.447,0-22.645,0-34.179,0c0-8.979,0-17.865,0-27.229C144.197,508.766,155.42,508.766,166.907,508.766z"/>
	<path style="fill-rule:evenodd;clip-rule:evenodd;fill:none;" d="M201.943,402.169c0,9.39,0,18.325,0,27.565
		c-11.252,0-22.306,0-33.731,0c0-9.021,0-18.069,0-27.565C179.363,402.169,190.663,402.169,201.943,402.169z"/>
</g>
</svg>
