<?xml version="1.0" encoding="utf-8"?>
<!-- Generator: Adobe Illustrator 16.0.0, SVG Export Plug-In . SVG Version: 6.00 Build 0)  -->
<!DOCTYPE svg PUBLIC "-//W3C//DTD SVG 1.1//EN" "http://www.w3.org/Graphics/SVG/1.1/DTD/svg11.dtd">
<svg version="1.1" id="Layer_1" xmlns="http://www.w3.org/2000/svg" xmlns:xlink="http://www.w3.org/1999/xlink" x="0px" y="0px"
	 viewBox="0 0 960 560" style="enable-background:new 0 0 960 560;" xml:space="preserve">
<g>
	<path d="M630.464,336.711c0.105-0.229,0.21-0.458,0.338-0.678c0.255-0.533,0.532-1.055,0.821-1.574
		c-0.708-2.174-1.432-4.399-2.182-6.703c5.867,1.711,7.691-0.665,8.421-4.262c0.664-3.278,1.505-6.6,1.523-9.904
		c0.008-1.456,0.279-2.661,0.771-3.736c-0.353-0.739-0.573-1.523-0.656-2.354c-0.007-0.034,0.02-0.065,0.033-0.098
		c-0.046-0.165-0.09-0.331-0.135-0.496c-1.663,0.403-3.521,0.297-5.773-0.472c-6.046-2.06-12.53-2.862-19.087-4.267
		c0.391-1.488,0.694-2.443,0.889-3.418c3.287-16.552,11.691-31.829,12.158-49.125c0.193-7.179,2.263-14.319,2.347-21.489
		c0.065-5.521-2.307-11.054-2.393-16.6c-0.115-7.382-5.593-10.949-9.782-15.649c0.681,2.953,1.362,5.905,2.178,9.454
		c-2.161-0.398-3.395-0.626-3.916-0.722c-2.729,3.62-5.042,7.086-7.762,10.208c-4.408,5.06-6.451,12.543-4.181,16.664
		c0.423,0.77,0.931,1.494,1.397,2.239c-0.27,0.237-0.541,0.473-0.812,0.711c-1.923-1.64-4.221-3.012-5.675-4.987
		c-2.021-2.742-4.277-3.279-6.628-2.351c-2.113-1.918-3.902-3.54-6.556-5.947c2.604,0.385,4.289,0.281,5.63,0.902
		c3.415,1.583,3.457-0.001,3.045-2.633c-0.296-1.897-0.239-3.849-0.354-6.037h4.799c-1.449-2.999-2.766-5.73-4.146-8.59
		c1.68-1.032,3.427-2.103,5.218-3.202c-1.967-6.632,2.441-9.969,7.604-12.92c-3.265-3.882-6.439-7.547-9.463-11.33
		c-0.691-0.867-1.008-2.106-1.236-3.227c-0.223-1.089,0.301-2.484-0.211-3.331c-2.851-4.717-5.386-9.774-9.034-13.836
		c-5.704-6.356-12.228-11.997-18.37-17.977c-0.614-0.598-1.063-1.399-1.467-2.168c-3.245-6.199-8.726-9.394-15.079-12.018
		c-4.503-1.86-8.492-5.028-12.52-7.878c-2.991-2.118-5.675-4.662-8.496-7.016c-0.269,0.34-0.536,0.679-0.806,1.017
		c2.465,1.618,4.931,3.236,7.997,5.25c-1.779,0.814-2.623,1.2-4.051,1.853c3.177,2.631,5.987,5.16,9.014,7.41
		c2.917,2.169,5.277,4.387,5.784,8.329c0.349,2.719,0.788,5.231,4.684,6.688c6.85,2.561,13.104,6.672,19.698,10.18
		c-0.229,0.188-0.813,0.931-1.065,0.834c-7.52-2.92-15.005-5.923-23.584-9.348c4.553,3.369,8.369,6.008,11.922,8.96
		c0.854,0.708,1.306,2.579,1.008,3.666c-0.174,0.621-2.246,1.072-3.426,0.996c-1.235-0.08-2.579-0.672-3.61-1.402
		c-4.193-2.962-8.264-6.094-12.419-9.105c-5.61-4.06-5.628-4.037-11.41,0.418c0.893-5.49-2.5-8.311-5.779-11.25
		c-1.301-1.167-2.57-2.456-3.521-3.904c-3.731-5.679-9.587-8.536-15.445-11.287c-1.757-0.824-4.107-1.11-6.03-0.773
		c-6.68,1.171-7.466,0.998-10.577-4.343c-3.282-0.368-6.564-0.734-9.846-1.103c0.16-0.305,0.447-0.849,1.441-2.742
		c-5.035,1.73-8.935,3.224-12.935,4.377c-1.94,0.56-4.19,0.996-6.095,0.577c-3.55-0.782-7.097-3.502-10.379-3.131
		c-6.531,0.739-12.879,3.024-19.304,4.67c0.099,0.4,0.197,0.8,0.298,1.2c1.497-0.246,2.992-0.492,4.563-0.75
		c0.392,3.654-1.13,5.32-4.605,5.513c-1.253,0.069-2.521,0.527-3.708,0.99c-6.407,2.503-12.583,6.075-19.226,7.381
		c-11.721,2.305-20.847,8.538-28.203,16.937c-8.34,9.524-15.595,20.001-22.967,30.31c-7.118,9.952-14.251,19.946-20.552,30.404
		c-12.718,21.109-23.395,43.069-24.404,68.286c-0.06,1.49,0.422,3.899,1.396,4.365c3.346,1.594,2.922,4.764,3.83,7.321
		c0.624,1.758,0.318,3.865,1.055,5.554c3.235,7.399,2.782,14.61-0.114,22.007c-1.039,2.651-1.858,5.828-1.394,8.534
		c2.151,12.533-1.538,24.417-3.671,36.458c-0.489,2.763-1.878,5.561-3.513,7.894c-2.961,4.226-6.351,4.567-10.669,1.578
		c-1.59-1.101-3.048-2.386-4.567-3.588c4.041,5.682,9.109,9.206,17.312,6.542c-0.005,0.382-0.021,0.751-0.04,1.119
		c0.575-0.171,1.157-0.327,1.742-0.479c1.712-11.756,3.286-23.538,5.425-35.22c0.651-3.562,3.604-6.653,4.872-10.177
		c4.731-13.157,9.071-26.451,13.812-39.604c3.945-10.947,5.623-22.817,12.486-32.583c5.266-7.492,10.838-14.871,17.09-21.559
		c3.594-3.846,8.638-6.517,13.35-9.16c4.647-2.605,9.596-4.781,14.616-6.604c2.514-0.914,4.382-1.691,4.426-4.623
		c-1.146-0.088-2.305-0.176-3.31-0.253c2.047-4.635,5.272-7.65,9.901-9.11c0.217-0.068,0.372-0.32,0.543-0.523
		c3.527-1.099,7.062-2.201,10.937-3.408c-0.694,3.389-1.303,6.354-1.909,9.32c0.488,0.376,0.977,0.753,1.466,1.13
		c2.47-1.877,4.938-3.753,7.407-5.629c0.405-0.638,1.521-0.427,2.591-0.569c8.504-1.136,16.609-4.084,25.381-4.336
		c9.478-0.273,18.893-1.73,28.311,0.599c3.624,0.896,7.55,0.417,10.664,3.375c1.209,1.148,3.547,1.145,5.371,1.659
		c3.608,1.014,7.889,1.149,10.679,3.227c4.87,3.625,9.392,6.578,15.905,6.45c6.388-0.126,12.755,0.259,19.104,2.384
		c4.993,1.671,10.772,0.898,16.071,1.888c4.875,0.911,9.714,2.329,12.893,6.819c1.839,2.597,3.909,6.294,6.428,6.791
		c2.278,0.45,5.299-2.779,8.013-4.35c0.151-0.088,0.498,0.146,0.727,0.223c0,0.291,0.12,0.664-0.018,0.841
		c-1.676,2.145-3.394,4.26-4.943,6.191c0.566,0.068,2.068,0.25,2.349,0.283c13.836,18.981,17.676,40.208,19.391,63.363
		c-4.229-1.52-8.481-1.812-10.399-4.051c-2.377-2.773-5.154-4.703-7.687-7.058c-4.461-4.149-8.776-5.966-14.232-3.854
		c-0.969-1.675-1.549-3.81-2.366-3.904c-4.619-0.521-9.298-0.688-13.951-0.652c-1.12,0.008-2.555,2.061-3.296,1.777
		c-5.896-2.236-9.117,2.295-13.209,4.67c-1.853,1.076-3.716,2.502-5.738,2.865c-8.463,1.525-16.076,4.015-18.734,13.523
		c-8.081-4.659-16.209-6.68-25.479-4.461c1.201-7.622-1.608-13.557-7.575-17.68c-4.275-2.954-7.725-5.272-8.444-11.458
		c-1.254-10.795-10.353-16.084-19.189-20.623c-2.509-1.288-6.7-1.671-9.043-0.455c-3.617,1.88-6.413,2.511-9.596-0.041
		c-7.727-6.203-16.574-1.776-24.859-2.323c-2.854-0.189-5.973,2.264-8.814,3.789c-1.108,0.595-2.381,1.868-2.559,2.989
		c-0.536,3.381-2.945,3.419-5.29,3.127c-4.79-0.597-9.56-1.406-14.297-2.333c-3.489-0.684-5.876,0.418-6.961,3.709
		c-1.093,3.312-2.124,6.672-2.795,10.086c-0.754,3.83-0.816,7.606,4.567,7.949c-6.805,31.775-7.568,61.656,21.771,83.987
		l16.024,6.772c6.838,2.988,14.239,4.063,21.442,2.509c6.593-1.425,11.587-0.984,14.812,5.472c0.369,0.742,1.228,1.248,1.868,1.854
		c6.194,5.823,7.561,8.034,13.747-0.707c0.139-0.196,0.519-0.23,0.787-0.335c4.979,1.393,10.03,2.304,15.121,2.658
		c2.911,0.2,4.648,0.852,3.841,4.771c2.875-3.787,2.785-5.433,0.181-7.726c-7.354-6.479-17.765-7.131-25.896-1.835
		c-1.28,0.835-3.634,1.626-4.628,1.03c-2.746-1.643-5.034-4.027-7.867-6.429c5.769-3.633,10.87-6.315,15.354-9.777
		c10.157-7.837,16.995-17.985,20.854-30.216c2.506-7.937,8.517-11.473,15.749-10.083c7.261,1.396,12.676,7.786,12.823,14.148
		c0.179,7.82,0.054,15.825,1.7,23.403c4.41,20.312,16.75,34.086,37.371,39.718c6.894,1.882,14.071,2.729,21.217,4.073
		c-0.031-0.095-0.227-0.541-0.335-1.012c-0.111-0.475-0.144-0.969-0.229-1.604c17.457-1.093,30.881-8.978,41.271-22.788
		c0.052,0.172,0.103,0.338,0.153,0.507c0.437-0.821,1.027-1.525,1.68-2.185c0.348-0.445,0.707-0.884,1.057-1.321
		c0.217-0.709,0.474-1.402,0.744-2.04c3.239-7.639,6.812-15.139,10.115-22.753c1.394-3.217,2.421-6.588,3.913-10.718
		C630.342,336.322,630.403,336.518,630.464,336.711z M327.428,250.632c1.82-4.316,3.64-8.629,5.459-12.944
		c0.61,0.254,1.22,0.507,1.829,0.761c-1.862,4.297-3.724,8.594-5.587,12.891C328.562,251.105,327.995,250.868,327.428,250.632z
		 M335.192,279.29c-2.024-3.781,2.217-11.096,9.25-14.886C341.373,269.343,338.303,274.282,335.192,279.29z M599.927,189.564
		c-3.489,1.099-6.978,2.198-11.405,3.594C590.139,189.572,594.646,188.214,599.927,189.564z M556.855,159.729
		c1.36,0.683,2.434,1.554,3.604,1.707c1.032,0.135,2.387-0.266,3.211-0.912c1.039-0.815,1.515-2.855,2.53-3.081
		c4.067-0.904,7.449-0.086,9.423,1.787c-9.038,4.55-0.986,8.717,0.82,13.849c-4.206-1.591-7.747-2.796-11.169-4.263
		c-3.374-1.446-6.626-3.156-10.229-4.892C555.586,162.669,556.116,161.443,556.855,159.729z M481.035,115.435
		c2.207,0.47,5.379-1.901,6.949,0.436c-0.379,0.811-0.759,1.622-1.137,2.433c-2.05-0.612-4.101-1.222-6.148-1.834
		C480.81,116.125,480.924,115.78,481.035,115.435z M452.859,115.178c1.671,0.319,3.276,0.964,4.918,1.453
		c1.851,0.554,3.705,1.092,5.557,1.637c0.287,0.758,0.575,1.516,0.863,2.273c-0.954,0.332-1.979,1.074-2.85,0.926
		c-3.949-0.67-7.918-1.406-11.729-2.587c-0.725-0.224-0.771-2.57-1.129-3.937C449.95,115.007,451.439,114.908,452.859,115.178z
		 M416.878,133.185c-8.459,5.612-15.986,10.389-23.271,15.502c-6.98,4.9-11.119,13.323-19.232,16.858
		c-0.417-0.596-0.833-1.191-1.25-1.787C384.593,150.104,395.6,135.835,416.878,133.185z M382.615,178.976
		c2.791-3.014,5.356-5.782,8.402-9.07C390.868,175.664,388.719,177.824,382.615,178.976z M378.761,171.678
		c-4.511,3.953-6.961,10.198-10.309,15.426c-0.589,0.921-0.988,1.958-2.364,2.593c0.879-2.314,1.927-4.581,2.608-6.95
		c2.335-8.126,6.794-14.473,13.98-19.418c4.368-3.005,7.758-7.472,11.331-11.504c5.616-6.337,13.289-9.502,20.447-13.51
		c1.827-1.021,3.644-2.342,4.937-3.941c3.222-3.98,7.866-4.369,12.312-5.074c4.961-0.786,10.001-1.094,15.006-1.61
		c0.055,0.477,0.109,0.953,0.163,1.43c-5.36,0.828-10.717,1.656-16.718,2.584c1.583,1.333,2.817,2.374,5.057,4.26
		c-2.887,0.248-4.714,0.405-6.542,0.562c0.221,0.354,0.441,0.709,0.661,1.063c-4.873,2.669-9.747,5.338-15.576,8.529
		c1.889-0.166,2.828-0.247,3.767-0.329c0.062,0.23,0.12,0.462,0.184,0.693c-2.239,0.851-4.478,1.701-6.978,2.65
		c0.31-0.867,0.523-1.472,1.109-3.123C400.239,154.884,388.989,162.714,378.761,171.678z M431.864,163.098
		c-0.006-0.253-0.015-0.505-0.021-0.757h18.062c0.007,0.252,0.014,0.504,0.021,0.757H431.864z M459.75,171.55
		c0.119,0.571,0.235,1.142,0.354,1.714c-6.593,1.152-13.185,2.305-19.775,3.457c-0.151-0.502-0.301-1.004-0.451-1.506
		C446.501,173.993,453.126,172.772,459.75,171.55z M419.876,191.75c-4.917,1.83-9.922,3.693-15.222,5.667
		C408.375,191.071,416.332,188.37,419.876,191.75z M408.789,204.869c0.018-0.021,0.035-0.043,0.054-0.062
		c-1.15,0.151-2.303,0.303-3.453,0.454c-0.15-0.3-0.307-0.599-0.46-0.898c5.801-2.83,11.604-5.659,17.404-8.489
		c0.217,0.401,0.435,0.801,0.652,1.202C418.256,199.672,413.524,202.269,408.789,204.869z M422.113,171.304
		c0.145-0.687,0.29-1.373,0.435-2.06c2.277,0.509,4.554,1.018,6.831,1.527c-0.101,0.528-0.2,1.056-0.301,1.585
		C426.756,172.005,424.434,171.655,422.113,171.304z M457.049,179.851c-9.548,3.194-19.09,6.404-28.896,9.697
		c8.541-8.408,20.046-9.286,30.266-13.136c0.715,0.801,1.428,1.6,2.144,2.4C459.39,179.157,458.206,179.465,457.049,179.851z
		 M448.377,157.484c6.561-2.847,8.824-2.208,13.531,3.749C457.135,159.911,453.132,158.801,448.377,157.484z M505.099,185.287
		c-2.19-1.527-4.274-3.241-6.596-4.547c-6.779-3.816-13.693-7.397-20.47-11.213c-4.354-2.453-8.812-4.843-12.735-7.872
		c-2.323-1.792-3.478-4.983-5.576-7.154c-1.49-1.546-3.538-2.865-5.589-3.532c-4.252-1.383-8.672-2.266-13.714-3.527
		c-1.474,0.464-4.013,1.263-6.554,2.063c-0.37-0.679-0.74-1.357-1.11-2.037c3.688-2.608,7.355-5.24,11.09-7.775
		c0.308-0.207,1.257,0.084,1.604,0.435c2.584,2.624,5.873,3.69,9.812,3.415c-0.229,0.698-0.464,1.396-0.693,2.093
		c-2.988-0.856-5.955-1.781-8.972-2.528c-0.944-0.235-2.015,0.007-3.026,0.03c0.569,1.003,0.925,2.617,1.752,2.904
		c3.865,1.338,7.809,2.673,11.836,3.237c1.621,0.227,3.523-1.52,5.902-2.656c-0.457,9.151,7.043,9.645,14.445,11.876
		c-2.527,0.438-3.847,0.667-5.816,1.008c12.237,8.05,25.929,13.468,35.08,24.836C505.546,184.658,505.324,184.973,505.099,185.287z
		 M540.394,190.61c-6.146-5.125-12.29-10.252-18.653-15.561c3.715-1.548,3.556-1.399,5.827,0.924
		c3.438,3.519,7.131,6.796,10.69,10.201c1.111,1.063,2.143,2.211,3.204,3.32C541.108,189.866,540.75,190.238,540.394,190.61z
		 M529.723,174.219c0.036-0.531,0.071-1.064,0.106-1.596c7.312,1.099,14.623,2.198,21.935,3.298
		c-0.09,0.619-0.183,1.237-0.273,1.856C544.235,176.591,536.979,175.405,529.723,174.219z M576.979,184.298
		c-8.301-5.413-16.727-4.649-25.439-0.089c-0.085-0.567-0.222-0.892-0.154-1.164c0.103-0.391,0.355-0.744,0.982-1.973
		c-3.669,1.686-6.618,3.042-9.566,4.396c-0.139-0.364-0.274-0.728-0.415-1.091c6.568-3.534,13.438-6.29,21.294-7.15
		c-3.261-0.555-5.042-5.172-9.543-2.63c-0.955,0.539-3.209-0.972-4.777-1.712c-9.093-4.279-18.613-6.967-28.665-7.811
		c-2.659-0.223-5.308-0.576-8.274-0.904c2.105,3.128,3.797,5.642,5.488,8.157c-0.271,0.472-0.541,0.943-0.812,1.415
		c-2.153-0.872-4.559-1.406-6.403-2.707c-2.051-1.446-3.593-3.593-5.354-5.434c-0.312,0.29-0.627,0.58-0.939,0.871
		c6.548,7.64,13.093,15.28,19.639,22.92c-0.223,0.262-0.442,0.523-0.664,0.784c-3.282-2.401-6.929-4.442-9.768-7.275
		c-6.782-6.773-12.9-13.868-21.65-18.852c-7.032-4.006-12.072-11.327-18.271-16.88c-3.233-2.899-7.021-5.214-10.659-7.644
		c-0.609-0.407-1.806,0.151-2.616-0.097c-1.854-0.562-3.669-1.281-5.395-2.147c-0.163-0.081,0.414-2.414,0.71-2.428
		c2.917-0.138,6.077-0.672,8.712,0.221c3.088,1.043,2.888,1.607,5.615-0.488c0.211-0.162,0.521-0.198,0.896-0.332
		c6.243,5.63,12.521,11.288,19.432,17.519c-0.434-5.533-5.29-7.713-7.311-11.471c0.27-0.419,0.536-0.838,0.809-1.257
		c2.091,1.125,4.619,1.84,6.193,3.456c3.94,4.048,7.247,8.696,11.183,12.751c5.471,5.639,12.535,7.317,20.312,7.846
		c9.218,0.627,18.364,2.237,27.545,3.422c0.071-0.241,0.146-0.48,0.219-0.72c-3.699-1.612-7.706-2.769-11.035-4.947
		c-5.018-3.295-9.541-7.322-14.304-11.001c-3.327-2.569-6.897-4.092-9.732-2.796c-16.686-8.695-32.562-16.967-48.448-25.244
		c0.732-0.955,1.393-2.205,2.396-3.056c2.779-2.352,5.307-3.661,9.465-1.581c11.362,5.682,22.392,11.684,31.438,20.713
		c0.31,0.307,0.718,0.817,1.021,0.78c8.074-0.966,12.485,6.214,19.154,8.333c1.612,0.513,3.306,0.835,4.854,1.49
		c2.112,0.89,4.498,1.618,6.102,3.112c5.989,5.594,11.499,11.706,17.621,17.148c3.409,3.033,7.696,5.102,11.556,7.654
		c2.802,1.855,6.143,3.317,8.176,5.803c2.719,3.328,5.54,2.312,8.611,1.64c1.368-0.299,2.688-0.793,4.972-1.482
		C586.733,186.099,580.562,186.633,576.979,184.298z M427.191,255.865c8.611,0.008,15.993,3.821,24.271,4.643
		c-0.041-0.831-0.09-1.842-0.2-4.052c5.655,6.263,10.565,11.701,15.817,17.517c-21.946-5.217-43.205-10.27-64.803-15.404
		C406.796,255.416,407.573,255.844,427.191,255.865z M459.138,277.18c-3.989,3.53-6.857,6.156-9.854,8.634
		c-0.544,0.451-1.667,0.554-2.419,0.379c-3.812-0.881-7.588-1.906-11.803-2.989c3.899-2.89,7.05-6.629,10.949-7.699
		C449.611,274.519,454.015,276.399,459.138,277.18z M377.897,265.818c0.436-1.175,2.606-2.647,3.781-2.462
		c3.592,0.567,7.174,1.615,10.526,3.02c1.129,0.473,2.127,2.589,2.098,3.93c-0.019,0.862-2.026,1.68-3.034,2.435
		c-4.225-1.156-7.848-1.877-11.215-3.217C378.927,269.075,377.561,266.725,377.897,265.818z M423.492,358.291
		c-25.836-3.239-43.212-29.582-38.19-56.178c11.249,3.342,22.24,6.606,33.604,9.982c-0.378,4.831,1.903,8.735,6.931,10.382
		c5.289,1.737,9.809,0.244,13.355-4.236c0.634-0.805,2.578-1.109,3.773-0.89c10.146,1.867,20.255,3.911,30.375,5.902
		C468.234,349.054,446.043,361.115,423.492,358.291z M420.663,313.785c0.373-0.492,0.745-0.983,1.118-1.476
		c2.429,0.608,4.855,1.22,7.288,1.825c0.146,0.586,0.292,1.173,0.438,1.762c-1.585,0.839-3.576,2.701-4.664,2.282
		C423.13,317.52,422.025,315.328,420.663,313.785z M476.407,308.686c-0.321,3.453-1.028,6.87-1.633,10.79
		c-30.446-5.233-60.147-10.5-88.499-21.144c1.2-10.921,7.736-17.881,18.581-17.077c12.574,0.933,25.137,3.265,37.447,6.078
		c9.149,2.09,18.004,5.628,26.774,9.063C476.575,299.332,477.145,300.747,476.407,308.686z M500.57,317.003
		c-1.017-0.169-2.652-0.441-4.645-0.776c2.839-3.896,5.434-7.452,8.247-11.322c0.966,0.386,2.104,0.836,3.628,1.438
		C505.327,309.992,503.096,313.278,500.57,317.003z M596.414,303.925c-3.05,3.196-5.638,6.138-8.518,8.77
		c-0.756,0.688-2.454,0.708-3.65,0.541c-3.946-0.553-7.86-1.325-12.188-2.085c2.813-3.198,5.402-6.215,8.098-9.137
		c0.407-0.439,1.351-0.712,1.971-0.609C586.866,302.177,591.588,303.059,596.414,303.925z M585.036,296.619
		c-8.909-1.486-17.362-2.896-26.211-4.373C566.643,287.073,579.599,289.195,585.036,296.619z M586.173,381.264
		c-16.749,8.204-33.179,6.918-48.233-4.694c-14.74-11.374-18.56-26.537-15.783-44.104c11.38,2.002,22.253,3.861,33.085,5.909
		c1.068,0.203,2.742,1.553,2.734,2.364c-0.025,4.938,2.929,7.05,7.187,8.042c4.4,1.022,7.816-0.529,10.27-4.218
		c0.479-0.717,0.878-1.479,1.135-1.912c12.045,0.919,23.791,1.815,36.304,2.771C608.593,360.737,601.093,373.954,586.173,381.264z
		 M613.486,340.383c-30.836-0.447-60.869-3.45-90.87-12.063c1.491-4.832,2.34-9.678,4.547-13.821
		c1.056-1.982,4.71-3.758,7.141-3.702c11.503,0.266,23.098,0.472,34.449,2.105c10.75,1.545,21.376,4.396,31.799,7.514
		c6.771,2.026,11.767,6.734,12.898,14.218C613.702,336.305,613.486,338.046,613.486,340.383z M620.808,318.801
		c-1.699-0.522-3.007-2.302-4.486-3.516c1.549-1.252,3.098-2.504,3.954-3.195c4.345,0.598,7.366,0.637,10.092,1.547
		c1.343,0.448,2.135,2.501,3.176,3.83c-1.22,0.919-2.433,2.6-3.661,2.608C626.846,320.1,623.703,319.693,620.808,318.801z"/>
	<path d="M526.933,391.071c-2.402,1.827-4.518,3.381-6.571,5.004c-2.684,2.116-5.861,2.98-8.481,0.831
		c-1.227-1.006-0.864-3.896-1.394-6.9c-2.263-0.728-5.574-1.794-9.092-2.924c1.94-3.604,6.015-4.918,10.181-4.883
		C518.087,382.254,523.48,384.958,526.933,391.071z"/>
	<path d="M314.151,291.409c-5.397-1.252-9.031,1.284-10.633,7.704c-1.775,7.106-3.1,14.328-4.422,20.56
		c-0.18-0.419-0.862-2.017-1.543-3.615c-0.329-0.007-0.657-0.016-0.986-0.021c-0.591,2.81-1.183,5.62-1.672,7.941
		c-1.216-11.119,2.216-21.854,6.884-32.223c0.956-2.122,3.58-4.292,5.847-4.873C310.832,286.061,311.895,287.29,314.151,291.409z"/>
	<path d="M513.433,114.811c5.094,0.991,10.185,1.982,15.273,2.974c-0.041,0.489-0.08,0.978-0.121,1.465
		c-1.15,0.258-2.301,0.516-3.704,0.831c0.42,0.6,0.604,1.159,0.87,1.2c8.854,1.379,13.009,8.907,18.938,14.094
		c0.392,0.343,0.511,1.731,0.264,1.891c-0.607,0.392-1.722,0.717-2.241,0.415c-1.616-0.942-3.106-2.119-4.544-3.328
		c-3.889-3.274-7.783-6.548-11.551-9.955c-1.65-1.492-2.897-3.417-4.53-4.933c-0.882-0.821-2.139-1.347-3.317-1.74
		c-1.853-0.62-3.779-1.016-5.679-1.507C513.203,115.748,513.317,115.279,513.433,114.811z"/>
	<path d="M643.556,205.203c-8.096-8.852-17.555-14.438-29.604-15.535C620.618,185.538,641.84,196.57,643.556,205.203z"/>
	<path d="M490.129,114.08c1.754-0.129,3.507-0.335,5.264-0.362c1.57-0.024,3.146,0.149,4.784,0.24
		c-1.759,4.974-3.163,3.271-10.081,0.072C490.08,114.013,490.129,114.08,490.129,114.08z"/>
	<path d="M299.833,332.012c1.49,4.443,2.98,8.889,4.47,13.33c-0.372,0.113-0.745,0.229-1.117,0.34
		c-1.413-4.44-2.826-8.886-4.239-13.329C299.242,332.238,299.537,332.125,299.833,332.012z"/>
	<path style="fill:#FFFFFF;" d="M522.155,332.464c11.38,2.002,22.253,3.861,33.089,5.908c1.071,0.203,2.742,1.555,2.737,2.364
		c-0.028,4.938,2.926,7.05,7.184,8.042c4.399,1.022,7.816-0.528,10.271-4.219c0.479-0.716,0.88-1.479,1.134-1.911
		c12.045,0.921,23.791,1.815,36.304,2.771c-4.275,15.313-11.775,28.532-26.695,35.842c-16.749,8.204-33.181,6.918-48.233-4.694
		C523.198,365.194,519.38,350.031,522.155,332.464z"/>
	<path style="fill:#FFFFFF;" d="M385.302,302.113c11.249,3.342,22.24,6.604,33.604,9.98c-0.378,4.831,1.902,8.733,6.931,10.382
		c5.289,1.735,9.81,0.244,13.355-4.236c0.635-0.805,2.577-1.107,3.773-0.89c10.146,1.867,20.255,3.911,30.375,5.902
		c-5.104,25.799-27.297,37.86-49.848,35.036C397.655,355.054,380.279,328.709,385.302,302.113z"/>
	<path style="fill:#FFFFFF;" d="M474.774,319.476c-30.446-5.231-60.146-10.5-88.5-21.146c1.198-10.921,7.734-17.881,18.581-17.077
		c12.574,0.933,25.138,3.265,37.447,6.078c9.148,2.092,18.005,5.63,26.774,9.063c7.496,2.937,8.063,4.351,7.328,12.288
		C476.086,312.139,475.38,315.556,474.774,319.476z"/>
	<path style="fill:#FFFFFF;" d="M522.616,328.318c1.491-4.832,2.34-9.68,4.547-13.819c1.056-1.982,4.71-3.758,7.141-3.702
		c11.503,0.271,23.1,0.477,34.449,2.105c10.75,1.545,21.376,4.396,31.799,7.514c6.771,2.024,11.769,6.732,12.898,14.218
		c0.252,1.673,0.036,3.414,0.036,5.751C582.65,339.938,552.617,336.935,522.616,328.318z M552.062,328.033
		c11.152,2.035,22.03,6.171,33.719,4.243C574.542,330.862,563.302,329.447,552.062,328.033z"/>
	<path style="fill:#FFFFFF;" d="M549.322,165.8c-3.699-1.613-7.706-2.769-11.024-4.948c-5.018-3.295-9.541-7.322-14.304-11.001
		c-3.327-2.57-6.897-4.093-9.732-2.796c-16.687-8.694-32.562-16.967-48.445-25.244c0.729-0.956,1.39-2.205,2.396-3.056
		c2.78-2.353,5.31-3.661,9.465-1.581c11.36,5.683,22.395,11.684,31.438,20.713c0.307,0.307,0.715,0.816,1.02,0.78
		c8.074-0.966,12.485,6.214,19.154,8.333c1.615,0.514,3.308,0.835,4.854,1.49c2.11,0.89,4.498,1.618,6.102,3.112
		c5.992,5.594,11.499,11.706,17.622,17.148c3.411,3.033,7.693,5.102,11.555,7.654c2.802,1.854,6.146,3.317,8.176,5.803
		c2.724,3.329,5.54,2.312,8.611,1.64c1.366-0.299,2.689-0.793,4.972-1.482c-4.437,3.733-10.604,4.267-14.188,1.932
		c-8.303-5.413-16.729-4.649-25.441-0.089c-0.085-0.566-0.224-0.891-0.153-1.164c0.104-0.391,0.354-0.744,0.981-1.973
		c-3.669,1.686-6.618,3.042-9.565,4.396c-0.14-0.364-0.275-0.729-0.413-1.091c6.565-3.534,13.437-6.29,21.294-7.15
		c-3.264-0.555-5.042-5.172-9.543-2.63c-0.955,0.539-3.209-0.972-4.78-1.712c-9.09-4.279-18.613-6.966-28.665-7.811
		c-2.659-0.223-5.309-0.576-8.274-0.904c2.105,3.127,3.798,5.642,5.488,8.157c-0.271,0.472-0.541,0.943-0.812,1.415
		c-2.155-0.872-4.562-1.406-6.405-2.707c-2.05-1.445-3.593-3.592-5.354-5.434c-0.312,0.291-0.627,0.581-0.938,0.871
		c6.547,7.64,13.092,15.28,19.638,22.92c-0.221,0.261-0.441,0.522-0.664,0.784c-3.28-2.401-6.929-4.443-9.766-7.275
		c-6.784-6.773-12.902-13.868-21.652-18.852c-7.032-4.007-12.071-11.328-18.271-16.88c-3.234-2.898-7.021-5.213-10.661-7.644
		c-0.608-0.407-1.806,0.151-2.616-0.097c-1.854-0.562-3.669-1.281-5.394-2.147c-0.16-0.081,0.413-2.414,0.712-2.428
		c2.916-0.139,6.074-0.672,8.712,0.221c3.085,1.043,2.884,1.606,5.612-0.488c0.211-0.162,0.521-0.197,0.896-0.332
		c6.244,5.63,12.521,11.288,19.432,17.519c-0.434-5.532-5.289-7.713-7.311-11.471c0.27-0.418,0.539-0.837,0.809-1.257
		c2.093,1.125,4.619,1.84,6.193,3.456c3.938,4.048,7.248,8.696,11.183,12.751c5.474,5.639,12.535,7.317,20.313,7.846
		c9.216,0.627,18.362,2.238,27.544,3.422C549.177,166.28,549.25,166.041,549.322,165.8z"/>
	<path style="fill:#FFFFFF;" d="M413.753,146.118c1.889-0.166,2.827-0.248,3.766-0.33c0.062,0.23,0.122,0.462,0.185,0.693
		c-2.237,0.851-4.478,1.701-6.978,2.65c0.312-0.867,0.523-1.472,1.109-3.123c-11.597,8.875-22.847,16.705-33.074,25.669
		c-4.511,3.953-6.961,10.198-10.309,15.426c-0.589,0.921-0.987,1.958-2.364,2.593c0.88-2.313,1.928-4.581,2.608-6.95
		c2.335-8.126,6.794-14.473,13.98-19.418c4.368-3.005,7.758-7.472,11.331-11.504c5.616-6.337,13.29-9.502,20.447-13.51
		c1.825-1.021,3.644-2.342,4.937-3.941c3.221-3.98,7.864-4.369,12.312-5.074c4.961-0.787,10.001-1.094,15.006-1.61
		c0.054,0.477,0.108,0.953,0.163,1.43c-5.358,0.829-10.717,1.657-16.718,2.584c1.583,1.333,2.815,2.374,5.057,4.26
		c-2.887,0.248-4.714,0.405-6.542,0.562c0.221,0.354,0.441,0.708,0.661,1.063C424.456,140.258,419.583,142.927,413.753,146.118z"/>
	<path style="fill:#FFFFFF;" d="M451.464,260.508c-0.041-0.831-0.091-1.842-0.201-4.052c5.655,6.263,10.565,11.701,15.817,17.517
		c-21.945-5.217-43.205-10.27-64.803-15.404c4.519-3.153,5.294-2.725,24.913-2.704C435.805,255.873,443.188,259.686,451.464,260.508
		z"/>
	<path style="fill:#FFFFFF;" d="M462.061,146.623c-0.457,9.151,7.043,9.645,14.446,11.876c-2.528,0.438-3.848,0.667-5.814,1.008
		c12.235,8.051,25.926,13.468,35.077,24.836c-0.224,0.315-0.444,0.63-0.671,0.944c-2.188-1.528-4.272-3.241-6.596-4.547
		c-6.778-3.816-13.692-7.397-20.47-11.213c-4.354-2.453-8.812-4.843-12.735-7.872c-2.323-1.792-3.479-4.983-5.576-7.154
		c-1.493-1.545-3.538-2.865-5.589-3.532c-4.252-1.383-8.672-2.266-13.714-3.527c-1.474,0.464-4.013,1.264-6.554,2.063
		c-0.37-0.678-0.74-1.357-1.11-2.037c3.688-2.607,7.354-5.24,11.09-7.775c0.308-0.207,1.257,0.084,1.604,0.435
		c2.584,2.624,5.873,3.689,9.812,3.415c-0.229,0.698-0.464,1.396-0.693,2.093c-2.986-0.856-5.955-1.781-8.972-2.528
		c-0.944-0.235-2.016,0.007-3.026,0.03c0.569,1.003,0.926,2.617,1.752,2.904c3.866,1.338,7.809,2.673,11.836,3.237
		C457.778,149.506,459.683,147.759,462.061,146.623z"/>
	<path style="fill:#FFFFFF;" d="M373.125,163.758c11.468-13.654,22.475-27.923,43.754-30.574
		c-8.459,5.612-15.986,10.389-23.271,15.502c-6.98,4.9-11.119,13.323-19.232,16.858
		C373.958,164.949,373.542,164.354,373.125,163.758z"/>
	<path style="fill:#FFFFFF;" d="M596.414,303.925c-3.05,3.196-5.638,6.142-8.516,8.771c-0.759,0.688-2.455,0.708-3.651,0.541
		c-3.945-0.553-7.859-1.325-12.188-2.085c2.812-3.198,5.4-6.215,8.098-9.137c0.408-0.439,1.351-0.711,1.971-0.611
		C586.866,302.177,591.588,303.059,596.414,303.925z"/>
	<path style="fill:#FFFFFF;" d="M576.443,173.079c-4.206-1.591-7.747-2.796-11.17-4.263c-3.372-1.445-6.626-3.155-10.229-4.892
		c0.541-1.255,1.069-2.481,1.81-4.195c1.361,0.683,2.437,1.553,3.604,1.707c1.032,0.135,2.387-0.266,3.211-0.912
		c1.039-0.814,1.519-2.855,2.53-3.081c4.065-0.904,7.449-0.086,9.423,1.787C566.585,163.78,574.639,167.947,576.443,173.079z"/>
	<path style="fill:#FFFFFF;" d="M435.062,283.204c3.899-2.89,7.05-6.629,10.949-7.699c3.6-0.986,8.002,0.895,13.125,1.675
		c-3.988,3.531-6.856,6.158-9.854,8.634c-0.545,0.451-1.667,0.554-2.419,0.379C443.054,285.312,439.277,284.287,435.062,283.204z"/>
	<path style="fill:#FFFFFF;" d="M620.274,312.09c4.345,0.597,7.364,0.637,10.094,1.547c1.343,0.448,2.135,2.501,3.176,3.83
		c-1.22,0.919-2.435,2.602-3.661,2.608c-3.035,0.021-6.18-0.384-9.073-1.274c-1.699-0.521-3.007-2.302-4.486-3.516
		C617.869,314.033,619.418,312.781,620.274,312.09z"/>
	<path style="fill:#FFFFFF;" d="M391.268,272.741c-4.224-1.155-7.847-1.876-11.216-3.216c-1.125-0.448-2.492-2.799-2.156-3.706
		c0.437-1.175,2.606-2.647,3.781-2.462c3.592,0.567,7.175,1.615,10.526,3.02c1.129,0.473,2.127,2.588,2.098,3.93
		C394.283,271.167,392.275,271.985,391.268,272.741z"/>
	<path style="fill:#FFFFFF;" d="M585.036,296.619c-8.909-1.486-17.362-2.896-26.211-4.373
		C566.645,287.073,579.601,289.195,585.036,296.619z"/>
	<path style="fill:#FFFFFF;" d="M460.562,178.812c-1.174,0.344-2.355,0.652-3.515,1.04c-9.547,3.194-19.089,6.403-28.896,9.697
		c8.541-8.408,20.046-9.286,30.266-13.136C459.134,177.213,459.848,178.013,460.562,178.812z"/>
	<path style="fill:#FFFFFF;" d="M464.197,120.541c-0.954,0.333-1.979,1.074-2.851,0.926c-3.948-0.671-7.918-1.407-11.729-2.587
		c-0.726-0.224-0.771-2.569-1.129-3.937c1.459,0.064,2.948-0.035,4.368,0.235c1.672,0.318,3.277,0.963,4.918,1.453
		c1.851,0.554,3.703,1.092,5.557,1.637C463.621,119.025,463.909,119.784,464.197,120.541z"/>
	<path style="fill:#FFFFFF;" d="M540.394,190.61c-6.146-5.125-12.291-10.252-18.653-15.561c3.715-1.547,3.558-1.398,5.827,0.924
		c3.438,3.519,7.133,6.795,10.69,10.201c1.111,1.063,2.143,2.211,3.204,3.32C541.106,189.866,540.75,190.239,540.394,190.61z"/>
	<path style="fill:#FFFFFF;" d="M504.174,304.904c0.966,0.385,2.104,0.834,3.628,1.438c-2.477,3.651-4.706,6.938-7.23,10.662
		c-1.017-0.169-2.65-0.442-4.645-0.776C498.766,312.331,501.357,308.773,504.174,304.904z"/>
	<path style="fill:#FFFFFF;" d="M344.442,264.404c-3.069,4.939-6.139,9.878-9.25,14.886
		C333.167,275.509,337.409,268.194,344.442,264.404z"/>
	<path style="fill:#FFFFFF;" d="M419.876,191.75c-4.917,1.831-9.922,3.693-15.222,5.667
		C408.375,191.07,416.332,188.369,419.876,191.75z"/>
	<path style="fill:#FFFFFF;" d="M529.829,172.623c7.312,1.099,14.623,2.199,21.935,3.298c-0.092,0.619-0.185,1.237-0.273,1.856
		c-7.254-1.186-14.513-2.372-21.768-3.558C529.759,173.688,529.794,173.155,529.829,172.623z"/>
	<path style="fill:#FFFFFF;" d="M408.857,204.8c-1.151,0.151-2.305,0.303-3.453,0.454c-0.153-0.3-0.31-0.599-0.46-0.898
		c5.802-2.83,11.603-5.659,17.401-8.489c0.221,0.401,0.438,0.801,0.653,1.202c-4.756,2.61-9.513,5.222-14.274,7.836
		C408.722,204.906,408.857,204.8,408.857,204.8z"/>
	<path style="fill:#FFFFFF;" d="M439.876,175.215c6.625-1.222,13.25-2.443,19.875-3.665c0.118,0.571,0.234,1.142,0.353,1.714
		c-6.593,1.152-13.185,2.304-19.774,3.457C440.176,176.219,440.026,175.718,439.876,175.215z"/>
	<path style="fill:#FFFFFF;" d="M448.377,157.484c6.561-2.847,8.824-2.208,13.531,3.749
		C457.135,159.911,453.132,158.801,448.377,157.484z"/>
	<path style="fill:#FFFFFF;" d="M429.507,315.896c-1.585,0.839-3.576,2.699-4.664,2.28c-1.712-0.655-2.815-2.852-4.18-4.395
		c0.373-0.49,0.745-0.981,1.118-1.476c2.429,0.608,4.855,1.22,7.288,1.825C429.215,314.724,429.361,315.311,429.507,315.896z"/>
	<path style="fill:#FFFFFF;" d="M334.716,238.449c-1.862,4.297-3.725,8.595-5.587,12.891c-0.567-0.235-1.134-0.472-1.701-0.708
		c1.82-4.315,3.64-8.629,5.459-12.944C333.497,237.942,334.107,238.195,334.716,238.449z"/>
	<path style="fill:#FFFFFF;" d="M382.615,178.976c2.792-3.014,5.356-5.782,8.402-9.07
		C390.868,175.665,388.719,177.824,382.615,178.976z"/>
	<path style="fill:#FFFFFF;" d="M431.845,162.341c6.021,0,12.04,0,18.062,0c0.007,0.252,0.013,0.504,0.021,0.757
		c-6.021,0-12.042,0-18.062,0C431.857,162.845,431.851,162.593,431.845,162.341z"/>
	<path style="fill:#FFFFFF;" d="M588.521,193.158c1.614-3.586,6.121-4.944,11.404-3.594
		C596.438,190.663,592.949,191.763,588.521,193.158z"/>
	<path style="fill:#FFFFFF;" d="M486.849,118.304c-2.05-0.612-4.101-1.223-6.148-1.833c0.109-0.344,0.225-0.69,0.336-1.035
		c2.207,0.469,5.379-1.901,6.949,0.436C487.604,116.683,487.227,117.494,486.849,118.304z"/>
	<path style="fill:#FFFFFF;" d="M422.548,169.244c2.277,0.509,4.554,1.018,6.831,1.527c-0.101,0.528-0.2,1.057-0.301,1.585
		c-2.322-0.352-4.646-0.702-6.965-1.052C422.258,170.617,422.403,169.931,422.548,169.244z"/>
	<path style="fill:#FFFFFF;" d="M552.971,411.995c-1.481-2.242-2.79-4.213-4.877-7.366c4.704,0.667,8.139,1.153,11.565,1.64
		c0.086,0.376,0.173,0.751,0.26,1.131C557.727,408.846,555.535,410.297,552.971,411.995z"/>
	<path d="M552.062,328.033c11.236,1.414,22.479,2.829,33.719,4.243C574.096,334.204,563.218,330.068,552.062,328.033z"/>
</g>
</svg>
