<?xml version="1.0" encoding="utf-8"?>
<!-- Generator: Adobe Illustrator 16.0.0, SVG Export Plug-In . SVG Version: 6.00 Build 0)  -->
<!DOCTYPE svg PUBLIC "-//W3C//DTD SVG 1.1//EN" "http://www.w3.org/Graphics/SVG/1.1/DTD/svg11.dtd">
<svg version="1.1" id="Layer_1" xmlns="http://www.w3.org/2000/svg" xmlns:xlink="http://www.w3.org/1999/xlink" x="0px" y="0px"
	 width="960px" height="560px" viewBox="0 0 960 560" enable-background="new 0 0 960 560" xml:space="preserve">
<g>
	<path d="M502.988,548.535c0.019,1.592-0.268,3.265,0.138,4.757c0.412,1.521,1.315,3.893,2.334,4.073
		c2.509,0.442,4.634-0.725,4.261-3.94c-0.043-0.377,0.094-0.772,0.061-0.524c0.973,1.424,1.895,3.55,3.521,4.736
		c0.587,0.428,2.867-1.396,4.501-2.261c0.424,0.382,1.719,2.192,2.349,1.99c1.834-0.59,3.399-1.984,4.794-2.884
		c0.63,0.681,1.793,2.919,2.892,2.889c1.63-0.045,3.212-1.697,4.882-2.707c-0.015,5.41,5.664,1.246,8.019,3.339
		c-0.056,0.46-0.109,0.919-0.164,1.379c-1.774,0-3.55,0-5.324,0c-12.835,0.001-25.671-0.017-38.507,0.032
		c-1.438,0.005-2.874,0.382-4.312,0.586c-0.591,0-1.184,0-1.773,0c-3.146-0.416-6.291-0.833-9.412-1.246
		c0-1.042,0.213-2.092-0.051-3.007c-0.366-1.263-1.092-2.426-1.663-3.631c-1.605,0.926-4.018,1.523-4.577,2.872
		c-0.522,1.257,0.923,3.31,1.502,5.012c-0.591,0-1.184,0-1.774,0c-0.341-0.953-0.813-1.881-0.992-2.863
		c-0.444-2.438-2.276-3.124-3.804-1.804c-4.838,4.183-10.725,4.104-16.505,4.667c-4.142,0-8.283,0-12.425,0
		c-8.579,0-17.159,0-25.738,0c-0.296,0-0.591,0-0.888,0c-4.825-0.416-9.65-0.832-15.246-1.314c3.686-0.473,6.646-0.852,10.5-1.347
		c-7.812-2.114-14.712-3.982-21.613-5.851c0.385-0.325,0.77-0.649,1.154-0.976c-0.79-1.509-1.185-3.587-2.436-4.43
		c-5.95-4.002-12.816-6.922-18.088-11.612c-10.381-9.234-20.017-19.298-29.763-29.209c-3.24-3.295-5.876-7.167-8.459-11.206
		c2.601,1.617,4.146,6.126,8.373,2.478c-0.683,0.963-1.367,1.927-2.461,3.469c3.842,2.364,7.402,4.556,10.531,6.48
		c0.028-0.001-0.833,0.062-1.694,0.129c-0.13,0.271-0.261,0.543-0.391,0.814c0.966,0.577,1.923,1.167,2.899,1.728
		c1.647,0.944,3.971,1.467,4.848,2.871c4.75,7.607,12.268,12.297,18.689,18.164c5.657,5.169,12.581,7.055,19.535,9.472
		c5.137,1.784,9.698,5.182,13.958,8.616c1.899-0.084,3.798-0.169,5.697-0.252c0.019,0.28,0.038,0.562,0.057,0.845
		c-0.769,0.135-1.538,0.27-2.308,0.405c8.475,3.736,16.88,7.655,27.264,6.756c0.183-0.239,0.935-1.235,1.951-2.575
		c0.653,0.945,1.1,1.593,1.464,2.12c2.761-3.438,6.003-5.121,10.803-4.46c1.367,0.188,5.181-0.208,5.014-3.787
		c-0.143-3.038,0.117-6.182-0.625-9.073c-0.486-1.891-2.444-3.413-3.676-5.013c-2.989,3.378-6.269,2.258-11.944-5.732
		c-0.668,1.092-1.222,1.995-1.789,2.922c-2.558-1.466-3.26-8.184-1.155-10.374c0.703-0.73,1.011-1.984,1.167-3.049
		c0.729-4.965,1.722-5.497,6.222-2.995c1.071,0.597,1.982,1.472,3.364,2.519c5.278-6.742,11.831-1.066,18.168-0.033
		c2.953,0.481,5.845,2.892,8.59,2.632c3.266-0.31,6.378-2.476,9.48-3.992c1.021-0.497,1.801-1.476,2.874-2.392
		c0.508,1.091,0.941,2.022,1.143,2.452c-2.879,3.639-5.724,6.943-8.158,10.52c-0.612,0.898,0.088,2.665,0.185,4.033
		c1.039-1.277,2.774,3.191,3.795-0.492c0.181-0.649,2.688-1.035,4.079-0.938c6.556,0.457,11.16-2.87,14.999-7.451
		c7.886-9.416,15.606-18.965,23.406-28.452c4.267-5.189,8.173-10.735,12.9-15.479c12.919-12.97,25.541-26.186,36.84-40.562
		c2.674-3.401,4.657-7.328,7.798-10.56c-2.494,4.291-4.32,9.177-7.605,12.765c-10.516,11.485-18.451,24.469-24.927,38.438
		c-0.347,0.749-0.978,1.37-2.072,1.726c2.03-4.644,4.06-9.284,6.43-14.707c-3.5,2.999-6.508,5.019-8.797,7.646
		c-6.419,7.369-12.706,14.865-18.739,22.543c-7.496,9.539-14.526,19.436-22.084,28.925c-3.257,4.088-7.438,7.444-11.002,11.31
		c-3.571,3.87-6.899,7.96-10.684,12.359c6.1,0,10.839,0,15.567,0.007c-3.644,1.92-2.686,5.154-2.116,8.042
		c0.217,1.104,1.637,1.979,2.509,2.956c1.187-1.078,2.862-1.953,3.438-3.289c0.767-1.784,0.678-3.926,0.956-5.914L502.988,548.535z
		 M488.387,555.75c1.405,0.939,2.684,1.792,3.959,2.645c0.919-1.354,2.135-2.607,2.666-4.097c0.469-1.308,0.423-2.935,0.117-4.314
		c-0.2-0.911-1.49-2.434-1.906-2.317c-3.588,0.984-7.334,1.875-10.469,3.724c-0.971,0.574-1.092,5.028-0.05,5.9
		C484.625,558.896,487.495,558.634,488.387,555.75z M459.062,528.22c-0.654-1.083-1.297-2.146-1.754-2.902
		c-1.654,0.303-3.075,0.293-4.218,0.844c-1.312,0.634-2.379,1.764-3.354,2.523c1.693,1.238,3.127,2.285,4.688,3.429
		C455.896,530.877,457.399,529.614,459.062,528.22z"/>
	<path fill="#FFFFFF" d="M740.042,242.375c0,44.333,0,88.667,0,133c-3.563-6.874-7.321-13.657-10.633-20.646
		c-3.046-6.428-5.565-13.096-8.447-19.602c-0.349-0.79-1.505-1.232-2.287-1.835l0.118,0.178c-1.291-3.198-2.461-6.452-3.896-9.587
		c-4.427-9.654-8.739-19.371-13.531-28.852c-2.534-5.014-3.737-9.979,0.32-14.176C714.269,267.839,727.229,255.175,740.042,242.375z
		"/>
	<path fill="#FFFFFF" d="M740.042,79.625c0,26.25,0,52.5,0,78.75c-4.537,3.919-9.073,7.839-13.61,11.758
		c0.44-9.821,1.571-18.887,2.959-27.914c1.92-12.476,3.979-24.931,6.084-37.378C736.9,96.42,738.513,88.03,740.042,79.625z"/>
	<path d="M740.042,79.625c-1.529,8.405-3.142,16.795-4.567,25.217c-2.105,12.447-4.164,24.902-6.084,37.378
		c-1.388,9.027-2.519,18.092-2.959,27.914c4.537-3.919,9.073-7.839,13.61-11.758c0,1.167,0,2.333,0,3.5
		c-8.134,8.622-16.104,17.398-24.437,25.831c-14.729,14.909-29.718,29.567-44.517,44.409
		c-10.656,10.685-21.169,21.509-31.781,32.237c-1.301,1.315-2.823,2.416-4.672,3.162c10.405-11.022,20.666-22.18,31.249-33.033
		c15.46-15.854,31.017-31.62,46.812-47.146c5.838-5.738,9.254-12.399,10.523-20.205c3.134-19.238,5.954-38.527,9.184-57.75
		c2.31-13.749,5.075-27.422,7.639-41.13C740.042,72.042,740.042,75.834,740.042,79.625z"/>
	<path d="M740.042,242.375c-12.813,12.8-25.773,25.463-38.356,38.48c-4.059,4.196-2.854,9.162-0.32,14.176
		c4.792,9.479,9.104,19.195,13.531,28.852c1.437,3.135,2.605,6.389,3.896,9.587c-3.41-6.568-6.92-13.091-10.206-19.72
		c-3.883-7.83-7.573-15.755-12.427-23.902c-0.579,2.002-1.909,4.133-1.589,5.984c0.813,4.695,1.838,9.49,3.727,13.843
		c6.03,13.903,12.51,27.615,18.774,41.417c1.605,3.538,3.062,7.143,3.865,11.026c-5.031-10.195-10.151-20.35-15.071-30.595
		c-4.922-10.25-9.773-20.537-14.332-30.945c-0.78-1.782-0.582-4.545,0.257-6.363c7.048-15.262,18.564-27.011,31.13-37.932
		c5.838-5.073,11.423-10.43,17.121-15.658C740.042,241.208,740.042,241.791,740.042,242.375z"/>
	<path d="M740.042,422.625c-6.095-12.892-12.124-25.812-18.312-38.661c-3.278-6.807-7.006-13.404-10.22-20.237
		c-5.635-11.983-11.092-24.051-16.508-36.134c-3.808-8.494-7.401-17.081-11.14-25.604c-0.791-1.801-1.793-3.512-2.005-5.663
		c1.035,1.646,2.267,3.204,3.076,4.95c5.09,10.955,10.049,21.966,15.118,32.928c8.864,19.159,17.729,38.317,26.69,57.435
		c4.317,9.215,8.856,18.329,13.297,27.488C740.042,420.291,740.042,421.458,740.042,422.625z"/>
	<path d="M740.042,231c-19.071,18.868-40.059,35.889-56.031,57.742c-0.285-0.236-0.57-0.473-0.855-0.707
		c1.342-1.975,2.684-3.945,4.023-5.918c-0.229-0.232-0.463-0.467-0.694-0.699c-3.293,2.831-6.586,5.663-9.88,8.494
		c-0.152-0.128-0.307-0.254-0.461-0.383c2.876-2.941,5.668-5.969,8.641-8.815c17.911-17.158,35.861-34.278,53.812-51.397
		c0.408-0.389,0.961-0.631,1.446-0.942C740.042,229.25,740.042,230.125,740.042,231z"/>
	<path d="M563.429,560c0.113-0.405,0.121-1.092,0.353-1.175c9.744-3.454,19.526-6.211,29.646-1.24
		c1.795,0.881,3.666,1.613,5.501,2.415c-1.773,0-3.55,0-5.325,0c-9.466,0-18.934,0-28.398,0C564.612,560,564.02,560,563.429,560z"/>
	<path d="M718.675,333.292c0.782,0.603,1.938,1.045,2.287,1.835c2.882,6.506,5.401,13.174,8.447,19.602
		c3.312,6.989,7.068,13.772,10.633,20.646c0,1.458,0,2.916,0,4.375C732.919,364.264,725.797,348.777,718.675,333.292z"/>
	<path fill="#FFFFFF" d="M476.454,560c-0.579-1.702-2.025-3.755-1.502-5.012c0.561-1.349,2.972-1.946,4.577-2.872
		c0.57,1.205,1.296,2.368,1.663,3.631c0.264,0.915,0.051,1.965,0.051,3.007c3.121,0.413,6.266,0.83,9.412,1.246
		C485.92,560,481.188,560,476.454,560z"/>
	<path fill="#FFFFFF" d="M453.378,560c5.78-0.564,11.667-0.484,16.505-4.667c1.527-1.32,3.359-0.636,3.803,1.804
		c0.18,0.982,0.652,1.91,0.992,2.863C467.579,560,460.479,560,453.378,560z"/>
	<path d="M288.303,560c3.517-0.448,7.028-1.194,10.551-1.248c2.688-0.039,5.391,0.8,8.087,1.248
		C300.728,560,294.516,560,288.303,560z"/>
	<path fill="#FFFFFF" d="M565.204,560c9.466,0,18.934,0,28.398,0C584.138,560,574.67,560,565.204,560z"/>
	<path fill="#FFFFFF" d="M415.216,560c8.579,0,17.159,0,25.738,0C432.375,560,423.795,560,415.216,560z"/>
	<path d="M637.488,352.144c-1.911-3.825-3.861-7.636-5.71-11.489c-0.552-1.149-0.817-2.433-1.505-4.542
		c-1.492,4.13-2.519,7.501-3.913,10.718c-3.302,7.614-6.876,15.114-10.115,22.753c-0.841,1.981-1.617,4.487-1.131,6.439
		c3.157,12.719,6.766,25.325,10.048,38.017c3.859,14.929,7.431,29.93,11.356,44.84c1.325,5.031,3.356,9.882,4.151,15.161
		c-1.914-4.812-4.326-9.494-5.642-14.46c-2.9-10.948-5.061-22.086-7.872-33.059c-3.288-12.832-6.922-25.579-10.466-38.347
		c-1.192-4.301-2.567-8.553-4.078-13.552c-10.39,13.812-23.814,21.695-41.271,22.788c0.087,0.635,0.118,1.129,0.229,1.604
		c0.11,0.469,0.304,0.917,0.335,1.01c-7.144-1.342-14.323-2.191-21.216-4.073c-20.622-5.632-32.96-19.406-37.372-39.718
		c-1.646-7.578-1.521-15.583-1.7-23.403c-0.147-6.362-5.562-12.753-12.823-14.148c-7.232-1.39-13.243,2.146-15.749,10.083
		c-3.858,12.229-10.696,22.379-20.854,30.214c-4.484,3.462-9.586,6.146-15.354,9.779c2.833,2.4,5.121,4.786,7.867,6.429
		c0.994,0.594,3.348-0.197,4.628-1.032c8.131-5.296,18.541-4.643,25.896,1.835c2.604,2.293,2.694,3.939-0.181,7.726
		c0.808-3.921-0.93-4.571-3.841-4.773c-5.091-0.354-10.142-1.265-15.121-2.658c-0.269,0.105-0.648,0.139-0.787,0.335
		c-6.188,8.741-7.553,6.53-13.747,0.707c-0.642-0.604-1.499-1.11-1.868-1.852c-3.225-6.456-8.219-6.897-14.812-5.472
		c-7.203,1.556-14.604,0.479-21.442-2.509c-12.679-5.534-24.797-4.724-36.827,3.173c3.521-6.04,9.494-8.789,20.801-9.945
		c-29.339-22.331-28.576-52.212-21.771-83.987c-5.383-0.343-5.321-4.119-4.567-7.949c0.671-3.414,1.702-6.773,2.795-10.086
		c1.085-3.291,3.472-4.393,6.961-3.709c4.737,0.927,9.507,1.736,14.297,2.333c2.344,0.292,4.753,0.254,5.289-3.127
		c0.178-1.121,1.45-2.394,2.559-2.989c2.843-1.525,5.96-3.978,8.814-3.789c8.286,0.547,17.134-3.88,24.861,2.323
		c3.181,2.552,5.977,1.921,9.595,0.041c2.342-1.216,6.534-0.833,9.042,0.455c8.838,4.539,17.937,9.828,19.191,20.623
		c0.72,6.186,4.169,8.505,8.444,11.458c5.967,4.123,8.777,10.058,7.575,17.68c9.27-2.219,17.398-0.198,25.479,4.461
		c2.658-9.51,10.271-11.998,18.734-13.523c2.024-0.363,3.887-1.789,5.739-2.865c4.091-2.375,7.312-6.908,13.209-4.67
		c0.742,0.281,2.175-1.771,3.295-1.779c4.655-0.035,9.333,0.132,13.952,0.654c0.818,0.094,1.398,2.229,2.367,3.904
		c5.456-2.111,9.771-0.295,14.232,3.854c2.532,2.354,5.31,4.285,7.687,7.058c1.918,2.238,6.171,2.531,10.399,4.05
		c-1.715-23.154-5.555-44.381-19.39-63.362c-0.28-0.033-1.782-0.215-2.348-0.283c1.551-1.931,3.267-4.046,4.943-6.191
		c0.138-0.177,0.018-0.55,0.018-0.841c-0.229-0.077-0.574-0.311-0.727-0.223c-2.714,1.571-5.733,4.8-8.012,4.35
		c-2.518-0.497-4.588-4.194-6.427-6.791c-3.179-4.49-8.018-5.908-12.893-6.819c-5.299-0.99-11.078-0.217-16.071-1.888
		c-6.35-2.125-12.717-2.51-19.104-2.384c-6.514,0.128-11.036-2.825-15.906-6.45c-2.79-2.078-7.069-2.213-10.678-3.227
		c-1.825-0.514-4.163-0.511-5.372-1.659c-3.114-2.958-7.04-2.479-10.664-3.375c-9.418-2.329-18.833-0.872-28.309-0.599
		c-8.772,0.252-16.877,3.2-25.381,4.336c-1.069,0.142-2.186-0.069-2.591,0.569c-2.469,1.876-4.938,3.752-7.407,5.629
		c-0.489-0.377-0.978-0.754-1.466-1.13c0.607-2.966,1.215-5.931,1.909-9.32c-3.895,1.214-7.445,2.321-10.991,3.425
		c4.761-2.614,9.518-5.225,14.274-7.835c-0.218-0.401-0.436-0.801-0.653-1.202c-5.802,2.83-11.604,5.659-17.404,8.489
		c0.153,0.299,0.308,0.598,0.46,0.898c1.15-0.151,2.302-0.303,3.453-0.454c-0.204,0.209-0.371,0.532-0.618,0.61
		c-4.629,1.46-7.856,4.475-9.903,9.11c1.005,0.077,2.163,0.165,3.31,0.253c-0.044,2.932-1.912,3.709-4.426,4.623
		c-5.02,1.823-9.969,3.999-14.616,6.604c-4.712,2.643-9.756,5.314-13.35,9.16c-6.252,6.688-11.824,14.067-17.09,21.559
		c-6.863,9.766-8.541,21.636-12.486,32.582c-4.741,13.153-9.081,26.447-13.812,39.604c-1.268,3.524-4.221,6.615-4.872,10.177
		c-2.297,12.549-3.94,25.214-5.807,37.838c-0.298,2.015,0.001,4.251-0.791,6.033c-3.088,6.953-2.355,13.887-1.364,21.164
		c1.941,14.259,2.41,28.729,4.738,42.914c1.685,10.268,5.143,20.288,8.294,30.27c1.451,4.594,2.977,8.814,2.54,13.898
		c-1.194,13.887-1.542,27.844-2.455,41.758c-0.561,8.552-1.528,17.078-2.389,25.607c-0.027,0.271-0.889,0.459-1.708,0.85
		c0.58-6.052,1.291-11.701,1.633-17.372c1.041-17.279,2.099-34.562,2.775-51.854c0.155-3.944-0.436-8.266-1.986-11.867
		c-6.751-15.691-8.857-32.226-10.109-48.97c-0.443-5.926-0.855-11.854-1.352-18.752c-22.33,7.555-42.56,3.407-61.04-10.118
		c4.787,1.658,9.574,3.316,14.361,4.977c0.167-0.242,0.333-0.482,0.499-0.724c-6.568-9.599-13.136-19.194-19.704-28.793
		c-0.402,0.076-0.804,0.152-1.206,0.229c1.221,5.146,2.442,10.291,3.845,16.201c-1.717-2.512-3.259-4.604-4.617-6.803
		c-1.336-2.165-2.487-4.441-3.719-6.669c-0.409,0.163-0.817,0.326-1.225,0.491c0.822,2.839,1.644,5.676,2.465,8.509
		c-11.796-19.394-6.305-39.719,19.542-50.223c-1.594,3.643-3.45,7.882-5.303,12.113c0.305,0.254,0.626,0.627,0.714,0.579
		c5.346-2.871,11.67-4.802,15.789-8.891c7.763-7.706,8.983-8.807,20.377-6.597c0,7.308,0,14.573,0,22.917
		c-2.769-7.4-8.995-7.454-14.371-9.548c-0.912,2.782-1.98,4.743-5.571,3.062c-1.404-0.657-3.954,0.222-5.533,1.145
		c-0.737,0.433-0.809,2.729-0.497,4.02c1.673,6.919,1.747,6.901-4.745,12.407c-0.249-1.91-0.87-3.45-0.535-4.751
		c0.79-3.075,2.118-6.013,3.059-9.057c0.432-1.398,0.464-2.917,0.678-4.38c-1.584,0.406-3.594,0.34-4.688,1.295
		c-15.803,13.784-9.966,36.15,4.303,44.965c4.044,2.498,7.89,5.604,12.289,7.172c4.752,1.693,10.042,1.93,15.106,2.75
		c0.544,0.09,1.231-0.006,1.706-0.27c5.071-2.822,10.113-5.695,14.755-8.324c-0.261-2.741-0.502-5.271-0.692-7.261
		c-6.263,2.764-12.717,5.612-19.173,8.462c-0.333-0.538-0.666-1.076-0.999-1.615c11.453-4.54,24.753-7.303,24.985-24.207
		c-8.203,2.664-13.271-0.86-17.312-6.542c1.519,1.202,2.977,2.487,4.567,3.588c4.318,2.989,7.708,2.646,10.669-1.578
		c1.635-2.333,3.024-5.131,3.513-7.894c2.133-12.041,5.822-23.925,3.671-36.458c-0.464-2.706,0.355-5.883,1.394-8.534
		c2.896-7.395,3.349-14.607,0.114-22.006c-0.737-1.688-0.431-3.795-1.055-5.553c-0.908-2.559-0.484-5.729-3.83-7.322
		c-0.974-0.465-1.456-2.876-1.396-4.366c1.009-25.217,11.686-47.177,24.404-68.286c6.301-10.458,13.434-20.452,20.552-30.404
		c7.372-10.309,14.627-20.786,22.967-30.31c7.356-8.399,16.482-14.632,28.202-16.937c6.642-1.306,12.818-4.878,19.225-7.381
		c1.187-0.463,2.455-0.921,3.708-0.99c3.477-0.193,4.997-1.859,4.607-5.513c-1.573,0.258-3.068,0.504-4.565,0.75
		c-0.1-0.4-0.199-0.8-0.298-1.2c6.425-1.646,12.773-3.931,19.304-4.67c3.282-0.371,6.829,2.349,10.379,3.131
		c1.903,0.419,4.153-0.017,6.095-0.577c4-1.153,7.898-2.647,12.933-4.377c-0.994,1.893-1.281,2.437-1.441,2.742
		c3.284,0.369,6.57,0.736,9.856,1.104l-0.05-0.067c3.146,5.409,3.908,5.585,10.617,4.409c1.922-0.337,4.273-0.051,6.03,0.773
		c5.858,2.751,11.714,5.608,15.445,11.287c0.95,1.448,2.22,2.737,3.521,3.904c3.279,2.939,6.672,5.76,5.779,11.25
		c5.782-4.455,5.8-4.478,11.41-0.418c4.156,3.011,8.226,6.143,12.419,9.105c1.032,0.73,2.375,1.322,3.611,1.402
		c1.179,0.076,3.252-0.375,3.425-0.996c0.298-1.087-0.154-2.958-1.007-3.666c-3.552-2.952-7.369-5.591-11.922-8.96
		c8.58,3.425,16.065,6.428,23.584,9.348c0.252,0.097,0.838-0.646,1.066-0.834c-6.594-3.508-12.849-7.619-19.698-10.18
		c-3.896-1.457-4.335-3.969-4.684-6.688c-0.506-3.942-2.867-6.16-5.784-8.329c-3.025-2.25-5.837-4.779-9.013-7.41
		c1.427-0.653,2.271-1.039,4.05-1.853c-3.066-2.014-5.532-3.632-7.997-5.25c0.269-0.338,0.537-0.677,0.806-1.017
		c2.821,2.354,5.504,4.898,8.496,7.016c4.026,2.85,8.016,6.018,12.519,7.878c6.354,2.624,11.834,5.819,15.079,12.018
		c0.403,0.769,0.852,1.57,1.466,2.168c6.144,5.98,12.666,11.621,18.371,17.977c3.649,4.062,6.184,9.119,9.034,13.836
		c0.512,0.847-0.011,2.242,0.211,3.331c0.229,1.121,0.545,2.36,1.237,3.227c3.023,3.783,6.198,7.448,9.463,11.33
		c-5.161,2.951-9.57,6.288-7.604,12.92c-1.791,1.099-3.538,2.17-5.217,3.202c1.381,2.86,2.697,5.591,4.146,8.59
		c-1.492,0-2.769,0-4.799,0c0.114,2.188,0.058,4.14,0.354,6.037c0.412,2.632,0.37,4.216-3.045,2.633
		c-1.341-0.621-3.025-0.517-5.63-0.902c2.652,2.407,4.441,4.029,6.555,5.947c2.35-0.928,4.606-0.391,6.628,2.351
		c1.454,1.975,3.752,3.347,5.674,4.987c0.271-0.238,0.542-0.474,0.812-0.711c-0.468-0.745-0.976-1.469-1.398-2.239
		c-2.271-4.121-0.228-11.604,4.18-16.664c2.72-3.122,5.033-6.588,7.762-10.208c0.521,0.096,1.754,0.324,3.916,0.722
		c-0.816-3.549-1.498-6.501-2.178-9.454c4.19,4.7,9.667,8.267,9.782,15.649c0.086,5.546,2.458,11.078,2.393,16.6
		c-0.084,7.17-2.153,14.31-2.347,21.489c-0.467,17.296-8.871,32.574-12.158,49.125c-0.194,0.975-0.498,1.93-0.889,3.418
		c6.557,1.404,13.041,2.207,19.087,4.267c5.085,1.732,8.164,0.115,11.509-3.213c4.087-4.067,8.562-7.761,12.869-11.612
		c0.271,0.295,0.545,0.59,0.815,0.887c-5.104,4.501-10.075,9.164-15.375,13.435c-2.61,2.104-4.038,4.199-4.056,7.657
		c-0.019,3.306-0.86,6.626-1.524,9.904c-0.729,3.597-2.553,5.973-8.421,4.262c2.896,8.899,5.432,16.691,7.966,24.483
		L637.488,352.144z M522.155,332.464c-2.775,17.567,1.043,32.73,15.783,44.104c15.056,11.614,31.486,12.9,48.235,4.696
		c14.92-7.31,22.42-20.527,26.695-35.842c-12.513-0.956-24.259-1.854-36.304-2.773c-0.255,0.433-0.655,1.197-1.133,1.913
		c-2.452,3.688-5.869,5.241-10.27,4.217c-4.258-0.992-7.212-3.104-7.185-8.042c0.006-0.811-1.666-2.161-2.736-2.364
		C544.408,336.325,533.535,334.466,522.155,332.464z M385.302,302.113c-5.022,26.596,12.354,52.939,38.19,56.178
		c22.551,2.824,44.742-9.237,49.848-35.036c-10.12-1.991-20.229-4.035-30.375-5.902c-1.196-0.221-3.141,0.085-3.775,0.888
		c-3.547,4.482-8.066,5.975-13.355,4.238c-5.026-1.647-7.309-5.551-6.931-10.382C407.542,308.721,396.551,305.455,385.302,302.113z
		 M474.774,319.476c0.605-3.92,1.312-7.337,1.633-10.79c0.737-7.939,0.168-9.354-7.328-12.289
		c-8.77-3.436-17.625-6.974-26.774-9.064c-12.312-2.814-24.873-5.146-37.449-6.078c-10.843-0.804-17.379,6.156-18.579,17.077
		C414.627,308.976,444.328,314.241,474.774,319.476z M522.616,328.318c30.001,8.615,60.034,11.618,90.87,12.065
		c0-2.337,0.216-4.078-0.036-5.751c-1.133-7.484-6.128-12.192-12.898-14.218c-10.423-3.117-21.049-5.969-31.799-7.514
		c-11.353-1.633-22.946-1.839-34.449-2.105c-2.431-0.056-6.085,1.72-7.141,3.702C524.956,318.642,524.107,323.486,522.616,328.318z
		 M549.322,165.8c-0.072,0.24-0.146,0.479-0.219,0.72c-9.179-1.185-18.327-2.795-27.544-3.422
		c-7.777-0.529-14.841-2.207-20.312-7.846c-3.935-4.055-7.241-8.703-11.183-12.751c-1.574-1.616-4.102-2.331-6.193-3.456
		c-0.271,0.419-0.539,0.838-0.809,1.257c2.021,3.758,6.877,5.938,7.311,11.471c-6.911-6.231-13.188-11.889-19.432-17.519
		c-0.373,0.134-0.683,0.17-0.894,0.332c-2.729,2.095-2.528,1.531-5.615,0.488c-2.635-0.893-5.795-0.359-8.712-0.221
		c-0.296,0.014-0.873,2.347-0.71,2.428c1.724,0.866,3.539,1.585,5.393,2.147c0.812,0.248,2.007-0.31,2.616,0.097
		c3.64,2.43,7.426,4.745,10.661,7.644c6.199,5.553,11.239,12.874,18.271,16.88c8.75,4.984,14.868,12.079,21.651,18.852
		c2.838,2.833,6.485,4.874,9.767,7.275c0.222-0.261,0.442-0.522,0.664-0.784c-6.546-7.64-13.091-15.28-19.638-22.92
		c0.313-0.291,0.628-0.581,0.94-0.871c1.763,1.841,3.305,3.988,5.354,5.434c1.846,1.301,4.25,1.835,6.405,2.707
		c0.271-0.472,0.542-0.943,0.812-1.415c-1.691-2.515-3.383-5.029-5.488-8.157c2.968,0.328,5.615,0.681,8.274,0.904
		c10.052,0.844,19.574,3.532,28.665,7.811c1.57,0.74,3.824,2.251,4.779,1.712c4.501-2.542,6.282,2.075,9.543,2.63
		c-7.856,0.86-14.726,3.616-21.294,7.15c0.139,0.363,0.276,0.727,0.415,1.091c2.948-1.354,5.897-2.71,9.566-4.396
		c-0.627,1.229-0.881,1.582-0.982,1.973c-0.068,0.272,0.069,0.597,0.154,1.164c8.714-4.56,17.14-5.324,25.441,0.089
		c3.583,2.335,9.754,1.801,14.189-1.932c-2.282,0.689-3.604,1.183-4.972,1.482c-3.071,0.672-5.892,1.688-8.611-1.64
		c-2.033-2.486-5.374-3.948-8.176-5.803c-3.858-2.552-8.145-4.621-11.555-7.654c-6.123-5.442-11.631-11.554-17.622-17.148
		c-1.602-1.494-3.988-2.222-6.1-3.112c-1.549-0.655-3.241-0.977-4.855-1.49c-6.669-2.119-11.08-9.299-19.154-8.333
		c-0.305,0.037-0.713-0.473-1.021-0.78c-9.046-9.029-20.076-15.031-31.438-20.713c-4.158-2.08-6.686-0.771-9.465,1.581
		c-1.005,0.851-1.664,2.101-2.396,3.056c15.886,8.277,31.762,16.549,48.448,25.244c2.835-1.296,6.405,0.227,9.732,2.796
		c4.763,3.679,9.286,7.706,14.304,11.001C541.616,163.031,545.623,164.188,549.322,165.8z M413.753,146.118
		c5.829-3.191,10.703-5.86,15.576-8.529c-0.22-0.354-0.44-0.709-0.661-1.063c1.828-0.157,3.655-0.314,6.542-0.562
		c-2.238-1.886-3.474-2.927-5.057-4.26c6.001-0.928,11.358-1.756,16.718-2.584c-0.054-0.477-0.108-0.953-0.163-1.43
		c-5.005,0.516-10.045,0.824-15.006,1.61c-4.445,0.705-9.091,1.094-12.311,5.074c-1.293,1.599-3.11,2.92-4.937,3.941
		c-7.158,4.008-14.831,7.173-20.447,13.51c-3.573,4.032-6.963,8.499-11.331,11.504c-7.186,4.945-11.645,11.292-13.98,19.418
		c-0.681,2.369-1.729,4.636-2.608,6.95c1.376-0.635,1.775-1.672,2.364-2.593c3.348-5.228,5.798-11.473,10.309-15.426
		c10.228-8.964,21.478-16.794,33.074-25.669c-0.586,1.651-0.801,2.256-1.109,3.123c2.5-0.949,4.737-1.799,6.976-2.65
		c-0.062-0.231-0.122-0.463-0.183-0.693C416.581,145.871,415.642,145.952,413.753,146.118z M451.464,260.508
		c-8.278-0.822-15.66-4.635-24.273-4.643c-19.618-0.021-20.395-0.449-24.913,2.704c21.598,5.134,42.857,10.187,64.803,15.404
		c-5.252-5.816-10.162-11.254-15.817-17.517C451.374,258.666,451.423,259.677,451.464,260.508z M462.061,146.623
		c-2.378,1.136-4.282,2.883-5.903,2.656c-4.027-0.564-7.97-1.899-11.836-3.237c-0.827-0.287-1.181-1.901-1.752-2.904
		c1.013-0.023,2.082-0.265,3.028-0.03c3.015,0.747,5.982,1.672,8.97,2.528c0.231-0.697,0.464-1.395,0.695-2.093
		c-3.941,0.275-7.23-0.791-9.814-3.415c-0.347-0.351-1.298-0.642-1.604-0.435c-3.735,2.535-7.403,5.167-11.09,7.775
		c0.37,0.68,0.74,1.358,1.11,2.037c2.541-0.8,5.08-1.599,6.554-2.063c5.042,1.261,9.462,2.144,13.714,3.527
		c2.051,0.667,4.098,1.986,5.589,3.532c2.098,2.171,3.253,5.362,5.576,7.154c3.924,3.029,8.383,5.419,12.735,7.872
		c6.777,3.816,13.691,7.397,20.47,11.213c2.32,1.306,4.404,3.02,6.596,4.547c0.225-0.314,0.447-0.629,0.671-0.944
		c-9.152-11.368-22.842-16.786-35.08-24.836c1.97-0.341,3.289-0.57,5.817-1.008C469.104,156.268,461.604,155.774,462.061,146.623z
		 M373.125,163.758c0.417,0.596,0.833,1.191,1.25,1.787c8.113-3.535,12.252-11.958,19.232-16.858
		c7.285-5.113,14.812-9.89,23.271-15.502C395.6,135.835,384.593,150.104,373.125,163.758z M596.414,303.925
		c-4.826-0.866-9.548-1.748-14.289-2.521c-0.62-0.102-1.562,0.169-1.971,0.609c-2.694,2.922-5.283,5.938-8.096,9.136
		c4.328,0.76,8.242,1.534,12.188,2.085c1.196,0.167,2.896,0.149,3.651-0.541C590.776,310.062,593.364,307.121,596.414,303.925z
		 M576.443,173.079c-1.806-5.132-9.858-9.299-0.82-13.849c-1.974-1.873-5.354-2.691-9.423-1.787
		c-1.015,0.226-1.491,2.266-2.53,3.081c-0.824,0.646-2.179,1.047-3.211,0.912c-1.17-0.153-2.242-1.024-3.604-1.707
		c-0.739,1.714-1.269,2.94-1.81,4.195c3.603,1.736,6.855,3.446,10.229,4.892C568.696,170.283,572.237,171.488,576.443,173.079z
		 M435.062,283.204c4.215,1.083,7.991,2.108,11.803,2.989c0.752,0.175,1.875,0.072,2.419-0.379c2.995-2.478,5.863-5.104,9.854-8.634
		c-5.123-0.781-9.527-2.661-13.125-1.675C442.112,276.575,438.963,280.314,435.062,283.204z M620.274,312.09
		c-0.856,0.691-2.405,1.943-3.954,3.195c1.481,1.214,2.787,2.992,4.488,3.516c2.895,0.892,6.038,1.299,9.073,1.274
		c1.228-0.01,2.441-1.689,3.661-2.608c-1.041-1.329-1.833-3.382-3.176-3.83C627.642,312.727,624.619,312.688,620.274,312.09z
		 M391.268,272.741c1.008-0.755,3.015-1.573,3.034-2.435c0.029-1.341-0.969-3.457-2.098-3.93c-3.352-1.405-6.934-2.453-10.526-3.02
		c-1.175-0.185-3.345,1.287-3.781,2.462c-0.336,0.907,1.03,3.257,2.156,3.706C383.42,270.864,387.043,271.585,391.268,272.741z
		 M585.036,296.619c-5.437-7.424-18.393-9.546-26.211-4.373C567.674,293.723,576.127,295.133,585.036,296.619z M460.562,178.812
		c-0.715-0.8-1.428-1.599-2.143-2.4c-10.22,3.85-21.725,4.728-30.266,13.136c9.806-3.293,19.348-6.503,28.896-9.697
		C458.206,179.465,459.39,179.157,460.562,178.812z M464.197,120.541c-0.288-0.757-0.576-1.515-0.863-2.273
		c-1.852-0.545-3.706-1.083-5.557-1.637c-1.64-0.489-3.247-1.134-4.918-1.453c-1.42-0.27-2.909-0.171-4.368-0.235
		c0.358,1.367,0.405,3.713,1.129,3.937c3.811,1.181,7.778,1.917,11.729,2.587C462.218,121.615,463.243,120.873,464.197,120.541z
		 M297.111,406.551c0.121,0.762,0.242,1.522,0.363,2.284c3.755,0.304,7.508,0.759,11.267,0.799c0.874,0.008,2.601-1.576,2.482-2.11
		c-0.303-1.354-1.602-3.679-2.202-3.594C305.007,404.509,301.072,405.615,297.111,406.551z M540.394,190.61
		c0.356-0.372,0.714-0.744,1.068-1.116c-1.063-1.109-2.093-2.257-3.204-3.32c-3.561-3.405-7.254-6.682-10.692-10.201
		c-2.271-2.323-2.112-2.472-5.827-0.924C528.104,180.358,534.248,185.485,540.394,190.61z M504.174,304.904
		c-2.815,3.869-5.408,7.427-8.247,11.323c1.991,0.335,3.628,0.607,4.643,0.776c2.526-3.725,4.757-7.011,7.232-10.662
		C506.277,305.739,505.14,305.289,504.174,304.904z M344.442,264.404c-7.033,3.79-11.274,11.105-9.25,14.886
		C338.303,274.282,341.373,269.343,344.442,264.404z M419.876,191.75c-3.544-3.38-11.501-0.679-15.222,5.667
		C409.954,195.443,414.959,193.58,419.876,191.75z M529.829,172.623c-0.035,0.532-0.07,1.065-0.106,1.596
		c7.255,1.186,14.512,2.372,21.766,3.558c0.092-0.619,0.185-1.237,0.275-1.856C544.452,174.821,537.141,173.722,529.829,172.623z
		 M439.876,175.215c0.15,0.502,0.3,1.004,0.451,1.506c6.592-1.152,13.184-2.305,19.776-3.457c-0.118-0.572-0.234-1.143-0.353-1.714
		C453.126,172.772,446.501,173.993,439.876,175.215z M448.377,157.484c4.755,1.317,8.758,2.427,13.531,3.749
		C457.201,155.276,454.938,154.637,448.377,157.484z M429.507,315.896c-0.146-0.587-0.292-1.174-0.438-1.76
		c-2.431-0.607-4.859-1.217-7.288-1.825c-0.373,0.491-0.745,0.982-1.118,1.474c1.362,1.543,2.467,3.735,4.18,4.395
		C425.931,318.599,427.922,316.735,429.507,315.896z M334.716,238.449c-0.609-0.254-1.219-0.507-1.829-0.761
		c-1.819,4.315-3.639,8.628-5.459,12.944c0.567,0.236,1.134,0.473,1.701,0.708C330.992,247.043,332.854,242.746,334.716,238.449z
		 M382.615,178.976c6.104-1.152,8.253-3.312,8.402-9.07C387.971,173.194,385.406,175.962,382.615,178.976z M431.845,162.341
		c0.006,0.252,0.013,0.504,0.019,0.757c6.021,0,12.042,0,18.062,0c-0.007-0.253-0.014-0.505-0.021-0.757
		C443.885,162.341,437.865,162.341,431.845,162.341z M588.521,193.158c4.428-1.396,7.916-2.495,11.406-3.594
		C594.646,188.214,590.139,189.572,588.521,193.158z M486.849,118.304c0.378-0.811,0.757-1.622,1.135-2.433
		c-1.57-2.337-4.742,0.034-6.949-0.436c-0.111,0.345-0.225,0.69-0.336,1.035C482.748,117.082,484.799,117.692,486.849,118.304z
		 M422.548,169.244c-0.145,0.687-0.29,1.373-0.435,2.06c2.321,0.351,4.643,0.701,6.965,1.052c0.101-0.529,0.2-1.057,0.301-1.585
		C427.102,170.262,424.825,169.753,422.548,169.244z"/>
	<path d="M396.363,413.534c-1.926,0.674-3.295,1.153-5.381,1.886c0.348-2.854,0.732-5.351,0.928-7.86
		c0.124-1.581,0.354-3.313-0.144-4.751c-1.383-4.004-1.268-7.492-0.41-11.901c1.034-5.313-1.965-11.39-3.488-18.373
		c-6.267,3.603-11.28,6.485-16.523,9.5c2.667-4.666,6.221-8.562,11.085-10.844c11.238-5.274,22.58-5.032,33.648,0.633
		c1.078,0.553,2.307,2.484,2.074,3.446c-0.303,1.241-1.912,2.275-3.125,3.183c-4.063,3.036-8.226,5.942-12.267,9.007
		c-0.33,0.251-0.177,1.347-0.001,1.983c2.25,8.153,9.42,13.906,18.107,14.2c13.58,0.456,27.188,0.335,40.745,1.129
		c22.661,1.326,44.3,7.265,64.92,16.364c7.782,3.437,13.551,2.142,19.063-3.456c0.68-0.688,1.547-1.532,1.646-2.382
		c0.431-3.671-5.152-10.583-9.61-11.438c7.476-5.345,15.072-3.501,22.347-1.656c8.33,2.11,15.616,6.013,18.985,16.014
		c-4.053-3.058-7.222-5.446-10.886-8.211c-2.588,3.457-5.197,6.568-7.391,9.941c-7.486,11.514-14.803,23.137-22.229,34.688
		c-6.866,10.679-13.792,21.316-20.691,31.975c-2.261,3.489-5.44,4.256-9.24,2.94c-7.94-2.745-15.952-5.318-23.773-8.366
		c-12.861-5.01-26.077-6.755-39.897-6.533c-10.255,0.164-20.568-1.207-30.797-2.392c-5.696-0.66-9.094-4.611-10.458-10.021
		c-1.067-4.233-2.09-8.506-2.685-12.821C399.29,437.614,397.9,425.778,396.363,413.534z M492.337,432.096
		c0.014-7.638-0.358-8.093-7.896-9.386c-1.601-0.272-3.212-0.51-4.783-0.894c-2.513-0.614-4.484-0.026-5.332,2.491
		c-1.76,5.229-3.451,10.482-5.001,15.774c-0.731,2.496,0.982,3.312,3.145,3.669c4.515,0.741,9.04,1.443,13.514,2.38
		c2.666,0.561,3.905-0.461,4.348-2.885C491.008,439.531,491.669,435.812,492.337,432.096z M468.619,427.705
		c-1.146-2.958,0.844-6.928-3.779-8.112c-11.876-3.04-13.886-1.946-17.203,9.639c-0.638,2.226-1.397,4.524-1.375,6.783
		c0.014,1.234,1.347,3.274,2.435,3.536c4.7,1.132,9.511,1.936,14.327,2.4c1.142,0.109,3.272-1.342,3.553-2.425
		C467.587,435.616,468.002,431.557,468.619,427.705z M509.931,433.895c0.31-4.171-1.475-6.021-5.586-6.975
		c-3.409-0.789-5.366-0.09-6.622,2.939c-0.997,2.407-2.128,4.789-2.833,7.282c-2.963,10.491-2.896,10.447,7.901,12.302
		c2.352,0.403,3.728-0.101,4.245-2.407C508.018,442.66,508.967,438.275,509.931,433.895z M444.679,426.298
		c0.011-8.81-0.221-9.179-8.436-8.778c-1.454,0.07-3.541,1.473-4.099,2.772c-1.534,3.59-2.483,7.432-3.527,11.211
		c-0.619,2.239-0.042,3.662,2.621,4.499C443.172,439.75,444.665,438.749,444.679,426.298z M467.44,445.406
		c-5.662-0.928-10.257-1.68-15.727-2.573c-0.462,4.13-1.24,7.94-1.237,11.749c0.004,6.724,0.838,7.219,7.463,7.806
		c2.668,0.236,4.291-0.508,5.077-2.938C464.479,454.932,465.874,450.393,467.44,445.406z M486.068,448.698
		c-2.809-0.544-4.372-0.867-5.945-1.149c-11.004-1.962-12.247-0.812-12.007,10.547c0.077,3.661,1.239,5.77,5.268,6.661
		c3.332,0.739,5.465,0.222,6.829-2.72C482.141,457.884,483.902,453.656,486.068,448.698z M502.493,451.927
		c-5.479-1.131-9.707-2.004-14.954-3.088c-0.201,4.585-0.77,8.455-0.367,12.227c0.194,1.826,1.966,4.588,3.463,4.903
		c1.814,0.383,4.934-0.799,5.999-2.317C498.967,460.329,500.36,456.366,502.493,451.927z M415.44,415.038
		c-0.9,8.168,0.295,14.836,6.396,19.938c5.224-2.888,6.909-8.121,4.834-15.127C424.849,413.702,419.252,417.258,415.44,415.038z
		 M526.546,433.649c-3.069-0.732-6.326-2.494-9.146-1.972c-5.345,0.992-8.319,14.398-4.58,18.724
		C519.043,447.668,524.254,441.464,526.546,433.649z M449.785,441.845c-5.247-0.36-9.365-0.646-13.483-0.931
		c0.269,4.239,0.529,8.479,0.816,12.72c0.019,0.271,0.206,0.547,0.363,0.789c2.31,3.549,6.681,3.691,8.477-0.135
		C447.638,450.711,448.347,446.69,449.785,441.845z M424.436,436.666c-2.219,5.584-1.372,10.873,0.583,15.93
		c0.569,1.474,2.84,2.307,4.33,3.434c1.339-1.747,3.576-3.378,3.825-5.267c0.484-3.657-0.147-7.462-0.32-11.259
		C430.252,438.627,427.627,437.743,424.436,436.666z M416.327,375.159c-7.435-2.881-14.661-4.214-22.759-3.159
		c2.421,4.309,4.45,7.919,6.724,11.968C405.803,380.94,411.065,378.051,416.327,375.159z M513.501,454.781
		c-3.771-2.853-7.502-3.96-9.313-0.807c-2.007,3.488-2.307,7.994-2.992,12.114c-0.197,1.183,0.84,2.564,1.311,3.855
		c1.273-0.571,3.132-0.798,3.718-1.771C508.862,463.796,511.14,459.207,513.501,454.781z M420.784,448.483
		c0.933-6.941,0.575-13.171-6.363-17.251c-2.673,4.814-3.913,9.779-0.812,14.792C415.16,448.53,417.781,449.518,420.784,448.483z
		 M537.31,435.659c-1.857-0.085-3.706-0.248-5.55-0.224c-0.908,0.015-2.29,0.079-2.642,0.629c-2.791,4.357-5.388,8.838-8.069,13.324
		C527.095,451.297,527.93,449.449,537.31,435.659z M524.312,453.735c-2.715-0.867-4.801-1.534-6.931-2.217
		c-3.566,5.143-3.864,8.378-0.687,12.648C519.305,460.595,521.815,457.158,524.312,453.735z M406.031,411.244
		c2.457,5.262,0.021,11.743,6.881,14.78c-0.188-2.579-0.8-4.806-0.405-6.841C413.405,414.549,410.89,412.688,406.031,411.244z
		 M552.971,411.995c2.564-1.698,4.756-3.149,6.948-4.599c-0.087-0.378-0.174-0.753-0.26-1.129c-3.431-0.485-6.861-0.973-11.565-1.64
		C550.181,407.782,551.486,409.753,552.971,411.995z M430.249,459.625c6.387,0.604,11.824,1.118,17.26,1.631
		c-0.159-1.514-1.155-2.562-1.303-2.457c-4.918,3.528-8.076,0.041-11.296-2.94C433.479,457.015,432.254,458.003,430.249,459.625z
		 M502.082,417.46c-0.159,0.483-0.317,0.966-0.477,1.449c3.366,1.211,6.732,2.421,10.1,3.632c0.162-0.41,0.323-0.818,0.484-1.229
		C509.565,418.246,506.092,417.21,502.082,417.46z M500.791,479.31c0.146-0.646,0.292-1.295,0.438-1.94
		c-2.918-0.622-5.835-1.243-8.752-1.866c-0.144,0.642-0.287,1.283-0.431,1.924C494.961,478.055,497.876,478.682,500.791,479.31z"/>
	<path d="M679.44,505.867c-0.646-0.768-1.562-1.436-1.895-2.316c-3.58-9.489-7.25-18.949-10.512-28.545
		c-1.996-5.873-3.347-11.961-4.949-17.961c-2.396-8.969-4.536-18.011-7.187-26.906c-7.731-25.951-15.694-51.835-23.47-77.772
		c-0.806-2.689-0.955-5.568-1.062-8.343c16.787,53.729,33.574,107.462,50.362,161.19C680.3,505.433,679.869,505.649,679.44,505.867z
		"/>
	<path d="M501.054,546.444c5.972,0.884,10.16-3.237,14.244-6.015c20.776-14.126,38.24-31.323,49.207-54.275
		c2.486-5.202,6.311-9.793,9.604-14.61c6.345-9.282,12.355-18.725,15.394-29.677c0.417,0.147,0.834,0.298,1.252,0.446
		c-1.885,4.839-3.251,9.959-5.761,14.459c-5.396,9.67-11.78,18.811-17.036,28.549c-7.752,14.366-16.822,27.857-28.464,39.265
		c-8.103,7.939-17.626,14.527-26.883,21.225c-2.523,1.825-6.378,1.864-9.621,2.726l0.15,0.084
		C502.444,547.895,501.749,547.169,501.054,546.444z"/>
	<path d="M526.933,391.071c-2.404,1.827-4.518,3.381-6.573,5.004c-2.682,2.116-5.861,2.982-8.481,0.831
		c-1.227-1.006-0.864-3.896-1.394-6.9c-2.261-0.728-5.574-1.794-9.09-2.924c1.94-3.604,6.013-4.918,10.179-4.883
		C518.087,382.254,523.48,384.958,526.933,391.071z"/>
	<path d="M361.412,422.707c1.114,1.321,2.229,2.644,3.343,3.965c0.491-0.196,0.982-0.393,1.474-0.589
		c1.173-8.804-5.9-16.273-4.158-25.352c3.938,11.812,7.875,23.626,11.362,34.089c-0.958,1.996-2.035,3.276-1.736,3.809
		c0.759,1.353,2.132,2.368,3.45,3.714c1.44,5.251,3.075,11.213,4.709,17.176c-0.207,0.038-0.414,0.076-0.621,0.114
		c-6.274-12.148-12.547-24.297-18.821-36.445C360.747,423.026,361.079,422.867,361.412,422.707z"/>
	<path d="M532.556,548.393c1.702-3.137,3.416-6.269,5.104-9.412c1.035-1.929,2.355-3.781,2.977-5.837
		c1.64-5.439,4.269-9.471,10.209-11.54c5.44-1.893,10.189-1.724,15.267,0.69c2.724,1.295,5.795,1.879,8.71,2.782
		c-0.145,0.438-0.286,0.875-0.43,1.312c-1.869-0.542-3.739-1.084-5.994-1.736c0,1.679,0,2.952,0,4.646
		c-0.813-0.476-1.664-0.728-1.678-1.016c-0.257-5.911-5.104-5.912-8.971-6.197c-3.945-0.29-6.94,2.206-8.694,5.715
		c-2.607,5.22-5.154,10.477-7.534,15.8c-0.902,2.02-1.56,3.539-4.368,3.204c-1.13-0.135-2.454,1.311-3.691,2.036
		C533.158,548.689,532.856,548.541,532.556,548.393z"/>
	<path d="M388.479,485.757c0.437,1.278,0.874,2.559,1.314,3.846c2.25-0.598,2.25-0.598,4.99,4.779
		c1.264,0.853,2.831,1.468,3.733,2.6c2.729,3.412,5.499,6.859,7.656,10.627c1.234,2.154,1.167,5.001,1.951,7.454
		c0.646,2.021,1.604,3.962,2.566,5.867c0.842,1.671,1.882,3.244,2.513,5.117c-4.9-3.552-9.796-6.875-11.366-13.497
		c-1.246-5.256-3.51-10.278-5.322-15.403c-0.625,0.177-1.25,0.354-1.876,0.529c0.741,3.749,1.481,7.499,2.222,11.248
		c-0.204,0.041-0.408,0.082-0.613,0.122c-3.176-7.53-6.352-15.06-9.528-22.59C387.306,486.224,387.893,485.989,388.479,485.757z"/>
	<path d="M637.425,352.231c7.108,22.353,14.14,44.729,21.349,67.052c6.667,20.649,13.535,41.235,20.295,61.856
		c2.617,7.984,5.177,15.988,7.764,23.982c-0.326,0.155-0.652,0.31-0.979,0.464c-0.48-1.011-1.08-1.982-1.427-3.036
		c-6.435-19.519-12.975-39.003-19.216-58.581c-9.11-28.576-18.021-57.213-26.941-85.848c-0.588-1.885-0.552-3.96-0.794-5.963
		C637.488,352.144,637.425,352.231,637.425,352.231z"/>
	<path d="M314.151,291.409c-5.397-1.252-9.031,1.284-10.633,7.704c-1.775,7.108-3.1,14.328-4.422,20.56
		c-0.18-0.419-0.862-2.017-1.543-3.615c-0.329-0.007-0.657-0.016-0.986-0.022c-0.591,2.81-1.183,5.62-1.672,7.942
		c-1.216-11.12,2.216-21.854,6.884-32.222c0.956-2.122,3.58-4.292,5.847-4.873C310.832,286.061,311.895,287.29,314.151,291.409z"/>
	<path d="M513.433,114.811c5.092,0.991,10.183,1.982,15.273,2.974c-0.041,0.489-0.08,0.978-0.121,1.465
		c-1.15,0.258-2.301,0.516-3.704,0.831c0.42,0.6,0.604,1.159,0.87,1.2c8.854,1.379,13.009,8.907,18.938,14.094
		c0.392,0.343,0.511,1.731,0.264,1.891c-0.607,0.392-1.722,0.717-2.241,0.415c-1.616-0.942-3.107-2.119-4.544-3.328
		c-3.889-3.274-7.783-6.548-11.551-9.955c-1.65-1.492-2.897-3.417-4.53-4.933c-0.882-0.821-2.139-1.347-3.317-1.74
		c-1.853-0.62-3.781-1.016-5.679-1.507C513.203,115.748,513.317,115.279,513.433,114.811z"/>
	<path d="M664.191,401.032c12.174,28.808,24.348,57.612,36.521,86.421c-0.37,0.146-0.74,0.296-1.11,0.445
		c-12.197-28.799-24.396-57.597-36.594-86.395C663.403,401.348,663.798,401.189,664.191,401.032z"/>
	<path d="M269.856,394.203c-4.65-6.624-9.713-17.362-12.448-29.228c4.013,11.043,10.875,20.153,19.361,28.146
		C274.739,393.438,272.75,393.75,269.856,394.203z"/>
	<path d="M451.401,484.878c6.25-7.42,20.942-6.647,24.564,1.575c-4.25-1.182-8.176-2.939-12.205-3.205
		C459.806,482.987,455.748,484.241,451.401,484.878z"/>
	<path d="M643.556,205.203c-8.096-8.852-17.555-14.438-29.604-15.535C620.618,185.538,641.84,196.57,643.556,205.203z"/>
	<path fill="#FFFFFF" d="M501.054,546.444c0.695,0.725,1.392,1.449,2.086,2.175c-0.277,1.988-0.188,4.13-0.956,5.914
		c-0.573,1.336-2.251,2.211-3.437,3.289c-0.872-0.979-2.292-1.853-2.509-2.956c-0.568-2.889-1.526-6.122,2.115-8.042
		C499.262,546.692,500.158,546.567,501.054,546.444z"/>
	<path d="M655.879,529.809c-3.666-14.316-7.332-28.635-10.999-42.951c0.362-0.09,0.724-0.178,1.085-0.267
		c3.749,14.312,7.498,28.62,11.246,42.932C656.768,529.618,656.323,529.714,655.879,529.809z"/>
	<path d="M700.428,256.066c7.441-6.985,14.884-13.971,22.325-20.957c-0.014-0.019-0.027-0.039-0.042-0.059
		c-7.532,6.909-15.064,13.819-22.597,20.728C700.219,255.875,700.323,255.971,700.428,256.066z"/>
	<path d="M490.129,114.08c1.754-0.129,3.507-0.335,5.264-0.362c1.57-0.024,3.146,0.149,4.784,0.24
		c-1.759,4.974-3.163,3.271-10.081,0.072C490.08,114.013,490.129,114.08,490.129,114.08z"/>
	<path d="M299.833,332.012c1.49,4.443,2.98,8.887,4.47,13.33c-0.372,0.113-0.745,0.227-1.117,0.34
		c-1.413-4.442-2.826-8.886-4.239-13.329C299.242,332.238,299.537,332.125,299.833,332.012z"/>
	<path fill="#FFFFFF" d="M488.387,555.75c-0.892,2.884-3.762,3.146-5.683,1.539c-1.042-0.872-0.921-5.326,0.05-5.9
		c3.135-1.849,6.881-2.738,10.469-3.724c0.416-0.115,1.706,1.406,1.906,2.317c0.306,1.381,0.352,3.008-0.117,4.314
		c-0.531,1.488-1.747,2.741-2.666,4.097C491.069,557.542,489.792,556.689,488.387,555.75z"/>
	<path fill="#FFFFFF" d="M459.062,528.22c-1.663,1.396-3.166,2.657-4.639,3.894c-1.562-1.144-2.996-2.189-4.688-3.429
		c0.977-0.761,2.043-1.891,3.354-2.523c1.144-0.551,2.563-0.541,4.218-0.844C457.766,526.073,458.407,527.137,459.062,528.22z"/>
	<path fill="#FFFFFF" d="M522.155,332.464c11.38,2.002,22.253,3.861,33.089,5.908c1.071,0.203,2.742,1.555,2.737,2.364
		c-0.028,4.938,2.926,7.05,7.184,8.042c4.399,1.024,7.816-0.528,10.271-4.217c0.477-0.716,0.878-1.48,1.132-1.913
		c12.045,0.921,23.791,1.817,36.304,2.773c-4.275,15.313-11.775,28.532-26.695,35.842c-16.749,8.204-33.181,6.918-48.235-4.696
		C523.198,365.194,519.38,350.031,522.155,332.464z"/>
	<path fill="#FFFFFF" d="M385.302,302.113c11.249,3.342,22.24,6.606,33.603,9.982c-0.378,4.831,1.904,8.733,6.931,10.382
		c5.289,1.735,9.809,0.244,13.355-4.238c0.635-0.803,2.579-1.107,3.775-0.888c10.145,1.867,20.255,3.911,30.375,5.902
		c-5.105,25.799-27.297,37.86-49.848,35.036C397.655,355.054,380.279,328.709,385.302,302.113z"/>
	<path fill="#FFFFFF" d="M474.774,319.476c-30.446-5.233-60.146-10.5-88.498-21.146c1.198-10.921,7.734-17.881,18.579-17.077
		c12.576,0.933,25.138,3.265,37.449,6.078c9.148,2.092,18.005,5.63,26.774,9.063c7.496,2.937,8.065,4.351,7.328,12.29
		C476.086,312.139,475.38,315.556,474.774,319.476z"/>
	<path fill="#FFFFFF" d="M522.616,328.318c1.491-4.832,2.34-9.678,4.547-13.819c1.056-1.982,4.71-3.758,7.141-3.702
		c11.503,0.269,23.098,0.475,34.449,2.105c10.75,1.545,21.376,4.396,31.799,7.514c6.771,2.024,11.767,6.732,12.898,14.218
		c0.252,1.673,0.036,3.414,0.036,5.751C582.65,339.938,552.617,336.935,522.616,328.318z M552.062,328.033
		c11.154,2.035,22.032,6.171,33.719,4.243C574.542,330.862,563.302,329.447,552.062,328.033z"/>
	<path fill="#FFFFFF" d="M549.322,165.8c-3.699-1.613-7.706-2.769-11.024-4.948c-5.018-3.295-9.541-7.322-14.304-11.001
		c-3.327-2.57-6.897-4.093-9.732-2.796c-16.687-8.694-32.562-16.967-48.447-25.244c0.73-0.956,1.39-2.205,2.396-3.056
		c2.78-2.353,5.308-3.661,9.465-1.581c11.36,5.683,22.393,11.684,31.438,20.713c0.307,0.307,0.715,0.816,1.02,0.78
		c8.074-0.966,12.485,6.214,19.154,8.333c1.615,0.514,3.308,0.835,4.855,1.49c2.11,0.89,4.498,1.618,6.1,3.112
		c5.992,5.594,11.499,11.706,17.622,17.148c3.411,3.033,7.695,5.102,11.555,7.654c2.802,1.854,6.144,3.317,8.176,5.803
		c2.722,3.329,5.54,2.312,8.611,1.64c1.366-0.299,2.689-0.793,4.972-1.482c-4.437,3.733-10.606,4.267-14.189,1.932
		c-8.303-5.413-16.729-4.649-25.441-0.089c-0.085-0.566-0.224-0.891-0.154-1.164c0.103-0.391,0.355-0.744,0.982-1.973
		c-3.669,1.686-6.618,3.042-9.566,4.396c-0.139-0.364-0.276-0.729-0.414-1.091c6.567-3.534,13.437-6.29,21.294-7.15
		c-3.262-0.555-5.042-5.172-9.543-2.63c-0.955,0.539-3.209-0.972-4.78-1.712c-9.09-4.279-18.613-6.966-28.665-7.811
		c-2.659-0.223-5.308-0.576-8.274-0.904c2.105,3.127,3.797,5.642,5.488,8.157c-0.271,0.472-0.541,0.943-0.812,1.415
		c-2.155-0.872-4.561-1.406-6.405-2.707c-2.05-1.445-3.593-3.592-5.354-5.434c-0.312,0.291-0.627,0.581-0.94,0.871
		c6.547,7.64,13.092,15.28,19.638,22.92c-0.221,0.261-0.442,0.522-0.664,0.784c-3.28-2.401-6.929-4.443-9.766-7.275
		c-6.784-6.773-12.902-13.868-21.652-18.852c-7.032-4.007-12.072-11.328-18.271-16.88c-3.234-2.898-7.021-5.213-10.661-7.644
		c-0.608-0.407-1.804,0.151-2.616-0.097c-1.854-0.562-3.669-1.281-5.393-2.147c-0.161-0.081,0.414-2.414,0.711-2.428
		c2.916-0.139,6.076-0.672,8.712,0.221c3.085,1.043,2.884,1.606,5.614-0.488c0.21-0.162,0.521-0.197,0.894-0.332
		c6.244,5.63,12.521,11.288,19.432,17.519c-0.434-5.532-5.289-7.713-7.311-11.471c0.27-0.418,0.539-0.837,0.809-1.257
		c2.093,1.125,4.619,1.84,6.193,3.456c3.94,4.048,7.248,8.696,11.183,12.751c5.473,5.639,12.535,7.317,20.313,7.846
		c9.216,0.627,18.364,2.238,27.544,3.422C549.177,166.28,549.25,166.041,549.322,165.8z"/>
	<path fill="#FFFFFF" d="M413.753,146.118c1.889-0.166,2.827-0.248,3.766-0.33c0.062,0.23,0.122,0.462,0.183,0.693
		c-2.237,0.851-4.476,1.701-6.976,2.65c0.31-0.867,0.523-1.472,1.109-3.123c-11.597,8.875-22.847,16.705-33.074,25.669
		c-4.511,3.953-6.961,10.198-10.309,15.426c-0.589,0.921-0.987,1.958-2.364,2.593c0.88-2.313,1.928-4.581,2.608-6.95
		c2.335-8.126,6.794-14.473,13.98-19.418c4.368-3.005,7.758-7.472,11.331-11.504c5.616-6.337,13.29-9.502,20.447-13.51
		c1.825-1.021,3.644-2.342,4.937-3.941c3.219-3.98,7.864-4.369,12.311-5.074c4.961-0.787,10.001-1.094,15.006-1.61
		c0.054,0.477,0.108,0.953,0.163,1.43c-5.358,0.829-10.717,1.657-16.718,2.584c1.583,1.333,2.817,2.374,5.057,4.26
		c-2.887,0.248-4.714,0.405-6.542,0.562c0.221,0.354,0.441,0.708,0.661,1.063C424.456,140.258,419.583,142.927,413.753,146.118z"/>
	<path fill="#FFFFFF" d="M451.464,260.508c-0.041-0.831-0.091-1.842-0.201-4.052c5.655,6.263,10.565,11.701,15.817,17.517
		c-21.945-5.217-43.205-10.27-64.803-15.404c4.519-3.153,5.294-2.725,24.913-2.704C435.805,255.873,443.188,259.686,451.464,260.508
		z"/>
	<path fill="#FFFFFF" d="M462.061,146.623c-0.457,9.151,7.043,9.645,14.446,11.876c-2.528,0.438-3.848,0.667-5.816,1.008
		c12.237,8.051,25.926,13.468,35.079,24.836c-0.224,0.315-0.446,0.63-0.671,0.944c-2.19-1.528-4.274-3.241-6.596-4.547
		c-6.778-3.816-13.692-7.397-20.47-11.213c-4.354-2.453-8.812-4.843-12.735-7.872c-2.323-1.792-3.479-4.983-5.576-7.154
		c-1.493-1.545-3.538-2.865-5.589-3.532c-4.252-1.383-8.672-2.266-13.714-3.527c-1.474,0.464-4.013,1.264-6.554,2.063
		c-0.37-0.678-0.74-1.357-1.11-2.037c3.687-2.607,7.354-5.24,11.09-7.775c0.306-0.207,1.257,0.084,1.604,0.435
		c2.584,2.624,5.873,3.689,9.814,3.415c-0.231,0.698-0.464,1.396-0.695,2.093c-2.986-0.856-5.955-1.781-8.97-2.528
		c-0.946-0.235-2.016,0.007-3.028,0.03c0.571,1.003,0.926,2.617,1.752,2.904c3.866,1.338,7.809,2.673,11.836,3.237
		C457.778,149.506,459.683,147.759,462.061,146.623z"/>
	<path fill="#FFFFFF" d="M373.125,163.758c11.468-13.654,22.475-27.923,43.754-30.574c-8.459,5.612-15.986,10.389-23.271,15.502
		c-6.98,4.9-11.119,13.323-19.232,16.858C373.958,164.949,373.542,164.354,373.125,163.758z"/>
	<path fill="#FFFFFF" d="M596.414,303.925c-3.05,3.196-5.638,6.14-8.516,8.77c-0.757,0.69-2.455,0.708-3.651,0.541
		c-3.945-0.551-7.859-1.325-12.188-2.085c2.812-3.198,5.4-6.213,8.096-9.135c0.408-0.441,1.351-0.711,1.971-0.611
		C586.866,302.177,591.588,303.059,596.414,303.925z"/>
	<path fill="#FFFFFF" d="M576.443,173.079c-4.206-1.591-7.747-2.796-11.17-4.263c-3.372-1.445-6.626-3.155-10.229-4.892
		c0.541-1.255,1.069-2.481,1.809-4.195c1.362,0.683,2.436,1.553,3.604,1.707c1.032,0.135,2.387-0.266,3.211-0.912
		c1.039-0.814,1.517-2.855,2.53-3.081c4.067-0.904,7.449-0.086,9.423,1.787C566.585,163.78,574.639,167.947,576.443,173.079z"/>
	<path fill="#FFFFFF" d="M435.062,283.204c3.901-2.89,7.05-6.629,10.951-7.699c3.598-0.986,8.002,0.895,13.125,1.675
		c-3.99,3.531-6.858,6.158-9.854,8.634c-0.545,0.451-1.667,0.554-2.419,0.379C443.054,285.312,439.277,284.287,435.062,283.204z"/>
	<path fill="#FFFFFF" d="M620.274,312.09c4.345,0.597,7.366,0.637,10.094,1.547c1.343,0.448,2.135,2.501,3.176,3.83
		c-1.22,0.919-2.435,2.6-3.661,2.608c-3.035,0.023-6.18-0.384-9.073-1.274c-1.701-0.522-3.007-2.302-4.488-3.516
		C617.869,314.033,619.418,312.781,620.274,312.09z"/>
	<path fill="#FFFFFF" d="M391.268,272.741c-4.224-1.155-7.847-1.876-11.216-3.216c-1.125-0.448-2.492-2.799-2.156-3.706
		c0.437-1.175,2.606-2.647,3.781-2.462c3.592,0.567,7.175,1.615,10.526,3.02c1.129,0.473,2.127,2.588,2.098,3.93
		C394.283,271.167,392.275,271.985,391.268,272.741z"/>
	<path fill="#FFFFFF" d="M585.036,296.619c-8.909-1.486-17.362-2.896-26.211-4.373C566.645,287.073,579.601,289.195,585.036,296.619
		z"/>
	<path fill="#FFFFFF" d="M460.562,178.812c-1.172,0.344-2.355,0.652-3.513,1.04c-9.547,3.194-19.089,6.403-28.896,9.697
		c8.541-8.408,20.046-9.286,30.266-13.136C459.134,177.213,459.848,178.013,460.562,178.812z"/>
	<path fill="#FFFFFF" d="M464.197,120.541c-0.954,0.333-1.979,1.074-2.849,0.926c-3.95-0.671-7.918-1.407-11.729-2.587
		c-0.724-0.224-0.771-2.569-1.129-3.937c1.459,0.064,2.949-0.035,4.368,0.235c1.672,0.318,3.279,0.963,4.918,1.453
		c1.851,0.554,3.705,1.092,5.557,1.637C463.621,119.025,463.909,119.784,464.197,120.541z"/>
	<path fill="#FFFFFF" d="M297.111,406.551c3.961-0.936,7.896-2.042,11.91-2.621c0.6-0.085,1.899,2.238,2.202,3.594
		c0.119,0.534-1.608,2.118-2.482,2.11c-3.758-0.04-7.512-0.495-11.267-0.799C297.353,408.073,297.231,407.312,297.111,406.551z"/>
	<path fill="#FFFFFF" d="M540.394,190.61c-6.146-5.125-12.291-10.252-18.655-15.561c3.715-1.547,3.558-1.398,5.827,0.924
		c3.438,3.519,7.133,6.795,10.692,10.201c1.111,1.063,2.141,2.211,3.204,3.32C541.106,189.866,540.75,190.239,540.394,190.61z"/>
	<path fill="#FFFFFF" d="M504.174,304.904c0.966,0.385,2.104,0.835,3.628,1.438c-2.477,3.651-4.706,6.938-7.232,10.662
		c-1.015-0.169-2.65-0.442-4.643-0.776C498.766,312.331,501.357,308.773,504.174,304.904z"/>
	<path fill="#FFFFFF" d="M344.442,264.404c-3.069,4.939-6.139,9.878-9.25,14.886C333.167,275.509,337.409,268.194,344.442,264.404z"
		/>
	<path fill="#FFFFFF" d="M419.876,191.75c-4.917,1.831-9.922,3.693-15.222,5.667C408.375,191.07,416.332,188.369,419.876,191.75z"/>
	<path fill="#FFFFFF" d="M529.829,172.623c7.312,1.099,14.623,2.199,21.935,3.298c-0.092,0.619-0.185,1.237-0.275,1.856
		c-7.254-1.186-14.511-2.372-21.766-3.558C529.759,173.688,529.794,173.155,529.829,172.623z"/>
	<path fill="#FFFFFF" d="M408.857,204.8c-1.151,0.151-2.303,0.303-3.453,0.454c-0.153-0.3-0.308-0.599-0.46-0.898
		c5.802-2.83,11.603-5.659,17.403-8.489c0.219,0.401,0.437,0.801,0.653,1.202c-4.756,2.61-9.513,5.222-14.274,7.836
		C408.722,204.906,408.857,204.8,408.857,204.8z"/>
	<path fill="#FFFFFF" d="M439.876,175.215c6.625-1.222,13.25-2.443,19.875-3.665c0.118,0.571,0.234,1.142,0.353,1.714
		c-6.593,1.152-13.185,2.304-19.776,3.457C440.176,176.219,440.026,175.718,439.876,175.215z"/>
	<path fill="#FFFFFF" d="M448.377,157.484c6.561-2.847,8.824-2.208,13.531,3.749C457.135,159.911,453.132,158.801,448.377,157.484z"
		/>
	<path fill="#FFFFFF" d="M429.507,315.896c-1.585,0.839-3.576,2.701-4.664,2.282c-1.712-0.657-2.817-2.852-4.18-4.395
		c0.373-0.49,0.745-0.981,1.118-1.474c2.429,0.608,4.857,1.218,7.288,1.825C429.215,314.724,429.361,315.311,429.507,315.896z"/>
	<path fill="#FFFFFF" d="M334.716,238.449c-1.862,4.297-3.725,8.595-5.587,12.891c-0.567-0.235-1.134-0.472-1.701-0.708
		c1.82-4.315,3.64-8.629,5.459-12.944C333.497,237.942,334.107,238.195,334.716,238.449z"/>
	<path fill="#FFFFFF" d="M382.615,178.976c2.792-3.014,5.356-5.782,8.402-9.07C390.868,175.665,388.719,177.824,382.615,178.976z"/>
	<path fill="#FFFFFF" d="M431.845,162.341c6.021,0,12.04,0,18.061,0c0.007,0.252,0.013,0.504,0.021,0.757
		c-6.021,0-12.042,0-18.062,0C431.857,162.845,431.851,162.593,431.845,162.341z"/>
	<path fill="#FFFFFF" d="M588.521,193.158c1.616-3.586,6.123-4.944,11.406-3.594C596.438,190.663,592.949,191.763,588.521,193.158z"
		/>
	<path fill="#FFFFFF" d="M486.849,118.304c-2.05-0.612-4.101-1.223-6.15-1.833c0.111-0.344,0.225-0.69,0.336-1.035
		c2.207,0.469,5.379-1.901,6.949,0.436C487.604,116.683,487.227,117.494,486.849,118.304z"/>
	<path fill="#FFFFFF" d="M422.548,169.244c2.277,0.509,4.554,1.018,6.831,1.527c-0.101,0.528-0.2,1.057-0.301,1.585
		c-2.322-0.352-4.644-0.702-6.965-1.052C422.258,170.617,422.403,169.931,422.548,169.244z"/>
	<path fill="#FFFFFF" d="M492.337,432.096c-0.668,3.718-1.329,7.437-2.007,11.151c-0.441,2.424-1.682,3.444-4.348,2.885
		c-4.475-0.937-8.999-1.639-13.514-2.38c-2.162-0.354-3.876-1.173-3.145-3.669c1.55-5.292,3.241-10.547,5.001-15.774
		c0.848-2.519,2.819-3.105,5.332-2.491c1.571,0.384,3.183,0.62,4.783,0.894C491.979,424.003,492.351,424.458,492.337,432.096z"/>
	<path fill="#FFFFFF" d="M468.619,427.705c-0.616,3.852-1.031,7.911-2.042,11.821c-0.28,1.083-2.411,2.534-3.553,2.425
		c-4.815-0.466-9.628-1.27-14.327-2.4c-1.088-0.262-2.421-2.302-2.435-3.536c-0.022-2.259,0.737-4.559,1.375-6.783
		c3.316-11.585,5.327-12.679,17.203-9.639C469.463,420.777,467.473,424.747,468.619,427.705z"/>
	<path fill="#FFFFFF" d="M509.931,433.895c-0.964,4.382-1.913,8.767-2.895,13.143c-0.519,2.308-1.895,2.812-4.245,2.407
		c-10.799-1.854-10.864-1.811-7.901-12.302c0.705-2.493,1.836-4.875,2.833-7.282c1.256-3.029,3.213-3.729,6.622-2.939
		C508.456,427.872,510.239,429.724,509.931,433.895z"/>
	<path fill="#FFFFFF" d="M444.679,426.298c-0.014,12.451-1.507,13.452-13.44,9.704c-2.663-0.837-3.239-2.26-2.621-4.499
		c1.044-3.779,1.993-7.621,3.527-11.211c0.558-1.301,2.646-2.702,4.099-2.772C444.458,417.119,444.689,417.488,444.679,426.298z"/>
	<path fill="#FFFFFF" d="M467.44,445.406c-1.566,4.985-2.96,9.524-4.425,14.043c-0.787,2.431-2.408,3.175-5.078,2.938
		c-6.625-0.587-7.457-1.082-7.462-7.806c-0.002-3.809,0.775-7.619,1.237-11.749C457.184,443.728,461.778,444.479,467.44,445.406z"/>
	<path fill="#FFFFFF" d="M486.068,448.698c-2.166,4.958-3.929,9.186-5.855,13.339c-1.364,2.939-3.498,3.459-6.829,2.72
		c-4.028-0.893-5.19-3-5.268-6.661c-0.24-11.357,1.003-12.509,12.007-10.547C481.696,447.831,483.261,448.154,486.068,448.698z"/>
	<path fill="#FFFFFF" d="M502.493,451.927c-2.133,4.439-3.526,8.402-5.859,11.725c-1.065,1.52-4.185,2.7-5.999,2.317
		c-1.497-0.315-3.269-3.077-3.463-4.903c-0.402-3.771,0.166-7.642,0.367-12.227C492.786,449.923,497.015,450.796,502.493,451.927z"
		/>
	<path fill="#FFFFFF" d="M415.44,415.038c3.812,2.22,9.408-1.336,11.229,4.812c2.074,7.006,0.39,12.239-4.834,15.127
		C415.736,429.874,414.54,423.206,415.44,415.038z"/>
	<path fill="#FFFFFF" d="M526.546,433.649c-2.292,7.813-7.503,14.019-13.727,16.752c-3.739-4.324-0.765-17.73,4.58-18.724
		C520.22,431.155,523.477,432.917,526.546,433.649z"/>
	<path fill="#FFFFFF" d="M449.785,441.845c-1.438,4.847-2.147,8.866-3.827,12.443c-1.796,3.826-6.167,3.684-8.477,0.135
		c-0.158-0.242-0.346-0.52-0.363-0.789c-0.287-4.24-0.548-8.479-0.816-12.72C440.42,441.198,444.539,441.483,449.785,441.845z"/>
	<path fill="#FFFFFF" d="M424.436,436.666c3.191,1.077,5.816,1.961,8.418,2.838c0.172,3.797,0.805,7.602,0.32,11.259
		c-0.25,1.889-2.486,3.52-3.825,5.267c-1.49-1.127-3.761-1.96-4.33-3.434C423.062,447.539,422.216,442.25,424.436,436.666z"/>
	<path fill="#FFFFFF" d="M416.327,375.159c-5.262,2.892-10.523,5.781-16.035,8.809c-2.274-4.049-4.303-7.659-6.724-11.968
		C401.666,370.945,408.893,372.278,416.327,375.159z"/>
	<path fill="#FFFFFF" d="M513.501,454.781c-2.361,4.426-4.639,9.015-7.278,13.393c-0.586,0.975-2.443,1.2-3.718,1.771
		c-0.471-1.291-1.508-2.674-1.311-3.855c0.687-4.12,0.985-8.626,2.991-12.114C505.999,450.821,509.73,451.93,513.501,454.781z"/>
	<path fill="#FFFFFF" d="M420.784,448.483c-3.003,1.033-5.625,0.047-7.175-2.459c-3.102-5.013-1.861-9.978,0.812-14.792
		C421.359,435.312,421.717,441.542,420.784,448.483z"/>
	<path fill="#FFFFFF" d="M537.31,435.659c-9.38,13.79-10.215,15.638-16.261,13.729c2.684-4.486,5.278-8.967,8.069-13.324
		c0.352-0.55,1.732-0.614,2.642-0.629C533.604,435.411,535.451,435.574,537.31,435.659z"/>
	<path fill="#FFFFFF" d="M524.312,453.735c-2.497,3.423-5.009,6.858-7.616,10.433c-3.179-4.271-2.881-7.507,0.687-12.648
		C519.513,452.201,521.599,452.868,524.312,453.735z"/>
	<path fill="#FFFFFF" d="M406.031,411.244c4.858,1.442,7.374,3.305,6.476,7.939c-0.395,2.035,0.218,4.262,0.405,6.841
		C406.052,422.987,408.488,416.506,406.031,411.244z"/>
	<path fill="#FFFFFF" d="M552.971,411.995c-1.483-2.242-2.79-4.213-4.877-7.366c4.704,0.667,8.137,1.153,11.565,1.64
		c0.086,0.376,0.173,0.751,0.26,1.129C557.727,408.846,555.535,410.297,552.971,411.995z"/>
	<path fill="#FFFFFF" d="M430.249,459.625c2.005-1.622,3.229-2.61,4.662-3.768c3.22,2.981,6.378,6.47,11.296,2.94
		c0.146-0.104,1.144,0.943,1.303,2.457C442.072,460.743,436.636,460.229,430.249,459.625z"/>
	<path fill="#FFFFFF" d="M502.082,417.46c4.01-0.25,7.483,0.786,10.107,3.852c-0.161,0.411-0.322,0.819-0.484,1.229
		c-3.366-1.211-6.732-2.421-10.099-3.632C501.765,418.426,501.923,417.943,502.082,417.46z"/>
	<path fill="#FFFFFF" d="M500.791,479.31c-2.915-0.628-5.83-1.255-8.745-1.884c0.145-0.641,0.287-1.282,0.431-1.924
		c2.917,0.623,5.834,1.244,8.752,1.866C501.083,478.015,500.938,478.663,500.791,479.31z"/>
	<path d="M552.062,328.033c11.238,1.414,22.479,2.829,33.719,4.243C574.096,334.204,563.218,330.068,552.062,328.033z"/>
</g>
</svg>
